<svg xmlns="http://www.w3.org/2000/svg" xmlns:xlink="http://www.w3.org/1999/xlink" xmlns:lucid="lucid" width="2316" height="1342.5"><g transform="translate(2301.0000000175405 1181.0000000108537)" lucid:page-tab-id="0_0"><path d="M-14500-2500h25000v16000h-25000z" fill="#fff"/><path d="M-920-377.5a6 6 0 0 1 6-6h362a6 6 0 0 1 6 6v256a6 6 0 0 1-6 6h-362a6 6 0 0 1-6-6z" stroke="#000" stroke-width="2" fill="#fff"/><path d="M-920-340.6h374m-374 161.17h374" stroke="#000" stroke-width="2" fill="none"/><use xlink:href="#a" transform="matrix(1,0,0,1,-912.0000000000001,-375.4999999999999) translate(128.89236111111111 21.58376736111111)"/><use xlink:href="#b" transform="matrix(1,0,0,1,-908.0000000000001,-332.6119791666666) translate(0 32.685329861111114)"/><use xlink:href="#c" transform="matrix(1,0,0,1,-908.0000000000001,-332.6119791666666) translate(20.95269097222222 32.685329861111114)"/><use xlink:href="#d" transform="matrix(1,0,0,1,-908.0000000000001,-332.6119791666666) translate(91.63411458333331 32.685329861111114)"/><use xlink:href="#b" transform="matrix(1,0,0,1,-908.0000000000001,-332.6119791666666) translate(0 64.95095486111111)"/><use xlink:href="#e" transform="matrix(1,0,0,1,-908.0000000000001,-332.6119791666666) translate(20.95269097222222 64.95095486111111)"/><use xlink:href="#f" transform="matrix(1,0,0,1,-908.0000000000001,-332.6119791666666) translate(103.76519097222223 64.95095486111111)"/><use xlink:href="#b" transform="matrix(1,0,0,1,-908.0000000000001,-332.6119791666666) translate(0 97.21657986111111)"/><use xlink:href="#g" transform="matrix(1,0,0,1,-908.0000000000001,-332.6119791666666) translate(20.95269097222222 97.21657986111111)"/><use xlink:href="#h" transform="matrix(1,0,0,1,-908.0000000000001,-332.6119791666666) translate(81.90104166666666 97.21657986111111)"/><use xlink:href="#b" transform="matrix(1,0,0,1,-908.0000000000001,-332.6119791666666) translate(0 129.48220486111111)"/><use xlink:href="#i" transform="matrix(1,0,0,1,-908.0000000000001,-332.6119791666666) translate(20.95269097222222 129.48220486111111)"/><use xlink:href="#j" transform="matrix(1,0,0,1,-908.0000000000001,-332.6119791666666) translate(60.3515625 129.48220486111111)"/><path d="M-360-394a6 6 0 0 1 6-6H8a6 6 0 0 1 6 6v289a6 6 0 0 1-6 6h-362a6 6 0 0 1-6-6z" stroke="#000" stroke-width="2" fill="#fff"/><path d="M-360-357.1H14m-374 193.44H14" stroke="#000" stroke-width="2" fill="none"/><use xlink:href="#k" transform="matrix(1,0,0,1,-352,-392) translate(151.44010416666666 21.58376736111111)"/><use xlink:href="#b" transform="matrix(1,0,0,1,-348,-349.1119791666667) translate(0 32.55251736111112)"/><use xlink:href="#l" transform="matrix(1,0,0,1,-348,-349.1119791666667) translate(20.95269097222222 32.55251736111112)"/><use xlink:href="#m" transform="matrix(1,0,0,1,-348,-349.1119791666667) translate(97.55859375 32.55251736111112)"/><use xlink:href="#b" transform="matrix(1,0,0,1,-348,-349.1119791666667) translate(0 64.81814236111111)"/><use xlink:href="#n" transform="matrix(1,0,0,1,-348,-349.1119791666667) translate(20.95269097222222 64.81814236111111)"/><use xlink:href="#m" transform="matrix(1,0,0,1,-348,-349.1119791666667) translate(174.20789930555554 64.81814236111111)"/><use xlink:href="#b" transform="matrix(1,0,0,1,-348,-349.1119791666667) translate(0 97.08376736111111)"/><use xlink:href="#o" transform="matrix(1,0,0,1,-348,-349.1119791666667) translate(20.95269097222222 97.08376736111111)"/><use xlink:href="#m" transform="matrix(1,0,0,1,-348,-349.1119791666667) translate(118.51128472222223 97.08376736111111)"/><use xlink:href="#b" transform="matrix(1,0,0,1,-348,-349.1119791666667) translate(0 129.34939236111111)"/><use xlink:href="#p" transform="matrix(1,0,0,1,-348,-349.1119791666667) translate(20.95269097222222 129.34939236111111)"/><use xlink:href="#m" transform="matrix(1,0,0,1,-348,-349.1119791666667) translate(195.17144097222223 129.34939236111111)"/><use xlink:href="#b" transform="matrix(1,0,0,1,-348,-349.1119791666667) translate(0 161.61501736111111)"/><use xlink:href="#q" transform="matrix(1,0,0,1,-348,-349.1119791666667) translate(20.95269097222222 161.61501736111111)"/><use xlink:href="#j" transform="matrix(1,0,0,1,-348,-349.1119791666667) translate(98.45920138888889 161.61501736111111)"/><path d="M-1220-697.5a6 6 0 0 1 6-6h468a6 6 0 0 1 6 6v160a6 6 0 0 1-6 6h-468a6 6 0 0 1-6-6z" stroke="#000" stroke-width="2" fill="#fff"/><path d="M-1220-660.6h480m-480 64.38h480" stroke="#000" stroke-width="2" fill="none"/><use xlink:href="#r" transform="matrix(1,0,0,1,-1212,-695.5) translate(204.96549479166666 21.58376736111111)"/><use xlink:href="#b" transform="matrix(1,0,0,1,-1208,-588.2239583333333) translate(0 32.583767361111114)"/><use xlink:href="#s" transform="matrix(1,0,0,1,-1208,-588.2239583333333) translate(20.95269097222222 32.583767361111114)"/><use xlink:href="#t" transform="matrix(1,0,0,1,-1208,-588.2239583333333) translate(375.30381944444457 32.583767361111114)"/><path d="M-782.04-414.88v-24.62a6 6 0 0 0-6-6H-974a6 6 0 0 1-6-6V-530" stroke="#3a414a" fill="none"/><path d="M-782.04-385.2l14.85-14.86-14.84-14.85-14.85 14.84z" stroke="#3a414a" fill="#fff"/><path d="M-979.52-530h-.96v-.5h.96z" stroke="#3a414a" stroke-width=".05" fill="#3a414a"/><use xlink:href="#u" transform="matrix(1,0,0,1,-758.5397101838508,-404.62730949981886) translate(0 16.216875)"/><use xlink:href="#v" transform="matrix(1,0,0,1,-1014.66302734375,-530.627423046875) translate(0 16.216875)"/><path d="M-680-697.5a6 6 0 0 1 6-6h362a6 6 0 0 1 6 6v184a6 6 0 0 1-6 6h-362a6 6 0 0 1-6-6z" stroke="#000" stroke-width="2" fill="#fff"/><path d="M-680-628.35h374" stroke="#000" stroke-width="2" fill="none"/><use xlink:href="#w" transform="matrix(1,0,0,1,-672,-695.5) translate(84.29600694444443 21.95095486111111)"/><use xlink:href="#x" transform="matrix(1,0,0,1,-672,-695.5) translate(139.47721354166666 54.21657986111111)"/><use xlink:href="#b" transform="matrix(1,0,0,1,-668,-620.3463541666666) translate(0 28.318142361111114)"/><use xlink:href="#y" transform="matrix(1,0,0,1,-668,-620.3463541666666) translate(20.95269097222222 28.318142361111114)"/><use xlink:href="#b" transform="matrix(1,0,0,1,-668,-620.3463541666666) translate(0 60.583767361111114)"/><use xlink:href="#z" transform="matrix(1,0,0,1,-668,-620.3463541666666) translate(20.95269097222222 60.583767361111114)"/><use xlink:href="#b" transform="matrix(1,0,0,1,-668,-620.3463541666666) translate(0 92.84939236111111)"/><use xlink:href="#A" transform="matrix(1,0,0,1,-668,-620.3463541666666) translate(20.95269097222222 92.84939236111111)"/><path d="M-674.24-414.88v-24.62a6 6 0 0 1 6-6H-499a6 6 0 0 0 6-6V-506" stroke="#3a414a" fill="none"/><path d="M-674.24-385.2l14.85-14.86-14.84-14.85-14.85 14.84z" stroke="#3a414a" fill="#3a414a"/><path d="M-492.52-506h-.95v-.5h.95z" stroke="#3a414a" stroke-width=".05" fill="#3a414a"/><use xlink:href="#u" transform="matrix(1,0,0,1,-650.7394859789088,-404.6273392787435) translate(0 16.216875)"/><use xlink:href="#B" transform="matrix(1,0,0,1,-507.8079307725694,-506.6274230468748) translate(0 16.216875)"/><path d="M-544.5-249.5h153.12" stroke="#3a414a" fill="none"/><path d="M-544.5-249.03h-.5v-.94h.5z" stroke="#3a414a" stroke-width=".05" fill="#3a414a"/><path d="M-361.7-249.5l-14.86-14.85-14.85 14.85 14.84 14.85z" stroke="#3a414a" fill="#3a414a"/><path d="M-920-5.5a6 6 0 0 1 6-6h362a6 6 0 0 1 6 6v160a6 6 0 0 1-6 6h-362a6 6 0 0 1-6-6z" stroke="#000" stroke-width="2" fill="#fff"/><path d="M-920 31.4h374m-374 64.38h374" stroke="#000" stroke-width="2" fill="none"/><use xlink:href="#C" transform="matrix(1,0,0,1,-912.0000000000001,-3.4999999999997726) translate(144.16471354166669 21.58376736111111)"/><use xlink:href="#b" transform="matrix(1,0,0,1,-908.0000000000001,39.38802083333356) translate(0 32.583767361111114)"/><use xlink:href="#c" transform="matrix(1,0,0,1,-908.0000000000001,39.38802083333356) translate(20.95269097222222 32.583767361111114)"/><use xlink:href="#D" transform="matrix(1,0,0,1,-908.0000000000001,39.38802083333356) translate(91.63411458333331 32.583767361111114)"/><path d="M-733-84.13V-13" stroke="#3a414a" fill="none"/><path d="M-733-113.8l-14.85 14.86L-733-84.1l14.85-14.84z" stroke="#3a414a" fill="#3a414a"/><path d="M-732.52-12.5h-.95v-.5h.95z" stroke="#3a414a" stroke-width=".05" fill="#3a414a"/><use xlink:href="#E" transform="matrix(1,0,0,1,-724.9991319444447,-33.23733149530308) translate(0 17.22222222222222)"/><use xlink:href="#F" transform="matrix(1,0,0,1,-709.4991319444447,-114.8142789843999) translate(0 17.22222222222222)"/><path d="M-1760-794a6 6 0 0 1 6-6h362a6 6 0 0 1 6 6v353a6 6 0 0 1-6 6h-362a6 6 0 0 1-6-6z" stroke="#000" stroke-width="2" fill="#fff"/><path d="M-1760-757.1h374m-374 257.97h374" stroke="#000" stroke-width="2" fill="none"/><use xlink:href="#G" transform="matrix(1,0,0,1,-1752,-792) translate(149.45442708333334 21.58376736111111)"/><use xlink:href="#b" transform="matrix(1,0,0,1,-1748,-749.1119791666666) translate(0 32.28689236111112)"/><use xlink:href="#c" transform="matrix(1,0,0,1,-1748,-749.1119791666666) translate(20.95269097222222 32.28689236111112)"/><use xlink:href="#d" transform="matrix(1,0,0,1,-1748,-749.1119791666666) translate(91.63411458333331 32.28689236111112)"/><use xlink:href="#b" transform="matrix(1,0,0,1,-1748,-749.1119791666666) translate(0 64.55251736111111)"/><use xlink:href="#H" transform="matrix(1,0,0,1,-1748,-749.1119791666666) translate(20.95269097222222 64.55251736111111)"/><use xlink:href="#I" transform="matrix(1,0,0,1,-1748,-749.1119791666666) translate(99.64192708333334 64.55251736111111)"/><use xlink:href="#J" transform="matrix(1,0,0,1,-1748,-749.1119791666666) translate(0 96.81814236111111)"/><use xlink:href="#K" transform="matrix(1,0,0,1,-1748,-749.1119791666666) translate(20.95269097222222 96.81814236111111)"/><use xlink:href="#L" transform="matrix(1,0,0,1,-1748,-749.1119791666666) translate(130.20833333333334 96.81814236111111)"/><use xlink:href="#M" transform="matrix(1,0,0,1,-1748,-749.1119791666666) translate(0 129.08376736111111)"/><use xlink:href="#N" transform="matrix(1,0,0,1,-1748,-749.1119791666666) translate(20.95269097222222 129.08376736111111)"/><use xlink:href="#O" transform="matrix(1,0,0,1,-1748,-749.1119791666666) translate(60.81814236111111 129.08376736111111)"/><use xlink:href="#J" transform="matrix(1,0,0,1,-1748,-749.1119791666666) translate(0 161.34939236111111)"/><use xlink:href="#P" transform="matrix(1,0,0,1,-1748,-749.1119791666666) translate(20.95269097222222 161.34939236111111)"/><use xlink:href="#O" transform="matrix(1,0,0,1,-1748,-749.1119791666666) translate(164.50737847222226 161.34939236111111)"/><use xlink:href="#J" transform="matrix(1,0,0,1,-1748,-749.1119791666666) translate(0 193.61501736111111)"/><use xlink:href="#Q" transform="matrix(1,0,0,1,-1748,-749.1119791666666) translate(20.95269097222222 193.61501736111111)"/><use xlink:href="#R" transform="matrix(1,0,0,1,-1748,-749.1119791666666) translate(184.44010416666666 193.61501736111111)"/><use xlink:href="#J" transform="matrix(1,0,0,1,-1748,-749.1119791666666) translate(0 225.88064236111111)"/><use xlink:href="#S" transform="matrix(1,0,0,1,-1748,-749.1119791666666) translate(20.95269097222222 225.88064236111111)"/><path d="M-1354.62-617.5h133.12" stroke="#3a414a" fill="none"/><path d="M-1384.3-617.5l14.86 14.85 14.85-14.85-14.84-14.85z" stroke="#3a414a" fill="#fff"/><path d="M-1221-617.02h-.5v-.96h.5z" stroke="#3a414a" stroke-width=".05" fill="#3a414a"/><path d="M-1760-1174a6 6 0 0 1 6-6h362a6 6 0 0 1 6 6v256a6 6 0 0 1-6 6h-362a6 6 0 0 1-6-6z" stroke="#000" stroke-width="2" fill="#fff"/><path d="M-1760-1104.85h374m-374 128.92h374" stroke="#000" stroke-width="2" fill="none"/><g><use xlink:href="#T" transform="matrix(1,0,0,1,-1752,-1172) translate(84.29600694444443 21.95095486111111)"/><use xlink:href="#U" transform="matrix(1,0,0,1,-1752,-1172) translate(98.982421875 54.21657986111111)"/></g><g><use xlink:href="#b" transform="matrix(1,0,0,1,-1748,-1096.8463541666667) translate(0 32.318142361111114)"/><use xlink:href="#V" transform="matrix(1,0,0,1,-1748,-1096.8463541666667) translate(20.95269097222222 32.318142361111114)"/><use xlink:href="#b" transform="matrix(1,0,0,1,-1748,-1096.8463541666667) translate(0 64.58376736111111)"/><use xlink:href="#W" transform="matrix(1,0,0,1,-1748,-1096.8463541666667) translate(20.95269097222222 64.58376736111111)"/><use xlink:href="#b" transform="matrix(1,0,0,1,-1748,-1096.8463541666667) translate(0 96.84939236111111)"/><use xlink:href="#X" transform="matrix(1,0,0,1,-1748,-1096.8463541666667) translate(20.95269097222222 96.84939236111111)"/></g><path d="M-951.38-249.5H-1567a6 6 0 0 1-6-6v-178" stroke="#3a414a" fill="none"/><path d="M-921.7-249.5l-14.86-14.85-14.85 14.85 14.84 14.85z" stroke="#3a414a" fill="#fff"/><path d="M-1572.52-433.5h-.95v-.5h.95z" stroke="#3a414a" stroke-width=".05" fill="#3a414a"/><g><use xlink:href="#u" transform="matrix(1,0,0,1,-929.1931238281253,-289.2547460937499) translate(0 16.216875)"/></g><g><use xlink:href="#Y" transform="matrix(1,0,0,1,-1608.2670225694444,-434.1274230468751) translate(0 16.216875)"/></g><path d="M-1573-910.5v79.13" stroke="#3a414a" fill="none"/><path d="M-1572.52-910.5h-.95v-.5h.95z" stroke="#3a414a" stroke-width=".05" fill="#3a414a"/><path d="M-1573-801.7l14.85-14.86-14.85-14.85-14.85 14.84z" stroke="#3a414a" fill="#3a414a"/><g><use xlink:href="#B" transform="matrix(1,0,0,1,-1587.8079307725695,-911.1274230468748) translate(0 16.216875)"/></g><g><use xlink:href="#u" transform="matrix(1,0,0,1,-1549.4991319444446,-821.1273230468752) translate(0 16.216875)"/></g><path d="M-2300-729.5a6 6 0 0 1 6-6h362a6 6 0 0 1 6 6v224a6 6 0 0 1-6 6h-362a6 6 0 0 1-6-6z" stroke="#000" stroke-width="2" fill="#fff"/><path d="M-2300-660.35h374m-374 96.66h374" stroke="#000" stroke-width="2" fill="none"/><g><use xlink:href="#T" transform="matrix(1,0,0,1,-2292,-727.5) translate(84.29600694444443 21.95095486111111)"/><use xlink:href="#Z" transform="matrix(1,0,0,1,-2292,-727.5) translate(115.30729166666666 54.21657986111111)"/></g><g><use xlink:href="#b" transform="matrix(1,0,0,1,-2288,-652.3463541666666) translate(0 32.450954861111114)"/><use xlink:href="#aa" transform="matrix(1,0,0,1,-2288,-652.3463541666666) translate(20.95269097222222 32.450954861111114)"/><use xlink:href="#b" transform="matrix(1,0,0,1,-2288,-652.3463541666666) translate(0 64.71657986111111)"/><use xlink:href="#ab" transform="matrix(1,0,0,1,-2288,-652.3463541666666) translate(20.95269097222222 64.71657986111111)"/></g><path d="M-1791.38-617.5h-133.12" stroke="#3a414a" fill="none"/><path d="M-1761.7-617.5l-14.86-14.85-14.85 14.85 14.84 14.85z" stroke="#3a414a" fill="#3a414a"/><path d="M-1924.48-617.02h-.52v-.96h.52z" stroke="#3a414a" stroke-width=".05" fill="#3a414a"/><g><use xlink:href="#u" transform="matrix(1,0,0,1,-1769.1931238281252,-657.25474609375) translate(0 16.216875)"/></g><g><use xlink:href="#B" transform="matrix(1,0,0,1,-1925.4027134140624,-613.5) translate(0 16.216875)"/></g><path d="M-1500-5.5a6 6 0 0 1 6-6h362a6 6 0 0 1 6 6v160a6 6 0 0 1-6 6h-362a6 6 0 0 1-6-6z" stroke="#000" stroke-width="2" fill="#fff"/><path d="M-1500 31.4h374m-374 64.38h374" stroke="#000" stroke-width="2" fill="none"/><g><use xlink:href="#ac" transform="matrix(1,0,0,1,-1492,-3.4999999999997726) translate(149.63346354166666 21.58376736111111)"/></g><path d="M-1313-42.88v-110.65a6 6 0 0 1 6-6h385.5" stroke="#3a414a" fill="none"/><path d="M-1313-13.2l14.85-14.86L-1313-42.9l-14.85 14.84z" stroke="#3a414a" fill="#fff"/><path d="M-921-159.05h-.5v-.95h.5z" stroke="#3a414a" stroke-width=".05" fill="#3a414a"/><g><use xlink:href="#ad" transform="matrix(1,0,0,1,-1351.5633680555559,-73.3956835197844) translate(0 17.22222222222222)"/></g><g><use xlink:href="#F" transform="matrix(1,0,0,1,-952.629712412034,-185.03694407948367) translate(0 17.22222222222222)"/></g><defs><path d="M135 0v-1490h581c339 0 533 210 533 503 0 295-197 500-540 500H440V0H135zm305-733h220c186 0 274-104 274-254s-88-251-275-251H440v505" id="ae"/><path d="M628 22C291 22 81-210 81-554c0-346 210-578 547-578 336 0 547 232 547 578 0 344-211 576-547 576zm0-236c160 0 242-146 242-341 0-197-82-341-242-341S387-753 387-555c0 195 81 341 241 341" id="af"/><path d="M128 0v-1490h300v802h17l366-430h347L740-633 1179 0H826L514-456l-86 97V0H128" id="ag"/><path d="M633 22C291 22 81-200 81-553c0-345 210-579 537-579 292 0 525 185 525 567v84H378c7 183 109 277 260 277 105 0 184-46 216-132l272 51C1071-99 893 22 633 22zM380-669h474c-15-146-94-237-233-237-143 0-229 99-241 237" id="ah"/><path d="M128 0v-1118h278l12 217c60-163 185-234 319-234 143 0 236 81 288 251 63-172 205-251 359-251 205 0 357 138 357 381V0h-301v-697c0-126-76-187-177-187-114 0-184 79-184 196V0H789v-705c0-109-72-179-174-179-106 0-187 74-187 208V0H128" id="ai"/><path d="M428-647V0H128v-1118h283l4 231c63-156 176-245 348-245 232 0 384 159 384 421V0H847v-659c0-139-76-222-202-222-128 0-217 86-217 234" id="aj"/><g id="a"><use transform="matrix(0.010850694444444444,0,0,0.010850694444444444,0,0)" xlink:href="#ae"/><use transform="matrix(0.010850694444444444,0,0,0.010850694444444444,14.214409722222221,0)" xlink:href="#af"/><use transform="matrix(0.010850694444444444,0,0,0.010850694444444444,27.842881944444443,0)" xlink:href="#ag"/><use transform="matrix(0.010850694444444444,0,0,0.010850694444444444,40.234375,0)" xlink:href="#ah"/><use transform="matrix(0.010850694444444444,0,0,0.010850694444444444,53.47222222222222,0)" xlink:href="#ai"/><use transform="matrix(0.010850694444444444,0,0,0.010850694444444444,73.75217013888889,0)" xlink:href="#af"/><use transform="matrix(0.010850694444444444,0,0,0.010850694444444444,87.38064236111111,0)" xlink:href="#aj"/></g><path d="M593-100v-404H195v-159h398v-403h169v403h398v159H762v404H593" id="ak"/><use transform="matrix(0.010850694444444444,0,0,0.010850694444444444,0,0)" xlink:href="#ak" id="b"/><path d="M338-670V0H158v-1118h173l1 207c72-158 192-221 342-221 226 0 378 139 378 422V0H872v-695c0-172-96-275-252-275-161 0-282 109-282 300" id="al"/><path d="M471 26C259 26 90-98 90-318c0-256 228-303 435-329 202-27 287-16 287-108 0-139-79-219-234-219-161 0-248 86-283 164l-173-57c86-203 278-265 451-265 150 0 419 46 419 395V0H815v-152h-12C765-73 660 26 471 26zm31-159c199 0 310-134 310-271v-155c-30 35-226 55-295 64-131 17-246 59-246 186 0 116 97 176 231 176" id="am"/><path d="M158 0v-1118h175l1 205c55-151 181-225 313-225 147 0 245 90 285 228 53-141 190-228 352-228 194 0 352 125 352 384V0h-181v-749c0-161-105-225-225-225-151 0-243 103-243 244V0H807v-767c0-124-93-207-219-207-131 0-250 92-250 270V0H158" id="an"/><path d="M628 24c-324 0-524-230-524-574 0-343 198-582 503-582 237 0 487 146 487 559v75H286c9 234 145 362 343 362 132 0 231-58 273-172l174 48C1024-91 857 24 628 24zM287-650h624c-17-190-120-322-304-322-192 0-309 151-320 322" id="ao"/><path d="M295 13c-75 0-135-60-135-135s60-135 135-135 135 60 135 135S370 13 295 13zm0-809c-75 0-135-60-135-135s60-135 135-135 135 60 135 135-60 135-135 135" id="ap"/><g id="c"><use transform="matrix(0.010850694444444444,0,0,0.010850694444444444,0,0)" xlink:href="#al"/><use transform="matrix(0.010850694444444444,0,0,0.010850694444444444,13.129340277777777,0)" xlink:href="#am"/><use transform="matrix(0.010850694444444444,0,0,0.010850694444444444,25.60763888888889,0)" xlink:href="#an"/><use transform="matrix(0.010850694444444444,0,0,0.010850694444444444,45.07378472222221,0)" xlink:href="#ao"/><use transform="matrix(0.010850694444444444,0,0,0.010850694444444444,58.02951388888888,0)" xlink:href="#ap"/></g><path d="M538 24C308 24 148-78 108-271l171-41c32 123 123 178 257 178 156 0 256-77 256-169 0-77-54-128-164-154l-186-44c-203-48-300-148-300-305 0-192 176-326 414-326 230 0 351 112 402 269l-163 42c-31-80-94-158-238-158-133 0-233 69-233 162 0 83 57 129 188 160l169 40c203 48 298 149 298 302 0 196-179 339-441 339" id="aq"/><path d="M598-1118v154H368v674c0 100 37 144 132 144 23 0 62-6 92-12L629-6c-37 13-88 20-134 20-193 0-307-107-307-290v-688H20v-154h168v-266h180v266h230" id="ar"/><path d="M158 0v-1118h174v172h12c41-113 157-188 290-188 26 0 70 2 91 3v181c-11-2-60-10-108-10-161 0-279 109-279 260V0H158" id="as"/><path d="M158 0v-1118h180V0H158zm91-1301c-68 0-125-53-125-119s57-119 125-119c69 0 126 53 126 119s-57 119-126 119" id="at"/><path d="M611 442c-248 0-391-105-460-228l146-94c47 65 117 165 314 165 178 0 307-82 307-266v-224h-17C863-141 792-18 576-18c-268 0-472-195-472-546 0-346 197-568 476-568 216 0 288 133 326 193h17v-179h175V29c0 289-215 413-487 413zm-5-620c203 0 314-146 314-390 0-237-108-403-314-403-213 0-319 180-319 403 0 230 109 390 319 390" id="au"/><g id="d"><use transform="matrix(0.010850694444444444,0,0,0.010850694444444444,0,0)" xlink:href="#aq"/><use transform="matrix(0.010850694444444444,0,0,0.010850694444444444,11.729600694444445,0)" xlink:href="#ar"/><use transform="matrix(0.010850694444444444,0,0,0.010850694444444444,18.99956597222222,0)" xlink:href="#as"/><use transform="matrix(0.010850694444444444,0,0,0.010850694444444444,27.712673611111104,0)" xlink:href="#at"/><use transform="matrix(0.010850694444444444,0,0,0.010850694444444444,33.09461805555555,0)" xlink:href="#al"/><use transform="matrix(0.010850694444444444,0,0,0.010850694444444444,46.22395833333333,0)" xlink:href="#au"/></g><path d="M409 0L70-1118h191c89 329 165 560 243 925 75-353 154-601 240-925h192c85 325 161 564 235 922 77-354 157-598 244-922h191L1267 0h-179c-86-307-176-590-250-913C763-588 675-308 588 0H409" id="av"/><path d="M338-670V0H158v-1490h180v566c73-149 190-208 336-208 226 0 379 139 379 422V0H872v-695c0-172-96-275-252-275-161 0-282 109-282 300" id="aw"/><g id="e"><use transform="matrix(0.010850694444444444,0,0,0.010850694444444444,0,0)" xlink:href="#av"/><use transform="matrix(0.010850694444444444,0,0,0.010850694444444444,17.784288194444446,0)" xlink:href="#ao"/><use transform="matrix(0.010850694444444444,0,0,0.010850694444444444,30.740017361111114,0)" xlink:href="#at"/><use transform="matrix(0.010850694444444444,0,0,0.010850694444444444,36.12196180555556,0)" xlink:href="#au"/><use transform="matrix(0.010850694444444444,0,0,0.010850694444444444,49.75043402777778,0)" xlink:href="#aw"/><use transform="matrix(0.010850694444444444,0,0,0.010850694444444444,62.890625,0)" xlink:href="#ar"/><use transform="matrix(0.010850694444444444,0,0,0.010850694444444444,70.16059027777777,0)" xlink:href="#ap"/></g><path d="M577 24c-279 0-473-224-473-580 0-354 195-576 474-576 218 0 287 134 324 193h14v-551h180V0H922v-173h-20C865-111 790 24 577 24zm27-161c203 0 314-172 314-421 0-247-108-413-314-413-212 0-317 181-317 413 0 235 108 421 317 421" id="ax"/><path d="M613 24c-304 0-509-231-509-576 0-350 205-580 509-580 305 0 511 230 511 580 0 345-206 576-511 576zm0-161c226 0 329-195 329-415 0-222-103-419-329-419-223 0-326 196-326 419 0 220 103 415 326 415" id="ay"/><path d="M537 14c-226 0-379-139-379-422v-710h180v695c0 172 97 275 253 275 160 0 281-109 281-300v-670h181V0H879v-209C806-46 684 14 537 14" id="az"/><path d="M677 24c-213 0-288-135-325-197h-20V0H158v-1490h180v551h14c37-59 106-193 324-193 279 0 474 222 474 576 0 356-194 580-473 580zm-27-161c209 0 317-186 317-421 0-232-105-413-317-413-206 0-314 166-314 413 0 249 111 421 314 421" id="aA"/><path d="M338-1490V0H158v-1490h180" id="aB"/><g id="f"><use transform="matrix(0.010850694444444444,0,0,0.010850694444444444,0,0)" xlink:href="#ax"/><use transform="matrix(0.010850694444444444,0,0,0.010850694444444444,13.606770833333332,0)" xlink:href="#ay"/><use transform="matrix(0.010850694444444444,0,0,0.010850694444444444,26.931423611111104,0)" xlink:href="#az"/><use transform="matrix(0.010850694444444444,0,0,0.010850694444444444,40.07161458333333,0)" xlink:href="#aA"/><use transform="matrix(0.010850694444444444,0,0,0.010850694444444444,53.67838541666666,0)" xlink:href="#aB"/><use transform="matrix(0.010850694444444444,0,0,0.010850694444444444,59.0603298611111,0)" xlink:href="#ao"/></g><path d="M481 0L54-1118h197c107 314 236 620 325 951 87-331 217-637 324-951h197L670 0H481" id="aC"/><g id="g"><use transform="matrix(0.010850694444444444,0,0,0.010850694444444444,0,0)" xlink:href="#aB"/><use transform="matrix(0.010850694444444444,0,0,0.010850694444444444,5.381944444444445,0)" xlink:href="#ao"/><use transform="matrix(0.010850694444444444,0,0,0.010850694444444444,17.903645833333332,0)" xlink:href="#aC"/><use transform="matrix(0.010850694444444444,0,0,0.010850694444444444,29.958767361111104,0)" xlink:href="#ao"/><use transform="matrix(0.010850694444444444,0,0,0.010850694444444444,42.91449652777777,0)" xlink:href="#aB"/><use transform="matrix(0.010850694444444444,0,0,0.010850694444444444,48.29644097222221,0)" xlink:href="#ap"/></g><path d="M226 279v-1860h398v153H398V126h226v153H226" id="aD"/><path d="M653-1490V0H466v-1314h-10L96-1047v-204l324-239h233" id="aE"/><path d="M798-719v166H144v-166h654" id="aF"/><path d="M646 20c-332 0-524-278-524-764 0-483 194-766 524-766s524 283 524 766c0 485-191 764-524 764zm0-166c218 0 341-220 341-598 0-380-123-601-341-601s-341 222-341 601c0 378 123 598 341 598" id="aG"/><path d="M123 279V126h226v-1554H123v-153h398V279H123" id="aH"/><g id="h"><use transform="matrix(0.010850694444444444,0,0,0.010850694444444444,0,0)" xlink:href="#at"/><use transform="matrix(0.010850694444444444,0,0,0.010850694444444444,5.381944444444445,0)" xlink:href="#al"/><use transform="matrix(0.010850694444444444,0,0,0.010850694444444444,18.51128472222222,0)" xlink:href="#ar"/><use transform="matrix(0.010850694444444444,0,0,0.010850694444444444,25.78125,0)" xlink:href="#aD"/><use transform="matrix(0.010850694444444444,0,0,0.010850694444444444,33.88671875,0)" xlink:href="#aE"/><use transform="matrix(0.010850694444444444,0,0,0.010850694444444444,42.92534722222222,0)" xlink:href="#aF"/><use transform="matrix(0.010850694444444444,0,0,0.010850694444444444,53.146701388888886,0)" xlink:href="#aE"/><use transform="matrix(0.010850694444444444,0,0,0.010850694444444444,62.18532986111111,0)" xlink:href="#aG"/><use transform="matrix(0.010850694444444444,0,0,0.010850694444444444,76.20442708333333,0)" xlink:href="#aG"/><use transform="matrix(0.010850694444444444,0,0,0.010850694444444444,90.22352430555556,0)" xlink:href="#aH"/></g><path d="M158 418v-1536h174v179h20c37-59 106-193 324-193 279 0 474 222 474 576 0 356-194 580-473 580-213 0-288-135-325-197h-14v591H158zm492-555c209 0 317-186 317-421 0-232-105-413-317-413-206 0-314 166-314 413 0 249 111 421 314 421" id="aI"/><g id="i"><use transform="matrix(0.010850694444444444,0,0,0.010850694444444444,0,0)" xlink:href="#aw"/><use transform="matrix(0.010850694444444444,0,0,0.010850694444444444,13.140190972222221,0)" xlink:href="#aI"/><use transform="matrix(0.010850694444444444,0,0,0.010850694444444444,26.746961805555554,0)" xlink:href="#ap"/></g><g id="j"><use transform="matrix(0.010850694444444444,0,0,0.010850694444444444,0,0)" xlink:href="#at"/><use transform="matrix(0.010850694444444444,0,0,0.010850694444444444,5.381944444444445,0)" xlink:href="#al"/><use transform="matrix(0.010850694444444444,0,0,0.010850694444444444,18.51128472222222,0)" xlink:href="#ar"/></g><path d="M681 22C323 22 94-145 85-462h297c10 151 131 226 296 226 163 0 271-77 271-190 0-102-95-149-257-189l-164-41c-252-61-403-188-403-405 0-269 236-449 560-449 330 0 546 183 551 445H941c-11-119-106-188-259-188-156 0-244 72-244 172-3 156 226 185 373 221 250 61 445 186 445 436 0 271-213 446-575 446" id="aJ"/><path d="M683-1118v229H474v562c0 71 29 104 102 104 23 0 73-7 95-13l43 225C647 9 580 16 520 16 296 16 174-96 174-301v-588H20v-229h154v-266h300v266h209" id="aK"/><path d="M440 22C227 22 68-92 68-313c0-250 202-322 422-343 195-21 271-24 271-105 0-95-63-149-175-149-116 0-187 57-211 129l-275-46c57-194 237-305 487-305 240 0 474 108 474 379V0H777v-155h-10C713-51 605 22 440 22zm85-211c140 0 238-93 238-211v-121c-37 26-156 42-222 51-111 16-185 59-185 149 0 87 70 132 169 132" id="aL"/><path d="M572 22C302 22 117-98 78-306l279-48c29 105 101 156 224 156 114 0 185-48 185-115 0-118-228-130-337-155-215-49-322-150-322-317 0-215 187-347 470-347 265 0 424 116 466 298l-266 47c-24-76-87-130-196-130-98 0-174 46-174 113 0 56 38 95 144 117l201 40c216 44 320 143 320 302 0 220-207 367-500 367" id="aM"/><g id="k"><use transform="matrix(0.010850694444444444,0,0,0.010850694444444444,0,0)" xlink:href="#aJ"/><use transform="matrix(0.010850694444444444,0,0,0.010850694444444444,14.55078125,0)" xlink:href="#aK"/><use transform="matrix(0.010850694444444444,0,0,0.010850694444444444,22.79730902777778,0)" xlink:href="#aL"/><use transform="matrix(0.010850694444444444,0,0,0.010850694444444444,35.69878472222222,0)" xlink:href="#aK"/><use transform="matrix(0.010850694444444444,0,0,0.010850694444444444,43.67404513888889,0)" xlink:href="#aM"/></g><path d="M613 24c-304 0-509-231-509-576 0-350 205-580 509-580 216 0 392 114 453 309l-173 49c-33-115-133-197-280-197-223 0-326 196-326 419 0 220 103 415 326 415 150 0 252-85 285-206l172 49C1010-95 832 24 613 24" id="aN"/><path d="M158 0v-1490h180v865h22l478-493h223L593-638 1096 0H865L456-523 338-412V0H158" id="aO"/><g id="l"><use transform="matrix(0.010850694444444444,0,0,0.010850694444444444,0,0)" xlink:href="#am"/><use transform="matrix(0.010850694444444444,0,0,0.010850694444444444,12.47829861111111,0)" xlink:href="#ar"/><use transform="matrix(0.010850694444444444,0,0,0.010850694444444444,19.205729166666668,0)" xlink:href="#ar"/><use transform="matrix(0.010850694444444444,0,0,0.010850694444444444,26.58420138888889,0)" xlink:href="#am"/><use transform="matrix(0.010850694444444444,0,0,0.010850694444444444,39.0625,0)" xlink:href="#aN"/><use transform="matrix(0.010850694444444444,0,0,0.010850694444444444,51.7578125,0)" xlink:href="#aO"/><use transform="matrix(0.010850694444444444,0,0,0.010850694444444444,63.95399305555555,0)" xlink:href="#ap"/></g><g id="m"><use transform="matrix(0.010850694444444444,0,0,0.010850694444444444,0,0)" xlink:href="#at"/><use transform="matrix(0.010850694444444444,0,0,0.010850694444444444,5.381944444444445,0)" xlink:href="#al"/><use transform="matrix(0.010850694444444444,0,0,0.010850694444444444,18.51128472222222,0)" xlink:href="#ar"/></g><path d="M52 0l541-1490h220L1361 0h-200l-149-416H398L254 0H52zm404-582h497c-103-290-145-390-251-756-108 377-145 460-246 756" id="aP"/><g id="n"><use transform="matrix(0.010850694444444444,0,0,0.010850694444444444,0,0)" xlink:href="#aq"/><use transform="matrix(0.010850694444444444,0,0,0.010850694444444444,11.729600694444445,0)" xlink:href="#aI"/><use transform="matrix(0.010850694444444444,0,0,0.010850694444444444,25.33637152777778,0)" xlink:href="#ao"/><use transform="matrix(0.010850694444444444,0,0,0.010850694444444444,38.29210069444444,0)" xlink:href="#aN"/><use transform="matrix(0.010850694444444444,0,0,0.010850694444444444,50.98741319444444,0)" xlink:href="#at"/><use transform="matrix(0.010850694444444444,0,0,0.010850694444444444,56.369357638888886,0)" xlink:href="#am"/><use transform="matrix(0.010850694444444444,0,0,0.010850694444444444,68.84765625,0)" xlink:href="#aB"/><use transform="matrix(0.010850694444444444,0,0,0.010850694444444444,74.22960069444444,0)" xlink:href="#aP"/><use transform="matrix(0.010850694444444444,0,0,0.010850694444444444,89.12760416666666,0)" xlink:href="#ar"/><use transform="matrix(0.010850694444444444,0,0,0.010850694444444444,95.85503472222221,0)" xlink:href="#ar"/><use transform="matrix(0.010850694444444444,0,0,0.010850694444444444,103.23350694444441,0)" xlink:href="#am"/><use transform="matrix(0.010850694444444444,0,0,0.010850694444444444,115.71180555555556,0)" xlink:href="#aN"/><use transform="matrix(0.010850694444444444,0,0,0.010850694444444444,128.40711805555554,0)" xlink:href="#aO"/><use transform="matrix(0.010850694444444444,0,0,0.010850694444444444,140.6032986111111,0)" xlink:href="#ap"/></g><path d="M678-1118v154H420V0H240v-964H20v-154h220v-149c0-194 155-293 318-293 85 0 141 18 168 30l-50 154c-19-6-47-17-97-17-111 0-159 58-159 166v109h258" id="aQ"/><g id="o"><use transform="matrix(0.010850694444444444,0,0,0.010850694444444444,0,0)" xlink:href="#ax"/><use transform="matrix(0.010850694444444444,0,0,0.010850694444444444,13.606770833333332,0)" xlink:href="#ao"/><use transform="matrix(0.010850694444444444,0,0,0.010850694444444444,26.5625,0)" xlink:href="#aQ"/><use transform="matrix(0.010850694444444444,0,0,0.010850694444444444,34.13628472222222,0)" xlink:href="#ao"/><use transform="matrix(0.010850694444444444,0,0,0.010850694444444444,47.092013888888886,0)" xlink:href="#al"/><use transform="matrix(0.010850694444444444,0,0,0.010850694444444444,60.221354166666664,0)" xlink:href="#aq"/><use transform="matrix(0.010850694444444444,0,0,0.010850694444444444,71.95095486111111,0)" xlink:href="#ao"/><use transform="matrix(0.010850694444444444,0,0,0.010850694444444444,84.90668402777779,0)" xlink:href="#ap"/></g><path d="M645 0H180v-1490h484c435 0 692 280 692 742 0 466-257 748-711 748zM370-168h263c363 0 539-218 539-580 0-358-176-574-521-574H370v1154" id="aR"/><g id="p"><use transform="matrix(0.010850694444444444,0,0,0.010850694444444444,0,0)" xlink:href="#aq"/><use transform="matrix(0.010850694444444444,0,0,0.010850694444444444,11.729600694444445,0)" xlink:href="#aI"/><use transform="matrix(0.010850694444444444,0,0,0.010850694444444444,25.33637152777778,0)" xlink:href="#ao"/><use transform="matrix(0.010850694444444444,0,0,0.010850694444444444,38.29210069444444,0)" xlink:href="#aN"/><use transform="matrix(0.010850694444444444,0,0,0.010850694444444444,50.98741319444444,0)" xlink:href="#at"/><use transform="matrix(0.010850694444444444,0,0,0.010850694444444444,56.369357638888886,0)" xlink:href="#am"/><use transform="matrix(0.010850694444444444,0,0,0.010850694444444444,68.84765625,0)" xlink:href="#aB"/><use transform="matrix(0.010850694444444444,0,0,0.010850694444444444,74.22960069444444,0)" xlink:href="#aR"/><use transform="matrix(0.010850694444444444,0,0,0.010850694444444444,90.26692708333333,0)" xlink:href="#ao"/><use transform="matrix(0.010850694444444444,0,0,0.010850694444444444,103.22265625,0)" xlink:href="#aQ"/><use transform="matrix(0.010850694444444444,0,0,0.010850694444444444,110.79644097222221,0)" xlink:href="#ao"/><use transform="matrix(0.010850694444444444,0,0,0.010850694444444444,123.75217013888889,0)" xlink:href="#al"/><use transform="matrix(0.010850694444444444,0,0,0.010850694444444444,136.88151041666666,0)" xlink:href="#aq"/><use transform="matrix(0.010850694444444444,0,0,0.010850694444444444,148.61111111111111,0)" xlink:href="#ao"/><use transform="matrix(0.010850694444444444,0,0,0.010850694444444444,161.56684027777777,0)" xlink:href="#ap"/></g><g id="q"><use transform="matrix(0.010850694444444444,0,0,0.010850694444444444,0,0)" xlink:href="#aq"/><use transform="matrix(0.010850694444444444,0,0,0.010850694444444444,11.729600694444445,0)" xlink:href="#aI"/><use transform="matrix(0.010850694444444444,0,0,0.010850694444444444,25.33637152777778,0)" xlink:href="#ao"/><use transform="matrix(0.010850694444444444,0,0,0.010850694444444444,38.29210069444444,0)" xlink:href="#ao"/><use transform="matrix(0.010850694444444444,0,0,0.010850694444444444,51.24782986111111,0)" xlink:href="#ax"/><use transform="matrix(0.010850694444444444,0,0,0.010850694444444444,64.85460069444444,0)" xlink:href="#ap"/></g><path d="M75-1237v-253h1217v253H837V0H531v-1237H75" id="aS"/><path d="M120 396l69-226c123 42 245 23 254-107l8-60L31-1118h319c87 288 199 559 259 872 72-308 185-583 277-872h315L726 132c-68 181-186 294-410 294-79 0-153-13-196-30" id="aT"/><path d="M128 418v-1536h295v188h14c41-89 129-202 319-202 248 0 453 193 453 575 0 372-197 576-455 576-183 0-275-108-317-198h-9v597H128zm534-640c156 0 240-139 240-336 0-196-83-334-240-334-154 0-241 131-241 334 0 202 88 336 241 336" id="aU"/><g id="r"><use transform="matrix(0.010850694444444444,0,0,0.010850694444444444,0,0)" xlink:href="#aS"/><use transform="matrix(0.010850694444444444,0,0,0.010850694444444444,13.444010416666666,0)" xlink:href="#aT"/><use transform="matrix(0.010850694444444444,0,0,0.010850694444444444,26.822916666666664,0)" xlink:href="#aU"/><use transform="matrix(0.010850694444444444,0,0,0.010850694444444444,40.83116319444444,0)" xlink:href="#ah"/></g><path d="M180 0v-1490h270l367 940c28 72 75 218 110 339 35-117 81-264 110-339l362-940h271V0h-187c2-448-5-837 7-1287-157 497-311 829-483 1287H842C666-458 514-784 354-1284c12 438 5 843 7 1284H180" id="aV"/><path d="M218-607c0-325 108-727 258-974h175c-155 315-250 682-250 974 0 265 78 531 250 886H476C306-10 218-315 218-607" id="aW"/><g id="s"><use transform="matrix(0.010850694444444444,0,0,0.010850694444444444,0,0)" xlink:href="#aN"/><use transform="matrix(0.010850694444444444,0,0,0.010850694444444444,12.91232638888889,0)" xlink:href="#am"/><use transform="matrix(0.010850694444444444,0,0,0.010850694444444444,25.390625,0)" xlink:href="#aB"/><use transform="matrix(0.010850694444444444,0,0,0.010850694444444444,30.772569444444443,0)" xlink:href="#aN"/><use transform="matrix(0.010850694444444444,0,0,0.010850694444444444,43.46788194444444,0)" xlink:href="#az"/><use transform="matrix(0.010850694444444444,0,0,0.010850694444444444,56.608072916666664,0)" xlink:href="#aB"/><use transform="matrix(0.010850694444444444,0,0,0.010850694444444444,61.99001736111111,0)" xlink:href="#am"/><use transform="matrix(0.010850694444444444,0,0,0.010850694444444444,74.46831597222221,0)" xlink:href="#ar"/><use transform="matrix(0.010850694444444444,0,0,0.010850694444444444,81.5212673611111,0)" xlink:href="#ao"/><use transform="matrix(0.010850694444444444,0,0,0.010850694444444444,94.47699652777777,0)" xlink:href="#aR"/><use transform="matrix(0.010850694444444444,0,0,0.010850694444444444,110.51432291666666,0)" xlink:href="#am"/><use transform="matrix(0.010850694444444444,0,0,0.010850694444444444,122.99262152777777,0)" xlink:href="#an"/><use transform="matrix(0.010850694444444444,0,0,0.010850694444444444,142.45876736111111,0)" xlink:href="#am"/><use transform="matrix(0.010850694444444444,0,0,0.010850694444444444,154.93706597222223,0)" xlink:href="#au"/><use transform="matrix(0.010850694444444444,0,0,0.010850694444444444,168.56553819444446,0)" xlink:href="#ao"/><use transform="matrix(0.010850694444444444,0,0,0.010850694444444444,181.52126736111111,0)" xlink:href="#aV"/><use transform="matrix(0.010850694444444444,0,0,0.010850694444444444,201.59505208333331,0)" xlink:href="#az"/><use transform="matrix(0.010850694444444444,0,0,0.010850694444444444,214.7352430555556,0)" xlink:href="#aB"/><use transform="matrix(0.010850694444444444,0,0,0.010850694444444444,220.44270833333337,0)" xlink:href="#ar"/><use transform="matrix(0.010850694444444444,0,0,0.010850694444444444,227.71267361111114,0)" xlink:href="#at"/><use transform="matrix(0.010850694444444444,0,0,0.010850694444444444,233.0946180555556,0)" xlink:href="#aI"/><use transform="matrix(0.010850694444444444,0,0,0.010850694444444444,246.70138888888897,0)" xlink:href="#aB"/><use transform="matrix(0.010850694444444444,0,0,0.010850694444444444,252.0833333333334,0)" xlink:href="#at"/><use transform="matrix(0.010850694444444444,0,0,0.010850694444444444,257.4652777777778,0)" xlink:href="#ao"/><use transform="matrix(0.010850694444444444,0,0,0.010850694444444444,270.4210069444445,0)" xlink:href="#as"/><use transform="matrix(0.010850694444444444,0,0,0.010850694444444444,278.7868923611112,0)" xlink:href="#aW"/><use transform="matrix(0.010850694444444444,0,0,0.010850694444444444,286.64279513888897,0)" xlink:href="#ay"/><use transform="matrix(0.010850694444444444,0,0,0.010850694444444444,299.96744791666674,0)" xlink:href="#ar"/><use transform="matrix(0.010850694444444444,0,0,0.010850694444444444,307.2374131944445,0)" xlink:href="#aw"/><use transform="matrix(0.010850694444444444,0,0,0.010850694444444444,320.37760416666674,0)" xlink:href="#ao"/><use transform="matrix(0.010850694444444444,0,0,0.010850694444444444,333.3333333333334,0)" xlink:href="#as"/><use transform="matrix(0.010850694444444444,0,0,0.010850694444444444,341.6992187500001,0)" xlink:href="#ap"/></g><path d="M140 405l46-156c120 36 205 19 263-150l32-93L54-1118h197c107 313 237 620 324 950 87-331 219-637 326-950h196L606 167c-68 178-176 259-334 259-64 0-113-12-132-21" id="aX"/><path d="M96 279C273-86 346-350 346-607c0-292-95-659-250-974h175c150 246 258 650 258 974 0 297-91 602-258 886H96" id="aY"/><g id="t"><use transform="matrix(0.010850694444444444,0,0,0.010850694444444444,0,0)" xlink:href="#ar"/><use transform="matrix(0.010850694444444444,0,0,0.010850694444444444,7.703993055555555,0)" xlink:href="#aX"/><use transform="matrix(0.010850694444444444,0,0,0.010850694444444444,20.19314236111111,0)" xlink:href="#aI"/><use transform="matrix(0.010850694444444444,0,0,0.010850694444444444,33.79991319444444,0)" xlink:href="#ao"/><use transform="matrix(0.010850694444444444,0,0,0.010850694444444444,46.506076388888886,0)" xlink:href="#aY"/></g><path d="M441-652l13-317-268 171-72-126 282-146-282-146 72-128 268 171-13-317h144l-12 317 267-171 72 128-282 146 282 146-72 126-267-171 12 317H441" id="aZ"/><use transform="matrix(0.008173828125000001,0,0,0.008173828125000001,0,0)" xlink:href="#aZ" id="u"/><path d="M295 13c-75 0-135-60-135-135s60-135 135-135 135 60 135 135S370 13 295 13" id="ba"/><path d="M154 0v-137l495-537c165-179 249-281 249-418 0-156-121-253-280-253-170 0-278 110-278 278H158c0-264 200-443 465-443 266 0 455 183 455 416 0 161-73 288-336 568L416-179v12h687V0H154" id="bb"/><g id="v"><use transform="matrix(0.008173828125000001,0,0,0.008173828125000001,0,0)" xlink:href="#aE"/><use transform="matrix(0.008173828125000001,0,0,0.008173828125000001,6.808798828125001,0)" xlink:href="#ba"/><use transform="matrix(0.008173828125000001,0,0,0.008173828125000001,11.631357421875002,0)" xlink:href="#ba"/><use transform="matrix(0.008173828125000001,0,0,0.008173828125000001,16.453916015625,0)" xlink:href="#bb"/></g><path d="M174-520v-126l944-476v196L406-588v12l712 338v194" id="bc"/><path d="M1181-520L237-44v-194l712-338v-12L237-926v-196l944 476v126" id="bd"/><g id="w"><use transform="matrix(0.010850694444444444,0,0,0.010850694444444444,0,0)" xlink:href="#bc"/><use transform="matrix(0.010850694444444444,0,0,0.010850694444444444,14.702690972222221,0)" xlink:href="#bc"/><use transform="matrix(0.010850694444444444,0,0,0.010850694444444444,29.405381944444443,0)" xlink:href="#ao"/><use transform="matrix(0.010850694444444444,0,0,0.010850694444444444,42.36111111111111,0)" xlink:href="#al"/><use transform="matrix(0.010850694444444444,0,0,0.010850694444444444,55.490451388888886,0)" xlink:href="#az"/><use transform="matrix(0.010850694444444444,0,0,0.010850694444444444,68.63064236111111,0)" xlink:href="#an"/><use transform="matrix(0.010850694444444444,0,0,0.010850694444444444,88.09678819444444,0)" xlink:href="#ao"/><use transform="matrix(0.010850694444444444,0,0,0.010850694444444444,101.05251736111111,0)" xlink:href="#as"/><use transform="matrix(0.010850694444444444,0,0,0.010850694444444444,109.4184027777778,0)" xlink:href="#am"/><use transform="matrix(0.010850694444444444,0,0,0.010850694444444444,121.8967013888889,0)" xlink:href="#ar"/><use transform="matrix(0.010850694444444444,0,0,0.010850694444444444,129.16666666666669,0)" xlink:href="#at"/><use transform="matrix(0.010850694444444444,0,0,0.010850694444444444,134.54861111111114,0)" xlink:href="#ay"/><use transform="matrix(0.010850694444444444,0,0,0.010850694444444444,147.8732638888889,0)" xlink:href="#al"/><use transform="matrix(0.010850694444444444,0,0,0.010850694444444444,161.00260416666669,0)" xlink:href="#bd"/><use transform="matrix(0.010850694444444444,0,0,0.010850694444444444,175.7052951388889,0)" xlink:href="#bd"/></g><path d="M795 20C377 20 94-272 94-743c0-483 302-767 694-767 335 0 593 206 635 500h-310c-42-142-154-229-320-229-230 0-389 177-389 493s154 495 393 495c212 0 340-120 345-311H818v-232h620v186c0 391-269 628-643 628" id="be"/><path d="M537 19C279 19 81-185 81-557c0-382 206-575 454-575 190 0 278 113 318 202h10v-560h300V0H868v-179h-15C812-89 719 19 537 19zm92-241c153 0 240-134 240-336 0-203-86-334-240-334-158 0-240 138-240 334 0 197 84 336 240 336" id="bf"/><path d="M128 0v-1118h290v195h12c54-169 184-238 367-200v268c-27-8-86-15-130-15-138 0-239 95-239 234V0H128" id="bg"/><g id="x"><use transform="matrix(0.010850694444444444,0,0,0.010850694444444444,0,0)" xlink:href="#be"/><use transform="matrix(0.010850694444444444,0,0,0.010850694444444444,16.67751736111111,0)" xlink:href="#ah"/><use transform="matrix(0.010850694444444444,0,0,0.010850694444444444,29.915364583333332,0)" xlink:href="#aj"/><use transform="matrix(0.010850694444444444,0,0,0.010850694444444444,43.75,0)" xlink:href="#bf"/><use transform="matrix(0.010850694444444444,0,0,0.010850694444444444,57.75824652777778,0)" xlink:href="#ah"/><use transform="matrix(0.010850694444444444,0,0,0.010850694444444444,70.99609375,0)" xlink:href="#bg"/></g><g id="y"><use transform="matrix(0.010850694444444444,0,0,0.010850694444444444,0,0)" xlink:href="#aV"/><use transform="matrix(0.010850694444444444,0,0,0.010850694444444444,20.07378472222222,0)" xlink:href="#am"/><use transform="matrix(0.010850694444444444,0,0,0.010850694444444444,32.55208333333333,0)" xlink:href="#aB"/><use transform="matrix(0.010850694444444444,0,0,0.010850694444444444,37.93402777777777,0)" xlink:href="#ao"/></g><path d="M180 0v-1490h901v168H370v510h643v168H370V0H180" id="bh"/><g id="z"><use transform="matrix(0.010850694444444444,0,0,0.010850694444444444,0,0)" xlink:href="#bh"/><use transform="matrix(0.010850694444444444,0,0,0.010850694444444444,12.239583333333332,0)" xlink:href="#ao"/><use transform="matrix(0.010850694444444444,0,0,0.010850694444444444,25.1953125,0)" xlink:href="#an"/><use transform="matrix(0.010850694444444444,0,0,0.010850694444444444,44.66145833333333,0)" xlink:href="#am"/><use transform="matrix(0.010850694444444444,0,0,0.010850694444444444,57.13975694444444,0)" xlink:href="#aB"/><use transform="matrix(0.010850694444444444,0,0,0.010850694444444444,62.521701388888886,0)" xlink:href="#ao"/></g><path d="M180 0v-1490h224l606 953c40 63 108 177 176 312-27-437-7-821-13-1265h190V0h-226C860-448 622-778 356-1262c27 476 11 792 15 1262H180" id="bi"/><g id="A"><use transform="matrix(0.010850694444444444,0,0,0.010850694444444444,0,0)" xlink:href="#bi"/><use transform="matrix(0.010850694444444444,0,0,0.010850694444444444,16.74262152777778,0)" xlink:href="#ay"/><use transform="matrix(0.010850694444444444,0,0,0.010850694444444444,30.06727430555556,0)" xlink:href="#al"/><use transform="matrix(0.010850694444444444,0,0,0.010850694444444444,43.196614583333336,0)" xlink:href="#ao"/></g><use transform="matrix(0.008173828125000001,0,0,0.008173828125000001,0,0)" xlink:href="#aE" id="B"/><path d="M49 0l509-1490h400L1480 0h-339l-115-346H497L386 0H49zm524-585h374c-75-213-124-402-192-666-66 268-110 453-182 666" id="bj"/><path d="M754 19C571 19 479-89 437-179h-14V0H128v-1490h300v560h9c41-89 129-202 319-202 248 0 453 193 453 575 0 372-197 576-455 576zm-92-241c156 0 240-139 240-336 0-196-83-334-240-334-154 0-241 131-241 334 0 202 88 336 241 336" id="bk"/><path d="M128 0v-1118h300V0H128zm150-1264c-91 0-165-68-165-154 0-85 74-154 165-154 90 0 165 69 165 154 0 86-75 154-165 154" id="bl"/><path d="M428-1490V0H128v-1490h300" id="bm"/><g id="C"><use transform="matrix(0.010850694444444444,0,0,0.010850694444444444,0,0)" xlink:href="#bj"/><use transform="matrix(0.010850694444444444,0,0,0.010850694444444444,16.590711805555554,0)" xlink:href="#bk"/><use transform="matrix(0.010850694444444444,0,0,0.010850694444444444,30.59895833333333,0)" xlink:href="#bl"/><use transform="matrix(0.010850694444444444,0,0,0.010850694444444444,36.62109374999999,0)" xlink:href="#bm"/><use transform="matrix(0.010850694444444444,0,0,0.010850694444444444,42.64322916666666,0)" xlink:href="#bl"/><use transform="matrix(0.010850694444444444,0,0,0.010850694444444444,48.66536458333332,0)" xlink:href="#aK"/><use transform="matrix(0.010850694444444444,0,0,0.010850694444444444,57.29166666666666,0)" xlink:href="#aT"/></g><g id="D"><use transform="matrix(0.010850694444444444,0,0,0.010850694444444444,0,0)" xlink:href="#aq"/><use transform="matrix(0.010850694444444444,0,0,0.010850694444444444,11.729600694444445,0)" xlink:href="#ar"/><use transform="matrix(0.010850694444444444,0,0,0.010850694444444444,18.99956597222222,0)" xlink:href="#as"/><use transform="matrix(0.010850694444444444,0,0,0.010850694444444444,27.712673611111104,0)" xlink:href="#at"/><use transform="matrix(0.010850694444444444,0,0,0.010850694444444444,33.09461805555555,0)" xlink:href="#al"/><use transform="matrix(0.010850694444444444,0,0,0.010850694444444444,46.22395833333333,0)" xlink:href="#au"/></g><path fill="#333" d="M476-652l19-284-238 159-97-168 257-125-257-125 97-170 238 159-19-284h192l-18 284 238-159 95 170-255 125 255 125-95 168-238-159 18 284H476" id="bn"/><use transform="matrix(0.008680555555555556,0,0,0.008680555555555556,0,0)" xlink:href="#bn" id="E"/><path fill="#333" d="M749-1490V0H444v-1221h-10L93-980v-279l329-231h327" id="bo"/><use transform="matrix(0.008680555555555556,0,0,0.008680555555555556,0,0)" xlink:href="#bo" id="F"/><path d="M135 0v-1490h468l242 684c30 94 76 293 111 455 34-161 80-360 110-455l238-684h470V0h-307c0-447-3-765 11-1227-122 503-246 788-395 1227H826C676-435 552-717 427-1215c15 453 11 775 11 1215H135" id="bp"/><path d="M443 0L31-1118h319c90 293 199 572 268 885 66-313 175-593 264-885h315L784 0H443" id="bq"/><g id="G"><use transform="matrix(0.010850694444444444,0,0,0.010850694444444444,0,0)" xlink:href="#bp"/><use transform="matrix(0.010850694444444444,0,0,0.010850694444444444,20.703125,0)" xlink:href="#af"/><use transform="matrix(0.010850694444444444,0,0,0.010850694444444444,33.93012152777778,0)" xlink:href="#bq"/><use transform="matrix(0.010850694444444444,0,0,0.010850694444444444,46.85329861111111,0)" xlink:href="#ah"/></g><g id="H"><use transform="matrix(0.010850694444444444,0,0,0.010850694444444444,0,0)" xlink:href="#aI"/><use transform="matrix(0.010850694444444444,0,0,0.010850694444444444,13.606770833333332,0)" xlink:href="#ay"/><use transform="matrix(0.010850694444444444,0,0,0.010850694444444444,26.931423611111104,0)" xlink:href="#av"/><use transform="matrix(0.010850694444444444,0,0,0.010850694444444444,44.71571180555556,0)" xlink:href="#ao"/><use transform="matrix(0.010850694444444444,0,0,0.010850694444444444,57.67144097222222,0)" xlink:href="#as"/><use transform="matrix(0.010850694444444444,0,0,0.010850694444444444,66.03732638888889,0)" xlink:href="#ap"/></g><g id="I"><use transform="matrix(0.010850694444444444,0,0,0.010850694444444444,0,0)" xlink:href="#ay"/><use transform="matrix(0.010850694444444444,0,0,0.010850694444444444,13.324652777777777,0)" xlink:href="#aI"/><use transform="matrix(0.010850694444444444,0,0,0.010850694444444444,26.931423611111104,0)" xlink:href="#ar"/><use transform="matrix(0.010850694444444444,0,0,0.010850694444444444,34.201388888888886,0)" xlink:href="#at"/><use transform="matrix(0.010850694444444444,0,0,0.010850694444444444,39.58333333333333,0)" xlink:href="#ay"/><use transform="matrix(0.010850694444444444,0,0,0.010850694444444444,52.90798611111111,0)" xlink:href="#al"/><use transform="matrix(0.010850694444444444,0,0,0.010850694444444444,66.03732638888889,0)" xlink:href="#am"/><use transform="matrix(0.010850694444444444,0,0,0.010850694444444444,78.515625,0)" xlink:href="#aB"/><use transform="matrix(0.010850694444444444,0,0,0.010850694444444444,83.89756944444444,0)" xlink:href="#aD"/><use transform="matrix(0.010850694444444444,0,0,0.010850694444444444,92.00303819444444,0)" xlink:href="#at"/><use transform="matrix(0.010850694444444444,0,0,0.010850694444444444,97.38498263888889,0)" xlink:href="#al"/><use transform="matrix(0.010850694444444444,0,0,0.010850694444444444,110.51432291666666,0)" xlink:href="#ar"/><use transform="matrix(0.010850694444444444,0,0,0.010850694444444444,117.78428819444441,0)" xlink:href="#aH"/></g><use transform="matrix(0.010850694444444444,0,0,0.010850694444444444,0,0)" xlink:href="#ak" id="J"/><g id="K"><use transform="matrix(0.010850694444444444,0,0,0.010850694444444444,0,0)" xlink:href="#am"/><use transform="matrix(0.010850694444444444,0,0,0.010850694444444444,12.47829861111111,0)" xlink:href="#aN"/><use transform="matrix(0.010850694444444444,0,0,0.010850694444444444,25.17361111111111,0)" xlink:href="#aN"/><use transform="matrix(0.010850694444444444,0,0,0.010850694444444444,37.868923611111114,0)" xlink:href="#az"/><use transform="matrix(0.010850694444444444,0,0,0.010850694444444444,51.00911458333333,0)" xlink:href="#as"/><use transform="matrix(0.010850694444444444,0,0,0.010850694444444444,59.375,0)" xlink:href="#am"/><use transform="matrix(0.010850694444444444,0,0,0.010850694444444444,71.85329861111111,0)" xlink:href="#aN"/><use transform="matrix(0.010850694444444444,0,0,0.010850694444444444,84.11458333333334,0)" xlink:href="#aX"/><use transform="matrix(0.010850694444444444,0,0,0.010850694444444444,96.6037326388889,0)" xlink:href="#ap"/></g><g id="L"><use transform="matrix(0.010850694444444444,0,0,0.010850694444444444,0,0)" xlink:href="#ay"/><use transform="matrix(0.010850694444444444,0,0,0.010850694444444444,13.324652777777777,0)" xlink:href="#aI"/><use transform="matrix(0.010850694444444444,0,0,0.010850694444444444,26.931423611111104,0)" xlink:href="#ar"/><use transform="matrix(0.010850694444444444,0,0,0.010850694444444444,34.201388888888886,0)" xlink:href="#at"/><use transform="matrix(0.010850694444444444,0,0,0.010850694444444444,39.58333333333333,0)" xlink:href="#ay"/><use transform="matrix(0.010850694444444444,0,0,0.010850694444444444,52.90798611111111,0)" xlink:href="#al"/><use transform="matrix(0.010850694444444444,0,0,0.010850694444444444,66.03732638888889,0)" xlink:href="#am"/><use transform="matrix(0.010850694444444444,0,0,0.010850694444444444,78.515625,0)" xlink:href="#aB"/><use transform="matrix(0.010850694444444444,0,0,0.010850694444444444,83.89756944444444,0)" xlink:href="#aD"/><use transform="matrix(0.010850694444444444,0,0,0.010850694444444444,92.00303819444444,0)" xlink:href="#at"/><use transform="matrix(0.010850694444444444,0,0,0.010850694444444444,97.38498263888889,0)" xlink:href="#al"/><use transform="matrix(0.010850694444444444,0,0,0.010850694444444444,110.51432291666666,0)" xlink:href="#ar"/><use transform="matrix(0.010850694444444444,0,0,0.010850694444444444,117.78428819444441,0)" xlink:href="#aH"/></g><use transform="matrix(0.010850694444444444,0,0,0.010850694444444444,0,0)" xlink:href="#ak" id="M"/><g id="N"><use transform="matrix(0.010850694444444444,0,0,0.010850694444444444,0,0)" xlink:href="#aI"/><use transform="matrix(0.010850694444444444,0,0,0.010850694444444444,13.606770833333332,0)" xlink:href="#aI"/><use transform="matrix(0.010850694444444444,0,0,0.010850694444444444,27.213541666666664,0)" xlink:href="#ap"/></g><g id="O"><use transform="matrix(0.010850694444444444,0,0,0.010850694444444444,0,0)" xlink:href="#at"/><use transform="matrix(0.010850694444444444,0,0,0.010850694444444444,5.381944444444445,0)" xlink:href="#al"/><use transform="matrix(0.010850694444444444,0,0,0.010850694444444444,18.51128472222222,0)" xlink:href="#ar"/></g><path d="M180 0v-1490h190v1322h690V0H180" id="br"/><g id="P"><use transform="matrix(0.010850694444444444,0,0,0.010850694444444444,0,0)" xlink:href="#aI"/><use transform="matrix(0.010850694444444444,0,0,0.010850694444444444,13.606770833333332,0)" xlink:href="#as"/><use transform="matrix(0.010850694444444444,0,0,0.010850694444444444,22.31987847222222,0)" xlink:href="#at"/><use transform="matrix(0.010850694444444444,0,0,0.010850694444444444,27.701822916666664,0)" xlink:href="#ay"/><use transform="matrix(0.010850694444444444,0,0,0.010850694444444444,41.02647569444444,0)" xlink:href="#as"/><use transform="matrix(0.010850694444444444,0,0,0.010850694444444444,49.73958333333333,0)" xlink:href="#at"/><use transform="matrix(0.010850694444444444,0,0,0.010850694444444444,55.12152777777778,0)" xlink:href="#ar"/><use transform="matrix(0.010850694444444444,0,0,0.010850694444444444,62.82552083333333,0)" xlink:href="#aX"/><use transform="matrix(0.010850694444444444,0,0,0.010850694444444444,75.42317708333333,0)" xlink:href="#br"/><use transform="matrix(0.010850694444444444,0,0,0.010850694444444444,87.98828125,0)" xlink:href="#ao"/><use transform="matrix(0.010850694444444444,0,0,0.010850694444444444,100.5099826388889,0)" xlink:href="#aC"/><use transform="matrix(0.010850694444444444,0,0,0.010850694444444444,112.56510416666669,0)" xlink:href="#ao"/><use transform="matrix(0.010850694444444444,0,0,0.010850694444444444,125.52083333333334,0)" xlink:href="#aB"/><use transform="matrix(0.010850694444444444,0,0,0.010850694444444444,130.9027777777778,0)" xlink:href="#ap"/></g><path d="M783 20c-382 0-661-292-661-764 0-473 279-766 661-766 302 0 548 182 601 489h-190c-42-204-217-313-411-313-268 0-476 208-476 590 0 381 209 588 476 588 195 0 369-110 411-313h190c-52 303-296 489-601 489" id="bs"/><g id="Q"><use transform="matrix(0.010850694444444444,0,0,0.010850694444444444,0,0)" xlink:href="#an"/><use transform="matrix(0.010850694444444444,0,0,0.010850694444444444,19.466145833333332,0)" xlink:href="#am"/><use transform="matrix(0.010850694444444444,0,0,0.010850694444444444,31.944444444444443,0)" xlink:href="#aO"/><use transform="matrix(0.010850694444444444,0,0,0.010850694444444444,43.64149305555556,0)" xlink:href="#ao"/><use transform="matrix(0.010850694444444444,0,0,0.010850694444444444,56.59722222222222,0)" xlink:href="#aq"/><use transform="matrix(0.010850694444444444,0,0,0.010850694444444444,68.32682291666667,0)" xlink:href="#bs"/><use transform="matrix(0.010850694444444444,0,0,0.010850694444444444,84.55946180555556,0)" xlink:href="#ay"/><use transform="matrix(0.010850694444444444,0,0,0.010850694444444444,97.88411458333333,0)" xlink:href="#al"/><use transform="matrix(0.010850694444444444,0,0,0.010850694444444444,111.01345486111111,0)" xlink:href="#ar"/><use transform="matrix(0.010850694444444444,0,0,0.010850694444444444,118.39192708333331,0)" xlink:href="#am"/><use transform="matrix(0.010850694444444444,0,0,0.010850694444444444,130.87022569444443,0)" xlink:href="#aN"/><use transform="matrix(0.010850694444444444,0,0,0.010850694444444444,143.56553819444443,0)" xlink:href="#ar"/><use transform="matrix(0.010850694444444444,0,0,0.010850694444444444,150.8355034722222,0)" xlink:href="#ap"/></g><g id="R"><use transform="matrix(0.010850694444444444,0,0,0.010850694444444444,0,0)" xlink:href="#aA"/><use transform="matrix(0.010850694444444444,0,0,0.010850694444444444,13.606770833333332,0)" xlink:href="#ay"/><use transform="matrix(0.010850694444444444,0,0,0.010850694444444444,26.931423611111104,0)" xlink:href="#ay"/><use transform="matrix(0.010850694444444444,0,0,0.010850694444444444,40.256076388888886,0)" xlink:href="#aB"/><use transform="matrix(0.010850694444444444,0,0,0.010850694444444444,45.63802083333333,0)" xlink:href="#ao"/><use transform="matrix(0.010850694444444444,0,0,0.010850694444444444,58.81076388888888,0)" xlink:href="#am"/><use transform="matrix(0.010850694444444444,0,0,0.010850694444444444,71.28906249999999,0)" xlink:href="#al"/></g><g id="S"><use transform="matrix(0.010850694444444444,0,0,0.010850694444444444,0,0)" xlink:href="#ar"/><use transform="matrix(0.010850694444444444,0,0,0.010850694444444444,7.378472222222222,0)" xlink:href="#am"/><use transform="matrix(0.010850694444444444,0,0,0.010850694444444444,19.856770833333332,0)" xlink:href="#as"/><use transform="matrix(0.010850694444444444,0,0,0.010850694444444444,27.85373263888889,0)" xlink:href="#au"/><use transform="matrix(0.010850694444444444,0,0,0.010850694444444444,41.48220486111111,0)" xlink:href="#ao"/><use transform="matrix(0.010850694444444444,0,0,0.010850694444444444,54.43793402777778,0)" xlink:href="#ar"/></g><g id="T"><use transform="matrix(0.010850694444444444,0,0,0.010850694444444444,0,0)" xlink:href="#bc"/><use transform="matrix(0.010850694444444444,0,0,0.010850694444444444,14.702690972222221,0)" xlink:href="#bc"/><use transform="matrix(0.010850694444444444,0,0,0.010850694444444444,29.405381944444443,0)" xlink:href="#ao"/><use transform="matrix(0.010850694444444444,0,0,0.010850694444444444,42.36111111111111,0)" xlink:href="#al"/><use transform="matrix(0.010850694444444444,0,0,0.010850694444444444,55.490451388888886,0)" xlink:href="#az"/><use transform="matrix(0.010850694444444444,0,0,0.010850694444444444,68.63064236111111,0)" xlink:href="#an"/><use transform="matrix(0.010850694444444444,0,0,0.010850694444444444,88.09678819444444,0)" xlink:href="#ao"/><use transform="matrix(0.010850694444444444,0,0,0.010850694444444444,101.05251736111111,0)" xlink:href="#as"/><use transform="matrix(0.010850694444444444,0,0,0.010850694444444444,109.4184027777778,0)" xlink:href="#am"/><use transform="matrix(0.010850694444444444,0,0,0.010850694444444444,121.8967013888889,0)" xlink:href="#ar"/><use transform="matrix(0.010850694444444444,0,0,0.010850694444444444,129.16666666666669,0)" xlink:href="#at"/><use transform="matrix(0.010850694444444444,0,0,0.010850694444444444,134.54861111111114,0)" xlink:href="#ay"/><use transform="matrix(0.010850694444444444,0,0,0.010850694444444444,147.8732638888889,0)" xlink:href="#al"/><use transform="matrix(0.010850694444444444,0,0,0.010850694444444444,161.00260416666669,0)" xlink:href="#bd"/><use transform="matrix(0.010850694444444444,0,0,0.010850694444444444,175.7052951388889,0)" xlink:href="#bd"/></g><path d="M786 20C389 20 94-260 94-744c0-487 299-766 692-766 339 0 597 194 641 529h-309c-28-162-156-258-326-258-233 0-388 179-388 495 0 323 157 493 387 493 170 0 298-97 328-259h309c-34 277-266 530-642 530" id="bt"/><path d="M625 442c-280 0-454-114-503-274l258-72c28 63 97 128 243 128 153 0 246-69 246-216v-206h-23C805-108 717-16 536-16 284-16 81-191 81-561c0-378 208-571 456-571 188 0 280 113 321 202h13v-188h295V-9c0 303-226 451-541 451zm5-686c153 0 240-119 240-319 0-198-86-329-240-329-158 0-241 137-241 329 0 195 85 319 241 319" id="bu"/><g id="U"><use transform="matrix(0.010850694444444444,0,0,0.010850694444444444,0,0)" xlink:href="#bp"/><use transform="matrix(0.010850694444444444,0,0,0.010850694444444444,20.703125,0)" xlink:href="#af"/><use transform="matrix(0.010850694444444444,0,0,0.010850694444444444,33.93012152777778,0)" xlink:href="#bq"/><use transform="matrix(0.010850694444444444,0,0,0.010850694444444444,46.85329861111111,0)" xlink:href="#ah"/><use transform="matrix(0.010850694444444444,0,0,0.010850694444444444,60.09114583333333,0)" xlink:href="#bt"/><use transform="matrix(0.010850694444444444,0,0,0.010850694444444444,76.52994791666667,0)" xlink:href="#aL"/><use transform="matrix(0.010850694444444444,0,0,0.010850694444444444,89.43142361111111,0)" xlink:href="#aK"/><use transform="matrix(0.010850694444444444,0,0,0.010850694444444444,97.35243055555556,0)" xlink:href="#ah"/><use transform="matrix(0.010850694444444444,0,0,0.010850694444444444,110.59027777777777,0)" xlink:href="#bu"/><use transform="matrix(0.010850694444444444,0,0,0.010850694444444444,124.63107638888889,0)" xlink:href="#af"/><use transform="matrix(0.010850694444444444,0,0,0.010850694444444444,138.25954861111111,0)" xlink:href="#bg"/><use transform="matrix(0.010850694444444444,0,0,0.010850694444444444,147.65625,0)" xlink:href="#aT"/></g><g id="V"><use transform="matrix(0.010850694444444444,0,0,0.010850694444444444,0,0)" xlink:href="#aP"/><use transform="matrix(0.010850694444444444,0,0,0.010850694444444444,14.898003472222221,0)" xlink:href="#ar"/><use transform="matrix(0.010850694444444444,0,0,0.010850694444444444,21.62543402777778,0)" xlink:href="#ar"/><use transform="matrix(0.010850694444444444,0,0,0.010850694444444444,29.00390625,0)" xlink:href="#am"/><use transform="matrix(0.010850694444444444,0,0,0.010850694444444444,41.482204861111114,0)" xlink:href="#aN"/><use transform="matrix(0.010850694444444444,0,0,0.010850694444444444,54.17751736111112,0)" xlink:href="#aO"/></g><path d="M657 26c-323 0-524-166-541-416h195c15 169 171 246 346 246 202 0 356-106 356-265 5-203-294-238-475-293-239-73-380-191-380-389 0-252 224-419 512-419 294 0 499 171 508 396H992c-17-145-151-228-328-228-193 0-321 102-321 242 0 156 175 211 284 241l149 41c160 44 422 134 422 412 0 244-197 432-541 432" id="bv"/><g id="W"><use transform="matrix(0.010850694444444444,0,0,0.010850694444444444,0,0)" xlink:href="#bv"/><use transform="matrix(0.010850694444444444,0,0,0.010850694444444444,14.2578125,0)" xlink:href="#aI"/><use transform="matrix(0.010850694444444444,0,0,0.010850694444444444,27.864583333333332,0)" xlink:href="#ao"/><use transform="matrix(0.010850694444444444,0,0,0.010850694444444444,40.8203125,0)" xlink:href="#aN"/><use transform="matrix(0.010850694444444444,0,0,0.010850694444444444,53.515625,0)" xlink:href="#at"/><use transform="matrix(0.010850694444444444,0,0,0.010850694444444444,58.89756944444444,0)" xlink:href="#am"/><use transform="matrix(0.010850694444444444,0,0,0.010850694444444444,71.37586805555556,0)" xlink:href="#aB"/><use transform="matrix(0.010850694444444444,0,0,0.010850694444444444,76.7578125,0)" xlink:href="#aP"/><use transform="matrix(0.010850694444444444,0,0,0.010850694444444444,91.65581597222221,0)" xlink:href="#ar"/><use transform="matrix(0.010850694444444444,0,0,0.010850694444444444,98.38324652777777,0)" xlink:href="#ar"/><use transform="matrix(0.010850694444444444,0,0,0.010850694444444444,105.76171874999997,0)" xlink:href="#am"/><use transform="matrix(0.010850694444444444,0,0,0.010850694444444444,118.2400173611111,0)" xlink:href="#aN"/><use transform="matrix(0.010850694444444444,0,0,0.010850694444444444,130.9353298611111,0)" xlink:href="#aO"/></g><g id="X"><use transform="matrix(0.010850694444444444,0,0,0.010850694444444444,0,0)" xlink:href="#bv"/><use transform="matrix(0.010850694444444444,0,0,0.010850694444444444,14.2578125,0)" xlink:href="#ar"/><use transform="matrix(0.010850694444444444,0,0,0.010850694444444444,21.63628472222222,0)" xlink:href="#am"/><use transform="matrix(0.010850694444444444,0,0,0.010850694444444444,34.11458333333333,0)" xlink:href="#ar"/><use transform="matrix(0.010850694444444444,0,0,0.010850694444444444,41.38454861111111,0)" xlink:href="#az"/><use transform="matrix(0.010850694444444444,0,0,0.010850694444444444,54.52473958333333,0)" xlink:href="#aq"/></g><path d="M120-303v-155l652-1032h231v1020h202v167h-202V0H821v-303H120zm702-167v-782h-12L323-482v12h499" id="bw"/><g id="Y"><use transform="matrix(0.008173828125000001,0,0,0.008173828125000001,0,0)" xlink:href="#aE"/><use transform="matrix(0.008173828125000001,0,0,0.008173828125000001,6.808798828125001,0)" xlink:href="#ba"/><use transform="matrix(0.008173828125000001,0,0,0.008173828125000001,11.631357421875002,0)" xlink:href="#ba"/><use transform="matrix(0.008173828125000001,0,0,0.008173828125000001,16.453916015625,0)" xlink:href="#bw"/></g><g id="Z"><use transform="matrix(0.010850694444444444,0,0,0.010850694444444444,0,0)" xlink:href="#bp"/><use transform="matrix(0.010850694444444444,0,0,0.010850694444444444,20.703125,0)" xlink:href="#af"/><use transform="matrix(0.010850694444444444,0,0,0.010850694444444444,33.93012152777778,0)" xlink:href="#bq"/><use transform="matrix(0.010850694444444444,0,0,0.010850694444444444,46.85329861111111,0)" xlink:href="#ah"/><use transform="matrix(0.010850694444444444,0,0,0.010850694444444444,58.35503472222222,0)" xlink:href="#aS"/><use transform="matrix(0.010850694444444444,0,0,0.010850694444444444,71.56032986111111,0)" xlink:href="#aL"/><use transform="matrix(0.010850694444444444,0,0,0.010850694444444444,84.46180555555556,0)" xlink:href="#bg"/><use transform="matrix(0.010850694444444444,0,0,0.010850694444444444,92.96875,0)" xlink:href="#bu"/><use transform="matrix(0.010850694444444444,0,0,0.010850694444444444,107.00954861111111,0)" xlink:href="#ah"/><use transform="matrix(0.010850694444444444,0,0,0.010850694444444444,120.24739583333334,0)" xlink:href="#aK"/></g><g id="aa"><use transform="matrix(0.010850694444444444,0,0,0.010850694444444444,0,0)" xlink:href="#bv"/><use transform="matrix(0.010850694444444444,0,0,0.010850694444444444,14.2578125,0)" xlink:href="#ao"/><use transform="matrix(0.010850694444444444,0,0,0.010850694444444444,27.213541666666664,0)" xlink:href="#aB"/><use transform="matrix(0.010850694444444444,0,0,0.010850694444444444,32.59548611111111,0)" xlink:href="#aQ"/></g><path d="M784 20c-382 0-662-292-662-764 0-473 280-766 662-766s660 293 660 766c0 472-278 764-660 764zm0-176c266 0 475-207 475-588 0-383-209-590-475-590-268 0-477 208-477 590 0 380 209 588 477 588" id="bx"/><g id="ab"><use transform="matrix(0.010850694444444444,0,0,0.010850694444444444,0,0)" xlink:href="#bx"/><use transform="matrix(0.010850694444444444,0,0,0.010850694444444444,16.9921875,0)" xlink:href="#aI"/><use transform="matrix(0.010850694444444444,0,0,0.010850694444444444,30.598958333333332,0)" xlink:href="#aI"/><use transform="matrix(0.010850694444444444,0,0,0.010850694444444444,44.205729166666664,0)" xlink:href="#ay"/><use transform="matrix(0.010850694444444444,0,0,0.010850694444444444,57.53038194444444,0)" xlink:href="#al"/><use transform="matrix(0.010850694444444444,0,0,0.010850694444444444,70.65972222222221,0)" xlink:href="#ao"/><use transform="matrix(0.010850694444444444,0,0,0.010850694444444444,83.61545138888889,0)" xlink:href="#al"/><use transform="matrix(0.010850694444444444,0,0,0.010850694444444444,96.74479166666666,0)" xlink:href="#ar"/></g><g id="ac"><use transform="matrix(0.010850694444444444,0,0,0.010850694444444444,0,0)" xlink:href="#aS"/><use transform="matrix(0.010850694444444444,0,0,0.010850694444444444,13.096788194444445,0)" xlink:href="#ah"/><use transform="matrix(0.010850694444444444,0,0,0.010850694444444444,26.55164930555556,0)" xlink:href="#aL"/><use transform="matrix(0.010850694444444444,0,0,0.010850694444444444,39.453125,0)" xlink:href="#ai"/></g><path fill="#333" d="M342 19c-98 0-173-75-173-172s75-172 173-172 173 75 173 172S440 19 342 19" id="by"/><path fill="#333" d="M684 20C381 20 94-164 94-710c0-501 235-800 601-800 293 0 496 188 526 433H921c-25-105-108-170-226-170-197 0-301 182-301 476h10c67-130 211-208 374-208 263 0 459 201 459 481 0 301-224 518-553 518zm-2-242c147 0 258-116 258-268 0-150-108-266-256-266-146 0-259 121-259 267 0 147 109 267 257 267" id="bz"/><g id="ad"><use transform="matrix(0.008680555555555556,0,0,0.008680555555555556,0,0)" xlink:href="#bo"/><use transform="matrix(0.008680555555555556,0,0,0.008680555555555556,7.664930555555556,0)" xlink:href="#by"/><use transform="matrix(0.008680555555555556,0,0,0.008680555555555556,13.602430555555555,0)" xlink:href="#by"/><use transform="matrix(0.008680555555555556,0,0,0.008680555555555556,19.01909722222222,0)" xlink:href="#bz"/></g></defs></g></svg>