<svg xmlns="http://www.w3.org/2000/svg" xmlns:xlink="http://www.w3.org/1999/xlink" xmlns:lucid="lucid" width="699.99" height="441.87"><g transform="translate(-946.7206473437552 -9475.362126378302)" lucid:page-tab-id="0_0"><path d="M-14500-2500h25000v16000h-25000z" fill="#fff"/><path d="M947.72 9482.36a6 6 0 0 1 6-6h148a6 6 0 0 1 6 6v108a6 6 0 0 1-6 6h-148a6 6 0 0 1-6-6z" stroke="#000" stroke-width="2" fill="#fff"/><use xlink:href="#a" transform="matrix(1,0,0,1,947.7206473801352,9476.36212640485) translate(23.266718749999995 66.52777777777777)"/><path d="M1224.25 9482.7a6 6 0 0 1 6-6h148a6 6 0 0 1 6 6v108a6 6 0 0 1-6 6h-148a6 6 0 0 1-6-6z" stroke="#000" stroke-width="2" fill="#fff"/><use xlink:href="#b" transform="matrix(1,0,0,1,1224.2526773395539,9476.707473341146) translate(10.305564236111133 66.52777777777777)"/><path d="M1027.72 9597.86v318.52" stroke="#3a414a" fill="none"/><path d="M1028.2 9597.88h-.95v-.52h.95z" stroke="#3a414a" stroke-width=".05" fill="#3a414a"/><path d="M1027.72 9916.37v.5" stroke="#3a414a" fill="none"/><path d="M1304.73 9916.73h-.95v-112.88h.95zm0-160.2h-.95V9598.2h.95z" stroke="#3a414a" stroke-width=".05" fill="#3a414a"/><path d="M1304.73 9598.22h-.95v-.5h.95z" fill="#3a414a"/><path stroke="#3a414a" stroke-width=".05" fill="#3a414a"/><path d="M1304.73 9917.23h-.95v-.5h.95z" stroke="#3a414a" stroke-width=".05" fill="#3a414a"/><path d="M1485.7 9483.23a6 6 0 0 1 6-6h148a6 6 0 0 1 6 6v108a6 6 0 0 1-6 6h-148a6 6 0 0 1-6-6z" stroke="#000" stroke-width="2" fill="#fff"/><use xlink:href="#c" transform="matrix(1,0,0,1,1485.7081777955354,9477.228736670573) translate(23.917760416666674 66.52777777777777)"/><path d="M1565.7 9598.73v318" stroke="#3a414a" fill="none"/><path d="M1566.18 9598.74h-.95v-.5h.95z" stroke="#3a414a" stroke-width=".05" fill="#3a414a"/><path d="M1565.7 9916.72v.5" stroke="#3a414a" fill="none"/><path d="M1393.62 9625h-79.92v-.96h79.92zm171.6 0h-88.88v-.96h88.87z" stroke="#3a414a" stroke-width=".05" fill="#3a414a"/><path d="M1565.7 9625h-.5v-.96h.5zM1322.8 9614.93l-15.77 9.1h6.72v.96h-6.72l15.78 9.1-.46.83-18.04-10.4 18.04-10.42z" stroke="#3a414a" stroke-width=".05" fill="#3a414a"/><use xlink:href="#d" transform="matrix(1,0,0,1,1393.6219206231003,9613.762390906119) translate(0 17.22222222222222)"/><path d="M1128.78 9650.66h-91.62v-.95h91.62zm174.97 0H1203.2v-.95h100.55zM1304.25 9650.66h-.5v-.95h.5z" stroke="#3a414a" stroke-width=".05" fill="#3a414a"/><path d="M1046.28 9640.6l-15.8 9.1h6.74v.95h-6.73l15.78 9.12-.48.82-18.03-10.42 18.03-10.4z" stroke="#3a414a" stroke-width=".05" fill="#3a414a"/><use xlink:href="#e" transform="matrix(1,0,0,1,1128.7818012487335,9639.425095690933) translate(0 17.22222222222222)"/><use xlink:href="#f" transform="matrix(1,0,0,1,1128.7818012487335,9639.425095690933) translate(32.54340277777778 17.22222222222222)"/><path d="M1087.47 9898.96h-50.3v-.95h50.3zm216.28 0h-59.25v-.95h59.25zM1304.25 9898.96h-.5v-.95h.5z" stroke="#3a414a" stroke-width=".05" fill="#3a414a"/><path d="M1046.28 9888.9l-15.8 9.1h6.74v.96h-6.73l15.78 9.12-.48.82-18.03-10.4 18.03-10.42z" stroke="#3a414a" stroke-width=".05" fill="#3a414a"/><use xlink:href="#g" transform="matrix(1,0,0,1,1087.4710373598446,9887.731907298396) translate(0 17.22222222222222)"/><use xlink:href="#h" transform="matrix(1,0,0,1,1087.4710373598446,9887.731907298396) translate(68.94965277777779 17.22222222222222)"/><path d="M1028.22 9700.14h4.94m4.93 0h9.87m4.93 0h9.88m4.93 0h9.9m4.93 0h9.87m4.94 0h9.87m4.95 0h9.87m4.94 0h9.87m4.94 0h9.87m4.94 0h9.87m4.94 0h9.86m4.94 0h9.87m4.94 0h9.88m4.94 0h9.87m4.93 0h9.87m4.94 0h9.88m4.93 0h9.88m4.93 0h9.88m4.93 0h4.94M1028.23 9700.14h-.5M1285.93 9690.14l17.32 10-17.32 10m17.32-10h-8.5" stroke="#3a414a" fill="none"/><path d="M1364.46 9815.86l-.08 1-.24.98-.38.94-.54.86-.65.78-.78.66-.87.53-.94.4-1 .24-1 .07h-44.3v-.94h44.27l.88-.07.84-.2.8-.34.73-.45.66-.56.55-.66.46-.73.34-.8.2-.85.07-.88v-11.97h.96zm-5.46-77.72l1 .23.93.4.86.52.77.65.65.78.54.86.38.93.24 1 .08.98v12.02h-.95v-11.97l-.06-.88-.2-.84-.33-.8-.45-.74-.56-.67-.67-.57-.74-.45-.8-.32-.85-.2-.88-.07h-53.22v-.94H1358z" stroke="#3a414a" stroke-width=".05" fill="#3a414a"/><path d="M1304.77 9739h-.52v-.94h.52zM1322.8 9812.25l-15.77 9.1h6.72v.96h-6.72l15.78 9.13-.46.82-18.04-10.4 18.04-10.42z" stroke="#3a414a" stroke-width=".05" fill="#3a414a"/><g><use xlink:href="#e" transform="matrix(1,0,0,1,1240.3703429154,9756.52398515669) translate(0 17.22222222222222)"/><use xlink:href="#i" transform="matrix(1,0,0,1,1240.3703429154,9756.52398515669) translate(32.54340277777778 17.22222222222222)"/><use xlink:href="#j" transform="matrix(1,0,0,1,1240.3703429154,9756.52398515669) translate(0 43.034722222222214)"/><use xlink:href="#k" transform="matrix(1,0,0,1,1240.3703429154,9756.52398515669) translate(45.21701388888889 43.034722222222214)"/><use xlink:href="#l" transform="matrix(1,0,0,1,1240.3703429154,9756.52398515669) translate(88.08159722222223 43.034722222222214)"/><use xlink:href="#m" transform="matrix(1,0,0,1,1240.3703429154,9756.52398515669) translate(153.29861111111111 43.034722222222214)"/><use xlink:href="#n" transform="matrix(1,0,0,1,1240.3703429154,9756.52398515669) translate(169.40104166666669 43.034722222222214)"/><use xlink:href="#o" transform="matrix(1,0,0,1,1240.3703429154,9756.52398515669) translate(205.39930555555557 43.034722222222214)"/></g><defs><path d="M180 0v-1490h528c311 0 458 177 458 395 0 191-114 278-244 313v14c139 9 302 137 302 371 0 225-148 397-499 397H180zm190-168h350c232 0 321-102 321-231 0-149-120-277-311-277H370v508zm0-668h328c160 0 286-101 286-255 0-129-87-231-280-231H370v486" id="p"/><path d="M471 26C259 26 90-98 90-318c0-256 228-303 435-329 202-27 287-16 287-108 0-139-79-219-234-219-161 0-248 86-283 164l-173-57c86-203 278-265 451-265 150 0 419 46 419 395V0H815v-152h-12C765-73 660 26 471 26zm31-159c199 0 310-134 310-271v-155c-30 35-226 55-295 64-131 17-246 59-246 186 0 116 97 176 231 176" id="q"/><path d="M598-1118v154H368v674c0 100 37 144 132 144 23 0 62-6 92-12L629-6c-37 13-88 20-134 20-193 0-307-107-307-290v-688H20v-154h168v-266h180v266h230" id="r"/><path d="M338-1490V0H158v-1490h180" id="s"/><path d="M628 24c-324 0-524-230-524-574 0-343 198-582 503-582 237 0 487 146 487 559v75H286c9 234 145 362 343 362 132 0 231-58 273-172l174 48C1024-91 857 24 628 24zM287-650h624c-17-190-120-322-304-322-192 0-309 151-320 322" id="t"/><path d="M657 26c-323 0-524-166-541-416h195c15 169 171 246 346 246 202 0 356-106 356-265 5-203-294-238-475-293-239-73-380-191-380-389 0-252 224-419 512-419 294 0 499 171 508 396H992c-17-145-151-228-328-228-193 0-321 102-321 242 0 156 175 211 284 241l149 41c160 44 422 134 422 412 0 244-197 432-541 432" id="u"/><g id="a"><use transform="matrix(0.010850694444444444,0,0,0.010850694444444444,0,0)" xlink:href="#p"/><use transform="matrix(0.010850694444444444,0,0,0.010850694444444444,14.539930555555555,0)" xlink:href="#q"/><use transform="matrix(0.010850694444444444,0,0,0.010850694444444444,27.018229166666664,0)" xlink:href="#r"/><use transform="matrix(0.010850694444444444,0,0,0.010850694444444444,33.74565972222222,0)" xlink:href="#r"/><use transform="matrix(0.010850694444444444,0,0,0.010850694444444444,41.015625,0)" xlink:href="#s"/><use transform="matrix(0.010850694444444444,0,0,0.010850694444444444,46.39756944444444,0)" xlink:href="#t"/><use transform="matrix(0.010850694444444444,0,0,0.010850694444444444,59.35329861111111,0)" xlink:href="#u"/><use transform="matrix(0.010850694444444444,0,0,0.010850694444444444,73.61111111111111,0)" xlink:href="#r"/><use transform="matrix(0.010850694444444444,0,0,0.010850694444444444,80.98958333333333,0)" xlink:href="#q"/><use transform="matrix(0.010850694444444444,0,0,0.010850694444444444,93.46788194444444,0)" xlink:href="#r"/><use transform="matrix(0.010850694444444444,0,0,0.010850694444444444,100.52083333333333,0)" xlink:href="#t"/><path d="M-1.1 4.54h115.7v1.52H-1.1z"/></g><path d="M180 0v-1490h908v168H370v486h669v168H370v500h727V0H180" id="v"/><path d="M481 0L54-1118h197c107 314 236 620 325 951 87-331 217-637 324-951h197L670 0H481" id="w"/><path d="M338-670V0H158v-1118h173l1 207c72-158 192-221 342-221 226 0 378 139 378 422V0H872v-695c0-172-96-275-252-275-161 0-282 109-282 300" id="x"/><path d="M180 0v-1490h270l367 940c28 72 75 218 110 339 35-117 81-264 110-339l362-940h271V0h-187c2-448-5-837 7-1287-157 497-311 829-483 1287H842C666-458 514-784 354-1284c12 438 5 843 7 1284H180" id="y"/><path d="M611 442c-248 0-391-105-460-228l146-94c47 65 117 165 314 165 178 0 307-82 307-266v-224h-17C863-141 792-18 576-18c-268 0-472-195-472-546 0-346 197-568 476-568 216 0 288 133 326 193h17v-179h175V29c0 289-215 413-487 413zm-5-620c203 0 314-146 314-390 0-237-108-403-314-403-213 0-319 180-319 403 0 230 109 390 319 390" id="z"/><path d="M158 0v-1118h174v172h12c41-113 157-188 290-188 26 0 70 2 91 3v181c-11-2-60-10-108-10-161 0-279 109-279 260V0H158" id="A"/><g id="b"><use transform="matrix(0.010850694444444444,0,0,0.010850694444444444,0,0)" xlink:href="#v"/><use transform="matrix(0.010850694444444444,0,0,0.010850694444444444,13.35720486111111,0)" xlink:href="#w"/><use transform="matrix(0.010850694444444444,0,0,0.010850694444444444,25.41232638888889,0)" xlink:href="#t"/><use transform="matrix(0.010850694444444444,0,0,0.010850694444444444,38.36805555555555,0)" xlink:href="#x"/><use transform="matrix(0.010850694444444444,0,0,0.010850694444444444,51.49739583333333,0)" xlink:href="#r"/><use transform="matrix(0.010850694444444444,0,0,0.010850694444444444,58.76736111111111,0)" xlink:href="#y"/><use transform="matrix(0.010850694444444444,0,0,0.010850694444444444,78.84114583333333,0)" xlink:href="#q"/><use transform="matrix(0.010850694444444444,0,0,0.010850694444444444,91.31944444444444,0)" xlink:href="#x"/><use transform="matrix(0.010850694444444444,0,0,0.010850694444444444,104.44878472222221,0)" xlink:href="#z"/><use transform="matrix(0.010850694444444444,0,0,0.010850694444444444,118.07725694444441,0)" xlink:href="#t"/><use transform="matrix(0.010850694444444444,0,0,0.010850694444444444,131.0329861111111,0)" xlink:href="#A"/><path d="M-1.1 4.54h141.6v1.52H-1.1z"/></g><path d="M180 0v-1490h190v1322h690V0H180" id="B"/><path d="M613 24c-304 0-509-231-509-576 0-350 205-580 509-580 305 0 511 230 511 580 0 345-206 576-511 576zm0-161c226 0 329-195 329-415 0-222-103-419-329-419-223 0-326 196-326 419 0 220 103 415 326 415" id="C"/><path d="M158 418v-1536h174v179h20c37-59 106-193 324-193 279 0 474 222 474 576 0 356-194 580-473 580-213 0-288-135-325-197h-14v591H158zm492-555c209 0 317-186 317-421 0-232-105-413-317-413-206 0-314 166-314 413 0 249 111 421 314 421" id="D"/><g id="c"><use transform="matrix(0.010850694444444444,0,0,0.010850694444444444,0,0)" xlink:href="#p"/><use transform="matrix(0.010850694444444444,0,0,0.010850694444444444,14.539930555555555,0)" xlink:href="#q"/><use transform="matrix(0.010850694444444444,0,0,0.010850694444444444,27.018229166666664,0)" xlink:href="#r"/><use transform="matrix(0.010850694444444444,0,0,0.010850694444444444,33.74565972222222,0)" xlink:href="#r"/><use transform="matrix(0.010850694444444444,0,0,0.010850694444444444,41.015625,0)" xlink:href="#s"/><use transform="matrix(0.010850694444444444,0,0,0.010850694444444444,46.39756944444444,0)" xlink:href="#t"/><use transform="matrix(0.010850694444444444,0,0,0.010850694444444444,59.35329861111111,0)" xlink:href="#B"/><use transform="matrix(0.010850694444444444,0,0,0.010850694444444444,71.91840277777777,0)" xlink:href="#C"/><use transform="matrix(0.010850694444444444,0,0,0.010850694444444444,85.24305555555554,0)" xlink:href="#C"/><use transform="matrix(0.010850694444444444,0,0,0.010850694444444444,98.56770833333331,0)" xlink:href="#D"/><path d="M-1.1 4.54h114.4v1.52H-1.1z"/></g><path fill="#333" d="M75-1237v-253h1217v253H837V0H531v-1237H75" id="E"/><path fill="#333" d="M513 14c-232 0-385-159-385-421v-711h300v659c0 139 76 222 202 222 127 0 217-86 217-234v-647h301V0H864l-4-232C797-74 683 14 513 14" id="F"/><path fill="#333" d="M128 0v-1118h290v195h12c54-169 184-238 367-200v268c-27-8-86-15-130-15-138 0-239 95-239 234V0H128" id="G"/><path fill="#333" d="M428-647V0H128v-1118h283l4 231c63-156 176-245 348-245 232 0 384 159 384 421V0H847v-659c0-139-76-222-202-222-128 0-217 86-217 234" id="H"/><path fill="#333" d="M681 22C323 22 94-145 85-462h297c10 151 131 226 296 226 163 0 271-77 271-190 0-102-95-149-257-189l-164-41c-252-61-403-188-403-405 0-269 236-449 560-449 330 0 546 183 551 445H941c-11-119-106-188-259-188-156 0-244 72-244 172-3 156 226 185 373 221 250 61 445 186 445 436 0 271-213 446-575 446" id="I"/><path fill="#333" d="M683-1118v229H474v562c0 71 29 104 102 104 23 0 73-7 95-13l43 225C647 9 580 16 520 16 296 16 174-96 174-301v-588H20v-229h154v-266h300v266h209" id="J"/><path fill="#333" d="M440 22C227 22 68-92 68-313c0-250 202-322 422-343 195-21 271-24 271-105 0-95-63-149-175-149-116 0-187 57-211 129l-275-46c57-194 237-305 487-305 240 0 474 108 474 379V0H777v-155h-10C713-51 605 22 440 22zm85-211c140 0 238-93 238-211v-121c-37 26-156 42-222 51-111 16-185 59-185 149 0 87 70 132 169 132" id="K"/><g id="d"><use transform="matrix(0.008680555555555556,0,0,0.008680555555555556,0,0)" xlink:href="#E"/><use transform="matrix(0.008680555555555556,0,0,0.008680555555555556,10.555555555555555,0)" xlink:href="#F"/><use transform="matrix(0.008680555555555556,0,0,0.008680555555555556,21.62326388888889,0)" xlink:href="#G"/><use transform="matrix(0.008680555555555556,0,0,0.008680555555555556,28.993055555555557,0)" xlink:href="#H"/><use transform="matrix(0.008680555555555556,0,0,0.008680555555555556,40.06076388888889,0)" xlink:href="#I"/><use transform="matrix(0.008680555555555556,0,0,0.008680555555555556,51.70138888888889,0)" xlink:href="#J"/><use transform="matrix(0.008680555555555556,0,0,0.008680555555555556,58.298611111111114,0)" xlink:href="#K"/><use transform="matrix(0.008680555555555556,0,0,0.008680555555555556,68.61979166666667,0)" xlink:href="#G"/><use transform="matrix(0.008680555555555556,0,0,0.008680555555555556,76.20659722222223,0)" xlink:href="#J"/></g><path fill="#333" d="M625 442c-280 0-454-114-503-274l258-72c28 63 97 128 243 128 153 0 246-69 246-216v-206h-23C805-108 717-16 536-16 284-16 81-191 81-561c0-378 208-571 456-571 188 0 280 113 321 202h13v-188h295V-9c0 303-226 451-541 451zm5-686c153 0 240-119 240-319 0-198-86-329-240-329-158 0-241 137-241 329 0 195 85 319 241 319" id="L"/><path fill="#333" d="M633 22C291 22 81-200 81-553c0-345 210-579 537-579 292 0 525 185 525 567v84H378c7 183 109 277 260 277 105 0 184-46 216-132l272 51C1071-99 893 22 633 22zM380-669h474c-15-146-94-237-233-237-143 0-229 99-241 237" id="M"/><g id="e"><use transform="matrix(0.008680555555555556,0,0,0.008680555555555556,0,0)" xlink:href="#L"/><use transform="matrix(0.008680555555555556,0,0,0.008680555555555556,11.23263888888889,0)" xlink:href="#M"/><use transform="matrix(0.008680555555555556,0,0,0.008680555555555556,21.822916666666668,0)" xlink:href="#J"/></g><path fill="#333" d="M135 0v-1490h980v253H440v416h609v249H440V0H135" id="N"/><path fill="#333" d="M128 0v-1118h300V0H128zm150-1264c-91 0-165-68-165-154 0-85 74-154 165-154 90 0 165 69 165 154 0 86-75 154-165 154" id="O"/><path fill="#333" d="M428-1490V0H128v-1490h300" id="P"/><path fill="#333" d="M537 19C279 19 81-185 81-557c0-382 206-575 454-575 190 0 278 113 318 202h10v-560h300V0H868v-179h-15C812-89 719 19 537 19zm92-241c153 0 240-134 240-336 0-203-86-334-240-334-158 0-240 138-240 334 0 197 84 336 240 336" id="Q"/><g id="f"><use transform="matrix(0.008680555555555556,0,0,0.008680555555555556,0,0)" xlink:href="#N"/><use transform="matrix(0.008680555555555556,0,0,0.008680555555555556,10.434027777777779,0)" xlink:href="#O"/><use transform="matrix(0.008680555555555556,0,0,0.008680555555555556,15.251736111111112,0)" xlink:href="#M"/><use transform="matrix(0.008680555555555556,0,0,0.008680555555555556,25.842013888888893,0)" xlink:href="#P"/><use transform="matrix(0.008680555555555556,0,0,0.008680555555555556,30.65972222222223,0)" xlink:href="#Q"/></g><path fill="#333" d="M628 22C291 22 81-210 81-554c0-346 210-578 547-578 265 0 455 142 497 372l-279 52c-25-116-99-188-215-188-160 0-244 139-244 341 0 200 84 341 244 341 116 0 193-74 217-195l279 51C1085-123 896 22 628 22" id="R"/><path fill="#333" d="M428-647V0H128v-1490h294v586c65-146 175-228 341-228 232 0 385 159 385 421V0H847v-659c0-139-76-222-202-222-128 0-217 86-217 234" id="S"/><g id="g"><use transform="matrix(0.008680555555555556,0,0,0.008680555555555556,0,0)" xlink:href="#R"/><use transform="matrix(0.008680555555555556,0,0,0.008680555555555556,10.460069444444445,0)" xlink:href="#S"/><use transform="matrix(0.008680555555555556,0,0,0.008680555555555556,21.52777777777778,0)" xlink:href="#K"/><use transform="matrix(0.008680555555555556,0,0,0.008680555555555556,31.848958333333336,0)" xlink:href="#H"/><use transform="matrix(0.008680555555555556,0,0,0.008680555555555556,42.91666666666667,0)" xlink:href="#L"/><use transform="matrix(0.008680555555555556,0,0,0.008680555555555556,54.14930555555556,0)" xlink:href="#M"/></g><path fill="#333" d="M135 0v-1490h591c327 0 492 160 492 383 0 177-115 286-268 320v15c168 8 326 140 326 361 0 236-176 411-512 411H135zm305-251h264c179 0 258-76 258-189 0-125-97-215-250-215H440v404zm0-613h241c131 0 228-74 228-194 0-109-79-183-222-183H440v377" id="T"/><path fill="#333" d="M135 0v-1490h581c339 0 533 192 533 485 0 204-94 351-264 424L1302 0H964L680-532H440V0H135zm305-779h220c186 0 274-77 274-226 0-150-88-233-275-233H440v459" id="U"/><g id="h"><use transform="matrix(0.008680555555555556,0,0,0.008680555555555556,0,0)" xlink:href="#T"/><use transform="matrix(0.008680555555555556,0,0,0.008680555555555556,11.762152777777779,0)" xlink:href="#K"/><use transform="matrix(0.008680555555555556,0,0,0.008680555555555556,22.083333333333336,0)" xlink:href="#J"/><use transform="matrix(0.008680555555555556,0,0,0.008680555555555556,27.968750000000004,0)" xlink:href="#J"/><use transform="matrix(0.008680555555555556,0,0,0.008680555555555556,34.52256944444445,0)" xlink:href="#P"/><use transform="matrix(0.008680555555555556,0,0,0.008680555555555556,39.340277777777786,0)" xlink:href="#M"/><use transform="matrix(0.008680555555555556,0,0,0.008680555555555556,49.930555555555564,0)" xlink:href="#U"/><use transform="matrix(0.008680555555555556,0,0,0.008680555555555556,61.605902777777786,0)" xlink:href="#F"/><use transform="matrix(0.008680555555555556,0,0,0.008680555555555556,72.67361111111111,0)" xlink:href="#P"/><use transform="matrix(0.008680555555555556,0,0,0.008680555555555556,77.49131944444444,0)" xlink:href="#M"/></g><path fill="#333" d="M135 0v-1490h468l242 684c30 94 76 293 111 455 34-161 80-360 110-455l238-684h470V0h-307c0-447-3-765 11-1227-122 503-246 788-395 1227H826C676-435 552-717 427-1215c15 453 11 775 11 1215H135" id="V"/><path fill="#333" d="M572 22C302 22 117-98 78-306l279-48c29 105 101 156 224 156 114 0 185-48 185-115 0-118-228-130-337-155-215-49-322-150-322-317 0-215 187-347 470-347 265 0 424 116 466 298l-266 47c-24-76-87-130-196-130-98 0-174 46-174 113 0 56 38 95 144 117l201 40c216 44 320 143 320 302 0 220-207 367-500 367" id="W"/><g id="i"><use transform="matrix(0.008680555555555556,0,0,0.008680555555555556,0,0)" xlink:href="#V"/><use transform="matrix(0.008680555555555556,0,0,0.008680555555555556,16.5625,0)" xlink:href="#F"/><use transform="matrix(0.008680555555555556,0,0,0.008680555555555556,27.630208333333336,0)" xlink:href="#J"/><use transform="matrix(0.008680555555555556,0,0,0.008680555555555556,34.22743055555556,0)" xlink:href="#K"/><use transform="matrix(0.008680555555555556,0,0,0.008680555555555556,44.548611111111114,0)" xlink:href="#J"/><use transform="matrix(0.008680555555555556,0,0,0.008680555555555556,50.885416666666664,0)" xlink:href="#M"/><use transform="matrix(0.008680555555555556,0,0,0.008680555555555556,61.475694444444436,0)" xlink:href="#Q"/><use transform="matrix(0.008680555555555556,0,0,0.008680555555555556,72.68229166666667,0)" xlink:href="#T"/><use transform="matrix(0.008680555555555556,0,0,0.008680555555555556,84.44444444444446,0)" xlink:href="#K"/><use transform="matrix(0.008680555555555556,0,0,0.008680555555555556,94.76562500000001,0)" xlink:href="#J"/><use transform="matrix(0.008680555555555556,0,0,0.008680555555555556,100.65104166666669,0)" xlink:href="#J"/><use transform="matrix(0.008680555555555556,0,0,0.008680555555555556,107.20486111111113,0)" xlink:href="#P"/><use transform="matrix(0.008680555555555556,0,0,0.008680555555555556,112.02256944444444,0)" xlink:href="#M"/><use transform="matrix(0.008680555555555556,0,0,0.008680555555555556,122.61284722222223,0)" xlink:href="#U"/><use transform="matrix(0.008680555555555556,0,0,0.008680555555555556,134.28819444444446,0)" xlink:href="#F"/><use transform="matrix(0.008680555555555556,0,0,0.008680555555555556,145.35590277777777,0)" xlink:href="#P"/><use transform="matrix(0.008680555555555556,0,0,0.008680555555555556,150.17361111111114,0)" xlink:href="#M"/><use transform="matrix(0.008680555555555556,0,0,0.008680555555555556,160.7638888888889,0)" xlink:href="#W"/></g><path fill="#333" d="M750-1118v229H516V0H217v-889H20v-229h197v-86c0-238 156-356 363-356 94 0 178 20 215 31l-54 226c-25-7-61-15-100-15-123-3-131 84-125 200h234" id="X"/><path fill="#333" d="M628 22C291 22 81-210 81-554c0-346 210-578 547-578 336 0 547 232 547 578 0 344-211 576-547 576zm0-236c160 0 242-146 242-341 0-197-82-341-242-341S387-753 387-555c0 195 81 341 241 341" id="Y"/><path fill="#333" d="M128 0v-1118h278l12 217c60-163 185-234 319-234 143 0 236 81 288 251 63-172 205-251 359-251 205 0 357 138 357 381V0h-301v-697c0-126-76-187-177-187-114 0-184 79-184 196V0H789v-705c0-109-72-179-174-179-106 0-187 74-187 208V0H128" id="Z"/><g id="j"><use transform="matrix(0.008680555555555556,0,0,0.008680555555555556,0,0)" xlink:href="#X"/><use transform="matrix(0.008680555555555556,0,0,0.008680555555555556,7.074652777777778,0)" xlink:href="#G"/><use transform="matrix(0.008680555555555556,0,0,0.008680555555555556,13.880208333333334,0)" xlink:href="#Y"/><use transform="matrix(0.008680555555555556,0,0,0.008680555555555556,24.782986111111118,0)" xlink:href="#Z"/></g><g id="k"><use transform="matrix(0.008680555555555556,0,0,0.008680555555555556,0,0)" xlink:href="#X"/><use transform="matrix(0.008680555555555556,0,0,0.008680555555555556,7.222222222222222,0)" xlink:href="#O"/><use transform="matrix(0.008680555555555556,0,0,0.008680555555555556,12.039930555555559,0)" xlink:href="#M"/><use transform="matrix(0.008680555555555556,0,0,0.008680555555555556,22.630208333333336,0)" xlink:href="#P"/><use transform="matrix(0.008680555555555556,0,0,0.008680555555555556,27.44791666666667,0)" xlink:href="#Q"/></g><g id="l"><use transform="matrix(0.008680555555555556,0,0,0.008680555555555556,0,0)" xlink:href="#M"/><use transform="matrix(0.008680555555555556,0,0,0.008680555555555556,10.590277777777779,0)" xlink:href="#X"/><use transform="matrix(0.008680555555555556,0,0,0.008680555555555556,16.927083333333336,0)" xlink:href="#X"/><use transform="matrix(0.008680555555555556,0,0,0.008680555555555556,23.61979166666667,0)" xlink:href="#M"/><use transform="matrix(0.008680555555555556,0,0,0.008680555555555556,34.21006944444445,0)" xlink:href="#R"/><use transform="matrix(0.008680555555555556,0,0,0.008680555555555556,44.67013888888889,0)" xlink:href="#J"/><use transform="matrix(0.008680555555555556,0,0,0.008680555555555556,51.05034722222222,0)" xlink:href="#W"/></g><g id="m"><use transform="matrix(0.008680555555555556,0,0,0.008680555555555556,0,0)" xlink:href="#O"/><use transform="matrix(0.008680555555555556,0,0,0.008680555555555556,4.817708333333334,0)" xlink:href="#X"/></g><path fill="#333" d="M120 396l69-226c123 42 245 23 254-107l8-60L31-1118h319c87 288 199 559 259 872 72-308 185-583 277-872h315L726 132c-68 181-186 294-410 294-79 0-153-13-196-30" id="aa"/><g id="n"><use transform="matrix(0.008680555555555556,0,0,0.008680555555555556,0,0)" xlink:href="#K"/><use transform="matrix(0.008680555555555556,0,0,0.008680555555555556,10.321180555555555,0)" xlink:href="#H"/><use transform="matrix(0.008680555555555556,0,0,0.008680555555555556,21.085069444444443,0)" xlink:href="#aa"/></g><path fill="#333" d="M42 0l360-574-338-544h324c72 124 151 261 209 394 58-134 140-271 215-394h318L785-570 1146 0H824c-79-136-169-280-234-425C528-278 439-134 360 0H42" id="ab"/><g id="o"><use transform="matrix(0.008680555555555556,0,0,0.008680555555555556,0,0)" xlink:href="#M"/><use transform="matrix(0.008680555555555556,0,0,0.008680555555555556,10.234375,0)" xlink:href="#ab"/><use transform="matrix(0.008680555555555556,0,0,0.008680555555555556,20.546875,0)" xlink:href="#O"/><use transform="matrix(0.008680555555555556,0,0,0.008680555555555556,25.364583333333336,0)" xlink:href="#W"/><use transform="matrix(0.008680555555555556,0,0,0.008680555555555556,35.32118055555556,0)" xlink:href="#J"/></g></defs></g></svg>