<svg xmlns="http://www.w3.org/2000/svg" xmlns:xlink="http://www.w3.org/1999/xlink" xmlns:lucid="lucid" width="2362" height="1448"><g transform="translate(-1658.99999992724 -5798.999999982768)" lucid:page-tab-id="0_0"><path d="M-14500-2500h25000v16000h-25000z" fill="#fff"/><path d="M2630 6406a6 6 0 0 1 6-6h408a6 6 0 0 1 6 6v127a6 6 0 0 1-6 6h-408a6 6 0 0 1-6-6z" stroke="#000" stroke-width="2" fill="#fff"/><path d="M2630 6442.9h420" stroke="#000" stroke-width="2" fill="none"/><use xlink:href="#a" transform="matrix(1,0,0,1,2638,6408) translate(151.33268229166669 21.58376736111111)"/><use xlink:href="#b" transform="matrix(1,0,0,1,2642,6450.888020833333) translate(0 32.450954861111114)"/><use xlink:href="#c" transform="matrix(1,0,0,1,2642,6450.888020833333) translate(20.95269097222222 32.450954861111114)"/><use xlink:href="#d" transform="matrix(1,0,0,1,2642,6450.888020833333) translate(260.44921874999994 32.450954861111114)"/><use xlink:href="#e" transform="matrix(1,0,0,1,2642,6450.888020833333) translate(307.5737847222222 32.450954861111114)"/><use xlink:href="#b" transform="matrix(1,0,0,1,2642,6450.888020833333) translate(0 64.71657986111111)"/><use xlink:href="#f" transform="matrix(1,0,0,1,2642,6450.888020833333) translate(20.95269097222222 64.71657986111111)"/><use xlink:href="#d" transform="matrix(1,0,0,1,2642,6450.888020833333) translate(258.5394965277777 64.71657986111111)"/><use xlink:href="#g" transform="matrix(1,0,0,1,2642,6450.888020833333) translate(305.66406249999994 64.71657986111111)"/><path d="M1660 6846a6 6 0 0 1 6-6h148a6 6 0 0 1 6 6v54a6 6 0 0 1-6 6h-148a6 6 0 0 1-6-6z" stroke="#000" stroke-width="2" fill="#fff"/><use xlink:href="#h" transform="matrix(1,0,0,1,1668,6848) translate(35.671875 33.083767361111114)"/><path d="M1860 6846a6 6 0 0 1 6-6h148a6 6 0 0 1 6 6v54a6 6 0 0 1-6 6h-148a6 6 0 0 1-6-6z" stroke="#000" stroke-width="2" fill="#fff"/><use xlink:href="#i" transform="matrix(1,0,0,1,1868,6848) translate(6.440104166666657 33.083767361111114)"/><path d="M2060 6846a6 6 0 0 1 6-6h148a6 6 0 0 1 6 6v54a6 6 0 0 1-6 6h-148a6 6 0 0 1-6-6z" stroke="#000" stroke-width="2" fill="#fff"/><use xlink:href="#j" transform="matrix(1,0,0,1,2068,6848) translate(13.682942708333343 33.083767361111114)"/><path d="M2260 6846a6 6 0 0 1 6-6h148a6 6 0 0 1 6 6v54a6 6 0 0 1-6 6h-148a6 6 0 0 1-6-6z" stroke="#000" stroke-width="2" fill="#fff"/><use xlink:href="#k" transform="matrix(1,0,0,1,2268,6848) translate(21.853515625000007 33.083767361111114)"/><path d="M2460 6846a6 6 0 0 1 6-6h148a6 6 0 0 1 6 6v54a6 6 0 0 1-6 6h-148a6 6 0 0 1-6-6z" stroke="#000" stroke-width="2" fill="#fff"/><use xlink:href="#l" transform="matrix(1,0,0,1,2468,6848) translate(16.249131944444443 33.083767361111114)"/><path d="M2660 6846a6 6 0 0 1 6-6h148a6 6 0 0 1 6 6v54a6 6 0 0 1-6 6h-148a6 6 0 0 1-6-6z" stroke="#000" stroke-width="2" fill="#fff"/><use xlink:href="#m" transform="matrix(1,0,0,1,2668,6848) translate(33.70247395833333 33.083767361111114)"/><path d="M2860 6846a6 6 0 0 1 6-6h148a6 6 0 0 1 6 6v54a6 6 0 0 1-6 6h-148a6 6 0 0 1-6-6z" stroke="#000" stroke-width="2" fill="#fff"/><use xlink:href="#n" transform="matrix(1,0,0,1,2868,6848) translate(41.411892361111114 33.083767361111114)"/><path d="M3060 6846a6 6 0 0 1 6-6h148a6 6 0 0 1 6 6v54a6 6 0 0 1-6 6h-148a6 6 0 0 1-6-6z" stroke="#000" stroke-width="2" fill="#fff"/><use xlink:href="#o" transform="matrix(1,0,0,1,3068,6848) translate(47.72699652777778 33.083767361111114)"/><path d="M3260 6846a6 6 0 0 1 6-6h148a6 6 0 0 1 6 6v54a6 6 0 0 1-6 6h-148a6 6 0 0 1-6-6z" stroke="#000" stroke-width="2" fill="#fff"/><use xlink:href="#p" transform="matrix(1,0,0,1,3268,6848) translate(48.37803819444444 33.083767361111114)"/><path d="M3460 6846a6 6 0 0 1 6-6h148a6 6 0 0 1 6 6v54a6 6 0 0 1-6 6h-148a6 6 0 0 1-6-6z" stroke="#000" stroke-width="2" fill="#fff"/><use xlink:href="#q" transform="matrix(1,0,0,1,3468,6848) translate(11.556206597222229 33.083767361111114)"/><path d="M3660 6846a6 6 0 0 1 6-6h148a6 6 0 0 1 6 6v54a6 6 0 0 1-6 6h-148a6 6 0 0 1-6-6z" stroke="#000" stroke-width="2" fill="#fff"/><use xlink:href="#r" transform="matrix(1,0,0,1,3668,6848) translate(41.699435763888886 33.083767361111114)"/><path d="M3860 6846a6 6 0 0 1 6-6h148a6 6 0 0 1 6 6v54a6 6 0 0 1-6 6h-148a6 6 0 0 1-6-6z" stroke="#000" stroke-width="2" fill="#fff"/><use xlink:href="#s" transform="matrix(1,0,0,1,3868,6848) translate(37.473090277777786 33.083767361111114)"/><path d="M2840 6556.38v10.6m0 10.6v21.18m0 10.6v21.18m0 10.6v21.17m0 10.6v10.6a6 6 0 0 1-6 6h-9.87m-9.86 0h-19.74m-9.86 0h-19.74m-9.86 0h-19.74m-9.86 0h-19.74m-9.86 0h-19.74m-9.86 0h-19.74m-9.86 0h-19.74m-9.86 0h-19.74m-9.86 0h-19.74m-9.86 0h-19.74m-9.86 0h-19.74m-9.86 0h-19.74m-9.86 0h-19.74m-9.86 0h-19.74m-9.86 0h-19.74m-9.86 0h-19.74m-9.86 0h-19.74m-9.86 0h-19.74m-9.86 0h-19.74m-9.86 0h-19.74m-9.86 0h-19.74m-9.86 0h-19.74m-9.86 0h-19.74m-9.86 0h-19.74m-9.86 0h-19.74m-9.86 0h-19.74m-9.86 0h-19.74m-9.86 0h-19.74m-9.86 0h-19.74m-9.86 0H1946a6 6 0 0 0-6 6v9.53m0 9.54v19.06m0 9.54v19.06m0 9.54v19.06m0 9.54v19.06m0 9.54v9.53" stroke="#3a414a" fill="none"/><path d="M2840 6541.62l4.64 14.26h-9.28z" stroke="#3a414a" fill="#fff"/><path d="M1940.47 6839h-.94v-.5h.94z" stroke="#3a414a" stroke-width=".05" fill="#3a414a"/><path d="M2840 6556.38v10.6m0 10.6v21.18m0 10.6v21.18m0 10.6v21.17m0 10.6v10.6a6 6 0 0 1-6 6h-9.97m-9.97 0h-19.94m-9.97 0h-19.95m-9.97 0h-19.94m-9.98 0h-19.94m-9.97 0h-19.94m-9.97 0h-19.95m-9.97 0h-19.94m-9.97 0h-19.95m-9.97 0h-19.94m-9.96 0h-19.94m-9.97 0H2495m-10 0h-19.93m-9.97 0h-19.94m-9.97 0h-19.95m-9.97 0h-19.95m-9.97 0h-19.94m-9.97 0h-19.94m-9.96 0h-19.95m-9.98 0h-19.94m-9.97 0h-19.93m-9.97 0h-19.95m-9.97 0h-19.94m-9.97 0H2146a6 6 0 0 0-6 6v9.53m0 9.54v19.06m0 9.54v19.06m0 9.54v19.06m0 9.54v19.06m0 9.54v9.53" stroke="#3a414a" fill="none"/><path d="M2840 6541.62l4.64 14.26h-9.28z" stroke="#3a414a" fill="#fff"/><path d="M2140.47 6839h-.94v-.5h.94z" stroke="#3a414a" stroke-width=".05" fill="#3a414a"/><path d="M2840 6556.38v10.6m0 10.6v21.18m0 10.6v21.18m0 10.6v21.17m0 10.6v10.6a6 6 0 0 1-6 6h-10.17m-10.16 0h-20.34m-10.16 0h-20.34m-10.16 0h-20.34m-10.16 0h-20.34m-10.16 0h-20.34m-10.16 0h-20.34m-10.16 0h-20.34m-10.16 0h-20.34m-10.16 0h-20.34m-10.16 0h-20.34m-10.16 0h-20.34m-10.16 0h-20.34m-10.16 0h-20.34m-10.16 0h-20.34m-10.16 0h-20.34m-10.16 0H2346a6 6 0 0 0-6 6v9.53m0 9.54v19.06m0 9.54v19.06m0 9.54v19.06m0 9.54v19.06m0 9.54v9.53" stroke="#3a414a" fill="none"/><path d="M2840 6541.62l4.64 14.26h-9.28z" stroke="#3a414a" fill="#fff"/><path d="M2340.47 6839h-.94v-.5h.94z" stroke="#3a414a" stroke-width=".05" fill="#3a414a"/><path d="M2840 6556.38v10.6m0 10.6v21.18m0 10.6v21.18m0 10.6v21.17m0 10.6v10.6a6 6 0 0 1-6 6h-9.57m-9.56 0h-19.14m-9.56 0h-19.14m-9.56 0h-19.14m-9.56 0h-19.14m-9.56 0h-19.14m-9.56 0h-19.14m-9.56 0h-19.14m-9.56 0h-19.14m-9.56 0h-19.14m-9.56 0H2547a6 6 0 0 0-6 6v9.53m0 9.54v19.06m0 9.54v19.06m0 9.54v19.06m0 9.54v19.06m0 9.54v9.53" stroke="#3a414a" fill="none"/><path d="M2840 6541.62l4.64 14.26h-9.28z" stroke="#3a414a" fill="#fff"/><path d="M2541.47 6839h-.94v-.5h.94z" stroke="#3a414a" stroke-width=".05" fill="#3a414a"/><path d="M2840 6556.38v10.6m0 10.6v21.18m0 10.6v21.18m0 10.6v21.17m0 10.6v10.6a6 6 0 0 1-6 6h-9.78m-9.78 0h-19.55m-9.8 0h-19.54m-9.78 0H2746a6 6 0 0 0-6 6v9.53m0 9.54v19.06m0 9.54v19.06m0 9.54v19.06m0 9.54v19.06m0 9.54v9.53" stroke="#3a414a" fill="none"/><path d="M2840 6541.62l4.64 14.26h-9.28z" stroke="#3a414a" fill="#fff"/><path d="M2740.47 6839h-.94v-.5h.94z" stroke="#3a414a" stroke-width=".05" fill="#3a414a"/><path d="M2840 6556.38v10.6m0 10.6v21.18m0 10.6v21.18m0 10.6v21.17m0 10.6v10.6a6 6 0 0 0 6 6h9.78m9.78 0h19.55m9.8 0h19.54m9.78 0h9.78a6 6 0 0 1 6 6v9.53m0 9.54v19.06m0 9.54v19.06m0 9.54v19.06m0 9.54v19.06m0 9.54v9.53" stroke="#3a414a" fill="none"/><path d="M2840 6541.62l4.64 14.26h-9.28z" stroke="#3a414a" fill="#fff"/><path d="M2940.47 6839h-.94v-.5h.94z" stroke="#3a414a" stroke-width=".05" fill="#3a414a"/><path d="M2840 6556.38v10.6m0 10.6v21.18m0 10.6v21.18m0 10.6v21.17m0 10.6v10.6a6 6 0 0 0 6 6h9.57m9.56 0h19.14m9.56 0h19.14m9.56 0h19.14m9.56 0h19.14m9.56 0h19.14m9.56 0h19.14m9.56 0h19.14m9.56 0h19.14m9.56 0h19.14m9.56 0h9.57a6 6 0 0 1 6 6v9.53m0 9.54v19.06m0 9.54v19.06m0 9.54v19.06m0 9.54v19.06m0 9.54v9.53" stroke="#3a414a" fill="none"/><path d="M2840 6541.62l4.64 14.26h-9.28z" stroke="#3a414a" fill="#fff"/><path d="M3139.47 6839h-.94v-.5h.94z" stroke="#3a414a" stroke-width=".05" fill="#3a414a"/><path d="M2840 6556.38v10.6m0 10.6v21.18m0 10.6v21.18m0 10.6v21.17m0 10.6v10.6a6 6 0 0 0 6 6h10.17m10.16 0h20.34m10.16 0h20.34m10.16 0h20.34m10.16 0h20.34m10.16 0h20.34m10.16 0h20.34m10.16 0h20.34m10.16 0h20.34m10.16 0h20.34m10.16 0h20.34m10.16 0h20.34m10.16 0h20.34m10.16 0h20.34m10.16 0h20.34m10.16 0h20.34m10.16 0H3334a6 6 0 0 1 6 6v9.53m0 9.54v19.06m0 9.54v19.06m0 9.54v19.06m0 9.54v19.06m0 9.54v9.53" stroke="#3a414a" fill="none"/><path d="M2840 6541.62l4.64 14.26h-9.28z" stroke="#3a414a" fill="#fff"/><path d="M3340.47 6839h-.94v-.5h.94z" stroke="#3a414a" stroke-width=".05" fill="#3a414a"/><path d="M2840 6556.38v10.6m0 10.6v21.18m0 10.6v21.18m0 10.6v21.17m0 10.6v10.6a6 6 0 0 0 6 6h9.97m9.97 0h19.94m9.97 0h19.95m9.97 0h19.94m9.98 0h19.94m9.97 0h19.94m9.97 0h19.95m9.97 0h19.94m9.97 0h19.95m9.97 0h19.94m9.96 0h19.94m9.97 0H3185m10 0h19.93m9.97 0h19.94m9.97 0h19.95m9.97 0h19.95m9.97 0h19.94m9.97 0h19.94m9.96 0h19.95m9.98 0h19.94m9.97 0h19.93m9.97 0h19.95m9.97 0h19.94m9.97 0h9.97a6 6 0 0 1 6 6v9.53m0 9.54v19.06m0 9.54v19.06m0 9.54v19.06m0 9.54v19.06m0 9.54v9.53" stroke="#3a414a" fill="none"/><path d="M2840 6541.62l4.64 14.26h-9.28z" stroke="#3a414a" fill="#fff"/><path d="M3540.47 6839h-.94v-.5h.94z" stroke="#3a414a" stroke-width=".05" fill="#3a414a"/><path d="M2840 6556.38v10.6m0 10.6v21.18m0 10.6v21.18m0 10.6v21.17m0 10.6v10.6a6 6 0 0 0 6 6h9.87m9.86 0h19.74m9.86 0h19.74m9.86 0h19.74m9.86 0h19.74m9.86 0h19.74m9.86 0h19.74m9.86 0h19.74m9.86 0h19.74m9.86 0h19.74m9.86 0h19.74m9.86 0h19.74m9.86 0h19.74m9.86 0h19.74m9.86 0h19.74m9.86 0h19.74m9.86 0h19.74m9.86 0h19.74m9.86 0h19.74m9.86 0h19.74m9.86 0h19.74m9.86 0h19.74m9.86 0h19.74m9.86 0h19.74m9.86 0h19.74m9.86 0h19.74m9.86 0h19.74m9.86 0h19.74m9.86 0h19.74m9.86 0h19.74m9.86 0h9.87a6 6 0 0 1 6 6v9.53m0 9.54v19.06m0 9.54v19.06m0 9.54v19.06m0 9.54v19.06m0 9.54v9.53" stroke="#3a414a" fill="none"/><path d="M2840 6541.62l4.64 14.26h-9.28z" stroke="#3a414a" fill="#fff"/><path d="M3740.47 6839h-.94v-.5h.94z" stroke="#3a414a" stroke-width=".05" fill="#3a414a"/><path d="M2840 6556.38v10.6m0 10.6v21.18m0 10.6v21.18m0 10.6v21.17m0 10.6v10.6a6 6 0 0 0 6 6h10.07m10.08 0h20.15m10.07 0h20.15m10.07 0h20.14m10.08 0h20.14m10.08 0h20.14m10.08 0h20.15m10.08 0h20.15m10.07 0h20.15m10.08 0h20.14m10.08 0h20.15m10.07 0h20.15m10.07 0h20.14m10.08 0h20.14m10.08 0h20.14m10.08 0h20.15m10.08 0h20.15m10.07 0h20.15m10.08 0h20.14m10.08 0h20.15m10.07 0h20.15m10.07 0h20.14m10.08 0h20.14m10.08 0h20.14m10.08 0h20.15m10.08 0h20.15m10.07 0h20.15m10.08 0h20.14m10.08 0h20.15m10.07 0h20.15m10.07 0h20.14m10.08 0h20.14m10.08 0h20.14m10.08 0h20.15m10.08 0h20.15m10.07 0h20.15m10.08 0H3934a6 6 0 0 1 6 6v9.53m0 9.54v19.06m0 9.54v19.06m0 9.54v19.06m0 9.54v19.06m0 9.54v9.53" stroke="#3a414a" fill="none"/><path d="M2840 6541.62l4.64 14.26h-9.28z" stroke="#3a414a" fill="#fff"/><path d="M3940.47 6839h-.94v-.5h.94z" stroke="#3a414a" stroke-width=".05" fill="#3a414a"/><path d="M2560 6066a6 6 0 0 1 6-6h148a6 6 0 0 1 6 6v54a6 6 0 0 1-6 6h-148a6 6 0 0 1-6-6z" stroke="#000" stroke-width="2" fill="#fff"/><use xlink:href="#t" transform="matrix(1,0,0,1,2568,6068) translate(42.193142361111114 33.083767361111114)"/><path d="M2760 6066a6 6 0 0 1 6-6h148a6 6 0 0 1 6 6v54a6 6 0 0 1-6 6h-148a6 6 0 0 1-6-6z" stroke="#000" stroke-width="2" fill="#fff"/><use xlink:href="#u" transform="matrix(1,0,0,1,2768,6068) translate(-5.940538194444443 33.083767361111114)"/><path d="M2960 6066a6 6 0 0 1 6-6h148a6 6 0 0 1 6 6v54a6 6 0 0 1-6 6h-148a6 6 0 0 1-6-6z" stroke="#000" stroke-width="2" fill="#fff"/><use xlink:href="#v" transform="matrix(1,0,0,1,2968,6068) translate(39.08441840277778 33.083767361111114)"/><path d="M2720 5806a6 6 0 0 1 6-6h228a6 6 0 0 1 6 6v108a6 6 0 0 1-6 6h-228a6 6 0 0 1-6-6z" stroke="#000" stroke-width="2" fill="#fff"/><path d="M2720 5841.8h240" stroke="#000" stroke-width="2" fill="none"/><use xlink:href="#w" transform="matrix(1,0,0,1,2728,5808) translate(39.36458333333333 20.760416666666668)"/><use xlink:href="#x" transform="matrix(1,0,0,1,2732,5849.8125) translate(0 39.083767361111114)"/><use xlink:href="#y" transform="matrix(1,0,0,1,2732,5849.8125) translate(20.95269097222222 39.083767361111114)"/><path d="M2840 5937.38v7.77m0 7.77v15.54m0 7.77v7.77a6 6 0 0 1-6 6h-10.44m-10.45 0h-20.88m-10.44 0h-20.9m-10.44 0h-20.88m-10.45 0h-20.88m-10.44 0h-20.9m-10.44 0H2646a6 6 0 0 0-6 6v10.42m0 10.4v20.85m0 10.4v10.43" stroke="#3a414a" fill="none"/><path d="M2840 5922.62l4.64 14.26h-9.28z" stroke="#3a414a" fill="#fff"/><path d="M2640.47 6059h-.94v-.5h.94z" stroke="#3a414a" stroke-width=".05" fill="#3a414a"/><path d="M2840 5937.38v10.1m0 10.1v20.18m0 10.1v20.18m0 10.1v20.17m0 10.1v10.1" stroke="#3a414a" fill="none"/><path d="M2840 5922.62l4.64 14.26h-9.28z" stroke="#3a414a" fill="#fff"/><path d="M2840.47 6059h-.94v-.5h.94z" stroke="#3a414a" stroke-width=".05" fill="#3a414a"/><path d="M2840 5937.38v7.77m0 7.77v15.54m0 7.77v7.77a6 6 0 0 0 6 6h10.44m10.45 0h20.88m10.44 0h20.9m10.44 0h20.88m10.45 0h20.88m10.44 0h20.9m10.44 0H3034a6 6 0 0 1 6 6v10.42m0 10.4v20.85m0 10.4v10.43" stroke="#3a414a" fill="none"/><path d="M2840 5922.62l4.64 14.26h-9.28z" stroke="#3a414a" fill="#fff"/><path d="M3040.47 6059h-.94v-.5h.94z" stroke="#3a414a" stroke-width=".05" fill="#3a414a"/><path d="M2840 6382.62v-9.47m0-9.47v-18.94m0-9.46v-18.94m0-9.47v-18.93m0-9.47V6269a6 6 0 0 0-6-6h-10.44m-10.45 0h-20.88m-10.44 0h-20.9m-10.44 0h-20.88m-10.45 0h-20.88m-10.44 0h-20.9m-10.44 0H2646a6 6 0 0 1-6-6v-10.8m0-10.78v-21.6m0-10.78v-21.58m0-10.8v-21.58m0-10.8v-10.78" stroke="#3a414a" fill="none"/><path d="M2840 6397.38l-4.64-14.26h9.28z" stroke="#3a414a" fill="#fff"/><path d="M2640.47 6127.5h-.94v-.5h.94z" stroke="#3a414a" stroke-width=".05" fill="#3a414a"/><path d="M2840 6382.62v-9.45m0-9.45v-18.9m0-9.45v-18.9m0-9.44v-18.9m0-9.45v-18.9m0-9.45v-18.9m0-9.44v-18.9m0-9.46v-18.9m0-9.44v-18.9m0-9.45v-9.45" stroke="#3a414a" fill="none"/><path d="M2840 6397.38l-4.64-14.26h9.28z" stroke="#3a414a" fill="#fff"/><path d="M2840.47 6127.5h-.94v-.5h.94z" stroke="#3a414a" stroke-width=".05" fill="#3a414a"/><path d="M2840 6382.62v-9.47m0-9.47v-18.94m0-9.46v-18.94m0-9.47v-18.93m0-9.47V6269a6 6 0 0 1 6-6h10.44m10.45 0h20.88m10.44 0h20.9m10.44 0h20.88m10.45 0h20.88m10.44 0h20.9m10.44 0H3034a6 6 0 0 0 6-6v-10.8m0-10.78v-21.6m0-10.78v-21.58m0-10.8v-21.58m0-10.8v-10.78" stroke="#3a414a" fill="none"/><path d="M2840 6397.38l-4.64-14.26h9.28z" stroke="#3a414a" fill="#fff"/><path d="M3040.47 6127.5h-.94v-.5h.94z" stroke="#3a414a" stroke-width=".05" fill="#3a414a"/><path d="M2748.77 7186a6 6 0 0 1 6-6h170.46a6 6 0 0 1 6 6v54a6 6 0 0 1-6 6h-170.46a6 6 0 0 1-6-6z" stroke="#000" stroke-width="2" fill="#fff"/><use xlink:href="#z" transform="matrix(1,0,0,1,2756.7727864583335,7188) translate(25.21549479166667 33.083767361111114)"/><path d="M2840 6556.38v10.6m0 10.6v21.18m0 10.6v21.18m0 10.6v21.17m0 10.6v10.6a6 6 0 0 1-6 6h-10.07m-10.08 0h-20.15m-10.07 0h-20.15m-10.07 0h-20.14m-10.08 0h-20.14m-10.08 0h-20.14m-10.08 0h-20.15m-10.08 0h-20.15m-10.07 0h-20.15m-10.08 0h-20.14m-10.08 0h-20.15m-10.07 0h-20.15m-10.07 0h-20.14m-10.08 0h-20.14m-10.08 0h-20.14m-10.08 0h-20.15m-10.08 0h-20.15m-10.07 0h-20.15m-10.08 0h-20.14m-10.08 0h-20.15m-10.07 0h-20.15m-10.07 0h-20.14m-10.08 0h-20.14m-10.08 0h-20.14m-10.08 0h-20.15m-10.08 0h-20.15m-10.07 0h-20.15m-10.08 0h-20.14m-10.08 0h-20.15m-10.07 0h-20.15m-10.07 0h-20.14m-10.08 0h-20.14m-10.08 0h-20.14m-10.08 0h-20.15m-10.08 0h-20.15m-10.07 0h-20.15m-10.08 0H1746a6 6 0 0 0-6 6v9.53m0 9.54v19.06m0 9.54v19.06m0 9.54v19.06m0 9.54v19.06m0 9.54v9.53" stroke="#3a414a" fill="none"/><path d="M2840 6541.62l4.64 14.26h-9.28z" stroke="#3a414a" fill="#fff"/><path d="M1740.47 6839h-.94v-.5h.94z" stroke="#3a414a" stroke-width=".05" fill="#3a414a"/><path d="M2840 7162.62v-9.47m0-9.47v-18.94m0-9.46v-18.94m0-9.47v-18.93m0-9.47V7049a6 6 0 0 0-6-6h-10.07m-10.08 0h-20.15m-10.07 0h-20.15m-10.07 0h-20.14m-10.08 0h-20.14m-10.08 0h-20.14m-10.08 0h-20.15m-10.08 0h-20.15m-10.07 0h-20.15m-10.08 0h-20.14m-10.08 0h-20.15m-10.07 0h-20.15m-10.07 0h-20.14m-10.08 0h-20.14m-10.08 0h-20.14m-10.08 0h-20.15m-10.08 0h-20.15m-10.07 0h-20.15m-10.08 0h-20.14m-10.08 0h-20.15m-10.07 0h-20.15m-10.07 0h-20.14m-10.08 0h-20.14m-10.08 0h-20.14m-10.08 0h-20.15m-10.08 0h-20.15m-10.07 0h-20.15m-10.08 0h-20.14m-10.08 0h-20.15m-10.07 0h-20.15m-10.07 0h-20.14m-10.08 0h-20.14m-10.08 0h-20.14m-10.08 0h-20.15m-10.08 0h-20.15m-10.07 0h-20.15m-10.08 0H1746a6 6 0 0 1-6-6v-10.8m0-10.78v-21.6m0-10.78v-21.58m0-10.8v-21.58m0-10.8v-10.78" stroke="#3a414a" fill="none"/><path d="M2840 7177.38l-4.64-14.26h9.28z" stroke="#3a414a" fill="#fff"/><path d="M1740.47 6907.5h-.94v-.5h.94z" stroke="#3a414a" stroke-width=".05" fill="#3a414a"/><path d="M2840 7162.62v-9.47m0-9.47v-18.94m0-9.46v-18.94m0-9.47v-18.93m0-9.47V7049a6 6 0 0 0-6-6h-9.87m-9.86 0h-19.74m-9.86 0h-19.74m-9.86 0h-19.74m-9.86 0h-19.74m-9.86 0h-19.74m-9.86 0h-19.74m-9.86 0h-19.74m-9.86 0h-19.74m-9.86 0h-19.74m-9.86 0h-19.74m-9.86 0h-19.74m-9.86 0h-19.74m-9.86 0h-19.74m-9.86 0h-19.74m-9.86 0h-19.74m-9.86 0h-19.74m-9.86 0h-19.74m-9.86 0h-19.74m-9.86 0h-19.74m-9.86 0h-19.74m-9.86 0h-19.74m-9.86 0h-19.74m-9.86 0h-19.74m-9.86 0h-19.74m-9.86 0h-19.74m-9.86 0h-19.74m-9.86 0h-19.74m-9.86 0h-19.74m-9.86 0h-19.74m-9.86 0H1946a6 6 0 0 1-6-6v-10.8m0-10.78v-21.6m0-10.78v-21.58m0-10.8v-21.58m0-10.8v-10.78" stroke="#3a414a" fill="none"/><path d="M2840 7177.38l-4.64-14.26h9.28z" stroke="#3a414a" fill="#fff"/><path d="M1940.47 6907.5h-.94v-.5h.94z" stroke="#3a414a" stroke-width=".05" fill="#3a414a"/><path d="M2840 7162.62v-9.47m0-9.47v-18.94m0-9.46v-18.94m0-9.47v-18.93m0-9.47V7049a6 6 0 0 0-6-6h-9.97m-9.97 0h-19.94m-9.97 0h-19.95m-9.97 0h-19.94m-9.98 0h-19.94m-9.97 0h-19.94m-9.97 0h-19.95m-9.97 0h-19.94m-9.97 0h-19.95m-9.97 0h-19.94m-9.96 0h-19.94m-9.97 0H2495m-10 0h-19.93m-9.97 0h-19.94m-9.97 0h-19.95m-9.97 0h-19.95m-9.97 0h-19.94m-9.97 0h-19.94m-9.96 0h-19.95m-9.98 0h-19.94m-9.97 0h-19.93m-9.97 0h-19.95m-9.97 0h-19.94m-9.97 0H2146a6 6 0 0 1-6-6v-10.8m0-10.78v-21.6m0-10.78v-21.58m0-10.8v-21.58m0-10.8v-10.78" stroke="#3a414a" fill="none"/><path d="M2840 7177.38l-4.64-14.26h9.28z" stroke="#3a414a" fill="#fff"/><path d="M2140.47 6907.5h-.94v-.5h.94z" stroke="#3a414a" stroke-width=".05" fill="#3a414a"/><path d="M2840 7162.62v-9.47m0-9.47v-18.94m0-9.46v-18.94m0-9.47v-18.93m0-9.47V7049a6 6 0 0 0-6-6h-10.17m-10.16 0h-20.34m-10.16 0h-20.34m-10.16 0h-20.34m-10.16 0h-20.34m-10.16 0h-20.34m-10.16 0h-20.34m-10.16 0h-20.34m-10.16 0h-20.34m-10.16 0h-20.34m-10.16 0h-20.34m-10.16 0h-20.34m-10.16 0h-20.34m-10.16 0h-20.34m-10.16 0h-20.34m-10.16 0h-20.34m-10.16 0H2346a6 6 0 0 1-6-6v-10.8m0-10.78v-21.6m0-10.78v-21.58m0-10.8v-21.58m0-10.8v-10.78" stroke="#3a414a" fill="none"/><path d="M2840 7177.38l-4.64-14.26h9.28z" stroke="#3a414a" fill="#fff"/><path d="M2340.47 6907.5h-.94v-.5h.94z" stroke="#3a414a" stroke-width=".05" fill="#3a414a"/><path d="M2840 7162.62v-9.47m0-9.47v-18.94m0-9.46v-18.94m0-9.47v-18.93m0-9.47V7049a6 6 0 0 0-6-6h-9.6m-9.6 0h-19.2m-9.6 0h-19.2m-9.6 0H2738m-9.6 0h-19.2m-9.6 0h-19.2m-9.6 0h-19.2m-9.6 0h-19.2m-9.6 0H2594m-9.6 0h-19.2m-9.6 0h-9.6a6 6 0 0 1-6-6v-10.8m0-10.78v-21.6m0-10.78v-21.58m0-10.8v-21.58m0-10.8v-10.78" stroke="#3a414a" fill="none"/><path d="M2840 7177.38l-4.64-14.26h9.28z" stroke="#3a414a" fill="#fff"/><path d="M2540.47 6907.5h-.94v-.5h.94z" stroke="#3a414a" stroke-width=".05" fill="#3a414a"/><path d="M2840 7162.62v-9.47m0-9.47v-18.94m0-9.46v-18.94m0-9.47v-18.93m0-9.47V7049a6 6 0 0 0-6-6h-9.78m-9.78 0h-19.55m-9.8 0h-19.54m-9.78 0H2746a6 6 0 0 1-6-6v-10.8m0-10.78v-21.6m0-10.78v-21.58m0-10.8v-21.58m0-10.8v-10.78" stroke="#3a414a" fill="none"/><path d="M2840 7177.38l-4.64-14.26h9.28z" stroke="#3a414a" fill="#fff"/><path d="M2740.47 6907.5h-.94v-.5h.94z" stroke="#3a414a" stroke-width=".05" fill="#3a414a"/><path d="M2840 7162.62v-9.47m0-9.47v-18.94m0-9.46v-18.94m0-9.47v-18.93m0-9.47V7049a6 6 0 0 1 6-6h9.78m9.78 0h19.55m9.8 0h19.54m9.78 0h9.78a6 6 0 0 0 6-6v-10.8m0-10.78v-21.6m0-10.78v-21.58m0-10.8v-21.58m0-10.8v-10.78" stroke="#3a414a" fill="none"/><path d="M2840 7177.38l-4.64-14.26h9.28z" stroke="#3a414a" fill="#fff"/><path d="M2940.47 6907.5h-.94v-.5h.94z" stroke="#3a414a" stroke-width=".05" fill="#3a414a"/><path d="M2840 7162.62v-9.47m0-9.47v-18.94m0-9.46v-18.94m0-9.47v-18.93m0-9.47V7049a6 6 0 0 1 6-6h9.6m9.6 0h19.2m9.6 0h19.2m9.6 0h19.2m9.6 0h19.2m9.6 0h19.2m9.6 0h19.2m9.6 0h19.2m9.6 0h19.2m9.6 0h19.2m9.6 0h9.6a6 6 0 0 0 6-6v-10.8m0-10.78v-21.6m0-10.78v-21.58m0-10.8v-21.58m0-10.8v-10.78" stroke="#3a414a" fill="none"/><path d="M2840 7177.38l-4.64-14.26h9.28z" stroke="#3a414a" fill="#fff"/><path d="M3140.47 6907.5h-.94v-.5h.94z" stroke="#3a414a" stroke-width=".05" fill="#3a414a"/><path d="M2840 7162.62v-9.47m0-9.47v-18.94m0-9.46v-18.94m0-9.47v-18.93m0-9.47V7049a6 6 0 0 1 6-6h10.17m10.16 0h20.34m10.16 0h20.34m10.16 0h20.34m10.16 0h20.34m10.16 0h20.34m10.16 0h20.34m10.16 0h20.34m10.16 0h20.34m10.16 0h20.34m10.16 0h20.34m10.16 0h20.34m10.16 0h20.34m10.16 0h20.34m10.16 0h20.34m10.16 0h20.34m10.16 0H3334a6 6 0 0 0 6-6v-10.8m0-10.78v-21.6m0-10.78v-21.58m0-10.8v-21.58m0-10.8v-10.78" stroke="#3a414a" fill="none"/><path d="M2840 7177.38l-4.64-14.26h9.28z" stroke="#3a414a" fill="#fff"/><path d="M3340.47 6907.5h-.94v-.5h.94z" stroke="#3a414a" stroke-width=".05" fill="#3a414a"/><path d="M2840 7162.62v-9.47m0-9.47v-18.94m0-9.46v-18.94m0-9.47v-18.93m0-9.47V7049a6 6 0 0 1 6-6h9.97m9.97 0h19.94m9.97 0h19.95m9.97 0h19.94m9.98 0h19.94m9.97 0h19.94m9.97 0h19.95m9.97 0h19.94m9.97 0h19.95m9.97 0h19.94m9.96 0h19.94m9.97 0H3185m10 0h19.93m9.97 0h19.94m9.97 0h19.95m9.97 0h19.95m9.97 0h19.94m9.97 0h19.94m9.96 0h19.95m9.98 0h19.94m9.97 0h19.93m9.97 0h19.95m9.97 0h19.94m9.97 0h9.97a6 6 0 0 0 6-6v-10.8m0-10.78v-21.6m0-10.78v-21.58m0-10.8v-21.58m0-10.8v-10.78" stroke="#3a414a" fill="none"/><path d="M2840 7177.38l-4.64-14.26h9.28z" stroke="#3a414a" fill="#fff"/><path d="M3540.47 6907.5h-.94v-.5h.94z" stroke="#3a414a" stroke-width=".05" fill="#3a414a"/><path d="M2840 7162.62v-9.47m0-9.47v-18.94m0-9.46v-18.94m0-9.47v-18.93m0-9.47V7049a6 6 0 0 1 6-6h9.87m9.86 0h19.74m9.86 0h19.74m9.86 0h19.74m9.86 0h19.74m9.86 0h19.74m9.86 0h19.74m9.86 0h19.74m9.86 0h19.74m9.86 0h19.74m9.86 0h19.74m9.86 0h19.74m9.86 0h19.74m9.86 0h19.74m9.86 0h19.74m9.86 0h19.74m9.86 0h19.74m9.86 0h19.74m9.86 0h19.74m9.86 0h19.74m9.86 0h19.74m9.86 0h19.74m9.86 0h19.74m9.86 0h19.74m9.86 0h19.74m9.86 0h19.74m9.86 0h19.74m9.86 0h19.74m9.86 0h19.74m9.86 0h19.74m9.86 0h9.87a6 6 0 0 0 6-6v-10.8m0-10.78v-21.6m0-10.78v-21.58m0-10.8v-21.58m0-10.8v-10.78" stroke="#3a414a" fill="none"/><path d="M2840 7177.38l-4.64-14.26h9.28z" stroke="#3a414a" fill="#fff"/><path d="M3740.47 6907.5h-.94v-.5h.94z" stroke="#3a414a" stroke-width=".05" fill="#3a414a"/><path d="M2840 7162.62v-9.47m0-9.47v-18.94m0-9.46v-18.94m0-9.47v-18.93m0-9.47V7049a6 6 0 0 1 6-6h10.07m10.08 0h20.15m10.07 0h20.15m10.07 0h20.14m10.08 0h20.14m10.08 0h20.14m10.08 0h20.15m10.08 0h20.15m10.07 0h20.15m10.08 0h20.14m10.08 0h20.15m10.07 0h20.15m10.07 0h20.14m10.08 0h20.14m10.08 0h20.14m10.08 0h20.15m10.08 0h20.15m10.07 0h20.15m10.08 0h20.14m10.08 0h20.15m10.07 0h20.15m10.07 0h20.14m10.08 0h20.14m10.08 0h20.14m10.08 0h20.15m10.08 0h20.15m10.07 0h20.15m10.08 0h20.14m10.08 0h20.15m10.07 0h20.15m10.07 0h20.14m10.08 0h20.14m10.08 0h20.14m10.08 0h20.15m10.08 0h20.15m10.07 0h20.15m10.08 0H3934a6 6 0 0 0 6-6v-10.8m0-10.78v-21.6m0-10.78v-21.58m0-10.8v-21.58m0-10.8v-10.78" stroke="#3a414a" fill="none"/><path d="M2840 7177.38l-4.64-14.26h9.28z" stroke="#3a414a" fill="#fff"/><path d="M3940.47 6907.5h-.94v-.5h.94z" stroke="#3a414a" stroke-width=".05" fill="#3a414a"/><path d="M2120 6132a6 6 0 0 1 6-6h328a6 6 0 0 1 6 6v108a6 6 0 0 1-6 6h-328a6 6 0 0 1-6-6zm34-6v120m272-120v120" stroke="#000" stroke-width="2" fill="#fff"/><use xlink:href="#A" transform="matrix(1,0,0,1,2162.5,6126) translate(-2.0464409722222 68.08376736111111)"/><path d="M2470.44 6186h9.8m9.8 0h19.6m9.8 0H2539m9.8 0h19.6m9.78 0h9.8a6 6 0 0 0 6-6v-8.75m0-8.75V6145m0-8.75v-8.75M2479.32 6196l-17.32-10 17.32-10m-17.32 10h8.5" stroke="#3a414a" fill="none"/><path d="M2594.47 6127.5h-.94v-.5h.94z" stroke="#3a414a" stroke-width=".05" fill="#3a414a"/><path d="M2470.44 6186h9.7m9.7 0h19.42m9.7 0h19.4m9.7 0h19.42m9.7 0h19.4m9.72 0h19.4m9.7 0h19.4m9.72 0h19.4m9.7 0h19.42m9.7 0h19.4m9.7 0h19.42m9.7 0h9.7a6 6 0 0 0 6-6v-8.75m0-8.75V6145m0-8.75v-8.75M2479.32 6196l-17.32-10 17.32-10m-17.32 10h8.5" stroke="#3a414a" fill="none"/><path d="M2797.14 6127.5h-.95v-.5h.94z" stroke="#3a414a" stroke-width=".05" fill="#3a414a"/><path d="M2470.44 6186h10.28m10.28 0h20.56m10.28 0h20.56m10.27 0h20.56m10.28 0h20.57m10.28 0h20.56m10.28 0h20.56m10.28 0h20.56m10.28 0h20.56m10.27 0h20.55m10.28 0h20.56m10.27 0h20.56m10.27 0h20.56m10.28 0h20.56m10.28 0h20.56m10.27 0h20.57m10.28 0h20.56m10.3 0h10.27a6 6 0 0 0 6-6v-8.75m0-8.75V6145m0-8.75v-8.75M2479.32 6196l-17.32-10 17.32-10m-17.32 10h8.5" stroke="#3a414a" fill="none"/><path d="M3001.14 6127.5h-.95v-.5h.94z" stroke="#3a414a" stroke-width=".05" fill="#3a414a"/><defs><path d="M135 0v-1490h997v253H440v360h640v249H440v375h694V0H135" id="B"/><path d="M42 0l360-574-338-544h324c72 124 151 261 209 394 58-134 140-271 215-394h318L785-570 1146 0H824c-79-136-169-280-234-425C528-278 439-134 360 0H42" id="C"/><path d="M128 418v-1536h295v188h14c41-89 129-202 319-202 248 0 453 193 453 575 0 372-197 576-455 576-183 0-275-108-317-198h-9v597H128zm534-640c156 0 240-139 240-336 0-196-83-334-240-334-154 0-241 131-241 334 0 202 88 336 241 336" id="D"/><path d="M128 0v-1118h300V0H128zm150-1264c-91 0-165-68-165-154 0-85 74-154 165-154 90 0 165 69 165 154 0 86-75 154-165 154" id="E"/><path d="M128 0v-1118h290v195h12c54-169 184-238 367-200v268c-27-8-86-15-130-15-138 0-239 95-239 234V0H128" id="F"/><path d="M440 22C227 22 68-92 68-313c0-250 202-322 422-343 195-21 271-24 271-105 0-95-63-149-175-149-116 0-187 57-211 129l-275-46c57-194 237-305 487-305 240 0 474 108 474 379V0H777v-155h-10C713-51 605 22 440 22zm85-211c140 0 238-93 238-211v-121c-37 26-156 42-222 51-111 16-185 59-185 149 0 87 70 132 169 132" id="G"/><path d="M754 19C571 19 479-89 437-179h-14V0H128v-1490h300v560h9c41-89 129-202 319-202 248 0 453 193 453 575 0 372-197 576-455 576zm-92-241c156 0 240-139 240-336 0-196-83-334-240-334-154 0-241 131-241 334 0 202 88 336 241 336" id="H"/><path d="M428-1490V0H128v-1490h300" id="I"/><path d="M633 22C291 22 81-200 81-553c0-345 210-579 537-579 292 0 525 185 525 567v84H378c7 183 109 277 260 277 105 0 184-46 216-132l272 51C1071-99 893 22 633 22zM380-669h474c-15-146-94-237-233-237-143 0-229 99-241 237" id="J"/><g id="a"><use transform="matrix(0.010850694444444444,0,0,0.010850694444444444,0,0)" xlink:href="#B"/><use transform="matrix(0.010850694444444444,0,0,0.010850694444444444,13.49826388888889,0)" xlink:href="#C"/><use transform="matrix(0.010850694444444444,0,0,0.010850694444444444,26.38888888888889,0)" xlink:href="#D"/><use transform="matrix(0.010850694444444444,0,0,0.010850694444444444,40.397135416666664,0)" xlink:href="#E"/><use transform="matrix(0.010850694444444444,0,0,0.010850694444444444,46.41927083333333,0)" xlink:href="#F"/><use transform="matrix(0.010850694444444444,0,0,0.010850694444444444,55.16493055555556,0)" xlink:href="#G"/><use transform="matrix(0.010850694444444444,0,0,0.010850694444444444,68.06640625,0)" xlink:href="#H"/><use transform="matrix(0.010850694444444444,0,0,0.010850694444444444,82.07465277777777,0)" xlink:href="#I"/><use transform="matrix(0.010850694444444444,0,0,0.010850694444444444,88.09678819444444,0)" xlink:href="#J"/></g><path d="M593-100v-404H195v-159h398v-403h169v403h398v159H762v404H593" id="K"/><use transform="matrix(0.010850694444444444,0,0,0.010850694444444444,0,0)" xlink:href="#K" id="b"/><path d="M158 0v-1118h180V0H158zm91-1301c-68 0-125-53-125-119s57-119 125-119c69 0 126 53 126 119s-57 119-126 119" id="L"/><path d="M538 24C308 24 148-78 108-271l171-41c32 123 123 178 257 178 156 0 256-77 256-169 0-77-54-128-164-154l-186-44c-203-48-300-148-300-305 0-192 176-326 414-326 230 0 351 112 402 269l-163 42c-31-80-94-158-238-158-133 0-233 69-233 162 0 83 57 129 188 160l169 40c203 48 298 149 298 302 0 196-179 339-441 339" id="M"/><path d="M180 0v-1490h908v168H370v486h669v168H370v500h727V0H180" id="N"/><path d="M65 0l393-574-370-544h210c88 136 192 297 267 435 67-142 176-302 264-435h206L661-564 1053 0H844c-94-144-206-310-287-458C484-308 366-142 273 0H65" id="O"/><path d="M158 418v-1536h174v179h20c37-59 106-193 324-193 279 0 474 222 474 576 0 356-194 580-473 580-213 0-288-135-325-197h-14v591H158zm492-555c209 0 317-186 317-421 0-232-105-413-317-413-206 0-314 166-314 413 0 249 111 421 314 421" id="P"/><path d="M158 0v-1118h174v172h12c41-113 157-188 290-188 26 0 70 2 91 3v181c-11-2-60-10-108-10-161 0-279 109-279 260V0H158" id="Q"/><path d="M628 24c-324 0-524-230-524-574 0-343 198-582 503-582 237 0 487 146 487 559v75H286c9 234 145 362 343 362 132 0 231-58 273-172l174 48C1024-91 857 24 628 24zM287-650h624c-17-190-120-322-304-322-192 0-309 151-320 322" id="R"/><path d="M577 24c-279 0-473-224-473-580 0-354 195-576 474-576 218 0 287 134 324 193h14v-551h180V0H922v-173h-20C865-111 790 24 577 24zm27-161c203 0 314-172 314-421 0-247-108-413-314-413-212 0-317 181-317 413 0 235 108 421 317 421" id="S"/><path d="M218-607c0-325 108-727 258-974h175c-155 315-250 682-250 974 0 265 78 531 250 886H476C306-10 218-315 218-607" id="T"/><path d="M613 24c-304 0-509-231-509-576 0-350 205-580 509-580 216 0 392 114 453 309l-173 49c-33-115-133-197-280-197-223 0-326 196-326 419 0 220 103 415 326 415 150 0 252-85 285-206l172 49C1010-95 832 24 613 24" id="U"/><path d="M537 14c-226 0-379-139-379-422v-710h180v695c0 172 97 275 253 275 160 0 281-109 281-300v-670h181V0H879v-209C806-46 684 14 537 14" id="V"/><path d="M338-670V0H158v-1118h173l1 207c72-158 192-221 342-221 226 0 378 139 378 422V0H872v-695c0-172-96-275-252-275-161 0-282 109-282 300" id="W"/><path d="M598-1118v154H368v674c0 100 37 144 132 144 23 0 62-6 92-12L629-6c-37 13-88 20-134 20-193 0-307-107-307-290v-688H20v-154h168v-266h180v266h230" id="X"/><path d="M98-1322v-168h1126v168H757V0H567v-1322H98" id="Y"/><path d="M295 13c-75 0-135-60-135-135s60-135 135-135 135 60 135 135S370 13 295 13zm0-809c-75 0-135-60-135-135s60-135 135-135 135 60 135 135-60 135-135 135" id="Z"/><g id="c"><use transform="matrix(0.010850694444444444,0,0,0.010850694444444444,0,0)" xlink:href="#L"/><use transform="matrix(0.010850694444444444,0,0,0.010850694444444444,5.381944444444445,0)" xlink:href="#M"/><use transform="matrix(0.010850694444444444,0,0,0.010850694444444444,17.11154513888889,0)" xlink:href="#N"/><use transform="matrix(0.010850694444444444,0,0,0.010850694444444444,30.46875,0)" xlink:href="#O"/><use transform="matrix(0.010850694444444444,0,0,0.010850694444444444,42.599826388888886,0)" xlink:href="#P"/><use transform="matrix(0.010850694444444444,0,0,0.010850694444444444,56.20659722222221,0)" xlink:href="#L"/><use transform="matrix(0.010850694444444444,0,0,0.010850694444444444,61.58854166666666,0)" xlink:href="#Q"/><use transform="matrix(0.010850694444444444,0,0,0.010850694444444444,69.58550347222221,0)" xlink:href="#R"/><use transform="matrix(0.010850694444444444,0,0,0.010850694444444444,82.54123263888889,0)" xlink:href="#S"/><use transform="matrix(0.010850694444444444,0,0,0.010850694444444444,96.14800347222221,0)" xlink:href="#T"/><use transform="matrix(0.010850694444444444,0,0,0.010850694444444444,104.00390624999997,0)" xlink:href="#U"/><use transform="matrix(0.010850694444444444,0,0,0.010850694444444444,116.69921874999997,0)" xlink:href="#V"/><use transform="matrix(0.010850694444444444,0,0,0.010850694444444444,129.8394097222222,0)" xlink:href="#Q"/><use transform="matrix(0.010850694444444444,0,0,0.010850694444444444,138.5525173611111,0)" xlink:href="#Q"/><use transform="matrix(0.010850694444444444,0,0,0.010850694444444444,146.54947916666663,0)" xlink:href="#R"/><use transform="matrix(0.010850694444444444,0,0,0.010850694444444444,159.5052083333333,0)" xlink:href="#W"/><use transform="matrix(0.010850694444444444,0,0,0.010850694444444444,172.63454861111106,0)" xlink:href="#X"/><use transform="matrix(0.010850694444444444,0,0,0.010850694444444444,179.15581597222217,0)" xlink:href="#Y"/><use transform="matrix(0.010850694444444444,0,0,0.010850694444444444,191.86197916666657,0)" xlink:href="#V"/><use transform="matrix(0.010850694444444444,0,0,0.010850694444444444,205.00217013888883,0)" xlink:href="#Q"/><use transform="matrix(0.010850694444444444,0,0,0.010850694444444444,213.71527777777774,0)" xlink:href="#W"/><use transform="matrix(0.010850694444444444,0,0,0.010850694444444444,226.84461805555546,0)" xlink:href="#Z"/></g><path d="M370-1490V0H180v-1490h190" id="aa"/><path d="M96 279C273-86 346-350 346-607c0-292-95-659-250-974h175c150 246 258 650 258 974 0 297-91 602-258 886H96" id="ab"/><g id="d"><use transform="matrix(0.010850694444444444,0,0,0.010850694444444444,0,0)" xlink:href="#aa"/><use transform="matrix(0.010850694444444444,0,0,0.010850694444444444,5.967881944444445,0)" xlink:href="#W"/><use transform="matrix(0.010850694444444444,0,0,0.010850694444444444,19.09722222222222,0)" xlink:href="#X"/><use transform="matrix(0.010850694444444444,0,0,0.010850694444444444,26.3671875,0)" xlink:href="#ab"/><use transform="matrix(0.010850694444444444,0,0,0.010850694444444444,34.47265625,0)" xlink:href="#Z"/></g><path d="M677 24c-213 0-288-135-325-197h-20V0H158v-1490h180v551h14c37-59 106-193 324-193 279 0 474 222 474 576 0 356-194 580-473 580zm-27-161c209 0 317-186 317-421 0-232-105-413-317-413-206 0-314 166-314 413 0 249 111 421 314 421" id="ac"/><path d="M613 24c-304 0-509-231-509-576 0-350 205-580 509-580 305 0 511 230 511 580 0 345-206 576-511 576zm0-161c226 0 329-195 329-415 0-222-103-419-329-419-223 0-326 196-326 419 0 220 103 415 326 415" id="ad"/><path d="M338-1490V0H158v-1490h180" id="ae"/><g id="e"><use transform="matrix(0.010850694444444444,0,0,0.010850694444444444,0,0)" xlink:href="#ac"/><use transform="matrix(0.010850694444444444,0,0,0.010850694444444444,13.606770833333332,0)" xlink:href="#ad"/><use transform="matrix(0.010850694444444444,0,0,0.010850694444444444,26.931423611111104,0)" xlink:href="#ad"/><use transform="matrix(0.010850694444444444,0,0,0.010850694444444444,40.256076388888886,0)" xlink:href="#ae"/></g><path d="M180 0v-1490h190v1322h690V0H180" id="af"/><path d="M678-1118v154H420V0H240v-964H20v-154h220v-149c0-194 155-293 318-293 85 0 141 18 168 30l-50 154c-19-6-47-17-97-17-111 0-159 58-159 166v109h258" id="ag"/><g id="f"><use transform="matrix(0.010850694444444444,0,0,0.010850694444444444,0,0)" xlink:href="#X"/><use transform="matrix(0.010850694444444444,0,0,0.010850694444444444,7.269965277777778,0)" xlink:href="#V"/><use transform="matrix(0.010850694444444444,0,0,0.010850694444444444,20.41015625,0)" xlink:href="#Q"/><use transform="matrix(0.010850694444444444,0,0,0.010850694444444444,29.12326388888889,0)" xlink:href="#W"/><use transform="matrix(0.010850694444444444,0,0,0.010850694444444444,42.252604166666664,0)" xlink:href="#M"/><use transform="matrix(0.010850694444444444,0,0,0.010850694444444444,53.98220486111111,0)" xlink:href="#af"/><use transform="matrix(0.010850694444444444,0,0,0.010850694444444444,66.54730902777777,0)" xlink:href="#R"/><use transform="matrix(0.010850694444444444,0,0,0.010850694444444444,79.50303819444444,0)" xlink:href="#ag"/><use transform="matrix(0.010850694444444444,0,0,0.010850694444444444,86.96831597222221,0)" xlink:href="#X"/><use transform="matrix(0.010850694444444444,0,0,0.010850694444444444,94.23828124999997,0)" xlink:href="#T"/><use transform="matrix(0.010850694444444444,0,0,0.010850694444444444,102.09418402777776,0)" xlink:href="#U"/><use transform="matrix(0.010850694444444444,0,0,0.010850694444444444,114.78949652777776,0)" xlink:href="#V"/><use transform="matrix(0.010850694444444444,0,0,0.010850694444444444,127.92968749999997,0)" xlink:href="#Q"/><use transform="matrix(0.010850694444444444,0,0,0.010850694444444444,136.64279513888886,0)" xlink:href="#Q"/><use transform="matrix(0.010850694444444444,0,0,0.010850694444444444,144.6397569444444,0)" xlink:href="#R"/><use transform="matrix(0.010850694444444444,0,0,0.010850694444444444,157.59548611111106,0)" xlink:href="#W"/><use transform="matrix(0.010850694444444444,0,0,0.010850694444444444,170.72482638888883,0)" xlink:href="#X"/><use transform="matrix(0.010850694444444444,0,0,0.010850694444444444,177.24609374999994,0)" xlink:href="#Y"/><use transform="matrix(0.010850694444444444,0,0,0.010850694444444444,189.95225694444437,0)" xlink:href="#V"/><use transform="matrix(0.010850694444444444,0,0,0.010850694444444444,203.09244791666663,0)" xlink:href="#Q"/><use transform="matrix(0.010850694444444444,0,0,0.010850694444444444,211.80555555555546,0)" xlink:href="#W"/><use transform="matrix(0.010850694444444444,0,0,0.010850694444444444,224.93489583333326,0)" xlink:href="#Z"/></g><g id="g"><use transform="matrix(0.010850694444444444,0,0,0.010850694444444444,0,0)" xlink:href="#aa"/><use transform="matrix(0.010850694444444444,0,0,0.010850694444444444,5.967881944444445,0)" xlink:href="#W"/><use transform="matrix(0.010850694444444444,0,0,0.010850694444444444,19.09722222222222,0)" xlink:href="#X"/></g><path d="M681 22C323 22 94-145 85-462h297c10 151 131 226 296 226 163 0 271-77 271-190 0-102-95-149-257-189l-164-41c-252-61-403-188-403-405 0-269 236-449 560-449 330 0 546 183 551 445H941c-11-119-106-188-259-188-156 0-244 72-244 172-3 156 226 185 373 221 250 61 445 186 445 436 0 271-213 446-575 446" id="ah"/><path d="M128 0v-1490h300v802h17l366-430h347L740-633 1179 0H826L514-456l-86 97V0H128" id="ai"/><path d="M572 22C302 22 117-98 78-306l279-48c29 105 101 156 224 156 114 0 185-48 185-115 0-118-228-130-337-155-215-49-322-150-322-317 0-215 187-347 470-347 265 0 424 116 466 298l-266 47c-24-76-87-130-196-130-98 0-174 46-174 113 0 56 38 95 144 117l201 40c216 44 320 143 320 302 0 220-207 367-500 367" id="aj"/><g id="h"><use transform="matrix(0.010850694444444444,0,0,0.010850694444444444,0,0)" xlink:href="#ah"/><use transform="matrix(0.010850694444444444,0,0,0.010850694444444444,14.55078125,0)" xlink:href="#D"/><use transform="matrix(0.010850694444444444,0,0,0.010850694444444444,28.559027777777775,0)" xlink:href="#E"/><use transform="matrix(0.010850694444444444,0,0,0.010850694444444444,34.58116319444444,0)" xlink:href="#ai"/><use transform="matrix(0.010850694444444444,0,0,0.010850694444444444,46.97265625,0)" xlink:href="#J"/><use transform="matrix(0.010850694444444444,0,0,0.010850694444444444,60.21050347222222,0)" xlink:href="#aj"/></g><path d="M683-1118v229H474v562c0 71 29 104 102 104 23 0 73-7 95-13l43 225C647 9 580 16 520 16 296 16 174-96 174-301v-588H20v-229h154v-266h300v266h209" id="ak"/><path d="M428-647V0H128v-1490h294v586c65-146 175-228 341-228 232 0 385 159 385 421V0H847v-659c0-139-76-222-202-222-128 0-217 86-217 234" id="al"/><path d="M135 0v-1490h581c339 0 533 192 533 485 0 204-94 351-264 424L1302 0H964L680-532H440V0H135zm305-779h220c186 0 274-77 274-226 0-150-88-233-275-233H440v459" id="am"/><path d="M628 22C291 22 81-210 81-554c0-346 210-578 547-578 336 0 547 232 547 578 0 344-211 576-547 576zm0-236c160 0 242-146 242-341 0-197-82-341-242-341S387-753 387-555c0 195 81 341 241 341" id="an"/><path d="M628 22C291 22 81-210 81-554c0-346 210-578 547-578 265 0 455 142 497 372l-279 52c-25-116-99-188-215-188-160 0-244 139-244 341 0 200 84 341 244 341 116 0 193-74 217-195l279 51C1085-123 896 22 628 22" id="ao"/><g id="i"><use transform="matrix(0.010850694444444444,0,0,0.010850694444444444,0,0)" xlink:href="#ah"/><use transform="matrix(0.010850694444444444,0,0,0.010850694444444444,14.55078125,0)" xlink:href="#ak"/><use transform="matrix(0.010850694444444444,0,0,0.010850694444444444,22.471788194444443,0)" xlink:href="#J"/><use transform="matrix(0.010850694444444444,0,0,0.010850694444444444,35.92664930555556,0)" xlink:href="#G"/><use transform="matrix(0.010850694444444444,0,0,0.010850694444444444,48.828125,0)" xlink:href="#I"/><use transform="matrix(0.010850694444444444,0,0,0.010850694444444444,55.17578125,0)" xlink:href="#ak"/><use transform="matrix(0.010850694444444444,0,0,0.010850694444444444,63.36805555555555,0)" xlink:href="#al"/><use transform="matrix(0.010850694444444444,0,0,0.010850694444444444,77.20269097222223,0)" xlink:href="#am"/><use transform="matrix(0.010850694444444444,0,0,0.010850694444444444,91.52560763888889,0)" xlink:href="#an"/><use transform="matrix(0.010850694444444444,0,0,0.010850694444444444,105.15407986111111,0)" xlink:href="#ao"/><use transform="matrix(0.010850694444444444,0,0,0.010850694444444444,118.22916666666666,0)" xlink:href="#ai"/></g><path d="M75-1237v-253h1217v253H837V0H531v-1237H75" id="ap"/><path d="M128 0v-1118h278l12 217c60-163 185-234 319-234 143 0 236 81 288 251 63-172 205-251 359-251 205 0 357 138 357 381V0h-301v-697c0-126-76-187-177-187-114 0-184 79-184 196V0H789v-705c0-109-72-179-174-179-106 0-187 74-187 208V0H128" id="aq"/><g id="j"><use transform="matrix(0.010850694444444444,0,0,0.010850694444444444,0,0)" xlink:href="#ap"/><use transform="matrix(0.010850694444444444,0,0,0.010850694444444444,13.57421875,0)" xlink:href="#F"/><use transform="matrix(0.010850694444444444,0,0,0.010850694444444444,22.786458333333332,0)" xlink:href="#E"/><use transform="matrix(0.010850694444444444,0,0,0.010850694444444444,28.80859375,0)" xlink:href="#ao"/><use transform="matrix(0.010850694444444444,0,0,0.010850694444444444,41.88368055555556,0)" xlink:href="#ai"/><use transform="matrix(0.010850694444444444,0,0,0.010850694444444444,54.77430555555556,0)" xlink:href="#am"/><use transform="matrix(0.010850694444444444,0,0,0.010850694444444444,69.09722222222221,0)" xlink:href="#an"/><use transform="matrix(0.010850694444444444,0,0,0.010850694444444444,82.72569444444443,0)" xlink:href="#an"/><use transform="matrix(0.010850694444444444,0,0,0.010850694444444444,96.35416666666666,0)" xlink:href="#aq"/></g><path d="M49 0l509-1490h400L1480 0h-339l-115-346H497L386 0H49zm524-585h374c-75-213-124-402-192-666-66 268-110 453-182 666" id="ar"/><path d="M361 0L31-1118h315c68 295 127 523 188 845 63-317 128-551 199-845h276c71 296 131 525 196 846 57-321 119-552 186-846h319L1378 0h-305c-73-261-148-486-204-771C813-484 740-261 666 0H361" id="as"/><path d="M428-647V0H128v-1118h283l4 231c63-156 176-245 348-245 232 0 384 159 384 421V0H847v-659c0-139-76-222-202-222-128 0-217 86-217 234" id="at"/><path d="M537 19C279 19 81-185 81-557c0-382 206-575 454-575 190 0 278 113 318 202h10v-560h300V0H868v-179h-15C812-89 719 19 537 19zm92-241c153 0 240-134 240-336 0-203-86-334-240-334-158 0-240 138-240 334 0 197 84 336 240 336" id="au"/><g id="k"><use transform="matrix(0.010850694444444444,0,0,0.010850694444444444,0,0)" xlink:href="#ar"/><use transform="matrix(0.010850694444444444,0,0,0.010850694444444444,15.082465277777775,0)" xlink:href="#as"/><use transform="matrix(0.010850694444444444,0,0,0.010850694444444444,33.91927083333333,0)" xlink:href="#G"/><use transform="matrix(0.010850694444444444,0,0,0.010850694444444444,46.82074652777778,0)" xlink:href="#ai"/><use transform="matrix(0.010850694444444444,0,0,0.010850694444444444,59.21223958333333,0)" xlink:href="#J"/><use transform="matrix(0.010850694444444444,0,0,0.010850694444444444,72.45008680555554,0)" xlink:href="#at"/><use transform="matrix(0.010850694444444444,0,0,0.010850694444444444,86.28472222222221,0)" xlink:href="#au"/></g><path d="M750-1118v229H516V0H217v-889H20v-229h197v-86c0-238 156-356 363-356 94 0 178 20 215 31l-54 226c-25-7-61-15-100-15-123-3-131 84-125 200h234" id="av"/><g id="l"><use transform="matrix(0.010850694444444444,0,0,0.010850694444444444,0,0)" xlink:href="#B"/><use transform="matrix(0.010850694444444444,0,0,0.010850694444444444,13.49826388888889,0)" xlink:href="#I"/><use transform="matrix(0.010850694444444444,0,0,0.010850694444444444,19.520399305555557,0)" xlink:href="#J"/><use transform="matrix(0.010850694444444444,0,0,0.010850694444444444,32.75824652777778,0)" xlink:href="#ao"/><use transform="matrix(0.010850694444444444,0,0,0.010850694444444444,45.83333333333333,0)" xlink:href="#ak"/><use transform="matrix(0.010850694444444444,0,0,0.010850694444444444,53.97135416666667,0)" xlink:href="#F"/><use transform="matrix(0.010850694444444444,0,0,0.010850694444444444,63.18359375,0)" xlink:href="#E"/><use transform="matrix(0.010850694444444444,0,0,0.010850694444444444,69.20572916666667,0)" xlink:href="#av"/><use transform="matrix(0.010850694444444444,0,0,0.010850694444444444,78.23350694444446,0)" xlink:href="#E"/><use transform="matrix(0.010850694444444444,0,0,0.010850694444444444,84.25564236111113,0)" xlink:href="#J"/><use transform="matrix(0.010850694444444444,0,0,0.010850694444444444,97.49348958333334,0)" xlink:href="#au"/></g><path d="M795 20C377 20 94-272 94-743c0-483 302-767 694-767 335 0 593 206 635 500h-310c-42-142-154-229-320-229-230 0-389 177-389 493s154 495 393 495c212 0 340-120 345-311H818v-232h620v186c0 391-269 628-643 628" id="aw"/><path d="M120 396l69-226c123 42 245 23 254-107l8-60L31-1118h319c87 288 199 559 259 872 72-308 185-583 277-872h315L726 132c-68 181-186 294-410 294-79 0-153-13-196-30" id="ax"/><g id="m"><use transform="matrix(0.010850694444444444,0,0,0.010850694444444444,0,0)" xlink:href="#aw"/><use transform="matrix(0.010850694444444444,0,0,0.010850694444444444,16.67751736111111,0)" xlink:href="#F"/><use transform="matrix(0.010850694444444444,0,0,0.010850694444444444,25.423177083333336,0)" xlink:href="#G"/><use transform="matrix(0.010850694444444444,0,0,0.010850694444444444,38.32465277777778,0)" xlink:href="#aj"/><use transform="matrix(0.010850694444444444,0,0,0.010850694444444444,50.77039930555556,0)" xlink:href="#aj"/><use transform="matrix(0.010850694444444444,0,0,0.010850694444444444,63.21614583333333,0)" xlink:href="#ax"/></g><path d="M135 0v-1490h468l242 684c30 94 76 293 111 455 34-161 80-360 110-455l238-684h470V0h-307c0-447-3-765 11-1227-122 503-246 788-395 1227H826C676-435 552-717 427-1215c15 453 11 775 11 1215H135" id="ay"/><g id="n"><use transform="matrix(0.010850694444444444,0,0,0.010850694444444444,0,0)" xlink:href="#ay"/><use transform="matrix(0.010850694444444444,0,0,0.010850694444444444,20.703125,0)" xlink:href="#E"/><use transform="matrix(0.010850694444444444,0,0,0.010850694444444444,26.725260416666664,0)" xlink:href="#aj"/><use transform="matrix(0.010850694444444444,0,0,0.010850694444444444,39.17100694444444,0)" xlink:href="#ak"/><use transform="matrix(0.010850694444444444,0,0,0.010850694444444444,47.79730902777778,0)" xlink:href="#ax"/></g><path d="M513 14c-232 0-385-159-385-421v-711h300v659c0 139 76 222 202 222 127 0 217-86 217-234v-647h301V0H864l-4-232C797-74 683 14 513 14" id="az"/><g id="o"><use transform="matrix(0.010850694444444444,0,0,0.010850694444444444,0,0)" xlink:href="#ay"/><use transform="matrix(0.010850694444444444,0,0,0.010850694444444444,20.703125,0)" xlink:href="#az"/><use transform="matrix(0.010850694444444444,0,0,0.010850694444444444,34.537760416666664,0)" xlink:href="#au"/></g><g id="p"><use transform="matrix(0.010850694444444444,0,0,0.010850694444444444,0,0)" xlink:href="#am"/><use transform="matrix(0.010850694444444444,0,0,0.010850694444444444,14.485677083333332,0)" xlink:href="#G"/><use transform="matrix(0.010850694444444444,0,0,0.010850694444444444,27.38715277777778,0)" xlink:href="#E"/><use transform="matrix(0.010850694444444444,0,0,0.010850694444444444,33.40928819444444,0)" xlink:href="#at"/></g><g id="q"><use transform="matrix(0.010850694444444444,0,0,0.010850694444444444,0,0)" xlink:href="#ah"/><use transform="matrix(0.010850694444444444,0,0,0.010850694444444444,14.55078125,0)" xlink:href="#G"/><use transform="matrix(0.010850694444444444,0,0,0.010850694444444444,27.452256944444443,0)" xlink:href="#at"/><use transform="matrix(0.010850694444444444,0,0,0.010850694444444444,41.28689236111111,0)" xlink:href="#au"/><use transform="matrix(0.010850694444444444,0,0,0.010850694444444444,55.295138888888886,0)" xlink:href="#ah"/><use transform="matrix(0.010850694444444444,0,0,0.010850694444444444,69.84592013888889,0)" xlink:href="#ak"/><use transform="matrix(0.010850694444444444,0,0,0.010850694444444444,77.76692708333333,0)" xlink:href="#an"/><use transform="matrix(0.010850694444444444,0,0,0.010850694444444444,91.39539930555556,0)" xlink:href="#F"/><use transform="matrix(0.010850694444444444,0,0,0.010850694444444444,100.60763888888889,0)" xlink:href="#aq"/></g><g id="r"><use transform="matrix(0.010850694444444444,0,0,0.010850694444444444,0,0)" xlink:href="#ah"/><use transform="matrix(0.010850694444444444,0,0,0.010850694444444444,14.55078125,0)" xlink:href="#at"/><use transform="matrix(0.010850694444444444,0,0,0.010850694444444444,28.385416666666664,0)" xlink:href="#an"/><use transform="matrix(0.010850694444444444,0,0,0.010850694444444444,41.71006944444444,0)" xlink:href="#as"/></g><g id="s"><use transform="matrix(0.010850694444444444,0,0,0.010850694444444444,0,0)" xlink:href="#ah"/><use transform="matrix(0.010850694444444444,0,0,0.010850694444444444,14.55078125,0)" xlink:href="#az"/><use transform="matrix(0.010850694444444444,0,0,0.010850694444444444,28.385416666666664,0)" xlink:href="#at"/><use transform="matrix(0.010850694444444444,0,0,0.010850694444444444,42.22005208333333,0)" xlink:href="#at"/><use transform="matrix(0.010850694444444444,0,0,0.010850694444444444,55.674913194444436,0)" xlink:href="#ax"/></g><path d="M601 0v-560L49-1490h357l252 464c38 68 67 130 97 208 96-243 225-446 337-672h356L905-560V0H601" id="aA"/><g id="t"><use transform="matrix(0.010850694444444444,0,0,0.010850694444444444,0,0)" xlink:href="#aA"/><use transform="matrix(0.010850694444444444,0,0,0.010850694444444444,13.986545138888888,0)" xlink:href="#G"/><use transform="matrix(0.010850694444444444,0,0,0.010850694444444444,26.888020833333332,0)" xlink:href="#as"/><use transform="matrix(0.010850694444444444,0,0,0.010850694444444444,45.77907986111111,0)" xlink:href="#at"/></g><path d="M135 0v-1490h581c339 0 533 210 533 503 0 295-197 500-540 500H440V0H135zm305-733h220c186 0 274-104 274-254s-88-251-275-251H440v505" id="aB"/><g id="u"><use transform="matrix(0.010850694444444444,0,0,0.010850694444444444,0,0)" xlink:href="#aB"/><use transform="matrix(0.010850694444444444,0,0,0.010850694444444444,14.398871527777777,0)" xlink:href="#F"/><use transform="matrix(0.010850694444444444,0,0,0.010850694444444444,22.90581597222222,0)" xlink:href="#an"/><use transform="matrix(0.010850694444444444,0,0,0.010850694444444444,36.53428819444444,0)" xlink:href="#ak"/><use transform="matrix(0.010850694444444444,0,0,0.010850694444444444,44.4552951388889,0)" xlink:href="#J"/><use transform="matrix(0.010850694444444444,0,0,0.010850694444444444,57.69314236111112,0)" xlink:href="#ao"/><use transform="matrix(0.010850694444444444,0,0,0.010850694444444444,70.76822916666667,0)" xlink:href="#ak"/><use transform="matrix(0.010850694444444444,0,0,0.010850694444444444,78.96050347222223,0)" xlink:href="#B"/><use transform="matrix(0.010850694444444444,0,0,0.010850694444444444,92.45876736111111,0)" xlink:href="#at"/><use transform="matrix(0.010850694444444444,0,0,0.010850694444444444,106.2934027777778,0)" xlink:href="#au"/><use transform="matrix(0.010850694444444444,0,0,0.010850694444444444,120.30164930555556,0)" xlink:href="#az"/><use transform="matrix(0.010850694444444444,0,0,0.010850694444444444,134.13628472222223,0)" xlink:href="#F"/><use transform="matrix(0.010850694444444444,0,0,0.010850694444444444,142.64322916666666,0)" xlink:href="#J"/></g><path d="M135 0v-1490h980v253H440v416h609v249H440V0H135" id="aC"/><g id="v"><use transform="matrix(0.010850694444444444,0,0,0.010850694444444444,0,0)" xlink:href="#aC"/><use transform="matrix(0.010850694444444444,0,0,0.010850694444444444,13.042534722222221,0)" xlink:href="#I"/><use transform="matrix(0.010850694444444444,0,0,0.010850694444444444,19.064670138888886,0)" xlink:href="#E"/><use transform="matrix(0.010850694444444444,0,0,0.010850694444444444,25.08680555555555,0)" xlink:href="#at"/><use transform="matrix(0.010850694444444444,0,0,0.010850694444444444,38.921440972222214,0)" xlink:href="#ao"/><use transform="matrix(0.010850694444444444,0,0,0.010850694444444444,51.99652777777778,0)" xlink:href="#al"/></g><path d="M571 0L49-1490h339c138 427 271 775 384 1244 111-471 237-815 371-1244h337L970 0H571" id="aD"/><g id="w"><use transform="matrix(0.010416666666666668,0,0,0.010416666666666668,0,0)" xlink:href="#aD"/><use transform="matrix(0.010416666666666668,0,0,0.010416666666666668,14.625000000000002,0)" xlink:href="#an"/><use transform="matrix(0.010416666666666668,0,0,0.010416666666666668,27.708333333333336,0)" xlink:href="#I"/><use transform="matrix(0.010416666666666668,0,0,0.010416666666666668,33.489583333333336,0)" xlink:href="#G"/><use transform="matrix(0.010416666666666668,0,0,0.010416666666666668,45.87499999999999,0)" xlink:href="#ak"/><use transform="matrix(0.010416666666666668,0,0,0.010416666666666668,53.6875,0)" xlink:href="#E"/><use transform="matrix(0.010416666666666668,0,0,0.010416666666666668,59.46875,0)" xlink:href="#I"/><use transform="matrix(0.010416666666666668,0,0,0.010416666666666668,65.25,0)" xlink:href="#J"/><use transform="matrix(0.010416666666666668,0,0,0.010416666666666668,77.95833333333333,0)" xlink:href="#ah"/><use transform="matrix(0.010416666666666668,0,0,0.010416666666666668,91.92708333333333,0)" xlink:href="#ak"/><use transform="matrix(0.010416666666666668,0,0,0.010416666666666668,99.84374999999999,0)" xlink:href="#G"/><use transform="matrix(0.010416666666666668,0,0,0.010416666666666668,112.22916666666669,0)" xlink:href="#ak"/><use transform="matrix(0.010416666666666668,0,0,0.010416666666666668,120.04166666666669,0)" xlink:href="#az"/><use transform="matrix(0.010416666666666668,0,0,0.010416666666666668,133.32291666666669,0)" xlink:href="#aj"/></g><use transform="matrix(0.010850694444444444,0,0,0.010850694444444444,0,0)" xlink:href="#K" id="x"/><g id="y"><use transform="matrix(0.010850694444444444,0,0,0.010850694444444444,0,0)" xlink:href="#R"/><use transform="matrix(0.010850694444444444,0,0,0.010850694444444444,12.456597222222221,0)" xlink:href="#O"/><use transform="matrix(0.010850694444444444,0,0,0.010850694444444444,24.088541666666664,0)" xlink:href="#R"/><use transform="matrix(0.010850694444444444,0,0,0.010850694444444444,37.04427083333333,0)" xlink:href="#U"/><use transform="matrix(0.010850694444444444,0,0,0.010850694444444444,49.73958333333333,0)" xlink:href="#V"/><use transform="matrix(0.010850694444444444,0,0,0.010850694444444444,62.87977430555555,0)" xlink:href="#X"/><use transform="matrix(0.010850694444444444,0,0,0.010850694444444444,69.93272569444444,0)" xlink:href="#R"/><use transform="matrix(0.010850694444444444,0,0,0.010850694444444444,82.88845486111111,0)" xlink:href="#N"/><use transform="matrix(0.010850694444444444,0,0,0.010850694444444444,96.24565972222221,0)" xlink:href="#ag"/><use transform="matrix(0.010850694444444444,0,0,0.010850694444444444,103.60243055555556,0)" xlink:href="#ag"/><use transform="matrix(0.010850694444444444,0,0,0.010850694444444444,111.17621527777777,0)" xlink:href="#R"/><use transform="matrix(0.010850694444444444,0,0,0.010850694444444444,124.13194444444444,0)" xlink:href="#U"/><use transform="matrix(0.010850694444444444,0,0,0.010850694444444444,136.82725694444446,0)" xlink:href="#X"/></g><g id="z"><use transform="matrix(0.010850694444444444,0,0,0.010850694444444444,0,0)" xlink:href="#aC"/><use transform="matrix(0.010850694444444444,0,0,0.010850694444444444,13.042534722222221,0)" xlink:href="#E"/><use transform="matrix(0.010850694444444444,0,0,0.010850694444444444,19.064670138888886,0)" xlink:href="#J"/><use transform="matrix(0.010850694444444444,0,0,0.010850694444444444,32.30251736111111,0)" xlink:href="#I"/><use transform="matrix(0.010850694444444444,0,0,0.010850694444444444,38.32465277777777,0)" xlink:href="#au"/><use transform="matrix(0.010850694444444444,0,0,0.010850694444444444,52.33289930555556,0)" xlink:href="#B"/><use transform="matrix(0.010850694444444444,0,0,0.010850694444444444,65.83116319444444,0)" xlink:href="#av"/><use transform="matrix(0.010850694444444444,0,0,0.010850694444444444,73.75217013888889,0)" xlink:href="#av"/><use transform="matrix(0.010850694444444444,0,0,0.010850694444444444,82.11805555555554,0)" xlink:href="#J"/><use transform="matrix(0.010850694444444444,0,0,0.010850694444444444,95.35590277777777,0)" xlink:href="#ao"/><use transform="matrix(0.010850694444444444,0,0,0.010850694444444444,108.43098958333333,0)" xlink:href="#ak"/></g><path d="M180 0v-1490h528c311 0 458 177 458 395 0 191-114 278-244 313v14c139 9 302 137 302 371 0 225-148 397-499 397H180zm190-168h350c232 0 321-102 321-231 0-149-120-277-311-277H370v508zm0-668h328c160 0 286-101 286-255 0-129-87-231-280-231H370v486" id="aE"/><path d="M471 26C259 26 90-98 90-318c0-256 228-303 435-329 202-27 287-16 287-108 0-139-79-219-234-219-161 0-248 86-283 164l-173-57c86-203 278-265 451-265 150 0 419 46 419 395V0H815v-152h-12C765-73 660 26 471 26zm31-159c199 0 310-134 310-271v-155c-30 35-226 55-295 64-131 17-246 59-246 186 0 116 97 176 231 176" id="aF"/><path d="M180 0v-1490h190v644h782v-644h190V0h-190v-678H370V0H180" id="aG"/><path d="M158 0v-1490h180v865h22l478-493h223L593-638 1096 0H865L456-523 338-412V0H158" id="aH"/><path d="M783 20c-382 0-661-292-661-764 0-473 279-766 661-766 302 0 548 182 601 489h-190c-42-204-217-313-411-313-268 0-476 208-476 590 0 381 209 588 476 588 195 0 369-110 411-313h190c-52 303-296 489-601 489" id="aI"/><path d="M611 442c-248 0-391-105-460-228l146-94c47 65 117 165 314 165 178 0 307-82 307-266v-224h-17C863-141 792-18 576-18c-268 0-472-195-472-546 0-346 197-568 476-568 216 0 288 133 326 193h17v-179h175V29c0 289-215 413-487 413zm-5-620c203 0 314-146 314-390 0-237-108-403-314-403-213 0-319 180-319 403 0 230 109 390 319 390" id="aJ"/><g id="A"><use transform="matrix(0.010850694444444444,0,0,0.010850694444444444,0,0)" xlink:href="#aE"/><use transform="matrix(0.010850694444444444,0,0,0.010850694444444444,14.539930555555555,0)" xlink:href="#aF"/><use transform="matrix(0.010850694444444444,0,0,0.010850694444444444,27.018229166666664,0)" xlink:href="#X"/><use transform="matrix(0.010850694444444444,0,0,0.010850694444444444,33.74565972222222,0)" xlink:href="#X"/><use transform="matrix(0.010850694444444444,0,0,0.010850694444444444,41.015625,0)" xlink:href="#ae"/><use transform="matrix(0.010850694444444444,0,0,0.010850694444444444,46.39756944444444,0)" xlink:href="#R"/><use transform="matrix(0.010850694444444444,0,0,0.010850694444444444,59.35329861111111,0)" xlink:href="#aG"/><use transform="matrix(0.010850694444444444,0,0,0.010850694444444444,75.86805555555554,0)" xlink:href="#ad"/><use transform="matrix(0.010850694444444444,0,0,0.010850694444444444,89.19270833333331,0)" xlink:href="#ad"/><use transform="matrix(0.010850694444444444,0,0,0.010850694444444444,102.51736111111109,0)" xlink:href="#aH"/><use transform="matrix(0.010850694444444444,0,0,0.010850694444444444,114.71354166666664,0)" xlink:href="#M"/><use transform="matrix(0.010850694444444444,0,0,0.010850694444444444,126.44314236111109,0)" xlink:href="#aI"/><use transform="matrix(0.010850694444444444,0,0,0.010850694444444444,142.67578124999997,0)" xlink:href="#ad"/><use transform="matrix(0.010850694444444444,0,0,0.010850694444444444,156.00043402777774,0)" xlink:href="#W"/><use transform="matrix(0.010850694444444444,0,0,0.010850694444444444,169.12977430555551,0)" xlink:href="#ag"/><use transform="matrix(0.010850694444444444,0,0,0.010850694444444444,177.3546006944444,0)" xlink:href="#L"/><use transform="matrix(0.010850694444444444,0,0,0.010850694444444444,182.73654513888883,0)" xlink:href="#aJ"/><use transform="matrix(0.010850694444444444,0,0,0.010850694444444444,196.36501736111111,0)" xlink:href="#V"/><use transform="matrix(0.010850694444444444,0,0,0.010850694444444444,209.50520833333331,0)" xlink:href="#Q"/><use transform="matrix(0.010850694444444444,0,0,0.010850694444444444,217.87109374999994,0)" xlink:href="#aF"/><use transform="matrix(0.010850694444444444,0,0,0.010850694444444444,230.34939236111111,0)" xlink:href="#X"/><use transform="matrix(0.010850694444444444,0,0,0.010850694444444444,237.40234374999994,0)" xlink:href="#ad"/><use transform="matrix(0.010850694444444444,0,0,0.010850694444444444,250.72699652777774,0)" xlink:href="#Q"/></g></defs></g></svg>