<svg xmlns="http://www.w3.org/2000/svg" xmlns:xlink="http://www.w3.org/1999/xlink" xmlns:lucid="lucid" width="1182" height="1174.48"><g transform="translate(1339.1218451547734 -8800)" lucid:page-tab-id="0_0"><path d="M-14500-2500h25000v16000h-25000z" fill="#fff"/><path d="M-1338.12 8899.48a6 6 0 0 1 6-6h148a6 6 0 0 1 6 6v114a6 6 0 0 1-6 6h-148a6 6 0 0 1-6-6z" stroke="#000" stroke-width="2" fill="#fff"/><use xlink:href="#a" transform="matrix(1,0,0,1,-1330.121845120308,8901.478736670573) translate(12.364583333333343 63.08376736111111)"/><path d="M-1338.12 9144.23a6 6 0 0 1 6-6h148a6 6 0 0 1 6 6v114a6 6 0 0 1-6 6h-148a6 6 0 0 1-6-6z" stroke="#000" stroke-width="2" fill="#fff"/><use xlink:href="#b" transform="matrix(1,0,0,1,-1330.121845120308,9146.228736670573) translate(45.83355034722223 63.08376736111111)"/><path d="M-1258.12 9136.73v-85.88" stroke="#3a414a" fill="none"/><path d="M-1257.65 9137.23h-.95v-.5h.95z" stroke="#3a414a" stroke-width=".05" fill="#3a414a"/><path d="M-1258.12 9021.2l-14.85 14.83 14.85 14.85 14.85-14.84z" stroke="#3a414a" fill="#3a414a"/><path d="M-1078.12 9008.23a6 6 0 0 1 6-6h178.26a6 6 0 0 1 6 6v92a6 6 0 0 1-6 6h-178.26a6 6 0 0 1-6-6z" stroke="#000" stroke-width="2" fill="#fff"/><use xlink:href="#c" transform="matrix(1,0,0,1,-1070.121845120308,9010.228736670573) translate(11.474609374999986 35.950954861111114)"/><use xlink:href="#d" transform="matrix(1,0,0,1,-1070.121845120308,9010.228736670573) translate(48.974609375 68.21657986111111)"/><path d="M-1079.62 9054.23h-42.5a6 6 0 0 0-6 6v135a6 6 0 0 1-6 6h-12.63" stroke="#3a414a" fill="none"/><path d="M-1079.12 9054.7h-.52v-.95h.52z" stroke="#3a414a" stroke-width=".05" fill="#3a414a"/><path d="M-1176.4 9201.23l14.83 14.85 14.85-14.85-14.85-14.85z" stroke="#3a414a" fill="#3a414a"/><use xlink:href="#e" transform="matrix(1,0,0,1,-1112.060918917763,9028.718320003907) translate(0 17.22222222222222)"/><path d="M-1078.12 9155.23a6 6 0 0 1 6-6h178.26a6 6 0 0 1 6 6v92a6 6 0 0 1-6 6h-178.26a6 6 0 0 1-6-6z" stroke="#000" stroke-width="2" fill="#fff"/><use xlink:href="#c" transform="matrix(1,0,0,1,-1070.121845120308,9157.228736670573) translate(11.474609374999986 35.950954861111114)"/><use xlink:href="#f" transform="matrix(1,0,0,1,-1070.121845120308,9157.228736670573) translate(41.18923611111111 68.21657986111111)"/><path d="M-1078.12 9299.23a6 6 0 0 1 6-6h178.26a6 6 0 0 1 6 6v103a6 6 0 0 1-6 6h-178.26a6 6 0 0 1-6-6z" stroke="#000" stroke-width="2" fill="#fff"/><use xlink:href="#c" transform="matrix(1,0,0,1,-1070.121845120308,9301.228736670573) translate(11.474609374999986 41.450954861111114)"/><use xlink:href="#g" transform="matrix(1,0,0,1,-1070.121845120308,9301.228736670573) translate(56.570095486111114 73.71657986111111)"/><path d="M-1079.62 9201.23h-67.13" stroke="#3a414a" fill="none"/><path d="M-1079.12 9201.7h-.52v-.95h.52z" stroke="#3a414a" stroke-width=".05" fill="#3a414a"/><path d="M-1176.4 9201.23l14.83 14.85 14.85-14.85-14.85-14.85z" stroke="#3a414a" fill="#3a414a"/><use xlink:href="#e" transform="matrix(1,0,0,1,-1113.9625023377594,9175.718320003907) translate(0 17.22222222222222)"/><path d="M-1079.62 9350.73h-42.5a6 6 0 0 1-6-6v-137.5a6 6 0 0 0-6-6h-12.63" stroke="#3a414a" fill="none"/><path d="M-1079.12 9351.2h-.52v-.95h.52z" stroke="#3a414a" stroke-width=".05" fill="#3a414a"/><path d="M-1176.4 9201.23l14.83 14.85 14.85-14.85-14.85-14.85z" stroke="#3a414a" fill="#3a414a"/><use xlink:href="#e" transform="matrix(1,0,0,1,-1114.3052562490961,9325.218320003905) translate(0 17.22222222222222)"/><path d="M-1078.12 9454.73a6 6 0 0 1 6-6h178.26a6 6 0 0 1 6 6v103a6 6 0 0 1-6 6h-178.26a6 6 0 0 1-6-6z" stroke="#000" stroke-width="2" fill="#fff"/><use xlink:href="#c" transform="matrix(1,0,0,1,-1070.121845120308,9456.728736670573) translate(11.474609374999986 41.450954861111114)"/><use xlink:href="#h" transform="matrix(1,0,0,1,-1070.121845120308,9456.728736670573) translate(37.4240451388889 73.71657986111111)"/><path d="M-1079.62 9506.23h-172.5a6 6 0 0 1-6-6V9295.6" stroke="#3a414a" fill="none"/><path d="M-1079.12 9506.7h-.52v-.95h.52z" stroke="#3a414a" stroke-width=".05" fill="#3a414a"/><path d="M-1258.12 9265.94l-14.85 14.84 14.85 14.85 14.85-14.84z" stroke="#3a414a" fill="#3a414a"/><use xlink:href="#i" transform="matrix(1,0,0,1,-1121.9917632050035,9480.718320003907) translate(0 17.22222222222222)"/><path d="M-1078.12 9654.23a6 6 0 0 1 6-6h178.26a6 6 0 0 1 6 6v103a6 6 0 0 1-6 6h-178.26a6 6 0 0 1-6-6z" stroke="#000" stroke-width="2" fill="#fff"/><use xlink:href="#c" transform="matrix(1,0,0,1,-1070.121845120308,9656.228736670573) translate(11.474609374999986 41.450954861111114)"/><use xlink:href="#j" transform="matrix(1,0,0,1,-1070.121845120308,9656.228736670573) translate(10.812717013888886 73.71657986111111)"/><path d="M-983 9595.1v51.63" stroke="#3a414a" fill="none"/><path d="M-983 9565.44l-14.84 14.84 14.85 14.85 14.86-14.84z" stroke="#3a414a" fill="#3a414a"/><path d="M-982.5 9647.23h-.96v-.5h.95z" stroke="#3a414a" stroke-width=".05" fill="#3a414a"/><use xlink:href="#k" transform="matrix(1,0,0,1,-1000.9276397137869,9626.098387492337) translate(0 17.22222222222222)"/><path d="M-687.86 9008.23a6 6 0 0 1 6-6h208a6 6 0 0 1 6 6v92a6 6 0 0 1-6 6h-208a6 6 0 0 1-6-6z" stroke="#000" stroke-width="2" fill="#fff"/><use xlink:href="#c" transform="matrix(1,0,0,1,-679.8549620850434,9010.228736670573) translate(26.474609374999986 35.950954861111114)"/><use xlink:href="#l" transform="matrix(1,0,0,1,-679.8549620850434,9010.228736670573) translate(67.90256076388889 68.21657986111111)"/><path d="M-687.86 9155.23a6 6 0 0 1 6-6h208a6 6 0 0 1 6 6v92a6 6 0 0 1-6 6h-208a6 6 0 0 1-6-6z" stroke="#000" stroke-width="2" fill="#fff"/><use xlink:href="#c" transform="matrix(1,0,0,1,-679.8549620850434,9157.228736670573) translate(26.474609374999986 35.950954861111114)"/><use xlink:href="#m" transform="matrix(1,0,0,1,-679.8549620850434,9157.228736670573) translate(29.61588541666667 68.21657986111111)"/><path d="M-687.86 9456.73a6 6 0 0 1 6-6h208a6 6 0 0 1 6 6v99a6 6 0 0 1-6 6h-208a6 6 0 0 1-6-6z" stroke="#000" stroke-width="2" fill="#fff"/><use xlink:href="#c" transform="matrix(1,0,0,1,-679.8549620850434,9458.728736670573) translate(26.474609374999986 39.450954861111114)"/><use xlink:href="#n" transform="matrix(1,0,0,1,-679.8549620850434,9458.728736670573) translate(2.022569444444457 71.71657986111111)"/><path d="M-687.86 9659.73a6 6 0 0 1 6-6h208a6 6 0 0 1 6 6v92a6 6 0 0 1-6 6h-208a6 6 0 0 1-6-6z" stroke="#000" stroke-width="2" fill="#fff"/><use xlink:href="#c" transform="matrix(1,0,0,1,-679.8549620850434,9661.728736670573) translate(26.474609374999986 35.950954861111114)"/><use xlink:href="#o" transform="matrix(1,0,0,1,-679.8549620850434,9661.728736670573) translate(51.83268229166667 68.21657986111111)"/><path d="M-687.86 9301.23a6 6 0 0 1 6-6h208a6 6 0 0 1 6 6v99a6 6 0 0 1-6 6h-208a6 6 0 0 1-6-6z" stroke="#000" stroke-width="2" fill="#fff"/><use xlink:href="#c" transform="matrix(1,0,0,1,-679.8549620850434,9303.228736670573) translate(26.474609374999986 39.450954861111114)"/><use xlink:href="#p" transform="matrix(1,0,0,1,-679.8549620850434,9303.228736670573) translate(38.074001736111114 71.71657986111111)"/><path d="M-886.36 9350.73h5.14m5.14 0h10.28m5.14 0h10.28m5.14 0h10.27m5.14 0h10.28m5.14 0h10.27m5.14 0h5.14a6 6 0 0 0 6-6v-5m0-4.98v-10m0-4.98v-9.98m0-5v-9.98m0-5v-9.98m0-5v-9.97m0-5v-9.98m0-5v-9.98m0-5v-9.97m0-5v-9.98m0-5V9190m0-5v-9.97m0-5v-9.98m0-5v-9.97m0-5v-9.97m0-5v-9.97m0-5v-9.97m0-5v-9.98m0-5v-9.97m0-4.98v-5a6 6 0 0 1 6-6h4.66m4.66 0h9.3m4.67 0h9.3m4.67 0h9.3m4.67 0h9.3m4.67 0h4.65" stroke="#3a414a" fill="none"/><path d="M-886.34 9351.2h-.5v-.95h.5z" stroke="#3a414a" stroke-width=".05" fill="#3a414a"/><path d="M-689.86 9054.23l-21.65 12.5v-25z" stroke="#3a414a" fill="#fff"/><path d="M-886.36 9350.73h5.14m5.14 0h10.28m5.14 0h10.28m5.14 0h10.27m5.14 0h10.28m5.14 0h10.27m5.14 0h5.14a6 6 0 0 0 6-6v-5.1m0-5.1v-10.17m0-5.1v-10.18m0-5.1v-10.18m0-5.1v-10.18m0-5.1v-10.17m0-5.1v-10.18m0-5.1v-10.18m0-5.1v-10.2m0-5.08v-5.1a6 6 0 0 1 6-6h4.66m4.66 0h9.3m4.67 0h9.3m4.67 0h9.3m4.67 0h9.3m4.67 0h4.65" stroke="#3a414a" fill="none"/><path d="M-886.34 9351.2h-.5v-.95h.5z" stroke="#3a414a" stroke-width=".05" fill="#3a414a"/><path d="M-689.86 9201.23l-21.65 12.5v-25z" stroke="#3a414a" fill="#fff"/><path d="M-886.36 9350.73h4.85m4.83 0h9.7m4.83 0h9.7m4.83 0h9.68m4.84 0h9.7m4.83 0h9.68m4.85 0h9.68m4.85 0h9.7m4.83 0h9.7m4.83 0h9.7m4.83 0h9.68m4.84 0h9.7m4.83 0h4.84" stroke="#3a414a" fill="none"/><path d="M-886.34 9351.2h-.5v-.95h.5z" stroke="#3a414a" stroke-width=".05" fill="#3a414a"/><path d="M-689.86 9350.73l-21.65 12.5v-25z" stroke="#3a414a" fill="#fff"/><path d="M-886.36 9350.73h5.14m5.14 0h10.28m5.14 0h10.28m5.14 0h10.27m5.14 0h10.28m5.14 0h10.27m5.14 0h5.14a6 6 0 0 1 6 6v4.78m0 4.8v9.56m0 4.78v9.57m0 4.8v9.56m0 4.78v9.57m0 4.8v9.56m0 4.78v9.57m0 4.8v9.56m0 4.8v9.55m0 4.8v9.56m0 4.78v4.8a6 6 0 0 0 6 6h4.66m4.66 0h9.3m4.67 0h9.3m4.67 0h9.3m4.67 0h9.3m4.67 0h4.65" stroke="#3a414a" fill="none"/><path d="M-886.34 9351.2h-.5v-.95h.5z" stroke="#3a414a" stroke-width=".05" fill="#3a414a"/><path d="M-689.86 9506.23l-21.65 12.5v-25z" stroke="#3a414a" fill="#fff"/><path d="M-886.36 9350.73h5.14m5.14 0h10.28m5.14 0h10.28m5.14 0h10.27m5.14 0h10.28m5.14 0h10.27m5.14 0h5.14a6 6 0 0 1 6 6v4.97m0 4.97v9.94m0 4.98v9.95m0 4.97v9.94m0 4.97v9.95m0 4.97v9.94m0 4.98v9.94m0 4.97v9.94m0 4.96v9.94m0 4.98v9.94m0 4.97v9.93m0 4.97v9.94m0 4.97v9.96m0 4.97v9.94m0 4.97v9.94m0 4.97v9.94m0 4.97v9.94m0 4.98v9.94m0 4.97v9.93m0 4.98v9.95m0 4.97v9.94m0 4.97v9.94m0 4.97v9.95m0 4.96v4.97a6 6 0 0 0 6 6h4.66m4.66 0h9.3m4.67 0h9.3m4.67 0h9.3m4.67 0h9.3m4.67 0h4.65" stroke="#3a414a" fill="none"/><path d="M-886.34 9351.2h-.5v-.95h.5z" stroke="#3a414a" stroke-width=".05" fill="#3a414a"/><path d="M-689.86 9705.73l-21.65 12.5v-25z" stroke="#3a414a" fill="#fff"/><path d="M-886.36 9705.73h4.85m4.83 0h9.7m4.83 0h9.7m4.83 0h9.68m4.84 0h9.7m4.83 0h9.68m4.85 0h9.68m4.85 0h9.7m4.83 0h9.7m4.83 0h9.7m4.83 0h9.68m4.84 0h9.7m4.83 0h4.84" stroke="#3a414a" fill="none"/><path d="M-886.34 9706.2h-.5v-.95h.5z" stroke="#3a414a" stroke-width=".05" fill="#3a414a"/><path d="M-689.86 9705.73l-21.65 12.5v-25z" stroke="#3a414a" fill="#fff"/><path d="M-886.36 9506.23h4.85m4.83 0h9.7m4.83 0h9.7m4.83 0h9.68m4.84 0h9.7m4.83 0h9.68m4.85 0h9.68m4.85 0h9.7m4.83 0h9.7m4.83 0h9.7m4.83 0h9.68m4.84 0h9.7m4.83 0h4.84" stroke="#3a414a" fill="none"/><path d="M-886.34 9506.7h-.5v-.95h.5z" stroke="#3a414a" stroke-width=".05" fill="#3a414a"/><path d="M-689.86 9506.23l-21.65 12.5v-25z" stroke="#3a414a" fill="#fff"/><path d="M-886.36 9201.23h4.85m4.83 0h9.7m4.83 0h9.7m4.83 0h9.68m4.84 0h9.7m4.83 0h9.68m4.85 0h9.68m4.85 0h9.7m4.83 0h9.7m4.83 0h9.7m4.83 0h9.68m4.84 0h9.7m4.83 0h4.84" stroke="#3a414a" fill="none"/><path d="M-886.34 9201.7h-.5v-.95h.5z" stroke="#3a414a" stroke-width=".05" fill="#3a414a"/><path d="M-689.86 9201.23l-21.65 12.5v-25z" stroke="#3a414a" fill="#fff"/><path d="M-886.36 9054.23h4.85m4.83 0h9.7m4.83 0h9.7m4.83 0h9.68m4.84 0h9.7m4.83 0h9.68m4.85 0h9.68m4.85 0h9.7m4.83 0h9.7m4.83 0h9.7m4.83 0h9.68m4.84 0h9.7m4.83 0h4.84" stroke="#3a414a" fill="none"/><path d="M-886.34 9054.7h-.5v-.95h.5z" stroke="#3a414a" stroke-width=".05" fill="#3a414a"/><path d="M-689.86 9054.23l-21.65 12.5v-25z" stroke="#3a414a" fill="#fff"/><path d="M-886.36 9054.23h5.14m5.14 0h10.28m5.14 0h10.28m5.14 0h10.27m5.14 0h10.28m5.14 0h10.27m5.14 0h5.14a6 6 0 0 1 6 6v5m0 5v10m0 5v10m0 5v10m0 5v10m0 5v10m0 5v10m0 5v10m0 5v10m0 5v5a6 6 0 0 0 6 6h4.66m4.66 0h9.3m4.67 0h9.3m4.67 0h9.3m4.67 0h9.3m4.67 0h4.65" stroke="#3a414a" fill="none"/><path d="M-886.34 9054.7h-.5v-.95h.5z" stroke="#3a414a" stroke-width=".05" fill="#3a414a"/><path d="M-689.86 9201.23l-21.65 12.5v-25z" stroke="#3a414a" fill="#fff"/><path d="M-886.36 9201.23h5.14m5.14 0h10.28m5.14 0h10.28m5.14 0h10.27m5.14 0h10.28m5.14 0h10.27m5.14 0h5.14a6 6 0 0 1 6 6v5.1m0 5.08v10.2m0 5.1v10.18m0 5.1v10.18m0 5.1v10.17m0 5.1v10.18m0 5.1v10.2m0 5.08v10.2m0 5.08v10.18m0 5.1v5.1a6 6 0 0 0 6 6h4.66m4.66 0h9.3m4.67 0h9.3m4.67 0h9.3m4.67 0h9.3m4.67 0h4.65" stroke="#3a414a" fill="none"/><path d="M-886.34 9201.7h-.5v-.95h.5z" stroke="#3a414a" stroke-width=".05" fill="#3a414a"/><path d="M-689.86 9350.73l-21.65 12.5v-25z" stroke="#3a414a" fill="#fff"/><path d="M-886.36 9201.23h5.14m5.14 0h10.28m5.14 0h10.28m5.14 0h10.27m5.14 0h10.28m5.14 0h10.27m5.14 0h5.14a6 6 0 0 0 6-6v-5m0-5v-10m0-5v-10m0-5v-10m0-5v-10m0-5v-10m0-5v-10m0-5v-10m0-5v-10m0-5v-5a6 6 0 0 1 6-6h4.66m4.66 0h9.3m4.67 0h9.3m4.67 0h9.3m4.67 0h9.3m4.67 0h4.65" stroke="#3a414a" fill="none"/><path d="M-886.34 9201.7h-.5v-.95h.5z" stroke="#3a414a" stroke-width=".05" fill="#3a414a"/><path d="M-689.86 9054.23l-21.65 12.5v-25z" stroke="#3a414a" fill="#fff"/><path d="M-886.36 9201.23h5.14m5.14 0h10.28m5.14 0h10.28m5.14 0h10.27m5.14 0h10.28m5.14 0h10.27m5.14 0h5.14a6 6 0 0 1 6 6v4.88m0 4.9v9.76m0 4.9v9.75m0 4.9v9.76m0 4.9v9.75m0 4.9v9.76m0 4.9v9.75m0 4.9v9.76m0 4.9v9.75m0 4.9v9.76m0 4.9v9.75m0 4.9v9.76m0 4.9v9.75m0 4.9v9.76m0 4.9v9.75m0 4.9v9.76m0 4.9v9.75m0 4.9v9.76m0 4.9v9.75m0 4.9v9.76m0 4.9v4.87a6 6 0 0 0 6 6h4.66m4.66 0h9.3m4.67 0h9.3m4.67 0h9.3m4.67 0h9.3m4.67 0h4.65" stroke="#3a414a" fill="none"/><path d="M-886.34 9201.7h-.5v-.95h.5z" stroke="#3a414a" stroke-width=".05" fill="#3a414a"/><path d="M-689.86 9506.23l-21.65 12.5v-25z" stroke="#3a414a" fill="#fff"/><path d="M-886.36 9705.73h5.14m5.14 0h10.28m5.14 0h10.28m5.14 0h10.27m5.14 0h10.28m5.14 0h10.27m5.14 0h5.14a6 6 0 0 0 6-6v-4.8m0-4.82v-9.6m0-4.8v-9.63m0-4.8v-9.62m0-4.8v-9.62m0-4.8v-9.62m0-4.8v-9.62m0-4.8v-9.62m0-4.8v-9.62m0-4.8v-9.63m0-4.8v-9.6m0-4.82v-9.6m0-4.82v-9.62m0-4.8v-4.8a6 6 0 0 1 6-6h4.66m4.66 0h9.3m4.67 0h9.3m4.67 0h9.3m4.67 0h9.3m4.67 0h4.65" stroke="#3a414a" fill="none"/><path d="M-886.34 9706.2h-.5v-.95h.5z" stroke="#3a414a" stroke-width=".05" fill="#3a414a"/><path d="M-689.86 9506.23l-21.65 12.5v-25z" stroke="#3a414a" fill="#fff"/><path d="M-886.36 9506.23h5.14m5.14 0h10.28m5.14 0h10.28m5.14 0h10.27m5.14 0h10.28m5.14 0h10.27m5.14 0h5.14a6 6 0 0 0 6-6v-4.78m0-4.8v-9.56m0-4.8v-9.55m0-4.8v-9.56m0-4.8v-9.56m0-4.78v-9.57m0-4.8v-9.56m0-4.78V9395m0-4.8v-9.56m0-4.78v-9.57m0-4.8v-4.77a6 6 0 0 1 6-6h4.66m4.66 0h9.3m4.67 0h9.3m4.67 0h9.3m4.67 0h9.3m4.67 0h4.65" stroke="#3a414a" fill="none"/><path d="M-886.34 9506.7h-.5v-.95h.5z" stroke="#3a414a" stroke-width=".05" fill="#3a414a"/><path d="M-689.86 9350.73l-21.65 12.5v-25z" stroke="#3a414a" fill="#fff"/><path d="M-886.36 9506.23h5.14m5.14 0h10.28m5.14 0h10.28m5.14 0h10.27m5.14 0h10.28m5.14 0h10.27m5.14 0h5.14a6 6 0 0 1 6 6v4.8m0 4.8v9.63m0 4.8v9.62m0 4.8v9.63m0 4.8v9.63m0 4.8v9.62m0 4.8v9.63m0 4.8v9.62m0 4.8v9.62m0 4.8v9.62m0 4.8v9.63m0 4.8v9.62m0 4.8v9.6m0 4.82v4.8a6 6 0 0 0 6 6h4.66m4.66 0h9.3m4.67 0h9.3m4.67 0h9.3m4.67 0h9.3m4.67 0h4.65" stroke="#3a414a" fill="none"/><path d="M-886.34 9506.7h-.5v-.95h.5z" stroke="#3a414a" stroke-width=".05" fill="#3a414a"/><path d="M-689.86 9705.73l-21.65 12.5v-25z" stroke="#3a414a" fill="#fff"/><path d="M-687.86 9819.23a6 6 0 0 1 6-6h208a6 6 0 0 1 6 6v92a6 6 0 0 1-6 6h-208a6 6 0 0 1-6-6z" stroke="#000" stroke-width="2" fill="#fff"/><use xlink:href="#c" transform="matrix(1,0,0,1,-679.8549620850434,9821.228736670573) translate(26.474609374999986 35.950954861111114)"/><use xlink:href="#q" transform="matrix(1,0,0,1,-679.8549620850434,9821.228736670573) translate(23.387586805555557 68.21657986111111)"/><path d="M-886.36 9705.73h5.14m5.14 0h10.28m5.14 0h10.28m5.14 0h10.27m5.14 0h10.28m5.14 0h10.27m5.14 0h5.14a6 6 0 0 1 6 6v4.92m0 4.9v9.85m0 4.9v9.85m0 4.9v9.85m0 4.9v9.85m0 4.9v9.85m0 4.9v9.85m0 4.9v9.85m0 4.9v9.85m0 4.9v9.85m0 4.9v4.93a6 6 0 0 0 6 6h4.66m4.66 0h9.3m4.67 0h9.3m4.67 0h9.3m4.67 0h9.3m4.67 0h4.65" stroke="#3a414a" fill="none"/><path d="M-886.34 9706.2h-.5v-.95h.5z" stroke="#3a414a" stroke-width=".05" fill="#3a414a"/><path d="M-689.86 9865.23l-21.65 12.5v-25z" stroke="#3a414a" fill="#fff"/><path d="M-378.12 9759.48a6 6 0 0 1 6-6h208a6 6 0 0 1 6 6v92a6 6 0 0 1-6 6h-208a6 6 0 0 1-6-6z" stroke="#000" stroke-width="2" fill="#fff"/><use xlink:href="#c" transform="matrix(1,0,0,1,-370.12184512030814,9761.478736670573) translate(26.474609374999986 35.950954861111114)"/><use xlink:href="#r" transform="matrix(1,0,0,1,-370.12184512030814,9761.478736670573) translate(63.89865451388889 68.21657986111111)"/><path d="M-378.12 9875.48a6 6 0 0 1 6-6h208a6 6 0 0 1 6 6v92a6 6 0 0 1-6 6h-208a6 6 0 0 1-6-6z" stroke="#000" stroke-width="2" fill="#fff"/><use xlink:href="#c" transform="matrix(1,0,0,1,-370.12184512030814,9877.478736670573) translate(26.474609374999986 35.950954861111114)"/><use xlink:href="#s" transform="matrix(1,0,0,1,-370.12184512030814,9877.478736670573) translate(58.34309895833333 68.21657986111111)"/><path d="M-443.7 9865.23h14.7a6 6 0 0 0 6-6v-47.75a6 6 0 0 1 6-6h37.38" stroke="#3a414a" fill="none"/><path d="M-465.86 9865.23l21.66-12.5v25z" stroke="#3a414a" fill="#fff"/><path d="M-379.12 9805.95h-.5v-.95h.5z" stroke="#3a414a" stroke-width=".05" fill="#3a414a"/><path d="M-443.7 9865.23h14.7a6 6 0 0 1 6 6v44.25a6 6 0 0 0 6 6h37.38" stroke="#3a414a" fill="none"/><path d="M-465.86 9865.23l21.66-12.5v25z" stroke="#3a414a" fill="#fff"/><path d="M-379.12 9921.95h-.5v-.95h.5z" stroke="#3a414a" stroke-width=".05" fill="#3a414a"/><path d="M-457.4 9506.23h4.96m4.98 0h9.95m4.97 0h9.95m4.97 0h9.94m4.98 0h9.95m4.98 0h9.95m4.97 0h9.95m4.98 0h9.95m4.97 0h4.98a6 6 0 0 0 6-6v-4.98m0-4.98v-9.96m0-4.97v-9.95m0-4.98v-9.96m0-4.98v-9.96m0-4.98v-9.96m0-4.98v-9.95m0-4.98v-9.96m0-5v-9.95m0-4.98v-9.96m0-4.97v-9.95m0-4.98v-9.96m0-4.98V9316m0-4.98v-9.96m0-4.98v-9.95m0-4.98v-9.96m0-5v-9.95m0-4.98v-9.96m0-4.97v-9.95m0-4.98v-9.96m0-4.98v-9.96m0-4.98v-9.96m0-4.98v-9.95m0-4.98v-9.96m0-5v-9.95m0-4.98v-9.96m0-4.97v-9.95m0-4.98v-9.96m0-4.98V9077m0-4.98v-9.96m0-4.98v-9.95m0-4.98v-9.96m0-5v-9.95m0-4.98v-9.96m0-4.97v-9.95m0-4.98v-9.96m0-4.98v-4.98a6 6 0 0 0-6-6h-5m-4.98 0h-10m-4.98 0h-9.98m-5 0h-9.98m-5 0h-9.97m-4.98 0h-10m-4.98 0h-9.98m-5 0h-9.98m-5 0h-9.97m-5 0h-9.97m-5 0h-9.98m-5 0h-9.97m-5 0h-9.98m-5 0h-9.97m-5 0h-9.98m-5 0h-9.97m-5 0h-9.98m-5 0h-9.97m-5 0h-9.98m-5 0h-9.97m-5 0h-9.98m-5 0h-9.98m-5 0h-9.97m-5 0h-9.97m-5 0h-9.98m-5 0h-9.98m-5 0h-9.97m-5 0h-9.98m-5 0h-9.97m-5 0h-9.98m-5 0h-9.97m-5 0h-9.98m-5 0h-9.97m-5 0h-9.98m-5 0h-9.98m-5 0h-9.97m-5 0h-9.98m-5 0h-9.98m-5 0h-9.98m-5 0h-9.97m-5 0H-942m-5 0h-9.98m-5 0h-9.98m-5 0h-9.97m-5 0h-9.98m-5 0h-9.98m-5 0h-9.98m-5 0h-9.98m-5 0h-9.97m-5 0h-10m-4.98 0h-9.98m-5 0h-9.98m-5 0h-9.97m-5 0h-10m-4.98 0h-9.98m-5 0h-9.98m-5 0h-4.98M-448.54 9516.23l-17.3-10 17.3-10m-17.3 10h8.48" stroke="#3a414a" fill="none"/><path d="M-1176.6 8956.95h-.52v-.95h.5z" stroke="#3a414a" stroke-width=".05" fill="#3a414a"/><path d="M-1176.62 8956.48h5m4.98 0h10m4.98 0h9.98m5 0h9.98m5 0h9.97m5 0h9.98m5 0h9.97m5 0h9.98m5 0h9.97m5 0h9.98m5 0h9.97m5 0h9.98m5 0h9.98m5 0h9.97m5 0h9.98m5 0h9.97m5 0h9.98m5 0h9.97m5 0h9.98m5 0h9.97m5 0h9.98m5 0h9.97m5 0h9.98m5 0h9.97m5 0h9.98m5 0h9.98m5 0h9.97m5 0h9.98m5 0h9.98m5 0h9.98m5 0h9.97m5 0h9.98m5 0h9.98m5 0h9.98m5 0h9.97m5 0h9.98m5 0h10m4.98 0h9.98m5 0h9.97m5 0h9.98m5 0h10m4.98 0h9.98m5 0h9.98m5 0h9.97m5 0h10m4.98 0h9.98m5 0h9.98m5 0h9.97m5 0h10m4.98 0h10m4.98 0h9.98m5 0h9.98m5 0h9.97m4.98 0h10m4.98 0h9.98m5 0h9.98m5 0h4.98a6 6 0 0 1 6 6v4.76m0 4.77v9.53m0 4.77v9.53m0 4.76v9.52m0 4.76v9.53m0 4.77v9.53m0 4.76v4.77a6 6 0 0 1-6 6h-4.98m-4.97 0h-9.95m-4.98 0h-9.95m-4.97 0h-9.95m-4.98 0h-9.95m-4.98 0h-9.95m-4.98 0h-9.95m-4.98 0h-9.96m-4.98 0h-4.97" stroke="#3a414a" fill="none"/><path d="M-1176.6 8956.95h-.52v-.95h.5z" stroke="#3a414a" stroke-width=".05" fill="#3a414a"/><path d="M-448.54 9064.23l-17.3-10 17.3-10m-17.3 10h8.48" stroke="#3a414a" fill="none"/><path d="M-867 8839.48h163.14l16 16v64H-867z" stroke="#000" stroke-width="2" fill="#fff"/><path d="M-703.86 8840.43v15.05h15.05" stroke="#000" stroke-width="2" fill="#fff"/><use xlink:href="#t" transform="matrix(1,0,0,1,-862.0008680555566,8844.478736670573) translate(0 25.90277777777778)"/><use xlink:href="#u" transform="matrix(1,0,0,1,-862.0008680555566,8844.478736670573) translate(119.7265625 25.90277777777778)"/><use xlink:href="#v" transform="matrix(1,0,0,1,-862.0008680555566,8844.478736670573) translate(0 58.16840277777778)"/><use xlink:href="#w" transform="matrix(1,0,0,1,-862.0008680555566,8844.478736670573) translate(92.69748263888889 58.16840277777778)"/><path d="M-777.43 8920.98v35" stroke="#3a414a" fill="none"/><path d="M-776.95 8921h-.95v-.52h.95z" stroke="#3a414a" stroke-width=".05" fill="#3a414a"/><path d="M-777.43 8955.97v.5M-466.36 9705.73h5.02m5 0h10.03m5 0h10.02m5 0h10.03m5 0h10.03m5.02 0h10.02m5 0h10.03m5 0h10.03m5 0h10.03m5.02 0h10.02m5 0H-311m5 0h5.02a6 6 0 0 0 6-6v-4.97m0-4.96v-9.93m0-4.97v-9.93m0-4.96v-9.92m0-4.97v-9.92m0-4.96v-9.93m0-4.98v-9.93m0-4.97v-9.93m0-4.97v-9.93m0-4.97v-9.93m0-4.96v-9.93m0-4.96v-9.93m0-4.95v-9.93m0-4.97v-9.93m0-4.96v-9.93m0-4.97v-9.93m0-4.96v-9.93m0-4.97v-9.93m0-4.97v-9.92m0-4.97v-9.93m0-4.97v-9.93m0-4.96v-9.94m0-4.97v-9.94m0-4.96v-9.93m0-4.97v-9.93m0-4.96v-9.92m0-4.97v-9.92m0-4.96v-9.93m0-4.98v-9.93m0-4.98v-9.92m0-4.97v-9.93m0-4.97V9233m0-4.96v-9.93m0-4.96v-9.93m0-4.95v-9.93m0-4.97v-9.93m0-4.96v-9.93m0-4.97v-9.93m0-4.96v-9.93m0-4.97v-9.93m0-4.97v-9.93m0-4.96v-9.93m0-4.97v-9.93m0-4.96v-9.94m0-4.97v-9.94m0-4.96v-9.93m0-4.97v-9.93m0-4.96v-9.92m0-4.97v-9.92m0-4.97v-9.9m0-4.98V8950m0-4.98v-9.93m0-4.97v-9.93m0-4.97v-9.93m0-4.96v-9.93m0-4.96v-9.93m0-4.95v-9.93m0-4.97v-9.93m0-4.96v-9.93m0-4.97v-9.93m0-4.97V8806a6 6 0 0 0-6-6h-5.03m-5.04 0h-10.06m-5.03 0h-10.07m-5.03 0h-10.07m-5.03 0h-10.06m-5.03 0h-10.07m-5.03 0h-10.07m-5.03 0h-10.06m-5.05 0h-10.06m-5.04 0h-10.07m-5.04 0H-457m-5.04 0h-10.06m-5.03 0h-10.07m-5.03 0h-10.07m-5.03 0h-10.06m-5.03 0h-10.06m-5.02 0h-10.07m-5.02 0h-10.07m-5.02 0h-10.06m-5.04 0h-10.06m-5.03 0H-608m-5.03 0h-10.07m-5.04 0h-10.07m-5.03 0h-10.07m-5.03 0h-10.07m-5.03 0h-10.06m-5.03 0h-10.06m-5.03 0h-10.06m-5.03 0h-10.05m-5.04 0h-10.05m-5.03 0h-10.07m-5.03 0h-10.07m-5.03 0h-10.06m-5.03 0h-10.07m-5.03 0h-10.07m-5.03 0h-10.06m-5.04 0h-10.06m-5.03 0h-10.07m-5.03 0h-10.07m-5.03 0h-10.06m-5.03 0h-10.07m-5.03 0h-10.07m-5.03 0h-10.06m-5.05 0h-10.06m-5.04 0h-10.07m-5.04 0h-10.07m-5.04 0h-10.06m-5.03 0h-10.07m-5.03 0h-10.07m-5.03 0h-10.06m-5.03 0h-10.06m-5.02 0H-1076m-5.02 0h-10.07m-5.02 0h-10.06m-5.03 0h-10.08m-5.03 0h-10.08m-5.03 0h-10.07m-5.04 0h-10.07m-5.03 0h-10.07m-5.03 0h-10.07m-5.03 0h-10.06m-5.04 0h-10.06m-5.03 0h-10.06m-5.03 0h-5.02a6 6 0 0 0-6 6v5.14m0 5.13v10.27m0 5.14v10.27m0 5.14v10.26m0 5.13v10.26m0 5.14v5.14" stroke="#3a414a" fill="none"/><path d="M-466.34 9706.2h-.52v-.95h.52z" stroke="#3a414a" stroke-width=".05" fill="#3a414a"/><path d="M-1248.12 8874.16l-10 17.32-10-17.32m10 17.32v-8.5" stroke="#3a414a" fill="none"/><path d="M-571.98 8839.48h179.46l14.4 14.4v57.6h-193.86z" stroke="#000" stroke-width="2" fill="#fff"/><path d="M-392.52 8840.43v13.45h13.45" stroke="#000" stroke-width="2" fill="#fff"/><g><use xlink:href="#x" transform="matrix(1,0,0,1,-566.9750710942402,8844.478736670573) translate(0 25.40277777777778)"/><use xlink:href="#y" transform="matrix(1,0,0,1,-566.9750710942402,8844.478736670573) translate(65.60329861111111 25.40277777777778)"/><use xlink:href="#z" transform="matrix(1,0,0,1,-566.9750710942402,8844.478736670573) translate(0 57.66840277777778)"/><use xlink:href="#A" transform="matrix(1,0,0,1,-566.9750710942402,8844.478736670573) translate(102.6150173611111 57.66840277777778)"/></g><path d="M-376.62 8875.48h81.12" stroke="#3a414a" fill="none"/><path d="M-376.6 8875.95h-.52v-.95h.5z" stroke="#3a414a" stroke-width=".05" fill="#3a414a"/><path d="M-295.5 8875.48h.5" stroke="#3a414a" fill="none"/><defs><path d="M135 0v-1490h591c327 0 492 160 492 383 0 177-115 286-268 320v15c168 8 326 140 326 361 0 236-176 411-512 411H135zm305-251h264c179 0 258-76 258-189 0-125-97-215-250-215H440v404zm0-613h241c131 0 228-74 228-194 0-109-79-183-222-183H440v377" id="B"/><path d="M440 22C227 22 68-92 68-313c0-250 202-322 422-343 195-21 271-24 271-105 0-95-63-149-175-149-116 0-187 57-211 129l-275-46c57-194 237-305 487-305 240 0 474 108 474 379V0H777v-155h-10C713-51 605 22 440 22zm85-211c140 0 238-93 238-211v-121c-37 26-156 42-222 51-111 16-185 59-185 149 0 87 70 132 169 132" id="C"/><path d="M683-1118v229H474v562c0 71 29 104 102 104 23 0 73-7 95-13l43 225C647 9 580 16 520 16 296 16 174-96 174-301v-588H20v-229h154v-266h300v266h209" id="D"/><path d="M428-1490V0H128v-1490h300" id="E"/><path d="M633 22C291 22 81-200 81-553c0-345 210-579 537-579 292 0 525 185 525 567v84H378c7 183 109 277 260 277 105 0 184-46 216-132l272 51C1071-99 893 22 633 22zM380-669h474c-15-146-94-237-233-237-143 0-229 99-241 237" id="F"/><path d="M681 22C323 22 94-145 85-462h297c10 151 131 226 296 226 163 0 271-77 271-190 0-102-95-149-257-189l-164-41c-252-61-403-188-403-405 0-269 236-449 560-449 330 0 546 183 551 445H941c-11-119-106-188-259-188-156 0-244 72-244 172-3 156 226 185 373 221 250 61 445 186 445 436 0 271-213 446-575 446" id="G"/><g id="a"><use transform="matrix(0.010850694444444444,0,0,0.010850694444444444,0,0)" xlink:href="#B"/><use transform="matrix(0.010850694444444444,0,0,0.010850694444444444,14.702690972222221,0)" xlink:href="#C"/><use transform="matrix(0.010850694444444444,0,0,0.010850694444444444,27.604166666666664,0)" xlink:href="#D"/><use transform="matrix(0.010850694444444444,0,0,0.010850694444444444,34.9609375,0)" xlink:href="#D"/><use transform="matrix(0.010850694444444444,0,0,0.010850694444444444,43.15321180555556,0)" xlink:href="#E"/><use transform="matrix(0.010850694444444444,0,0,0.010850694444444444,49.17534722222222,0)" xlink:href="#F"/><use transform="matrix(0.010850694444444444,0,0,0.010850694444444444,62.41319444444444,0)" xlink:href="#G"/><use transform="matrix(0.010850694444444444,0,0,0.010850694444444444,76.96397569444444,0)" xlink:href="#D"/><use transform="matrix(0.010850694444444444,0,0,0.010850694444444444,85.21050347222221,0)" xlink:href="#C"/><use transform="matrix(0.010850694444444444,0,0,0.010850694444444444,98.11197916666666,0)" xlink:href="#D"/><use transform="matrix(0.010850694444444444,0,0,0.010850694444444444,106.03298611111111,0)" xlink:href="#F"/></g><path d="M135 0v-1490h980v253H440v416h609v249H440V0H135" id="H"/><path d="M128 0v-1118h300V0H128zm150-1264c-91 0-165-68-165-154 0-85 74-154 165-154 90 0 165 69 165 154 0 86-75 154-165 154" id="I"/><path d="M537 19C279 19 81-185 81-557c0-382 206-575 454-575 190 0 278 113 318 202h10v-560h300V0H868v-179h-15C812-89 719 19 537 19zm92-241c153 0 240-134 240-336 0-203-86-334-240-334-158 0-240 138-240 334 0 197 84 336 240 336" id="J"/><g id="b"><use transform="matrix(0.010850694444444444,0,0,0.010850694444444444,0,0)" xlink:href="#H"/><use transform="matrix(0.010850694444444444,0,0,0.010850694444444444,13.042534722222221,0)" xlink:href="#I"/><use transform="matrix(0.010850694444444444,0,0,0.010850694444444444,19.064670138888886,0)" xlink:href="#F"/><use transform="matrix(0.010850694444444444,0,0,0.010850694444444444,32.30251736111111,0)" xlink:href="#E"/><use transform="matrix(0.010850694444444444,0,0,0.010850694444444444,38.32465277777777,0)" xlink:href="#J"/></g><path d="M174-520v-126l944-476v196L406-588v12l712 338v194" id="K"/><path d="M158 0v-1118h180V0H158zm91-1301c-68 0-125-53-125-119s57-119 125-119c69 0 126 53 126 119s-57 119-126 119" id="L"/><path d="M338-670V0H158v-1118h173l1 207c72-158 192-221 342-221 226 0 378 139 378 422V0H872v-695c0-172-96-275-252-275-161 0-282 109-282 300" id="M"/><path d="M598-1118v154H368v674c0 100 37 144 132 144 23 0 62-6 92-12L629-6c-37 13-88 20-134 20-193 0-307-107-307-290v-688H20v-154h168v-266h180v266h230" id="N"/><path d="M628 24c-324 0-524-230-524-574 0-343 198-582 503-582 237 0 487 146 487 559v75H286c9 234 145 362 343 362 132 0 231-58 273-172l174 48C1024-91 857 24 628 24zM287-650h624c-17-190-120-322-304-322-192 0-309 151-320 322" id="O"/><path d="M158 0v-1118h174v172h12c41-113 157-188 290-188 26 0 70 2 91 3v181c-11-2-60-10-108-10-161 0-279 109-279 260V0H158" id="P"/><path d="M678-1118v154H420V0H240v-964H20v-154h220v-149c0-194 155-293 318-293 85 0 141 18 168 30l-50 154c-19-6-47-17-97-17-111 0-159 58-159 166v109h258" id="Q"/><path d="M471 26C259 26 90-98 90-318c0-256 228-303 435-329 202-27 287-16 287-108 0-139-79-219-234-219-161 0-248 86-283 164l-173-57c86-203 278-265 451-265 150 0 419 46 419 395V0H815v-152h-12C765-73 660 26 471 26zm31-159c199 0 310-134 310-271v-155c-30 35-226 55-295 64-131 17-246 59-246 186 0 116 97 176 231 176" id="R"/><path d="M613 24c-304 0-509-231-509-576 0-350 205-580 509-580 216 0 392 114 453 309l-173 49c-33-115-133-197-280-197-223 0-326 196-326 419 0 220 103 415 326 415 150 0 252-85 285-206l172 49C1010-95 832 24 613 24" id="S"/><path d="M1181-520L237-44v-194l712-338v-12L237-926v-196l944 476v126" id="T"/><g id="c"><use transform="matrix(0.010850694444444444,0,0,0.010850694444444444,0,0)" xlink:href="#K"/><use transform="matrix(0.010850694444444444,0,0,0.010850694444444444,14.702690972222221,0)" xlink:href="#K"/><use transform="matrix(0.010850694444444444,0,0,0.010850694444444444,29.405381944444443,0)" xlink:href="#L"/><use transform="matrix(0.010850694444444444,0,0,0.010850694444444444,34.787326388888886,0)" xlink:href="#M"/><use transform="matrix(0.010850694444444444,0,0,0.010850694444444444,47.916666666666664,0)" xlink:href="#N"/><use transform="matrix(0.010850694444444444,0,0,0.010850694444444444,54.96961805555556,0)" xlink:href="#O"/><use transform="matrix(0.010850694444444444,0,0,0.010850694444444444,67.92534722222223,0)" xlink:href="#P"/><use transform="matrix(0.010850694444444444,0,0,0.010850694444444444,76.63845486111113,0)" xlink:href="#Q"/><use transform="matrix(0.010850694444444444,0,0,0.010850694444444444,84.51605902777779,0)" xlink:href="#R"/><use transform="matrix(0.010850694444444444,0,0,0.010850694444444444,96.9943576388889,0)" xlink:href="#S"/><use transform="matrix(0.010850694444444444,0,0,0.010850694444444444,109.6896701388889,0)" xlink:href="#O"/><use transform="matrix(0.010850694444444444,0,0,0.010850694444444444,122.64539930555557,0)" xlink:href="#T"/><use transform="matrix(0.010850694444444444,0,0,0.010850694444444444,137.3480902777778,0)" xlink:href="#T"/></g><path d="M75-1237v-253h1217v253H837V0H531v-1237H75" id="U"/><path d="M128 0v-1118h290v195h12c54-169 184-238 367-200v268c-27-8-86-15-130-15-138 0-239 95-239 234V0H128" id="V"/><path d="M428-647V0H128v-1118h283l4 231c63-156 176-245 348-245 232 0 384 159 384 421V0H847v-659c0-139-76-222-202-222-128 0-217 86-217 234" id="W"/><g id="d"><use transform="matrix(0.010850694444444444,0,0,0.010850694444444444,0,0)" xlink:href="#U"/><use transform="matrix(0.010850694444444444,0,0,0.010850694444444444,13.096788194444445,0)" xlink:href="#F"/><use transform="matrix(0.010850694444444444,0,0,0.010850694444444444,26.334635416666664,0)" xlink:href="#V"/><use transform="matrix(0.010850694444444444,0,0,0.010850694444444444,35.546875,0)" xlink:href="#V"/><use transform="matrix(0.010850694444444444,0,0,0.010850694444444444,44.29253472222222,0)" xlink:href="#C"/><use transform="matrix(0.010850694444444444,0,0,0.010850694444444444,57.194010416666664,0)" xlink:href="#I"/><use transform="matrix(0.010850694444444444,0,0,0.010850694444444444,63.21614583333333,0)" xlink:href="#W"/></g><path d="M690 20C314 20 94-261 94-744c0-482 221-766 596-766 376 0 597 284 597 766 0 483-219 764-597 764zm0-253c184 0 286-184 286-511 0-328-102-514-286-514-183 0-285 187-285 514s101 511 285 511" id="X"/><path d="M342 19c-98 0-173-75-173-172s75-172 173-172 173 75 173 172S440 19 342 19" id="Y"/><path d="M749-1490V0H444v-1221h-10L93-980v-279l329-231h327" id="Z"/><g id="e"><use transform="matrix(0.008680555555555556,0,0,0.008680555555555556,0,0)" xlink:href="#X"/><use transform="matrix(0.008680555555555556,0,0,0.008680555555555556,11.46701388888889,0)" xlink:href="#Y"/><use transform="matrix(0.008680555555555556,0,0,0.008680555555555556,17.40451388888889,0)" xlink:href="#Y"/><use transform="matrix(0.008680555555555556,0,0,0.008680555555555556,21.73611111111111,0)" xlink:href="#Z"/></g><path d="M449 0L49-1490h333c89 395 194 758 253 1185 65-426 176-790 269-1185h317c93 394 201 758 268 1181 60-425 164-788 253-1181h334L1675 0h-348c-90-376-204-711-266-1118C1004-714 886-373 798 0H449" id="aa"/><path d="M428-647V0H128v-1490h294v586c65-146 175-228 341-228 232 0 385 159 385 421V0H847v-659c0-139-76-222-202-222-128 0-217 86-217 234" id="ab"/><g id="f"><use transform="matrix(0.010850694444444444,0,0,0.010850694444444444,0,0)" xlink:href="#aa"/><use transform="matrix(0.010850694444444444,0,0,0.010850694444444444,21.95095486111111,0)" xlink:href="#F"/><use transform="matrix(0.010850694444444444,0,0,0.010850694444444444,35.40581597222222,0)" xlink:href="#C"/><use transform="matrix(0.010850694444444444,0,0,0.010850694444444444,48.307291666666664,0)" xlink:href="#D"/><use transform="matrix(0.010850694444444444,0,0,0.010850694444444444,56.49956597222222,0)" xlink:href="#ab"/><use transform="matrix(0.010850694444444444,0,0,0.010850694444444444,70.33420138888889,0)" xlink:href="#F"/><use transform="matrix(0.010850694444444444,0,0,0.010850694444444444,83.57204861111111,0)" xlink:href="#V"/></g><path d="M135 0v-1490h581c339 0 533 192 533 485 0 204-94 351-264 424L1302 0H964L680-532H440V0H135zm305-779h220c186 0 274-77 274-226 0-150-88-233-275-233H440v459" id="ac"/><path d="M628 22C291 22 81-210 81-554c0-346 210-578 547-578 336 0 547 232 547 578 0 344-211 576-547 576zm0-236c160 0 242-146 242-341 0-197-82-341-242-341S387-753 387-555c0 195 81 341 241 341" id="ad"/><path d="M128 0v-1118h278l12 217c60-163 185-234 319-234 143 0 236 81 288 251 63-172 205-251 359-251 205 0 357 138 357 381V0h-301v-697c0-126-76-187-177-187-114 0-184 79-184 196V0H789v-705c0-109-72-179-174-179-106 0-187 74-187 208V0H128" id="ae"/><g id="g"><use transform="matrix(0.010850694444444444,0,0,0.010850694444444444,0,0)" xlink:href="#ac"/><use transform="matrix(0.010850694444444444,0,0,0.010850694444444444,14.322916666666666,0)" xlink:href="#ad"/><use transform="matrix(0.010850694444444444,0,0,0.010850694444444444,27.95138888888889,0)" xlink:href="#ad"/><use transform="matrix(0.010850694444444444,0,0,0.010850694444444444,41.57986111111111,0)" xlink:href="#ae"/></g><g id="h"><use transform="matrix(0.010850694444444444,0,0,0.010850694444444444,0,0)" xlink:href="#H"/><use transform="matrix(0.010850694444444444,0,0,0.010850694444444444,13.042534722222221,0)" xlink:href="#I"/><use transform="matrix(0.010850694444444444,0,0,0.010850694444444444,19.064670138888886,0)" xlink:href="#F"/><use transform="matrix(0.010850694444444444,0,0,0.010850694444444444,32.30251736111111,0)" xlink:href="#E"/><use transform="matrix(0.010850694444444444,0,0,0.010850694444444444,38.32465277777777,0)" xlink:href="#J"/><use transform="matrix(0.010850694444444444,0,0,0.010850694444444444,52.33289930555556,0)" xlink:href="#G"/><use transform="matrix(0.010850694444444444,0,0,0.010850694444444444,66.88368055555554,0)" xlink:href="#I"/><use transform="matrix(0.010850694444444444,0,0,0.010850694444444444,72.90581597222221,0)" xlink:href="#J"/><use transform="matrix(0.010850694444444444,0,0,0.010850694444444444,86.91406249999999,0)" xlink:href="#F"/></g><path d="M124 0v-220l528-495c135-132 210-216 210-336 0-133-98-215-231-215-139 0-229 88-229 233H110c0-290 214-477 523-477 315 0 525 182 525 440 0 167-80 305-385 586L548-262v11h630V0H124" id="af"/><path d="M476-652l19-284-238 159-97-168 257-125-257-125 97-170 238 159-19-284h192l-18 284 238-159 95 170-255 125 255 125-95 168-238-159 18 284H476" id="ag"/><g id="i"><use transform="matrix(0.008680555555555556,0,0,0.008680555555555556,0,0)" xlink:href="#af"/><use transform="matrix(0.008680555555555556,0,0,0.008680555555555556,11.197916666666668,0)" xlink:href="#Y"/><use transform="matrix(0.008680555555555556,0,0,0.008680555555555556,17.135416666666668,0)" xlink:href="#Y"/><use transform="matrix(0.008680555555555556,0,0,0.008680555555555556,23.072916666666668,0)" xlink:href="#ag"/></g><path d="M786 20C389 20 94-260 94-744c0-487 299-766 692-766 339 0 597 194 641 529h-309c-28-162-156-258-326-258-233 0-388 179-388 495 0 323 157 493 387 493 170 0 298-97 328-259h309c-34 277-266 530-642 530" id="ah"/><g id="j"><use transform="matrix(0.010850694444444444,0,0,0.010850694444444444,0,0)" xlink:href="#G"/><use transform="matrix(0.010850694444444444,0,0,0.010850694444444444,14.55078125,0)" xlink:href="#I"/><use transform="matrix(0.010850694444444444,0,0,0.010850694444444444,20.572916666666664,0)" xlink:href="#J"/><use transform="matrix(0.010850694444444444,0,0,0.010850694444444444,34.58116319444444,0)" xlink:href="#F"/><use transform="matrix(0.010850694444444444,0,0,0.010850694444444444,47.819010416666664,0)" xlink:href="#ah"/><use transform="matrix(0.010850694444444444,0,0,0.010850694444444444,64.2578125,0)" xlink:href="#ad"/><use transform="matrix(0.010850694444444444,0,0,0.010850694444444444,77.88628472222223,0)" xlink:href="#W"/><use transform="matrix(0.010850694444444444,0,0,0.010850694444444444,91.7209201388889,0)" xlink:href="#J"/><use transform="matrix(0.010850694444444444,0,0,0.010850694444444444,105.72916666666666,0)" xlink:href="#I"/><use transform="matrix(0.010850694444444444,0,0,0.010850694444444444,111.75130208333334,0)" xlink:href="#D"/><use transform="matrix(0.010850694444444444,0,0,0.010850694444444444,119.88932291666666,0)" xlink:href="#I"/><use transform="matrix(0.010850694444444444,0,0,0.010850694444444444,125.91145833333334,0)" xlink:href="#ad"/><use transform="matrix(0.010850694444444444,0,0,0.010850694444444444,139.53993055555557,0)" xlink:href="#W"/></g><path fill="#333" d="M476-652l19-284-238 159-97-168 257-125-257-125 97-170 238 159-19-284h192l-18 284 238-159 95 170-255 125 255 125-95 168-238-159 18 284H476" id="ai"/><use transform="matrix(0.008680555555555556,0,0,0.008680555555555556,0,0)" xlink:href="#ai" id="k"/><path d="M135 0v-1490h305v602h649v-602h306V0h-306v-635H440V0H135" id="aj"/><path d="M128 0v-1490h300v802h17l366-430h347L740-633 1179 0H826L514-456l-86 97V0H128" id="ak"/><path d="M572 22C302 22 117-98 78-306l279-48c29 105 101 156 224 156 114 0 185-48 185-115 0-118-228-130-337-155-215-49-322-150-322-317 0-215 187-347 470-347 265 0 424 116 466 298l-266 47c-24-76-87-130-196-130-98 0-174 46-174 113 0 56 38 95 144 117l201 40c216 44 320 143 320 302 0 220-207 367-500 367" id="al"/><g id="l"><use transform="matrix(0.010850694444444444,0,0,0.010850694444444444,0,0)" xlink:href="#aj"/><use transform="matrix(0.010850694444444444,0,0,0.010850694444444444,16.6015625,0)" xlink:href="#ad"/><use transform="matrix(0.010850694444444444,0,0,0.010850694444444444,30.23003472222222,0)" xlink:href="#ad"/><use transform="matrix(0.010850694444444444,0,0,0.010850694444444444,43.85850694444444,0)" xlink:href="#ak"/><use transform="matrix(0.010850694444444444,0,0,0.010850694444444444,56.74913194444444,0)" xlink:href="#al"/></g><path d="M120 396l69-226c123 42 245 23 254-107l8-60L31-1118h319c87 288 199 559 259 872 72-308 185-583 277-872h315L726 132c-68 181-186 294-410 294-79 0-153-13-196-30" id="am"/><path d="M128 418v-1536h295v188h14c41-89 129-202 319-202 248 0 453 193 453 575 0 372-197 576-455 576-183 0-275-108-317-198h-9v597H128zm534-640c156 0 240-139 240-336 0-196-83-334-240-334-154 0-241 131-241 334 0 202 88 336 241 336" id="an"/><path d="M135 0v-1490h468l242 684c30 94 76 293 111 455 34-161 80-360 110-455l238-684h470V0h-307c0-447-3-765 11-1227-122 503-246 788-395 1227H826C676-435 552-717 427-1215c15 453 11 775 11 1215H135" id="ao"/><path d="M750-1118v229H516V0H217v-889H20v-229h197v-86c0-238 156-356 363-356 94 0 178 20 215 31l-54 226c-25-7-61-15-100-15-123-3-131 84-125 200h234" id="ap"/><g id="m"><use transform="matrix(0.010850694444444444,0,0,0.010850694444444444,0,0)" xlink:href="#U"/><use transform="matrix(0.010850694444444444,0,0,0.010850694444444444,13.444010416666666,0)" xlink:href="#am"/><use transform="matrix(0.010850694444444444,0,0,0.010850694444444444,26.822916666666664,0)" xlink:href="#an"/><use transform="matrix(0.010850694444444444,0,0,0.010850694444444444,40.83116319444444,0)" xlink:href="#F"/><use transform="matrix(0.010850694444444444,0,0,0.010850694444444444,54.069010416666664,0)" xlink:href="#ao"/><use transform="matrix(0.010850694444444444,0,0,0.010850694444444444,74.77213541666666,0)" xlink:href="#ad"/><use transform="matrix(0.010850694444444444,0,0,0.010850694444444444,88.40060763888889,0)" xlink:href="#J"/><use transform="matrix(0.010850694444444444,0,0,0.010850694444444444,102.40885416666666,0)" xlink:href="#I"/><use transform="matrix(0.010850694444444444,0,0,0.010850694444444444,108.43098958333333,0)" xlink:href="#ap"/><use transform="matrix(0.010850694444444444,0,0,0.010850694444444444,117.4587673611111,0)" xlink:href="#I"/><use transform="matrix(0.010850694444444444,0,0,0.010850694444444444,123.4809027777778,0)" xlink:href="#F"/><use transform="matrix(0.010850694444444444,0,0,0.010850694444444444,136.71875,0)" xlink:href="#V"/></g><path d="M513 14c-232 0-385-159-385-421v-711h300v659c0 139 76 222 202 222 127 0 217-86 217-234v-647h301V0H864l-4-232C797-74 683 14 513 14" id="aq"/><g id="n"><use transform="matrix(0.010850694444444444,0,0,0.010850694444444444,0,0)" xlink:href="#ao"/><use transform="matrix(0.010850694444444444,0,0,0.010850694444444444,20.703125,0)" xlink:href="#aq"/><use transform="matrix(0.010850694444444444,0,0,0.010850694444444444,34.537760416666664,0)" xlink:href="#D"/><use transform="matrix(0.010850694444444444,0,0,0.010850694444444444,42.78428819444444,0)" xlink:href="#C"/><use transform="matrix(0.010850694444444444,0,0,0.010850694444444444,55.685763888888886,0)" xlink:href="#D"/><use transform="matrix(0.010850694444444444,0,0,0.010850694444444444,63.60677083333333,0)" xlink:href="#F"/><use transform="matrix(0.010850694444444444,0,0,0.010850694444444444,76.84461805555556,0)" xlink:href="#J"/><use transform="matrix(0.010850694444444444,0,0,0.010850694444444444,90.85286458333333,0)" xlink:href="#B"/><use transform="matrix(0.010850694444444444,0,0,0.010850694444444444,105.55555555555556,0)" xlink:href="#C"/><use transform="matrix(0.010850694444444444,0,0,0.010850694444444444,118.45703124999997,0)" xlink:href="#D"/><use transform="matrix(0.010850694444444444,0,0,0.010850694444444444,125.81380208333331,0)" xlink:href="#D"/><use transform="matrix(0.010850694444444444,0,0,0.010850694444444444,134.00607638888889,0)" xlink:href="#E"/><use transform="matrix(0.010850694444444444,0,0,0.010850694444444444,140.02821180555554,0)" xlink:href="#F"/><use transform="matrix(0.010850694444444444,0,0,0.010850694444444444,153.26605902777777,0)" xlink:href="#ac"/><use transform="matrix(0.010850694444444444,0,0,0.010850694444444444,167.86024305555554,0)" xlink:href="#aq"/><use transform="matrix(0.010850694444444444,0,0,0.010850694444444444,181.69487847222223,0)" xlink:href="#E"/><use transform="matrix(0.010850694444444444,0,0,0.010850694444444444,187.71701388888883,0)" xlink:href="#F"/></g><path d="M135 0v-1490h997v253H440v360h640v249H440v375h694V0H135" id="ar"/><path d="M42 0l360-574-338-544h324c72 124 151 261 209 394 58-134 140-271 215-394h318L785-570 1146 0H824c-79-136-169-280-234-425C528-278 439-134 360 0H42" id="as"/><path d="M754 19C571 19 479-89 437-179h-14V0H128v-1490h300v560h9c41-89 129-202 319-202 248 0 453 193 453 575 0 372-197 576-455 576zm-92-241c156 0 240-139 240-336 0-196-83-334-240-334-154 0-241 131-241 334 0 202 88 336 241 336" id="at"/><g id="o"><use transform="matrix(0.010850694444444444,0,0,0.010850694444444444,0,0)" xlink:href="#ar"/><use transform="matrix(0.010850694444444444,0,0,0.010850694444444444,13.49826388888889,0)" xlink:href="#as"/><use transform="matrix(0.010850694444444444,0,0,0.010850694444444444,26.38888888888889,0)" xlink:href="#an"/><use transform="matrix(0.010850694444444444,0,0,0.010850694444444444,40.397135416666664,0)" xlink:href="#I"/><use transform="matrix(0.010850694444444444,0,0,0.010850694444444444,46.41927083333333,0)" xlink:href="#V"/><use transform="matrix(0.010850694444444444,0,0,0.010850694444444444,55.16493055555556,0)" xlink:href="#C"/><use transform="matrix(0.010850694444444444,0,0,0.010850694444444444,68.06640625,0)" xlink:href="#at"/><use transform="matrix(0.010850694444444444,0,0,0.010850694444444444,82.07465277777777,0)" xlink:href="#E"/><use transform="matrix(0.010850694444444444,0,0,0.010850694444444444,88.09678819444444,0)" xlink:href="#F"/></g><path d="M628 22C291 22 81-210 81-554c0-346 210-578 547-578 265 0 455 142 497 372l-279 52c-25-116-99-188-215-188-160 0-244 139-244 341 0 200 84 341 244 341 116 0 193-74 217-195l279 51C1085-123 896 22 628 22" id="au"/><g id="p"><use transform="matrix(0.010850694444444444,0,0,0.010850694444444444,0,0)" xlink:href="#H"/><use transform="matrix(0.010850694444444444,0,0,0.010850694444444444,13.042534722222221,0)" xlink:href="#I"/><use transform="matrix(0.010850694444444444,0,0,0.010850694444444444,19.064670138888886,0)" xlink:href="#F"/><use transform="matrix(0.010850694444444444,0,0,0.010850694444444444,32.30251736111111,0)" xlink:href="#E"/><use transform="matrix(0.010850694444444444,0,0,0.010850694444444444,38.32465277777777,0)" xlink:href="#J"/><use transform="matrix(0.010850694444444444,0,0,0.010850694444444444,52.33289930555556,0)" xlink:href="#ar"/><use transform="matrix(0.010850694444444444,0,0,0.010850694444444444,65.83116319444444,0)" xlink:href="#ap"/><use transform="matrix(0.010850694444444444,0,0,0.010850694444444444,73.75217013888889,0)" xlink:href="#ap"/><use transform="matrix(0.010850694444444444,0,0,0.010850694444444444,82.11805555555554,0)" xlink:href="#F"/><use transform="matrix(0.010850694444444444,0,0,0.010850694444444444,95.35590277777777,0)" xlink:href="#au"/><use transform="matrix(0.010850694444444444,0,0,0.010850694444444444,108.43098958333333,0)" xlink:href="#D"/><use transform="matrix(0.010850694444444444,0,0,0.010850694444444444,116.40624999999997,0)" xlink:href="#al"/></g><path d="M49 0l509-1490h400L1480 0h-339l-115-346H497L386 0H49zm524-585h374c-75-213-124-402-192-666-66 268-110 453-182 666" id="av"/><g id="q"><use transform="matrix(0.010850694444444444,0,0,0.010850694444444444,0,0)" xlink:href="#av"/><use transform="matrix(0.010850694444444444,0,0,0.010850694444444444,16.080729166666664,0)" xlink:href="#J"/><use transform="matrix(0.010850694444444444,0,0,0.010850694444444444,30.088975694444443,0)" xlink:href="#J"/><use transform="matrix(0.010850694444444444,0,0,0.010850694444444444,44.09722222222222,0)" xlink:href="#ah"/><use transform="matrix(0.010850694444444444,0,0,0.010850694444444444,60.53602430555555,0)" xlink:href="#ad"/><use transform="matrix(0.010850694444444444,0,0,0.010850694444444444,74.16449652777777,0)" xlink:href="#W"/><use transform="matrix(0.010850694444444444,0,0,0.010850694444444444,87.99913194444444,0)" xlink:href="#al"/><use transform="matrix(0.010850694444444444,0,0,0.010850694444444444,100.44487847222221,0)" xlink:href="#D"/><use transform="matrix(0.010850694444444444,0,0,0.010850694444444444,108.58289930555556,0)" xlink:href="#V"/><use transform="matrix(0.010850694444444444,0,0,0.010850694444444444,117.32855902777777,0)" xlink:href="#C"/><use transform="matrix(0.010850694444444444,0,0,0.010850694444444444,130.23003472222223,0)" xlink:href="#I"/><use transform="matrix(0.010850694444444444,0,0,0.010850694444444444,136.25217013888889,0)" xlink:href="#W"/><use transform="matrix(0.010850694444444444,0,0,0.010850694444444444,150.08680555555554,0)" xlink:href="#D"/></g><path d="M750 21c-371 0-615-218-615-544v-967h305v942c0 174 123 299 310 299s309-125 309-299v-942h306v967c0 326-247 544-615 544" id="aw"/><path d="M1163 418H863v-597h-10C812-89 719 19 537 19 279 19 81-185 81-557c0-382 206-575 454-575 190 0 278 113 318 202h15v-188h295V418zM629-222c153 0 240-134 240-336 0-203-86-334-240-334-158 0-240 138-240 334 0 197 84 336 240 336" id="ax"/><g id="r"><use transform="matrix(0.010850694444444444,0,0,0.010850694444444444,0,0)" xlink:href="#aw"/><use transform="matrix(0.010850694444444444,0,0,0.010850694444444444,16.26519097222222,0)" xlink:href="#W"/><use transform="matrix(0.010850694444444444,0,0,0.010850694444444444,30.09982638888889,0)" xlink:href="#I"/><use transform="matrix(0.010850694444444444,0,0,0.010850694444444444,36.12196180555555,0)" xlink:href="#ax"/><use transform="matrix(0.010850694444444444,0,0,0.010850694444444444,50.13020833333333,0)" xlink:href="#aq"/><use transform="matrix(0.010850694444444444,0,0,0.010850694444444444,63.96484375,0)" xlink:href="#F"/></g><g id="s"><use transform="matrix(0.010850694444444444,0,0,0.010850694444444444,0,0)" xlink:href="#ao"/><use transform="matrix(0.010850694444444444,0,0,0.010850694444444444,20.703125,0)" xlink:href="#aq"/><use transform="matrix(0.010850694444444444,0,0,0.010850694444444444,34.537760416666664,0)" xlink:href="#E"/><use transform="matrix(0.010850694444444444,0,0,0.010850694444444444,40.885416666666664,0)" xlink:href="#D"/><use transform="matrix(0.010850694444444444,0,0,0.010850694444444444,49.0234375,0)" xlink:href="#I"/><use transform="matrix(0.010850694444444444,0,0,0.010850694444444444,55.045572916666664,0)" xlink:href="#an"/><use transform="matrix(0.010850694444444444,0,0,0.010850694444444444,69.05381944444444,0)" xlink:href="#E"/><use transform="matrix(0.010850694444444444,0,0,0.010850694444444444,75.07595486111111,0)" xlink:href="#F"/></g><path d="M180 0v-1490h528c311 0 458 177 458 395 0 191-114 278-244 313v14c139 9 302 137 302 371 0 225-148 397-499 397H180zm190-168h350c232 0 321-102 321-231 0-149-120-277-311-277H370v508zm0-668h328c160 0 286-101 286-255 0-129-87-231-280-231H370v486" id="ay"/><path d="M338-1490V0H158v-1490h180" id="az"/><path d="M657 26c-323 0-524-166-541-416h195c15 169 171 246 346 246 202 0 356-106 356-265 5-203-294-238-475-293-239-73-380-191-380-389 0-252 224-419 512-419 294 0 499 171 508 396H992c-17-145-151-228-328-228-193 0-321 102-321 242 0 156 175 211 284 241l149 41c160 44 422 134 422 412 0 244-197 432-541 432" id="aA"/><g id="t"><use transform="matrix(0.010850694444444444,0,0,0.010850694444444444,0,0)" xlink:href="#ay"/><use transform="matrix(0.010850694444444444,0,0,0.010850694444444444,14.539930555555555,0)" xlink:href="#R"/><use transform="matrix(0.010850694444444444,0,0,0.010850694444444444,27.018229166666664,0)" xlink:href="#N"/><use transform="matrix(0.010850694444444444,0,0,0.010850694444444444,33.74565972222222,0)" xlink:href="#N"/><use transform="matrix(0.010850694444444444,0,0,0.010850694444444444,41.015625,0)" xlink:href="#az"/><use transform="matrix(0.010850694444444444,0,0,0.010850694444444444,46.39756944444444,0)" xlink:href="#O"/><use transform="matrix(0.010850694444444444,0,0,0.010850694444444444,59.35329861111111,0)" xlink:href="#aA"/><use transform="matrix(0.010850694444444444,0,0,0.010850694444444444,73.61111111111111,0)" xlink:href="#N"/><use transform="matrix(0.010850694444444444,0,0,0.010850694444444444,80.98958333333333,0)" xlink:href="#R"/><use transform="matrix(0.010850694444444444,0,0,0.010850694444444444,93.46788194444444,0)" xlink:href="#N"/><use transform="matrix(0.010850694444444444,0,0,0.010850694444444444,100.52083333333333,0)" xlink:href="#O"/></g><path d="M538 24C308 24 148-78 108-271l171-41c32 123 123 178 257 178 156 0 256-77 256-169 0-77-54-128-164-154l-186-44c-203-48-300-148-300-305 0-192 176-326 414-326 230 0 351 112 402 269l-163 42c-31-80-94-158-238-158-133 0-233 69-233 162 0 83 57 129 188 160l169 40c203 48 298 149 298 302 0 196-179 339-441 339" id="aB"/><g id="u"><use transform="matrix(0.010850694444444444,0,0,0.010850694444444444,0,0)" xlink:href="#L"/><use transform="matrix(0.010850694444444444,0,0,0.010850694444444444,5.381944444444445,0)" xlink:href="#aB"/></g><path d="M537 14c-226 0-379-139-379-422v-710h180v695c0 172 97 275 253 275 160 0 281-109 281-300v-670h181V0H879v-209C806-46 684 14 537 14" id="aC"/><path d="M158 418v-1536h174v179h20c37-59 106-193 324-193 279 0 474 222 474 576 0 356-194 580-473 580-213 0-288-135-325-197h-14v591H158zm492-555c209 0 317-186 317-421 0-232-105-413-317-413-206 0-314 166-314 413 0 249 111 421 314 421" id="aD"/><path d="M577 24c-279 0-473-224-473-580 0-354 195-576 474-576 218 0 287 134 324 193h14v-551h180V0H922v-173h-20C865-111 790 24 577 24zm27-161c203 0 314-172 314-421 0-247-108-413-314-413-212 0-317 181-317 413 0 235 108 421 317 421" id="aE"/><g id="v"><use transform="matrix(0.010850694444444444,0,0,0.010850694444444444,0,0)" xlink:href="#aC"/><use transform="matrix(0.010850694444444444,0,0,0.010850694444444444,13.140190972222221,0)" xlink:href="#aD"/><use transform="matrix(0.010850694444444444,0,0,0.010850694444444444,26.746961805555554,0)" xlink:href="#aE"/><use transform="matrix(0.010850694444444444,0,0,0.010850694444444444,40.353732638888886,0)" xlink:href="#R"/><use transform="matrix(0.010850694444444444,0,0,0.010850694444444444,52.83203125,0)" xlink:href="#N"/><use transform="matrix(0.010850694444444444,0,0,0.010850694444444444,59.8849826388889,0)" xlink:href="#O"/><use transform="matrix(0.010850694444444444,0,0,0.010850694444444444,72.84071180555556,0)" xlink:href="#aE"/></g><path d="M613 24c-304 0-509-231-509-576 0-350 205-580 509-580 305 0 511 230 511 580 0 345-206 576-511 576zm0-161c226 0 329-195 329-415 0-222-103-419-329-419-223 0-326 196-326 419 0 220 103 415 326 415" id="aF"/><path d="M158 0v-1118h175l1 205c55-151 181-225 313-225 147 0 245 90 285 228 53-141 190-228 352-228 194 0 352 125 352 384V0h-181v-749c0-161-105-225-225-225-151 0-243 103-243 244V0H807v-767c0-124-93-207-219-207-131 0-250 92-250 270V0H158" id="aG"/><path d="M295 13c-75 0-135-60-135-135s60-135 135-135 135 60 135 135S370 13 295 13" id="aH"/><g id="w"><use transform="matrix(0.010850694444444444,0,0,0.010850694444444444,0,0)" xlink:href="#Q"/><use transform="matrix(0.010850694444444444,0,0,0.010850694444444444,8.22482638888889,0)" xlink:href="#P"/><use transform="matrix(0.010850694444444444,0,0,0.010850694444444444,16.221788194444443,0)" xlink:href="#aF"/><use transform="matrix(0.010850694444444444,0,0,0.010850694444444444,29.54644097222222,0)" xlink:href="#aG"/><use transform="matrix(0.010850694444444444,0,0,0.010850694444444444,49.01258680555556,0)" xlink:href="#aH"/><use transform="matrix(0.010850694444444444,0,0,0.010850694444444444,55.41449652777778,0)" xlink:href="#aH"/><use transform="matrix(0.010850694444444444,0,0,0.010850694444444444,61.81640625,0)" xlink:href="#aH"/></g><g id="x"><use transform="matrix(0.010850694444444444,0,0,0.010850694444444444,0,0)" xlink:href="#ay"/><use transform="matrix(0.010850694444444444,0,0,0.010850694444444444,14.539930555555555,0)" xlink:href="#R"/><use transform="matrix(0.010850694444444444,0,0,0.010850694444444444,27.018229166666664,0)" xlink:href="#N"/><use transform="matrix(0.010850694444444444,0,0,0.010850694444444444,33.74565972222222,0)" xlink:href="#N"/><use transform="matrix(0.010850694444444444,0,0,0.010850694444444444,41.015625,0)" xlink:href="#az"/><use transform="matrix(0.010850694444444444,0,0,0.010850694444444444,46.39756944444444,0)" xlink:href="#O"/></g><path d="M481 0L54-1118h197c107 314 236 620 325 951 87-331 217-637 324-951h197L670 0H481" id="aI"/><g id="y"><use transform="matrix(0.010850694444444444,0,0,0.010850694444444444,0,0)" xlink:href="#P"/><use transform="matrix(0.010850694444444444,0,0,0.010850694444444444,7.996961805555555,0)" xlink:href="#O"/><use transform="matrix(0.010850694444444444,0,0,0.010850694444444444,20.95269097222222,0)" xlink:href="#aG"/><use transform="matrix(0.010850694444444444,0,0,0.010850694444444444,40.41883680555556,0)" xlink:href="#aF"/><use transform="matrix(0.010850694444444444,0,0,0.010850694444444444,53.30946180555556,0)" xlink:href="#aI"/><use transform="matrix(0.010850694444444444,0,0,0.010850694444444444,65.36458333333333,0)" xlink:href="#O"/></g><path d="M65 0l393-574-370-544h210c88 136 192 297 267 435 67-142 176-302 264-435h206L661-564 1053 0H844c-94-144-206-310-287-458C484-308 366-142 273 0H65" id="aJ"/><path d="M677 24c-213 0-288-135-325-197h-20V0H158v-1490h180v551h14c37-59 106-193 324-193 279 0 474 222 474 576 0 356-194 580-473 580zm-27-161c209 0 317-186 317-421 0-232-105-413-317-413-206 0-314 166-314 413 0 249 111 421 314 421" id="aK"/><g id="z"><use transform="matrix(0.010850694444444444,0,0,0.010850694444444444,0,0)" xlink:href="#O"/><use transform="matrix(0.010850694444444444,0,0,0.010850694444444444,12.456597222222221,0)" xlink:href="#aJ"/><use transform="matrix(0.010850694444444444,0,0,0.010850694444444444,24.58767361111111,0)" xlink:href="#aD"/><use transform="matrix(0.010850694444444444,0,0,0.010850694444444444,38.19444444444444,0)" xlink:href="#L"/><use transform="matrix(0.010850694444444444,0,0,0.010850694444444444,43.576388888888886,0)" xlink:href="#P"/><use transform="matrix(0.010850694444444444,0,0,0.010850694444444444,51.94227430555556,0)" xlink:href="#R"/><use transform="matrix(0.010850694444444444,0,0,0.010850694444444444,64.42057291666666,0)" xlink:href="#aK"/><use transform="matrix(0.010850694444444444,0,0,0.010850694444444444,78.02734374999999,0)" xlink:href="#az"/><use transform="matrix(0.010850694444444444,0,0,0.010850694444444444,83.40928819444443,0)" xlink:href="#O"/></g><g id="A"><use transform="matrix(0.010850694444444444,0,0,0.010850694444444444,0,0)" xlink:href="#O"/><use transform="matrix(0.010850694444444444,0,0,0.010850694444444444,12.955729166666666,0)" xlink:href="#Q"/><use transform="matrix(0.010850694444444444,0,0,0.010850694444444444,20.3125,0)" xlink:href="#Q"/><use transform="matrix(0.010850694444444444,0,0,0.010850694444444444,27.88628472222222,0)" xlink:href="#O"/><use transform="matrix(0.010850694444444444,0,0,0.010850694444444444,40.842013888888886,0)" xlink:href="#S"/><use transform="matrix(0.010850694444444444,0,0,0.010850694444444444,53.537326388888886,0)" xlink:href="#N"/><use transform="matrix(0.010850694444444444,0,0,0.010850694444444444,60.59027777777778,0)" xlink:href="#aB"/></g></defs></g></svg>