<svg xmlns="http://www.w3.org/2000/svg" xmlns:xlink="http://www.w3.org/1999/xlink" xmlns:lucid="lucid" width="1502" height="642"><g transform="translate(9758.000868061812 -6038.99999999123)" lucid:page-tab-id="0_0"><path d="M-14500-2500h25000v16000h-25000z" fill="#fff"/><path d="M-9237 6046a6 6 0 0 1 6-6h448a6 6 0 0 1 6 6v628a6 6 0 0 1-6 6h-448a6 6 0 0 1-6-6z" fill-opacity="0"/><path d="M-9211.1 6040h19.92m9.96 0h19.9m9.96 0h19.92m9.95 0h19.92m9.96 0h19.9m9.96 0h19.92m9.95 0h19.92m9.96 0h19.9m9.96 0h19.9m9.97 0h19.92m9.96 0h19.9m9.96 0h19.9m9.97 0h19.92m9.96 0h19.9m9.96 0h9.96a6 6 0 0 1 6 6v9.97m0 9.97v19.93m0 9.97v19.94m0 9.97v19.93m0 9.97v19.94m0 9.96v19.93m0 9.96v19.94m0 9.97v19.93m0 9.97v19.94m0 9.98v19.93m0 9.98v19.94m0 9.96v19.94m0 9.97v19.93m0 9.96v19.93m0 9.97v19.94m0 9.96v19.94m0 9.97v19.94m0 9.97v19.95m0 9.97v19.93m0 9.97v19.94m0 9.97v19.93m0 9.97v9.97a6 6 0 0 1-6 6h-9.96m-9.95 0h-19.92m-9.96 0h-19.9m-9.97 0h-19.9m-9.96 0h-19.92m-9.96 0h-19.9m-9.97 0h-19.9m-9.96 0h-19.92m-9.96 0h-19.9m-9.97 0h-19.9m-9.96 0h-19.92m-9.96 0h-19.9m-9.97 0h-19.9m-9.96 0h-19.92m-9.96 0h-19.9m-9.97 0h-9.95a6 6 0 0 1-6-6v-9.97m0-9.97v-19.93m0-9.97v-19.94m0-9.97v-19.93m0-9.97v-19.94m0-9.96v-19.93m0-9.96v-19.94m0-9.97v-19.93m0-9.97v-19.94m0-9.98v-19.93m0-9.98v-19.94m0-9.96v-19.94m0-9.97v-19.93m0-9.96v-19.93m0-9.97v-19.94m0-9.96v-19.94m0-9.97v-19.94m0-9.97v-19.95m0-9.97v-19.93m0-9.97v-19.94m0-9.97v-19.93m0-9.97V6046a6 6 0 0 1 6-6h9.95" stroke="#979ea8" stroke-width="2" fill="none"/><use xlink:href="#a" transform="matrix(1,0,0,1,-9232.000868055555,6045) translate(173.31814236111111 21.52777777777778)"/><path d="M-8717 6046a6 6 0 0 1 6-6h448a6 6 0 0 1 6 6v628a6 6 0 0 1-6 6h-448a6 6 0 0 1-6-6z" fill-opacity="0"/><path d="M-8691.1 6040h19.92m9.96 0h19.9m9.96 0h19.92m9.95 0h19.92m9.96 0h19.9m9.96 0h19.92m9.95 0h19.92m9.96 0h19.9m9.96 0h19.9m9.97 0h19.92m9.96 0h19.9m9.96 0h19.9m9.97 0h19.92m9.96 0h19.9m9.96 0h9.96a6 6 0 0 1 6 6v9.97m0 9.97v19.93m0 9.97v19.94m0 9.97v19.93m0 9.97v19.94m0 9.96v19.93m0 9.96v19.94m0 9.97v19.93m0 9.97v19.94m0 9.98v19.93m0 9.98v19.94m0 9.96v19.94m0 9.97v19.93m0 9.96v19.93m0 9.97v19.94m0 9.96v19.94m0 9.97v19.94m0 9.97v19.95m0 9.97v19.93m0 9.97v19.94m0 9.97v19.93m0 9.97v9.97a6 6 0 0 1-6 6h-9.96m-9.95 0h-19.92m-9.96 0h-19.9m-9.97 0h-19.9m-9.96 0h-19.92m-9.96 0h-19.9m-9.97 0h-19.9m-9.96 0h-19.92m-9.96 0h-19.9m-9.97 0h-19.9m-9.96 0h-19.92m-9.96 0h-19.9m-9.97 0h-19.9m-9.96 0h-19.92m-9.96 0h-19.9m-9.97 0h-9.95a6 6 0 0 1-6-6v-9.97m0-9.97v-19.93m0-9.97v-19.94m0-9.97v-19.93m0-9.97v-19.94m0-9.96v-19.93m0-9.96v-19.94m0-9.97v-19.93m0-9.97v-19.94m0-9.98v-19.93m0-9.98v-19.94m0-9.96v-19.94m0-9.97v-19.93m0-9.96v-19.93m0-9.97v-19.94m0-9.96v-19.94m0-9.97v-19.94m0-9.97v-19.95m0-9.97v-19.93m0-9.97v-19.94m0-9.97v-19.93m0-9.97V6046a6 6 0 0 1 6-6h9.95" stroke="#979ea8" stroke-width="2" fill="none"/><use xlink:href="#b" transform="matrix(1,0,0,1,-8712.000868055555,6045) translate(199.27300347222223 21.52777777777778)"/><path d="M-9757 6046a6 6 0 0 1 6-6h448a6 6 0 0 1 6 6v628a6 6 0 0 1-6 6h-448a6 6 0 0 1-6-6z" fill-opacity="0"/><path d="M-9731.1 6040h19.92m9.96 0h19.9m9.96 0h19.92m9.95 0h19.92m9.96 0h19.9m9.96 0h19.92m9.95 0h19.92m9.96 0h19.9m9.96 0h19.9m9.97 0h19.92m9.96 0h19.9m9.96 0h19.9m9.97 0h19.92m9.96 0h19.9m9.96 0h9.96a6 6 0 0 1 6 6v9.97m0 9.97v19.93m0 9.97v19.94m0 9.97v19.93m0 9.97v19.94m0 9.96v19.93m0 9.96v19.94m0 9.97v19.93m0 9.97v19.94m0 9.98v19.93m0 9.98v19.94m0 9.96v19.94m0 9.97v19.93m0 9.96v19.93m0 9.97v19.94m0 9.96v19.94m0 9.97v19.94m0 9.97v19.95m0 9.97v19.93m0 9.97v19.94m0 9.97v19.93m0 9.97v9.97a6 6 0 0 1-6 6h-9.96m-9.95 0h-19.92m-9.96 0h-19.9m-9.97 0h-19.9m-9.96 0h-19.92m-9.96 0h-19.9m-9.97 0h-19.9m-9.96 0h-19.92m-9.96 0h-19.9m-9.97 0h-19.9m-9.96 0h-19.92m-9.96 0h-19.9m-9.97 0h-19.9m-9.96 0h-19.92m-9.96 0h-19.9m-9.97 0h-9.95a6 6 0 0 1-6-6v-9.97m0-9.97v-19.93m0-9.97v-19.94m0-9.97v-19.93m0-9.97v-19.94m0-9.96v-19.93m0-9.96v-19.94m0-9.97v-19.93m0-9.97v-19.94m0-9.98v-19.93m0-9.98v-19.94m0-9.96v-19.94m0-9.97v-19.93m0-9.96v-19.93m0-9.97v-19.94m0-9.96v-19.94m0-9.97v-19.94m0-9.97v-19.95m0-9.97v-19.93m0-9.97v-19.94m0-9.97v-19.93m0-9.97V6046a6 6 0 0 1 6-6h9.95" stroke="#979ea8" stroke-width="2" fill="none"/><use xlink:href="#c" transform="matrix(1,0,0,1,-9752.000868055555,6045) translate(192.32855902777777 21.52777777777778)"/><path d="M-9194 6146a6 6 0 0 1 6-6h362a6 6 0 0 1 6 6v160a6 6 0 0 1-6 6h-362a6 6 0 0 1-6-6z" stroke="#000" stroke-width="2" fill="#fff"/><path d="M-9194 6182.9h374m-374 64.38h374" stroke="#000" stroke-width="2" fill="none"/><use xlink:href="#d" transform="matrix(1,0,0,1,-9186.00173611111,6148) translate(56.941406250000014 21.58376736111111)"/><path d="M-8674 6146a6 6 0 0 1 6-6h362a6 6 0 0 1 6 6v160a6 6 0 0 1-6 6h-362a6 6 0 0 1-6-6z" stroke="#000" stroke-width="2" fill="#fff"/><path d="M-8674 6182.9h374m-374 64.38h374" stroke="#000" stroke-width="2" fill="none"/><use xlink:href="#e" transform="matrix(1,0,0,1,-8666.00173611111,6148) translate(83.97591145833336 21.58376736111111)"/><path d="M-9714 6146a6 6 0 0 1 6-6h362a6 6 0 0 1 6 6v160a6 6 0 0 1-6 6h-362a6 6 0 0 1-6-6z" stroke="#000" stroke-width="2" fill="#fff"/><path d="M-9714 6182.9h374m-374 64.38h374" stroke="#000" stroke-width="2" fill="none"/><use xlink:href="#f" transform="matrix(1,0,0,1,-9706.00173611111,6148) translate(140.81727430555554 21.58376736111111)"/><path d="M-8674 6466a6 6 0 0 1 6-6h362a6 6 0 0 1 6 6v160a6 6 0 0 1-6 6h-362a6 6 0 0 1-6-6z" stroke="#000" stroke-width="2" fill="#fff"/><path d="M-8674 6502.9h374m-374 64.38h374" stroke="#000" stroke-width="2" fill="none"/><use xlink:href="#g" transform="matrix(1,0,0,1,-8666.00173611111,6468) translate(126.11458333333334 21.58376736111111)"/><path d="M-9194 6450a6 6 0 0 1 6-6h362a6 6 0 0 1 6 6v192a6 6 0 0 1-6 6h-362a6 6 0 0 1-6-6z" stroke="#000" stroke-width="2" fill="#fff"/><path d="M-9194 6486.9h374m-374 64.38h374" stroke="#000" stroke-width="2" fill="none"/><use xlink:href="#h" transform="matrix(1,0,0,1,-9186.00173611111,6452) translate(94.03993055555557 21.58376736111111)"/><use xlink:href="#i" transform="matrix(1,0,0,1,-9182.00173611111,6559.276041666666) translate(0 32.450954861111114)"/><use xlink:href="#j" transform="matrix(1,0,0,1,-9182.00173611111,6559.276041666666) translate(20.95269097222222 32.450954861111114)"/><use xlink:href="#k" transform="matrix(1,0,0,1,-9182.00173611111,6559.276041666666) translate(97.38498263888889 32.450954861111114)"/><use xlink:href="#i" transform="matrix(1,0,0,1,-9182.00173611111,6559.276041666666) translate(0 64.71657986111111)"/><use xlink:href="#l" transform="matrix(1,0,0,1,-9182.00173611111,6559.276041666666) translate(20.95269097222222 64.71657986111111)"/><use xlink:href="#m" transform="matrix(1,0,0,1,-9182.00173611111,6559.276041666666) translate(122.65625 64.71657986111111)"/><path d="M-9714 6466a6 6 0 0 1 6-6h362a6 6 0 0 1 6 6v160a6 6 0 0 1-6 6h-362a6 6 0 0 1-6-6z" stroke="#000" stroke-width="2" fill="#fff"/><path d="M-9714 6502.9h374m-374 64.38h374" stroke="#000" stroke-width="2" fill="none"/><use xlink:href="#n" transform="matrix(1,0,0,1,-9706.00173611111,6468) translate(148.29340277777777 21.58376736111111)"/><path d="M-8675.5 6226h-4.97m-4.96 0h-9.93m-4.97 0h-9.93m-4.96 0h-9.93m-4.97 0h-9.93m-4.96 0h-9.94m-4.97 0h-9.94m-4.96 0h-9.93m-4.97 0h-9.93m-4.96 0h-4.96" stroke="#3a414a" fill="none"/><path d="M-8675 6226.48h-.5v-.95h.5z" stroke="#3a414a" stroke-width=".05" fill="#3a414a"/><path d="M-8800.68 6236l-17.32-10 17.32-10m-17.32 10h8.5M-9195.5 6226h-4.97m-4.96 0h-9.93m-4.97 0h-9.93m-4.96 0h-9.93m-4.97 0h-9.93m-4.96 0h-9.94m-4.97 0h-9.94m-4.96 0h-9.93m-4.97 0h-9.93m-4.96 0h-4.96" stroke="#3a414a" fill="none"/><path d="M-9195 6226.48h-.5v-.95h.5z" stroke="#3a414a" stroke-width=".05" fill="#3a414a"/><path d="M-9320.68 6236l-17.32-10 17.32-10m-17.32 10h8.5" stroke="#3a414a" fill="none"/><use xlink:href="#o" transform="matrix(1,0,0,1,-9308.098958388888,6200.489583333333) translate(0 17.22222222222222)"/><use xlink:href="#p" transform="matrix(1,0,0,1,-9203.194859939234,6201.745253906251) translate(0 16.216875)"/><use xlink:href="#p" transform="matrix(1,0,0,1,-9339.193223939235,6240.000000000001) translate(0 16.216875)"/><path d="M-9526.53 6428.63h-.95v-31.88h.95zm0-53.4l-.95.02v-61.75h.95z" stroke="#3a414a" stroke-width=".05" fill="#3a414a"/><path d="M-9512.15 6443.44l-14.85 14.85-14.85-14.86 14.85-14.85z" fill="#fff"/><path d="M-9511.48 6443.44l-15.52 15.53-15.52-15.53 15.52-15.52zm-29.7 0l14.18 14.18 14.18-14.18-14.18-14.17z" stroke="#3a414a" stroke-width=".05" fill="#3a414a"/><path d="M-9526.53 6313.5h-.95v-.5h.95z" fill="#3a414a"/><path stroke="#3a414a" stroke-width=".05" fill="#3a414a"/><use xlink:href="#p" transform="matrix(1,0,0,1,-9503.500868055555,6438.872676953125) translate(0 16.216875)"/><use xlink:href="#q" transform="matrix(1,0,0,1,-9545.209979383679,6312.872576953126) translate(0 16.216875)"/><use xlink:href="#r" transform="matrix(1,0,0,1,-9579.240451388889,6375.244791666667) translate(0 17.22222222222222)"/><path d="M-8675.5 6546h-4.97m-4.96 0h-9.93m-4.97 0h-9.93m-4.96 0h-9.93m-4.97 0h-9.93m-4.96 0h-9.94m-4.97 0h-9.94m-4.96 0h-9.93m-4.97 0h-9.93m-4.96 0h-4.96" stroke="#3a414a" fill="none"/><path d="M-8675 6546.48h-.5v-.95h.5z" stroke="#3a414a" stroke-width=".05" fill="#3a414a"/><path d="M-8800.68 6556l-17.32-10 17.32-10m-17.32 10h8.5M-9195.5 6546h-4.97m-4.96 0h-9.93m-4.97 0h-9.93m-4.96 0h-9.93m-4.97 0h-9.93m-4.96 0h-9.94m-4.97 0h-9.94m-4.96 0h-9.93m-4.97 0h-9.93m-4.96 0h-4.96" stroke="#3a414a" fill="none"/><path d="M-9195 6546.48h-.5v-.95h.5z" stroke="#3a414a" stroke-width=".05" fill="#3a414a"/><path d="M-9320.68 6556l-17.32-10 17.32-10m-17.32 10h8.5" stroke="#3a414a" fill="none"/><defs><path d="M783 20c-382 0-661-292-661-764 0-473 279-766 661-766 302 0 548 182 601 489h-190c-42-204-217-313-411-313-268 0-476 208-476 590 0 381 209 588 476 588 195 0 369-110 411-313h190c-52 303-296 489-601 489" id="s"/><path d="M613 24c-304 0-509-231-509-576 0-350 205-580 509-580 305 0 511 230 511 580 0 345-206 576-511 576zm0-161c226 0 329-195 329-415 0-222-103-419-329-419-223 0-326 196-326 419 0 220 103 415 326 415" id="t"/><path d="M338-670V0H158v-1118h173l1 207c72-158 192-221 342-221 226 0 378 139 378 422V0H872v-695c0-172-96-275-252-275-161 0-282 109-282 300" id="u"/><path d="M598-1118v154H368v674c0 100 37 144 132 144 23 0 62-6 92-12L629-6c-37 13-88 20-134 20-193 0-307-107-307-290v-688H20v-154h168v-266h180v266h230" id="v"/><path d="M158 0v-1118h174v172h12c41-113 157-188 290-188 26 0 70 2 91 3v181c-11-2-60-10-108-10-161 0-279 109-279 260V0H158" id="w"/><path d="M338-1490V0H158v-1490h180" id="x"/><path d="M628 24c-324 0-524-230-524-574 0-343 198-582 503-582 237 0 487 146 487 559v75H286c9 234 145 362 343 362 132 0 231-58 273-172l174 48C1024-91 857 24 628 24zM287-650h624c-17-190-120-322-304-322-192 0-309 151-320 322" id="y"/><g id="a"><use transform="matrix(0.010850694444444444,0,0,0.010850694444444444,0,0)" xlink:href="#s"/><use transform="matrix(0.010850694444444444,0,0,0.010850694444444444,16.23263888888889,0)" xlink:href="#t"/><use transform="matrix(0.010850694444444444,0,0,0.010850694444444444,29.557291666666664,0)" xlink:href="#u"/><use transform="matrix(0.010850694444444444,0,0,0.010850694444444444,42.68663194444444,0)" xlink:href="#v"/><use transform="matrix(0.010850694444444444,0,0,0.010850694444444444,49.95659722222222,0)" xlink:href="#w"/><use transform="matrix(0.010850694444444444,0,0,0.010850694444444444,57.95355902777778,0)" xlink:href="#t"/><use transform="matrix(0.010850694444444444,0,0,0.010850694444444444,71.27821180555554,0)" xlink:href="#x"/><use transform="matrix(0.010850694444444444,0,0,0.010850694444444444,76.66015624999999,0)" xlink:href="#x"/><use transform="matrix(0.010850694444444444,0,0,0.010850694444444444,82.04210069444443,0)" xlink:href="#y"/><use transform="matrix(0.010850694444444444,0,0,0.010850694444444444,94.99782986111111,0)" xlink:href="#w"/></g><path d="M600 0L52-1490h200c166 485 304 806 458 1336 156-533 285-846 449-1336h202L819 0H600" id="z"/><path d="M158 0v-1118h180V0H158zm91-1301c-68 0-125-53-125-119s57-119 125-119c69 0 126 53 126 119s-57 119-126 119" id="A"/><path d="M409 0L70-1118h191c89 329 165 560 243 925 75-353 154-601 240-925h192c85 325 161 564 235 922 77-354 157-598 244-922h191L1267 0h-179c-86-307-176-590-250-913C763-588 675-308 588 0H409" id="B"/><g id="b"><use transform="matrix(0.010850694444444444,0,0,0.010850694444444444,0,0)" xlink:href="#z"/><use transform="matrix(0.010850694444444444,0,0,0.010850694444444444,15.33203125,0)" xlink:href="#A"/><use transform="matrix(0.010850694444444444,0,0,0.010850694444444444,20.713975694444443,0)" xlink:href="#y"/><use transform="matrix(0.010850694444444444,0,0,0.010850694444444444,33.268229166666664,0)" xlink:href="#B"/></g><path d="M180 0v-1490h270l367 940c28 72 75 218 110 339 35-117 81-264 110-339l362-940h271V0h-187c2-448-5-837 7-1287-157 497-311 829-483 1287H842C666-458 514-784 354-1284c12 438 5 843 7 1284H180" id="C"/><path d="M577 24c-279 0-473-224-473-580 0-354 195-576 474-576 218 0 287 134 324 193h14v-551h180V0H922v-173h-20C865-111 790 24 577 24zm27-161c203 0 314-172 314-421 0-247-108-413-314-413-212 0-317 181-317 413 0 235 108 421 317 421" id="D"/><g id="c"><use transform="matrix(0.010850694444444444,0,0,0.010850694444444444,0,0)" xlink:href="#C"/><use transform="matrix(0.010850694444444444,0,0,0.010850694444444444,20.07378472222222,0)" xlink:href="#t"/><use transform="matrix(0.010850694444444444,0,0,0.010850694444444444,33.3984375,0)" xlink:href="#D"/><use transform="matrix(0.010850694444444444,0,0,0.010850694444444444,47.00520833333333,0)" xlink:href="#y"/><use transform="matrix(0.010850694444444444,0,0,0.010850694444444444,59.960937499999986,0)" xlink:href="#x"/></g><path d="M75-1237v-253h1217v253H837V0H531v-1237H75" id="E"/><path d="M633 22C291 22 81-200 81-553c0-345 210-579 537-579 292 0 525 185 525 567v84H378c7 183 109 277 260 277 105 0 184-46 216-132l272 51C1071-99 893 22 633 22zM380-669h474c-15-146-94-237-233-237-143 0-229 99-241 237" id="F"/><path d="M440 22C227 22 68-92 68-313c0-250 202-322 422-343 195-21 271-24 271-105 0-95-63-149-175-149-116 0-187 57-211 129l-275-46c57-194 237-305 487-305 240 0 474 108 474 379V0H777v-155h-10C713-51 605 22 440 22zm85-211c140 0 238-93 238-211v-121c-37 26-156 42-222 51-111 16-185 59-185 149 0 87 70 132 169 132" id="G"/><path d="M128 0v-1118h278l12 217c60-163 185-234 319-234 143 0 236 81 288 251 63-172 205-251 359-251 205 0 357 138 357 381V0h-301v-697c0-126-76-187-177-187-114 0-184 79-184 196V0H789v-705c0-109-72-179-174-179-106 0-187 74-187 208V0H128" id="H"/><path d="M135 0v-1490h591c327 0 492 160 492 383 0 177-115 286-268 320v15c168 8 326 140 326 361 0 236-176 411-512 411H135zm305-251h264c179 0 258-76 258-189 0-125-97-215-250-215H440v404zm0-613h241c131 0 228-74 228-194 0-109-79-183-222-183H440v377" id="I"/><path d="M513 14c-232 0-385-159-385-421v-711h300v659c0 139 76 222 202 222 127 0 217-86 217-234v-647h301V0H864l-4-232C797-74 683 14 513 14" id="J"/><path d="M128 0v-1118h300V0H128zm150-1264c-91 0-165-68-165-154 0-85 74-154 165-154 90 0 165 69 165 154 0 86-75 154-165 154" id="K"/><path d="M428-1490V0H128v-1490h300" id="L"/><path d="M537 19C279 19 81-185 81-557c0-382 206-575 454-575 190 0 278 113 318 202h10v-560h300V0H868v-179h-15C812-89 719 19 537 19zm92-241c153 0 240-134 240-336 0-203-86-334-240-334-158 0-240 138-240 334 0 197 84 336 240 336" id="M"/><path d="M128 0v-1118h290v195h12c54-169 184-238 367-200v268c-27-8-86-15-130-15-138 0-239 95-239 234V0H128" id="N"/><path d="M786 20C389 20 94-260 94-744c0-487 299-766 692-766 339 0 597 194 641 529h-309c-28-162-156-258-326-258-233 0-388 179-388 495 0 323 157 493 387 493 170 0 298-97 328-259h309c-34 277-266 530-642 530" id="O"/><path d="M628 22C291 22 81-210 81-554c0-346 210-578 547-578 336 0 547 232 547 578 0 344-211 576-547 576zm0-236c160 0 242-146 242-341 0-197-82-341-242-341S387-753 387-555c0 195 81 341 241 341" id="P"/><path d="M428-647V0H128v-1118h283l4 231c63-156 176-245 348-245 232 0 384 159 384 421V0H847v-659c0-139-76-222-202-222-128 0-217 86-217 234" id="Q"/><path d="M683-1118v229H474v562c0 71 29 104 102 104 23 0 73-7 95-13l43 225C647 9 580 16 520 16 296 16 174-96 174-301v-588H20v-229h154v-266h300v266h209" id="R"/><g id="d"><use transform="matrix(0.010850694444444444,0,0,0.010850694444444444,0,0)" xlink:href="#E"/><use transform="matrix(0.010850694444444444,0,0,0.010850694444444444,13.096788194444445,0)" xlink:href="#F"/><use transform="matrix(0.010850694444444444,0,0,0.010850694444444444,26.55164930555556,0)" xlink:href="#G"/><use transform="matrix(0.010850694444444444,0,0,0.010850694444444444,39.453125,0)" xlink:href="#H"/><use transform="matrix(0.010850694444444444,0,0,0.010850694444444444,59.733072916666664,0)" xlink:href="#I"/><use transform="matrix(0.010850694444444444,0,0,0.010850694444444444,74.43576388888889,0)" xlink:href="#J"/><use transform="matrix(0.010850694444444444,0,0,0.010850694444444444,88.27039930555556,0)" xlink:href="#K"/><use transform="matrix(0.010850694444444444,0,0,0.010850694444444444,94.29253472222221,0)" xlink:href="#L"/><use transform="matrix(0.010850694444444444,0,0,0.010850694444444444,100.3146701388889,0)" xlink:href="#M"/><use transform="matrix(0.010850694444444444,0,0,0.010850694444444444,114.32291666666666,0)" xlink:href="#F"/><use transform="matrix(0.010850694444444444,0,0,0.010850694444444444,127.56076388888889,0)" xlink:href="#N"/><use transform="matrix(0.010850694444444444,0,0,0.010850694444444444,136.61024305555554,0)" xlink:href="#O"/><use transform="matrix(0.010850694444444444,0,0,0.010850694444444444,153.04904513888889,0)" xlink:href="#P"/><use transform="matrix(0.010850694444444444,0,0,0.010850694444444444,166.67751736111111,0)" xlink:href="#Q"/><use transform="matrix(0.010850694444444444,0,0,0.010850694444444444,180.51215277777777,0)" xlink:href="#R"/><use transform="matrix(0.010850694444444444,0,0,0.010850694444444444,188.65017361111111,0)" xlink:href="#N"/><use transform="matrix(0.010850694444444444,0,0,0.010850694444444444,197.15711805555554,0)" xlink:href="#P"/><use transform="matrix(0.010850694444444444,0,0,0.010850694444444444,210.78559027777777,0)" xlink:href="#L"/><use transform="matrix(0.010850694444444444,0,0,0.010850694444444444,216.80772569444443,0)" xlink:href="#L"/><use transform="matrix(0.010850694444444444,0,0,0.010850694444444444,222.82986111111111,0)" xlink:href="#F"/><use transform="matrix(0.010850694444444444,0,0,0.010850694444444444,236.06770833333331,0)" xlink:href="#N"/></g><path d="M571 0L49-1490h339c138 427 271 775 384 1244 111-471 237-815 371-1244h337L970 0H571" id="S"/><path d="M361 0L31-1118h315c68 295 127 523 188 845 63-317 128-551 199-845h276c71 296 131 525 196 846 57-321 119-552 186-846h319L1378 0h-305c-73-261-148-486-204-771C813-484 740-261 666 0H361" id="T"/><g id="e"><use transform="matrix(0.010850694444444444,0,0,0.010850694444444444,0,0)" xlink:href="#E"/><use transform="matrix(0.010850694444444444,0,0,0.010850694444444444,13.096788194444445,0)" xlink:href="#F"/><use transform="matrix(0.010850694444444444,0,0,0.010850694444444444,26.55164930555556,0)" xlink:href="#G"/><use transform="matrix(0.010850694444444444,0,0,0.010850694444444444,39.453125,0)" xlink:href="#H"/><use transform="matrix(0.010850694444444444,0,0,0.010850694444444444,59.733072916666664,0)" xlink:href="#I"/><use transform="matrix(0.010850694444444444,0,0,0.010850694444444444,74.43576388888889,0)" xlink:href="#J"/><use transform="matrix(0.010850694444444444,0,0,0.010850694444444444,88.27039930555556,0)" xlink:href="#K"/><use transform="matrix(0.010850694444444444,0,0,0.010850694444444444,94.29253472222221,0)" xlink:href="#L"/><use transform="matrix(0.010850694444444444,0,0,0.010850694444444444,100.3146701388889,0)" xlink:href="#M"/><use transform="matrix(0.010850694444444444,0,0,0.010850694444444444,114.32291666666666,0)" xlink:href="#F"/><use transform="matrix(0.010850694444444444,0,0,0.010850694444444444,127.56076388888889,0)" xlink:href="#N"/><use transform="matrix(0.010850694444444444,0,0,0.010850694444444444,136.61024305555554,0)" xlink:href="#S"/><use transform="matrix(0.010850694444444444,0,0,0.010850694444444444,153.2009548611111,0)" xlink:href="#K"/><use transform="matrix(0.010850694444444444,0,0,0.010850694444444444,159.22309027777774,0)" xlink:href="#F"/><use transform="matrix(0.010850694444444444,0,0,0.010850694444444444,172.15711805555551,0)" xlink:href="#T"/></g><g id="f"><use transform="matrix(0.010850694444444444,0,0,0.010850694444444444,0,0)" xlink:href="#E"/><use transform="matrix(0.010850694444444444,0,0,0.010850694444444444,13.57421875,0)" xlink:href="#N"/><use transform="matrix(0.010850694444444444,0,0,0.010850694444444444,22.31987847222222,0)" xlink:href="#G"/><use transform="matrix(0.010850694444444444,0,0,0.010850694444444444,35.221354166666664,0)" xlink:href="#K"/><use transform="matrix(0.010850694444444444,0,0,0.010850694444444444,41.24348958333333,0)" xlink:href="#Q"/><use transform="matrix(0.010850694444444444,0,0,0.010850694444444444,55.078124999999986,0)" xlink:href="#F"/><use transform="matrix(0.010850694444444444,0,0,0.010850694444444444,68.31597222222221,0)" xlink:href="#N"/></g><path d="M135 0v-1490h468l242 684c30 94 76 293 111 455 34-161 80-360 110-455l238-684h470V0h-307c0-447-3-765 11-1227-122 503-246 788-395 1227H826C676-435 552-717 427-1215c15 453 11 775 11 1215H135" id="U"/><g id="g"><use transform="matrix(0.010850694444444444,0,0,0.010850694444444444,0,0)" xlink:href="#U"/><use transform="matrix(0.010850694444444444,0,0,0.010850694444444444,20.703125,0)" xlink:href="#G"/><use transform="matrix(0.010850694444444444,0,0,0.010850694444444444,33.60460069444444,0)" xlink:href="#K"/><use transform="matrix(0.010850694444444444,0,0,0.010850694444444444,39.62673611111111,0)" xlink:href="#Q"/><use transform="matrix(0.010850694444444444,0,0,0.010850694444444444,52.33289930555556,0)" xlink:href="#S"/><use transform="matrix(0.010850694444444444,0,0,0.010850694444444444,68.9236111111111,0)" xlink:href="#K"/><use transform="matrix(0.010850694444444444,0,0,0.010850694444444444,74.94574652777777,0)" xlink:href="#F"/><use transform="matrix(0.010850694444444444,0,0,0.010850694444444444,87.87977430555554,0)" xlink:href="#T"/></g><g id="h"><use transform="matrix(0.010850694444444444,0,0,0.010850694444444444,0,0)" xlink:href="#I"/><use transform="matrix(0.010850694444444444,0,0,0.010850694444444444,14.702690972222221,0)" xlink:href="#G"/><use transform="matrix(0.010850694444444444,0,0,0.010850694444444444,27.604166666666664,0)" xlink:href="#R"/><use transform="matrix(0.010850694444444444,0,0,0.010850694444444444,34.9609375,0)" xlink:href="#R"/><use transform="matrix(0.010850694444444444,0,0,0.010850694444444444,43.15321180555556,0)" xlink:href="#L"/><use transform="matrix(0.010850694444444444,0,0,0.010850694444444444,49.17534722222222,0)" xlink:href="#F"/><use transform="matrix(0.010850694444444444,0,0,0.010850694444444444,62.41319444444444,0)" xlink:href="#O"/><use transform="matrix(0.010850694444444444,0,0,0.010850694444444444,78.85199652777777,0)" xlink:href="#P"/><use transform="matrix(0.010850694444444444,0,0,0.010850694444444444,92.48046875,0)" xlink:href="#Q"/><use transform="matrix(0.010850694444444444,0,0,0.010850694444444444,106.31510416666666,0)" xlink:href="#R"/><use transform="matrix(0.010850694444444444,0,0,0.010850694444444444,114.453125,0)" xlink:href="#N"/><use transform="matrix(0.010850694444444444,0,0,0.010850694444444444,122.96006944444444,0)" xlink:href="#P"/><use transform="matrix(0.010850694444444444,0,0,0.010850694444444444,136.58854166666666,0)" xlink:href="#L"/><use transform="matrix(0.010850694444444444,0,0,0.010850694444444444,142.61067708333331,0)" xlink:href="#L"/><use transform="matrix(0.010850694444444444,0,0,0.010850694444444444,148.63281249999997,0)" xlink:href="#F"/><use transform="matrix(0.010850694444444444,0,0,0.010850694444444444,161.8706597222222,0)" xlink:href="#N"/></g><path d="M593-100v-404H195v-159h398v-403h169v403h398v159H762v404H593" id="V"/><use transform="matrix(0.010850694444444444,0,0,0.010850694444444444,0,0)" xlink:href="#V" id="i"/><path d="M538 24C308 24 148-78 108-271l171-41c32 123 123 178 257 178 156 0 256-77 256-169 0-77-54-128-164-154l-186-44c-203-48-300-148-300-305 0-192 176-326 414-326 230 0 351 112 402 269l-163 42c-31-80-94-158-238-158-133 0-233 69-233 162 0 83 57 129 188 160l169 40c203 48 298 149 298 302 0 196-179 339-441 339" id="W"/><path d="M471 26C259 26 90-98 90-318c0-256 228-303 435-329 202-27 287-16 287-108 0-139-79-219-234-219-161 0-248 86-283 164l-173-57c86-203 278-265 451-265 150 0 419 46 419 395V0H815v-152h-12C765-73 660 26 471 26zm31-159c199 0 310-134 310-271v-155c-30 35-226 55-295 64-131 17-246 59-246 186 0 116 97 176 231 176" id="X"/><path d="M218-607c0-325 108-727 258-974h175c-155 315-250 682-250 974 0 265 78 531 250 886H476C306-10 218-315 218-607" id="Y"/><path d="M96 279C273-86 346-350 346-607c0-292-95-659-250-974h175c150 246 258 650 258 974 0 297-91 602-258 886H96" id="Z"/><path d="M295 13c-75 0-135-60-135-135s60-135 135-135 135 60 135 135S370 13 295 13zm0-809c-75 0-135-60-135-135s60-135 135-135 135 60 135 135-60 135-135 135" id="aa"/><g id="j"><use transform="matrix(0.010850694444444444,0,0,0.010850694444444444,0,0)" xlink:href="#W"/><use transform="matrix(0.010850694444444444,0,0,0.010850694444444444,11.729600694444445,0)" xlink:href="#v"/><use transform="matrix(0.010850694444444444,0,0,0.010850694444444444,19.108072916666668,0)" xlink:href="#X"/><use transform="matrix(0.010850694444444444,0,0,0.010850694444444444,31.586371527777775,0)" xlink:href="#w"/><use transform="matrix(0.010850694444444444,0,0,0.010850694444444444,40.299479166666664,0)" xlink:href="#v"/><use transform="matrix(0.010850694444444444,0,0,0.010850694444444444,47.56944444444444,0)" xlink:href="#Y"/><use transform="matrix(0.010850694444444444,0,0,0.010850694444444444,55.67491319444444,0)" xlink:href="#Z"/><use transform="matrix(0.010850694444444444,0,0,0.010850694444444444,63.78038194444444,0)" xlink:href="#aa"/></g><path d="M481 0L54-1118h197c107 314 236 620 325 951 87-331 217-637 324-951h197L670 0H481" id="ab"/><g id="k"><use transform="matrix(0.010850694444444444,0,0,0.010850694444444444,0,0)" xlink:href="#ab"/><use transform="matrix(0.010850694444444444,0,0,0.010850694444444444,12.055121527777777,0)" xlink:href="#t"/><use transform="matrix(0.010850694444444444,0,0,0.010850694444444444,25.379774305555554,0)" xlink:href="#A"/><use transform="matrix(0.010850694444444444,0,0,0.010850694444444444,30.76171875,0)" xlink:href="#D"/></g><path d="M537 14c-226 0-379-139-379-422v-710h180v695c0 172 97 275 253 275 160 0 281-109 281-300v-670h181V0H879v-209C806-46 684 14 537 14" id="ac"/><path d="M158 418v-1536h174v179h20c37-59 106-193 324-193 279 0 474 222 474 576 0 356-194 580-473 580-213 0-288-135-325-197h-14v591H158zm492-555c209 0 317-186 317-421 0-232-105-413-317-413-206 0-314 166-314 413 0 249 111 421 314 421" id="ad"/><g id="l"><use transform="matrix(0.010850694444444444,0,0,0.010850694444444444,0,0)" xlink:href="#ac"/><use transform="matrix(0.010850694444444444,0,0,0.010850694444444444,13.140190972222221,0)" xlink:href="#ad"/><use transform="matrix(0.010850694444444444,0,0,0.010850694444444444,26.746961805555554,0)" xlink:href="#D"/><use transform="matrix(0.010850694444444444,0,0,0.010850694444444444,40.353732638888886,0)" xlink:href="#X"/><use transform="matrix(0.010850694444444444,0,0,0.010850694444444444,52.83203125,0)" xlink:href="#v"/><use transform="matrix(0.010850694444444444,0,0,0.010850694444444444,59.8849826388889,0)" xlink:href="#y"/><use transform="matrix(0.010850694444444444,0,0,0.010850694444444444,72.84071180555556,0)" xlink:href="#Y"/><use transform="matrix(0.010850694444444444,0,0,0.010850694444444444,80.94618055555556,0)" xlink:href="#Z"/><use transform="matrix(0.010850694444444444,0,0,0.010850694444444444,89.05164930555556,0)" xlink:href="#aa"/></g><g id="m"><use transform="matrix(0.010850694444444444,0,0,0.010850694444444444,0,0)" xlink:href="#ab"/><use transform="matrix(0.010850694444444444,0,0,0.010850694444444444,12.055121527777777,0)" xlink:href="#t"/><use transform="matrix(0.010850694444444444,0,0,0.010850694444444444,25.379774305555554,0)" xlink:href="#A"/><use transform="matrix(0.010850694444444444,0,0,0.010850694444444444,30.76171875,0)" xlink:href="#D"/></g><g id="n"><use transform="matrix(0.010850694444444444,0,0,0.010850694444444444,0,0)" xlink:href="#I"/><use transform="matrix(0.010850694444444444,0,0,0.010850694444444444,14.702690972222221,0)" xlink:href="#G"/><use transform="matrix(0.010850694444444444,0,0,0.010850694444444444,27.604166666666664,0)" xlink:href="#R"/><use transform="matrix(0.010850694444444444,0,0,0.010850694444444444,34.9609375,0)" xlink:href="#R"/><use transform="matrix(0.010850694444444444,0,0,0.010850694444444444,43.15321180555556,0)" xlink:href="#L"/><use transform="matrix(0.010850694444444444,0,0,0.010850694444444444,49.17534722222222,0)" xlink:href="#F"/></g><path fill="#333" d="M128 418v-1536h295v188h14c41-89 129-202 319-202 248 0 453 193 453 575 0 372-197 576-455 576-183 0-275-108-317-198h-9v597H128zm534-640c156 0 240-139 240-336 0-196-83-334-240-334-154 0-241 131-241 334 0 202 88 336 241 336" id="ae"/><path fill="#333" d="M128 0v-1118h290v195h12c54-169 184-238 367-200v268c-27-8-86-15-130-15-138 0-239 95-239 234V0H128" id="af"/><path fill="#333" d="M628 22C291 22 81-210 81-554c0-346 210-578 547-578 336 0 547 232 547 578 0 344-211 576-547 576zm0-236c160 0 242-146 242-341 0-197-82-341-242-341S387-753 387-555c0 195 81 341 241 341" id="ag"/><path fill="#333" d="M537 19C279 19 81-185 81-557c0-382 206-575 454-575 190 0 278 113 318 202h10v-560h300V0H868v-179h-15C812-89 719 19 537 19zm92-241c153 0 240-134 240-336 0-203-86-334-240-334-158 0-240 138-240 334 0 197 84 336 240 336" id="ah"/><path fill="#333" d="M513 14c-232 0-385-159-385-421v-711h300v659c0 139 76 222 202 222 127 0 217-86 217-234v-647h301V0H864l-4-232C797-74 683 14 513 14" id="ai"/><path fill="#333" d="M628 22C291 22 81-210 81-554c0-346 210-578 547-578 265 0 455 142 497 372l-279 52c-25-116-99-188-215-188-160 0-244 139-244 341 0 200 84 341 244 341 116 0 193-74 217-195l279 51C1085-123 896 22 628 22" id="aj"/><path fill="#333" d="M633 22C291 22 81-200 81-553c0-345 210-579 537-579 292 0 525 185 525 567v84H378c7 183 109 277 260 277 105 0 184-46 216-132l272 51C1071-99 893 22 633 22zM380-669h474c-15-146-94-237-233-237-143 0-229 99-241 237" id="ak"/><path fill="#333" d="M572 22C302 22 117-98 78-306l279-48c29 105 101 156 224 156 114 0 185-48 185-115 0-118-228-130-337-155-215-49-322-150-322-317 0-215 187-347 470-347 265 0 424 116 466 298l-266 47c-24-76-87-130-196-130-98 0-174 46-174 113 0 56 38 95 144 117l201 40c216 44 320 143 320 302 0 220-207 367-500 367" id="al"/><g id="o"><use transform="matrix(0.008680555555555556,0,0,0.008680555555555556,0,0)" xlink:href="#ae"/><use transform="matrix(0.008680555555555556,0,0,0.008680555555555556,11.206597222222223,0)" xlink:href="#af"/><use transform="matrix(0.008680555555555556,0,0,0.008680555555555556,18.01215277777778,0)" xlink:href="#ag"/><use transform="matrix(0.008680555555555556,0,0,0.008680555555555556,28.914930555555557,0)" xlink:href="#ah"/><use transform="matrix(0.008680555555555556,0,0,0.008680555555555556,40.12152777777778,0)" xlink:href="#ai"/><use transform="matrix(0.008680555555555556,0,0,0.008680555555555556,51.189236111111114,0)" xlink:href="#aj"/><use transform="matrix(0.008680555555555556,0,0,0.008680555555555556,61.64930555555556,0)" xlink:href="#ak"/><use transform="matrix(0.008680555555555556,0,0,0.008680555555555556,72.23958333333334,0)" xlink:href="#al"/></g><path d="M441-652l13-317-268 171-72-126 282-146-282-146 72-128 268 171-13-317h144l-12 317 267-171 72 128-282 146 282 146-72 126-267-171 12 317H441" id="am"/><use transform="matrix(0.008173828125000001,0,0,0.008173828125000001,0,0)" xlink:href="#am" id="p"/><path d="M154 0v-137l495-537c165-179 249-281 249-418 0-156-121-253-280-253-170 0-278 110-278 278H158c0-264 200-443 465-443 266 0 455 183 455 416 0 161-73 288-336 568L416-179v12h687V0H154" id="an"/><use transform="matrix(0.008173828125000001,0,0,0.008173828125000001,0,0)" xlink:href="#an" id="q"/><path fill="#333" d="M440 22C227 22 68-92 68-313c0-250 202-322 422-343 195-21 271-24 271-105 0-95-63-149-175-149-116 0-187 57-211 129l-275-46c57-194 237-305 487-305 240 0 474 108 474 379V0H777v-155h-10C713-51 605 22 440 22zm85-211c140 0 238-93 238-211v-121c-37 26-156 42-222 51-111 16-185 59-185 149 0 87 70 132 169 132" id="ao"/><path fill="#333" d="M683-1118v229H474v562c0 71 29 104 102 104 23 0 73-7 95-13l43 225C647 9 580 16 520 16 296 16 174-96 174-301v-588H20v-229h154v-266h300v266h209" id="ap"/><path fill="#333" d="M128 0v-1118h300V0H128zm150-1264c-91 0-165-68-165-154 0-85 74-154 165-154 90 0 165 69 165 154 0 86-75 154-165 154" id="aq"/><g id="r"><use transform="matrix(0.008680555555555556,0,0,0.008680555555555556,0,0)" xlink:href="#ae"/><use transform="matrix(0.008680555555555556,0,0,0.008680555555555556,11.380208333333334,0)" xlink:href="#ao"/><use transform="matrix(0.008680555555555556,0,0,0.008680555555555556,21.70138888888889,0)" xlink:href="#af"/><use transform="matrix(0.008680555555555556,0,0,0.008680555555555556,29.288194444444443,0)" xlink:href="#ap"/><use transform="matrix(0.008680555555555556,0,0,0.008680555555555556,35.79861111111111,0)" xlink:href="#aq"/><use transform="matrix(0.008680555555555556,0,0,0.008680555555555556,40.61631944444444,0)" xlink:href="#aj"/><use transform="matrix(0.008680555555555556,0,0,0.008680555555555556,51.076388888888886,0)" xlink:href="#aq"/><use transform="matrix(0.008680555555555556,0,0,0.008680555555555556,55.89409722222222,0)" xlink:href="#ae"/><use transform="matrix(0.008680555555555556,0,0,0.008680555555555556,67.27430555555556,0)" xlink:href="#ao"/><use transform="matrix(0.008680555555555556,0,0,0.008680555555555556,77.59548611111111,0)" xlink:href="#ap"/><use transform="matrix(0.008680555555555556,0,0,0.008680555555555556,83.93229166666667,0)" xlink:href="#ak"/><use transform="matrix(0.008680555555555556,0,0,0.008680555555555556,94.52256944444447,0)" xlink:href="#al"/></g></defs></g></svg>