<svg xmlns="http://www.w3.org/2000/svg" xmlns:xlink="http://www.w3.org/1999/xlink" xmlns:lucid="lucid" width="501" height="1511.54"><g transform="translate(12470 -5920)" lucid:page-tab-id="0_0"><path d="M-14500-2500h25000v16000h-25000z" fill="#fff"/><path d="M-12100 6080c0 33.14-35.82 60-80 60s-80-26.86-80-60 35.82-60 80-60 80 26.86 80 60z" stroke="#000" stroke-width="2" fill="#fff"/><use xlink:href="#a" transform="matrix(1,0,0,1,-12260,6020) translate(49.725053710937495 57.466875)"/><use xlink:href="#b" transform="matrix(1,0,0,1,-12260,6020) translate(103.4761474609375 57.466875)"/><use xlink:href="#c" transform="matrix(1,0,0,1,-12260,6020) translate(34.32964843749999 77.72162109375)"/><use xlink:href="#d" transform="matrix(1,0,0,1,-12260,6020) translate(86.3805859375 77.72162109375)"/><path d="M-12100 6268.5c0 33.14-35.82 60-80 60s-80-26.86-80-60 35.82-60 80-60 80 26.86 80 60z" stroke="#000" stroke-width="2" fill="#fff"/><use xlink:href="#a" transform="matrix(1,0,0,1,-12260,6208.5) translate(48.024897460937495 57.466875)"/><use xlink:href="#e" transform="matrix(1,0,0,1,-12260,6208.5) translate(101.77599121093749 57.466875)"/><use xlink:href="#c" transform="matrix(1,0,0,1,-12260,6208.5) translate(34.32964843749999 77.72162109375)"/><use xlink:href="#d" transform="matrix(1,0,0,1,-12260,6208.5) translate(86.3805859375 77.72162109375)"/><path d="M-12180 6141.5v49.62" stroke="#3a414a" fill="none"/><path d="M-12180 6141h.48v.5h-.95v-.5z" stroke="#3a414a" stroke-width=".05" fill="#3a414a"/><path d="M-12180 6205.88l-4.64-14.26h9.27z" stroke="#3a414a" fill="#3a414a"/><path d="M-12100 6457c0 33.14-35.82 60-80 60s-80-26.86-80-60 35.82-60 80-60 80 26.86 80 60z" stroke="#000" stroke-width="2" fill="#fff"/><use xlink:href="#f" transform="matrix(1,0,0,1,-12260,6397) translate(19.244848632812484 64.966875)"/><use xlink:href="#g" transform="matrix(1,0,0,1,-12260,6397) translate(59.72164550781249 64.966875)"/><use xlink:href="#h" transform="matrix(1,0,0,1,-12260,6397) translate(96.25865722656249 64.966875)"/><path d="M-12180 6330v49.62" stroke="#3a414a" fill="none"/><path d="M-12180 6329.5h.48v.5h-.95v-.5z" stroke="#3a414a" stroke-width=".05" fill="#3a414a"/><path d="M-12180 6394.38l-4.64-14.26h9.27z" stroke="#3a414a" fill="#3a414a"/><path d="M-12290.5 6586.74a1.24 1.24 0 0 1 1.25-1.24h218.5a1.24 1.24 0 0 1 1.25 1.24 1.24 1.24 0 0 1-1.25 1.25h-218.5a1.24 1.24 0 0 1-1.25-1.26z" stroke="#000" stroke-width="2"/><path d="M-12180 6518.5v49.62" stroke="#3a414a" fill="none"/><path d="M-12180 6518h.48v.5h-.95v-.5z" stroke="#3a414a" stroke-width=".05" fill="#3a414a"/><path d="M-12180 6582.88l-4.64-14.26h9.27z" stroke="#3a414a" fill="#3a414a"/><path d="M-12230 6720c0 33.14-35.82 60-80 60s-80-26.86-80-60 35.82-60 80-60 80 26.86 80 60z" stroke="#000" stroke-width="2" fill="#fff"/><use xlink:href="#a" transform="matrix(1,0,0,1,-12390,6660) translate(49.725053710937495 57.466875)"/><use xlink:href="#b" transform="matrix(1,0,0,1,-12390,6660) translate(103.4761474609375 57.466875)"/><use xlink:href="#i" transform="matrix(1,0,0,1,-12390,6660) translate(19.955971679687487 77.72162109375)"/><use xlink:href="#j" transform="matrix(1,0,0,1,-12390,6660) translate(91.63227050781249 77.72162109375)"/><path d="M-11970 6720c0 33.14-35.82 60-80 60s-80-26.86-80-60 35.82-60 80-60 80 26.86 80 60z" stroke="#000" stroke-width="2" fill="#fff"/><use xlink:href="#a" transform="matrix(1,0,0,1,-12130,6660) translate(48.024897460937495 57.466875)"/><use xlink:href="#e" transform="matrix(1,0,0,1,-12130,6660) translate(101.77599121093749 57.466875)"/><use xlink:href="#i" transform="matrix(1,0,0,1,-12130,6660) translate(19.955971679687487 77.72162109375)"/><use xlink:href="#j" transform="matrix(1,0,0,1,-12130,6660) translate(91.63227050781249 77.72162109375)"/><path d="M-12064.42 6651.23l-115.14-62" stroke="#3a414a" fill="none"/><path d="M-12051.42 6658.23l-14.76-2.68 4.4-8.16z" stroke="#3a414a" fill="#3a414a"/><path d="M-12179.77 6589.65l-1.23-.66h1.58z" stroke="#3a414a" stroke-width=".05" fill="#3a414a"/><path d="M-12295.58 6651.23l115.14-62" stroke="#3a414a" fill="none"/><path d="M-12308.58 6658.23l10.37-10.84 4.38 8.15z" stroke="#3a414a" fill="#3a414a"/><path d="M-12180.23 6589.65l-.35-.66h1.58z" stroke="#3a414a" stroke-width=".05" fill="#3a414a"/><path d="M-12290.5 6853.26a1.24 1.24 0 0 1 1.25-1.25h218.5a1.24 1.24 0 0 1 1.25 1.26 1.24 1.24 0 0 1-1.25 1.24h-218.5a1.24 1.24 0 0 1-1.25-1.24z" stroke="#000" stroke-width="2"/><path d="M-12309.56 6781.24l115.14 62" stroke="#3a414a" fill="none"/><path d="M-12310 6781h.58l-.35.66-1.3-.7z" stroke="#3a414a" stroke-width=".05" fill="#3a414a"/><path d="M-12181.42 6850.24l-14.76-2.68 4.4-8.16z" stroke="#3a414a" fill="#3a414a"/><path d="M-12050.44 6781.24l-115.14 62" stroke="#3a414a" fill="none"/><path d="M-12050 6781h1.02l-1.25.66-.36-.68z" stroke="#3a414a" stroke-width=".05" fill="#3a414a"/><path d="M-12178.58 6850.24l10.37-10.84 4.38 8.16z" stroke="#3a414a" fill="#3a414a"/><path d="M-12100 6986.5c0 33.15-35.82 60-80 60s-80-26.85-80-60c0-33.13 35.82-60 80-60s80 26.88 80 60z" stroke="#000" stroke-width="2" fill="#fff"/><use xlink:href="#k" transform="matrix(1,0,0,1,-12260,6926.512364491486) translate(21.758300781249996 49.966875)"/><use xlink:href="#l" transform="matrix(1,0,0,1,-12260,6926.512364491486) translate(46.99499511718749 70.22162109375)"/><use xlink:href="#m" transform="matrix(1,0,0,1,-12260,6926.512364491486) translate(100.1248779296875 70.22162109375)"/><use xlink:href="#n" transform="matrix(1,0,0,1,-12260,6926.512364491486) translate(43.660073242187494 90.4763671875)"/><path d="M-12180 6909.13V6856" stroke="#3a414a" fill="none"/><path d="M-12180 6923.9l-4.64-14.27h9.27z" stroke="#3a414a" fill="#3a414a"/><path d="M-12179.52 6856h-.95v-.5h.94z" stroke="#3a414a" stroke-width=".05" fill="#3a414a"/><path d="M-12100 7178.52c0 33.14-35.82 60-80 60s-80-26.86-80-60c0-33.13 35.82-60 80-60s80 26.87 80 60z" stroke="#000" stroke-width="2" fill="#fff"/><g><use xlink:href="#o" transform="matrix(1,0,0,1,-12260,7118.524728982971) translate(23.789497070312503 49.966875)"/><use xlink:href="#l" transform="matrix(1,0,0,1,-12260,7118.524728982971) translate(46.99499511718749 70.22162109375)"/><use xlink:href="#m" transform="matrix(1,0,0,1,-12260,7118.524728982971) translate(100.1248779296875 70.22162109375)"/><use xlink:href="#n" transform="matrix(1,0,0,1,-12260,7118.524728982971) translate(43.660073242187494 90.4763671875)"/></g><path d="M-12180 7048v53.14" stroke="#3a414a" fill="none"/><path d="M-12180 7047.5h.48v.52h-.95v-.52z" stroke="#3a414a" stroke-width=".05" fill="#3a414a"/><path d="M-12180 7115.9l-4.64-14.26h9.27z" stroke="#3a414a" fill="#3a414a"/><path d="M-12100 7370.54c0 33.13-35.82 60-80 60s-80-26.87-80-60c0-33.14 35.82-60 80-60s80 26.86 80 60z" stroke="#000" stroke-width="2" fill="#fff"/><g><use xlink:href="#p" transform="matrix(1,0,0,1,-12260,7310.537093474457) translate(40.32106445312499 64.966875)"/><use xlink:href="#q" transform="matrix(1,0,0,1,-12260,7310.537093474457) translate(80.95316406250001 64.966875)"/></g><path d="M-12180 7240.02v53.13" stroke="#3a414a" fill="none"/><path d="M-12180 7239.52h.48v.52h-.95v-.53z" stroke="#3a414a" stroke-width=".05" fill="#3a414a"/><path d="M-12180 7307.92l-4.64-14.27h9.27z" stroke="#3a414a" fill="#3a414a"/><path d="M-12261.5 7370.54h-202.5a6 6 0 0 1-6-6V6463a6 6 0 0 1 6-6h186.62" stroke="#3a414a" fill="none"/><path d="M-12261 7370.52v.49h-.5v-.94h.5z" stroke="#3a414a" stroke-width=".05" fill="#3a414a"/><path d="M-12262.62 6457l-14.26 4.64v-9.28z" stroke="#3a414a" fill="#3a414a"/><path d="M-12165 6042c0 8.28-6.72 15-15 15-8.28 0-15-6.72-15-15 0-8.28 6.72-15 15-15 8.28 0 15 6.72 15 15z" stroke="#000" stroke-width="2"/><path d="M-12309.5 5926a6 6 0 0 1 6-6h228a6 6 0 0 1 6 6v48a6 6 0 0 1-6 6h-228a6 6 0 0 1-6-6z" fill="none"/><g><use xlink:href="#r" transform="matrix(1,0,0,1,-12309.505244223126,5920) translate(88.99956597222223 38.083767361111114)"/></g><defs><path d="M180 0v-1490h510c348 0 508 209 508 474 0 266-160 477-507 477H370V0H180zm190-706h312c236 0 327-133 327-310 0-176-91-307-329-307H370v617" id="s"/><path d="M338-1490V0H158v-1490h180" id="t"/><path d="M471 26C259 26 90-98 90-318c0-256 228-303 435-329 202-27 287-16 287-108 0-139-79-219-234-219-161 0-248 86-283 164l-173-57c86-203 278-265 451-265 150 0 419 46 419 395V0H815v-152h-12C765-73 660 26 471 26zm31-159c199 0 310-134 310-271v-155c-30 35-226 55-295 64-131 17-246 59-246 186 0 116 97 176 231 176" id="u"/><path d="M140 405l46-156c120 36 205 19 263-150l32-93L54-1118h197c107 313 237 620 324 950 87-331 219-637 326-950h196L606 167c-68 178-176 259-334 259-64 0-113-12-132-21" id="v"/><path d="M628 24c-324 0-524-230-524-574 0-343 198-582 503-582 237 0 487 146 487 559v75H286c9 234 145 362 343 362 132 0 231-58 273-172l174 48C1024-91 857 24 628 24zM287-650h624c-17-190-120-322-304-322-192 0-309 151-320 322" id="w"/><path d="M158 0v-1118h174v172h12c41-113 157-188 290-188 26 0 70 2 91 3v181c-11-2-60-10-108-10-161 0-279 109-279 260V0H158" id="x"/><g id="a"><use transform="matrix(0.008173828125000001,0,0,0.008173828125000001,0,0)" xlink:href="#s"/><use transform="matrix(0.008173828125000001,0,0,0.008173828125000001,10.691367187500001,0)" xlink:href="#t"/><use transform="matrix(0.008173828125000001,0,0,0.008173828125000001,14.745585937500001,0)" xlink:href="#u"/><use transform="matrix(0.008173828125000001,0,0,0.008173828125000001,23.900273437500005,0)" xlink:href="#v"/><use transform="matrix(0.008173828125000001,0,0,0.008173828125000001,32.981396484375004,0)" xlink:href="#w"/><use transform="matrix(0.008173828125000001,0,0,0.008173828125000001,42.740947265625,0)" xlink:href="#x"/></g><path d="M653-1490V0H466v-1314h-10L96-1047v-204l324-239h233" id="y"/><use transform="matrix(0.008173828125000001,0,0,0.008173828125000001,0,0)" xlink:href="#y" id="b"/><path d="M677 24c-213 0-288-135-325-197h-20V0H158v-1490h180v551h14c37-59 106-193 324-193 279 0 474 222 474 576 0 356-194 580-473 580zm-27-161c209 0 317-186 317-421 0-232-105-413-317-413-206 0-314 166-314 413 0 249 111 421 314 421" id="z"/><path d="M537 14c-226 0-379-139-379-422v-710h180v695c0 172 97 275 253 275 160 0 281-109 281-300v-670h181V0H879v-209C806-46 684 14 537 14" id="A"/><path d="M158 0v-1118h180V0H158zm91-1301c-68 0-125-53-125-119s57-119 125-119c69 0 126 53 126 119s-57 119-126 119" id="B"/><path d="M577 24c-279 0-473-224-473-580 0-354 195-576 474-576 218 0 287 134 324 193h14v-551h180V0H922v-173h-20C865-111 790 24 577 24zm27-161c203 0 314-172 314-421 0-247-108-413-314-413-212 0-317 181-317 413 0 235 108 421 317 421" id="C"/><path d="M538 24C308 24 148-78 108-271l171-41c32 123 123 178 257 178 156 0 256-77 256-169 0-77-54-128-164-154l-186-44c-203-48-300-148-300-305 0-192 176-326 414-326 230 0 351 112 402 269l-163 42c-31-80-94-158-238-158-133 0-233 69-233 162 0 83 57 129 188 160l169 40c203 48 298 149 298 302 0 196-179 339-441 339" id="D"/><g id="c"><use transform="matrix(0.008173828125000001,0,0,0.008173828125000001,0,0)" xlink:href="#z"/><use transform="matrix(0.008173828125000001,0,0,0.008173828125000001,10.249980468750001,0)" xlink:href="#A"/><use transform="matrix(0.008173828125000001,0,0,0.008173828125000001,20.148486328125003,0)" xlink:href="#B"/><use transform="matrix(0.008173828125000001,0,0,0.008173828125000001,24.202705078125003,0)" xlink:href="#t"/><use transform="matrix(0.008173828125000001,0,0,0.008173828125000001,28.256923828125004,0)" xlink:href="#C"/><use transform="matrix(0.008173828125000001,0,0,0.008173828125000001,38.50690429687501,0)" xlink:href="#D"/></g><path d="M598-1118v154H368v674c0 100 37 144 132 144 23 0 62-6 92-12L629-6c-37 13-88 20-134 20-193 0-307-107-307-290v-688H20v-154h168v-266h180v266h230" id="E"/><path d="M158 0v-1118h175l1 205c55-151 181-225 313-225 147 0 245 90 285 228 53-141 190-228 352-228 194 0 352 125 352 384V0h-181v-749c0-161-105-225-225-225-151 0-243 103-243 244V0H807v-767c0-124-93-207-219-207-131 0-250 92-250 270V0H158" id="F"/><g id="d"><use transform="matrix(0.008173828125000001,0,0,0.008173828125000001,0,0)" xlink:href="#E"/><use transform="matrix(0.008173828125000001,0,0,0.008173828125000001,5.312988281250001,0)" xlink:href="#w"/><use transform="matrix(0.008173828125000001,0,0,0.008173828125000001,15.236015625,0)" xlink:href="#u"/><use transform="matrix(0.008173828125000001,0,0,0.008173828125000001,24.63591796875,0)" xlink:href="#F"/></g><path d="M154 0v-137l495-537c165-179 249-281 249-418 0-156-121-253-280-253-170 0-278 110-278 278H158c0-264 200-443 465-443 266 0 455 183 455 416 0 161-73 288-336 568L416-179v12h687V0H154" id="G"/><use transform="matrix(0.008173828125000001,0,0,0.008173828125000001,0,0)" xlink:href="#G" id="e"/><path d="M180 0v-1490h224l606 953c40 63 108 177 176 312-27-437-7-821-13-1265h190V0h-226C860-448 622-778 356-1262c27 476 11 792 15 1262H180" id="H"/><path d="M409 0L70-1118h191c89 329 165 560 243 925 75-353 154-601 240-925h192c85 325 161 564 235 922 77-354 157-598 244-922h191L1267 0h-179c-86-307-176-590-250-913C763-588 675-308 588 0H409" id="I"/><g id="f"><use transform="matrix(0.008173828125000001,0,0,0.008173828125000001,0,0)" xlink:href="#H"/><use transform="matrix(0.008173828125000001,0,0,0.008173828125000001,12.612216796875002,0)" xlink:href="#w"/><use transform="matrix(0.008173828125000001,0,0,0.008173828125000001,22.0693359375,0)" xlink:href="#I"/></g><path d="M338-670V0H158v-1118h173l1 207c72-158 192-221 342-221 226 0 378 139 378 422V0H872v-695c0-172-96-275-252-275-161 0-282 109-282 300" id="J"/><g id="g"><use transform="matrix(0.008173828125000001,0,0,0.008173828125000001,0,0)" xlink:href="#E"/><use transform="matrix(0.008173828125000001,0,0,0.008173828125000001,5.4764648437500005,0)" xlink:href="#A"/><use transform="matrix(0.008173828125000001,0,0,0.008173828125000001,15.374970703125001,0)" xlink:href="#x"/><use transform="matrix(0.008173828125000001,0,0,0.008173828125000001,21.9385546875,0)" xlink:href="#J"/></g><g id="h"><use transform="matrix(0.008173828125000001,0,0,0.008173828125000001,0,0)" xlink:href="#D"/><use transform="matrix(0.008173828125000001,0,0,0.008173828125000001,8.835908203125001,0)" xlink:href="#E"/><use transform="matrix(0.008173828125000001,0,0,0.008173828125000001,14.394111328125003,0)" xlink:href="#u"/><use transform="matrix(0.008173828125000001,0,0,0.008173828125000001,23.794013671875007,0)" xlink:href="#x"/><use transform="matrix(0.008173828125000001,0,0,0.008173828125000001,30.357597656250007,0)" xlink:href="#E"/><use transform="matrix(0.008173828125000001,0,0,0.008173828125000001,35.67058593750001,0)" xlink:href="#D"/></g><path d="M613 24c-304 0-509-231-509-576 0-350 205-580 509-580 216 0 392 114 453 309l-173 49c-33-115-133-197-280-197-223 0-326 196-326 419 0 220 103 415 326 415 150 0 252-85 285-206l172 49C1010-95 832 24 613 24" id="K"/><path d="M338-670V0H158v-1490h180v566c73-149 190-208 336-208 226 0 379 139 379 422V0H872v-695c0-172-96-275-252-275-161 0-282 109-282 300" id="L"/><path d="M613 24c-304 0-509-231-509-576 0-350 205-580 509-580 305 0 511 230 511 580 0 345-206 576-511 576zm0-161c226 0 329-195 329-415 0-222-103-419-329-419-223 0-326 196-326 419 0 220 103 415 326 415" id="M"/><g id="i"><use transform="matrix(0.008173828125000001,0,0,0.008173828125000001,0,0)" xlink:href="#K"/><use transform="matrix(0.008173828125000001,0,0,0.008173828125000001,9.563378906250001,0)" xlink:href="#L"/><use transform="matrix(0.008173828125000001,0,0,0.008173828125000001,19.461884765625,0)" xlink:href="#M"/><use transform="matrix(0.008173828125000001,0,0,0.008173828125000001,29.499345703125005,0)" xlink:href="#M"/><use transform="matrix(0.008173828125000001,0,0,0.008173828125000001,39.536806640625,0)" xlink:href="#D"/><use transform="matrix(0.008173828125000001,0,0,0.008173828125000001,48.37271484375,0)" xlink:href="#w"/><use transform="matrix(0.008173828125000001,0,0,0.008173828125000001,58.132265625,0)" xlink:href="#D"/></g><g id="j"><use transform="matrix(0.008173828125000001,0,0,0.008173828125000001,0,0)" xlink:href="#u"/><use transform="matrix(0.008173828125000001,0,0,0.008173828125000001,9.399902343750002,0)" xlink:href="#K"/><use transform="matrix(0.008173828125000001,0,0,0.008173828125000001,18.96328125,0)" xlink:href="#E"/><use transform="matrix(0.008173828125000001,0,0,0.008173828125000001,24.439746093750003,0)" xlink:href="#B"/><use transform="matrix(0.008173828125000001,0,0,0.008173828125000001,28.493964843750003,0)" xlink:href="#M"/><use transform="matrix(0.008173828125000001,0,0,0.008173828125000001,38.53142578125001,0)" xlink:href="#J"/></g><path d="M180 0v-1490h190v644h782v-644h190V0h-190v-678H370V0H180" id="N"/><path d="M611 442c-248 0-391-105-460-228l146-94c47 65 117 165 314 165 178 0 307-82 307-266v-224h-17C863-141 792-18 576-18c-268 0-472-195-472-546 0-346 197-568 476-568 216 0 288 133 326 193h17v-179h175V29c0 289-215 413-487 413zm-5-620c203 0 314-146 314-390 0-237-108-403-314-403-213 0-319 180-319 403 0 230 109 390 319 390" id="O"/><path d="M798-719v166H144v-166h654" id="P"/><path d="M158 418v-1536h174v179h20c37-59 106-193 324-193 279 0 474 222 474 576 0 356-194 580-473 580-213 0-288-135-325-197h-14v591H158zm492-555c209 0 317-186 317-421 0-232-105-413-317-413-206 0-314 166-314 413 0 249 111 421 314 421" id="Q"/><g id="k"><use transform="matrix(0.008173828125000001,0,0,0.008173828125000001,0,0)" xlink:href="#N"/><use transform="matrix(0.008173828125000001,0,0,0.008173828125000001,12.440566406250001,0)" xlink:href="#B"/><use transform="matrix(0.008173828125000001,0,0,0.008173828125000001,16.494785156250003,0)" xlink:href="#O"/><use transform="matrix(0.008173828125000001,0,0,0.008173828125000001,26.761113281250005,0)" xlink:href="#L"/><use transform="matrix(0.008173828125000001,0,0,0.008173828125000001,36.659619140625004,0)" xlink:href="#w"/><use transform="matrix(0.008173828125000001,0,0,0.008173828125000001,46.419169921875,0)" xlink:href="#x"/><use transform="matrix(0.008173828125000001,0,0,0.008173828125000001,52.059111328125,0)" xlink:href="#P"/><use transform="matrix(0.008173828125000001,0,0,0.008173828125000001,59.758857421875,0)" xlink:href="#Q"/><use transform="matrix(0.008173828125000001,0,0,0.008173828125000001,70.008837890625,0)" xlink:href="#x"/><use transform="matrix(0.008173828125000001,0,0,0.008173828125000001,76.572421875,0)" xlink:href="#B"/><use transform="matrix(0.008173828125000001,0,0,0.008173828125000001,80.62664062500001,0)" xlink:href="#M"/><use transform="matrix(0.008173828125000001,0,0,0.008173828125000001,90.66410156250001,0)" xlink:href="#x"/><use transform="matrix(0.008173828125000001,0,0,0.008173828125000001,97.22768554687501,0)" xlink:href="#B"/><use transform="matrix(0.008173828125000001,0,0,0.008173828125000001,101.28190429687501,0)" xlink:href="#E"/><use transform="matrix(0.008173828125000001,0,0,0.008173828125000001,107.08532226562501,0)" xlink:href="#v"/></g><g id="l"><use transform="matrix(0.008173828125000001,0,0,0.008173828125000001,0,0)" xlink:href="#u"/><use transform="matrix(0.008173828125000001,0,0,0.008173828125000001,9.399902343750002,0)" xlink:href="#K"/><use transform="matrix(0.008173828125000001,0,0,0.008173828125000001,18.96328125,0)" xlink:href="#E"/><use transform="matrix(0.008173828125000001,0,0,0.008173828125000001,24.439746093750003,0)" xlink:href="#B"/><use transform="matrix(0.008173828125000001,0,0,0.008173828125000001,28.493964843750003,0)" xlink:href="#M"/><use transform="matrix(0.008173828125000001,0,0,0.008173828125000001,38.53142578125001,0)" xlink:href="#J"/></g><g id="m"><use transform="matrix(0.008173828125000001,0,0,0.008173828125000001,0,0)" xlink:href="#B"/><use transform="matrix(0.008173828125000001,0,0,0.008173828125000001,4.05421875,0)" xlink:href="#D"/></g><path d="M65 0l393-574-370-544h210c88 136 192 297 267 435 67-142 176-302 264-435h206L661-564 1053 0H844c-94-144-206-310-287-458C484-308 366-142 273 0H65" id="R"/><g id="n"><use transform="matrix(0.008173828125000001,0,0,0.008173828125000001,0,0)" xlink:href="#w"/><use transform="matrix(0.008173828125000001,0,0,0.008173828125000001,9.383554687500002,0)" xlink:href="#R"/><use transform="matrix(0.008173828125000001,0,0,0.008173828125000001,18.1458984375,0)" xlink:href="#w"/><use transform="matrix(0.008173828125000001,0,0,0.008173828125000001,27.90544921875,0)" xlink:href="#K"/><use transform="matrix(0.008173828125000001,0,0,0.008173828125000001,37.468828125,0)" xlink:href="#A"/><use transform="matrix(0.008173828125000001,0,0,0.008173828125000001,47.367333984375,0)" xlink:href="#E"/><use transform="matrix(0.008173828125000001,0,0,0.008173828125000001,52.680322265625,0)" xlink:href="#w"/><use transform="matrix(0.008173828125000001,0,0,0.008173828125000001,62.439873046875,0)" xlink:href="#C"/></g><path d="M180 0v-1490h190v1322h690V0H180" id="S"/><g id="o"><use transform="matrix(0.008173828125000001,0,0,0.008173828125000001,0,0)" xlink:href="#S"/><use transform="matrix(0.008173828125000001,0,0,0.008173828125000001,9.465292968750001,0)" xlink:href="#M"/><use transform="matrix(0.008173828125000001,0,0,0.008173828125000001,19.200322265625,0)" xlink:href="#I"/><use transform="matrix(0.008173828125000001,0,0,0.008173828125000001,32.597226562500005,0)" xlink:href="#w"/><use transform="matrix(0.008173828125000001,0,0,0.008173828125000001,42.356777343750004,0)" xlink:href="#x"/><use transform="matrix(0.008173828125000001,0,0,0.008173828125000001,47.99671875,0)" xlink:href="#P"/><use transform="matrix(0.008173828125000001,0,0,0.008173828125000001,55.69646484375,0)" xlink:href="#Q"/><use transform="matrix(0.008173828125000001,0,0,0.008173828125000001,65.9464453125,0)" xlink:href="#x"/><use transform="matrix(0.008173828125000001,0,0,0.008173828125000001,72.510029296875,0)" xlink:href="#B"/><use transform="matrix(0.008173828125000001,0,0,0.008173828125000001,76.56424804687501,0)" xlink:href="#M"/><use transform="matrix(0.008173828125000001,0,0,0.008173828125000001,86.60170898437501,0)" xlink:href="#x"/><use transform="matrix(0.008173828125000001,0,0,0.008173828125000001,93.16529296875001,0)" xlink:href="#B"/><use transform="matrix(0.008173828125000001,0,0,0.008173828125000001,97.21951171875001,0)" xlink:href="#E"/><use transform="matrix(0.008173828125000001,0,0,0.008173828125000001,103.02292968750001,0)" xlink:href="#v"/></g><path d="M98-1322v-168h1126v168H757V0H567v-1322H98" id="T"/><g id="p"><use transform="matrix(0.008173828125000001,0,0,0.008173828125000001,0,0)" xlink:href="#T"/><use transform="matrix(0.008173828125000001,0,0,0.008173828125000001,9.571552734375,0)" xlink:href="#A"/><use transform="matrix(0.008173828125000001,0,0,0.008173828125000001,19.470058593750004,0)" xlink:href="#x"/><use transform="matrix(0.008173828125000001,0,0,0.008173828125000001,26.033642578125004,0)" xlink:href="#J"/></g><g id="q"><use transform="matrix(0.008173828125000001,0,0,0.008173828125000001,0,0)" xlink:href="#w"/><use transform="matrix(0.008173828125000001,0,0,0.008173828125000001,9.75955078125,0)" xlink:href="#J"/><use transform="matrix(0.008173828125000001,0,0,0.008173828125000001,19.649882812500003,0)" xlink:href="#C"/><use transform="matrix(0.008173828125000001,0,0,0.008173828125000001,29.899863281250006,0)" xlink:href="#D"/></g><path d="M711 0l68-411H407L340 0H189l67-411H34l25-150h222l60-366H122l25-152h219l67-411h151l-67 411h372l68-411h151l-67 411h220l-23 152h-222l-60 366h219l-25 150H931L864 0H711zM432-561h372l60-366H492" id="U"/><g id="r"><use transform="matrix(0.010850694444444444,0,0,0.010850694444444444,0,0)" xlink:href="#U"/><use transform="matrix(0.010850694444444444,0,0,0.010850694444444444,14.073350694444445,0)" xlink:href="#Q"/><use transform="matrix(0.010850694444444444,0,0,0.010850694444444444,27.68012152777778,0)" xlink:href="#w"/><use transform="matrix(0.010850694444444444,0,0,0.010850694444444444,40.63585069444444,0)" xlink:href="#E"/><use transform="matrix(0.010850694444444444,0,0,0.010850694444444444,47.90581597222222,0)" xlink:href="#x"/><use transform="matrix(0.010850694444444444,0,0,0.010850694444444444,56.61892361111111,0)" xlink:href="#B"/></g></defs></g></svg>