<svg xmlns="http://www.w3.org/2000/svg" xmlns:xlink="http://www.w3.org/1999/xlink" xmlns:lucid="lucid" width="2212" height="1032"><g transform="translate(7009.873045265075 -2765.054659804261)" lucid:page-tab-id="0_0"><path d="M-5288.87 3663.05a6 6 0 0 1 6-6h408a6 6 0 0 1 6 6v127a6 6 0 0 1-6 6h-408a6 6 0 0 1-6-6z" stroke="#000" stroke-width="2" fill="#fff"/><path d="M-5288.87 3699.94h420" stroke="#000" stroke-width="2" fill="none"/><use xlink:href="#a" transform="matrix(1,0,0,1,-5280.873045265075,3665.054659804261) translate(151.33268229166669 21.58376736111111)"/><use xlink:href="#b" transform="matrix(1,0,0,1,-5276.873045265075,3707.9426806375945) translate(0 32.450954861111114)"/><use xlink:href="#c" transform="matrix(1,0,0,1,-5276.873045265075,3707.9426806375945) translate(20.95269097222222 32.450954861111114)"/><use xlink:href="#d" transform="matrix(1,0,0,1,-5276.873045265075,3707.9426806375945) translate(260.44921874999994 32.450954861111114)"/><use xlink:href="#e" transform="matrix(1,0,0,1,-5276.873045265075,3707.9426806375945) translate(307.5737847222222 32.450954861111114)"/><use xlink:href="#b" transform="matrix(1,0,0,1,-5276.873045265075,3707.9426806375945) translate(0 64.71657986111111)"/><use xlink:href="#f" transform="matrix(1,0,0,1,-5276.873045265075,3707.9426806375945) translate(20.95269097222222 64.71657986111111)"/><use xlink:href="#d" transform="matrix(1,0,0,1,-5276.873045265075,3707.9426806375945) translate(258.5394965277777 64.71657986111111)"/><use xlink:href="#g" transform="matrix(1,0,0,1,-5276.873045265075,3707.9426806375945) translate(305.66406249999994 64.71657986111111)"/><path d="M-5358.87 3323.05a6 6 0 0 1 6-6h148a6 6 0 0 1 6 6v54a6 6 0 0 1-6 6h-148a6 6 0 0 1-6-6z" stroke="#000" stroke-width="2" fill="#fff"/><use xlink:href="#h" transform="matrix(1,0,0,1,-5350.873045265075,3325.054659804261) translate(42.193142361111114 33.083767361111114)"/><path d="M-5158.87 3323.05a6 6 0 0 1 6-6h148a6 6 0 0 1 6 6v54a6 6 0 0 1-6 6h-148a6 6 0 0 1-6-6z" stroke="#000" stroke-width="2" fill="#fff"/><use xlink:href="#i" transform="matrix(1,0,0,1,-5150.873045265075,3325.054659804261) translate(-5.940538194444443 33.083767361111114)"/><path d="M-4958.87 3323.05a6 6 0 0 1 6-6h148a6 6 0 0 1 6 6v54a6 6 0 0 1-6 6h-148a6 6 0 0 1-6-6z" stroke="#000" stroke-width="2" fill="#fff"/><use xlink:href="#j" transform="matrix(1,0,0,1,-4950.873045265075,3325.054659804261) translate(39.08441840277778 33.083767361111114)"/><path d="M-5198.87 3063.05a6 6 0 0 1 6-6h228a6 6 0 0 1 6 6v108a6 6 0 0 1-6 6h-228a6 6 0 0 1-6-6z" stroke="#000" stroke-width="2" fill="#fff"/><path d="M-5198.87 3098.87h240" stroke="#000" stroke-width="2" fill="none"/><use xlink:href="#k" transform="matrix(1,0,0,1,-5190.873045265075,3065.054659804261) translate(39.36458333333333 20.760416666666668)"/><use xlink:href="#l" transform="matrix(1,0,0,1,-5186.873045265075,3106.867159804261) translate(0 39.083767361111114)"/><use xlink:href="#m" transform="matrix(1,0,0,1,-5186.873045265075,3106.867159804261) translate(20.95269097222222 39.083767361111114)"/><path d="M-5078.87 3194.44v7.77m0 7.78v15.54m0 7.76v7.77a6 6 0 0 1-6 6h-10.45m-10.44 0h-20.9m-10.44 0h-20.88m-10.45 0h-20.9m-10.43 0h-20.9m-10.44 0h-20.88m-10.45 0h-10.44a6 6 0 0 0-6 6v10.42m0 10.42v20.82m0 10.42v10.4" stroke="#3a414a" fill="none"/><path d="M-5078.87 3179.67l4.63 14.27h-9.27z" stroke="#3a414a" fill="#fff"/><path d="M-5278.4 3316.05h-.95v-.5h.95z" stroke="#3a414a" stroke-width=".05" fill="#3a414a"/><path d="M-5078.87 3194.44v10.1m0 10.1v20.17m0 10.1v20.2m0 10.08v20.2m0 10.08v10.1" stroke="#3a414a" fill="none"/><path d="M-5078.87 3179.67l4.63 14.27h-9.27z" stroke="#3a414a" fill="#fff"/><path d="M-5078.4 3316.05h-.95v-.5h.95z" stroke="#3a414a" stroke-width=".05" fill="#3a414a"/><path d="M-5078.87 3194.44v7.77m0 7.78v15.54m0 7.76v7.77a6 6 0 0 0 6 6h10.44m10.45 0h20.88m10.45 0h20.9m10.43 0h20.9m10.44 0h20.88m10.45 0h20.9m10.43 0h10.45a6 6 0 0 1 6 6v10.42m0 10.42v20.82m0 10.42v10.4" stroke="#3a414a" fill="none"/><path d="M-5078.87 3179.67l4.63 14.27h-9.27z" stroke="#3a414a" fill="#fff"/><path d="M-4878.4 3316.05h-.95v-.5h.95z" stroke="#3a414a" stroke-width=".05" fill="#3a414a"/><path d="M-5078.87 3639.67v-9.47m0-9.46v-18.94m0-9.47v-18.93m0-9.47V3545m0-9.48v-9.47a6 6 0 0 0-6-6h-10.45m-10.44 0h-20.9m-10.44 0h-20.88m-10.45 0h-20.9m-10.43 0h-20.9m-10.44 0h-20.88m-10.45 0h-10.44a6 6 0 0 1-6-6v-10.8m0-10.78v-21.58m0-10.8v-21.6m0-10.78v-21.58m0-10.8v-10.8" stroke="#3a414a" fill="none"/><path d="M-5078.87 3654.44l-4.64-14.27h9.26z" stroke="#3a414a" fill="#fff"/><path d="M-5278.4 3384.57h-.95v-.52h.95z" stroke="#3a414a" stroke-width=".05" fill="#3a414a"/><path d="M-5078.87 3639.67v-9.45m0-9.45v-18.9m0-9.44v-18.9m0-9.45v-18.9m0-9.44v-18.9m0-9.45v-18.9m0-9.46v-18.9m0-9.44v-18.9m0-9.45v-18.9m0-9.45v-9.45" stroke="#3a414a" fill="none"/><path d="M-5078.87 3654.44l-4.64-14.27h9.26z" stroke="#3a414a" fill="#fff"/><path d="M-5078.4 3384.57h-.95v-.52h.95z" stroke="#3a414a" stroke-width=".05" fill="#3a414a"/><path d="M-5078.87 3639.67v-9.47m0-9.46v-18.94m0-9.47v-18.93m0-9.47V3545m0-9.48v-9.47a6 6 0 0 1 6-6h10.44m10.45 0h20.88m10.45 0h20.9m10.43 0h20.9m10.44 0h20.88m10.45 0h20.9m10.43 0h10.45a6 6 0 0 0 6-6v-10.8m0-10.78v-21.58m0-10.8v-21.6m0-10.78v-21.58m0-10.8v-10.8" stroke="#3a414a" fill="none"/><path d="M-5078.87 3654.44l-4.64-14.27h9.26z" stroke="#3a414a" fill="#fff"/><path d="M-4878.4 3384.57h-.95v-.52h.95z" stroke="#3a414a" stroke-width=".05" fill="#3a414a"/><path d="M-5768.87 3389.05a6 6 0 0 1 6-6h328a6 6 0 0 1 6 6v108a6 6 0 0 1-6 6h-328a6 6 0 0 1-6-6zm34-6v120m272-120v120" stroke="#000" stroke-width="2" fill="#fff"/><use xlink:href="#n" transform="matrix(1,0,0,1,-5726.373045265075,3383.054659804261) translate(-2.0464409722222 68.08376736111111)"/><path d="M-5418.43 3443.05h9.78m9.78 0h19.56m9.77 0h19.56m9.78 0h19.57m9.78 0h19.55m9.78 0h19.56m9.78 0h19.56m9.78 0h19.56m9.78 0h19.56m9.78 0h19.56m9.78 0h19.56m9.78 0h19.55m9.78 0h19.56m9.8 0h19.55m9.78 0h19.56m9.77 0h19.56m9.78 0h19.57m9.78 0h9.78a6 6 0 0 0 6-6v-8.75m0-8.75v-17.5m0-8.75v-8.75M-5409.55 3453.05l-17.32-10 17.32-10m-17.32 10h8.5" stroke="#3a414a" fill="none"/><path d="M-4913.2 3384.57h-.95v-.52h.95z" stroke="#3a414a" stroke-width=".05" fill="#3a414a"/><path d="M-5418.43 3443.05h11.57m11.56 0h23.13m11.57 0h23.13m11.57 0h11.56a6 6 0 0 0 6-6v-8.75m0-8.75v-17.5m0-8.75v-8.75M-5409.55 3453.05l-17.32-10 17.32-10m-17.32 10h8.5" stroke="#3a414a" fill="none"/><path d="M-5307.86 3384.57h-.95v-.52h.94z" stroke="#3a414a" stroke-width=".05" fill="#3a414a"/><path d="M-5418.43 3443.05h10.14m10.14 0h20.28m10.13 0h20.27m10.14 0h20.27m10.14 0h20.27m10.14 0h20.27m10.14 0h20.26m10.14 0h20.27m10.14 0h20.28m10.14 0h20.27m10.12 0h10.14a6 6 0 0 0 6-6v-8.75m0-8.75v-17.5m0-8.75v-8.75M-5409.55 3453.05l-17.32-10 17.32-10m-17.32 10h8.5" stroke="#3a414a" fill="none"/><path d="M-5107.86 3384.57h-.95v-.52h.94z" stroke="#3a414a" stroke-width=".05" fill="#3a414a"/><path d="M-6208.87 3063.05a6 6 0 0 1 6-6h228a6 6 0 0 1 6 6v108a6 6 0 0 1-6 6h-228a6 6 0 0 1-6-6z" stroke="#000" stroke-width="2" fill="#fff"/><path d="M-6208.87 3098.87h240" stroke="#000" stroke-width="2" fill="none"/><use xlink:href="#o" transform="matrix(1,0,0,1,-6200.873045265075,3065.054659804261) translate(18.593750000000014 20.760416666666668)"/><use xlink:href="#l" transform="matrix(1,0,0,1,-6196.873045265075,3106.867159804261) translate(0 39.083767361111114)"/><use xlink:href="#m" transform="matrix(1,0,0,1,-6196.873045265075,3106.867159804261) translate(20.95269097222222 39.083767361111114)"/><path d="M-5668.87 3085.05a6 6 0 0 1 6-6h170.45a6 6 0 0 1 6 6v64a6 6 0 0 1-6 6h-170.45a6 6 0 0 1-6-6z" stroke="#000" stroke-width="2" fill="#fff"/><use xlink:href="#p" transform="matrix(1,0,0,1,-5660.873045265075,3087.054659804261) translate(48.44140625 38.083767361111114)"/><path d="M-5469.03 3117.05h9.95m9.95 0h19.9m9.95 0h19.9m9.95 0h19.9m9.95 0h19.9m9.95 0h19.9m9.95 0h19.9m9.95 0h19.9m9.95 0h19.9m9.96 0h9.95" stroke="#3a414a" fill="none"/><path d="M-5483.8 3117.05l14.27-4.63v9.27z" stroke="#3a414a" fill="#fff"/><path d="M-5199.87 3117.53h-.52v-.95h.53z" stroke="#3a414a" stroke-width=".05" fill="#3a414a"/><path d="M-5686.26 3117.05h-10.4m-10.42 0h-20.82m-10.4 0h-20.84m-10.4 0h-20.83m-10.42 0h-20.8m-10.42 0h-20.82m-10.42 0h-20.82m-10.4 0h-20.84m-10.4 0h-20.83m-10.4 0h-10.42" stroke="#3a414a" fill="none"/><path d="M-5671.5 3117.05l-14.26 4.64v-9.28z" stroke="#3a414a" fill="#fff"/><path d="M-5967.36 3117.53h-.5v-.95h.5z" stroke="#3a414a" stroke-width=".05" fill="#3a414a"/><path d="M-6408.87 3323.05a6 6 0 0 1 6-6h148a6 6 0 0 1 6 6v54a6 6 0 0 1-6 6h-148a6 6 0 0 1-6-6z" stroke="#000" stroke-width="2" fill="#fff"/><use xlink:href="#q" transform="matrix(1,0,0,1,-6400.873045265075,3325.054659804261) translate(25.09244791666667 33.083767361111114)"/><path d="M-6208.87 3323.05a6 6 0 0 1 6-6h148a6 6 0 0 1 6 6v54a6 6 0 0 1-6 6h-148a6 6 0 0 1-6-6z" stroke="#000" stroke-width="2" fill="#fff"/><use xlink:href="#r" transform="matrix(1,0,0,1,-6200.873045265075,3325.054659804261) translate(35.113064236111114 33.083767361111114)"/><path d="M-6008.87 3323.05a6 6 0 0 1 6-6h148a6 6 0 0 1 6 6v54a6 6 0 0 1-6 6h-148a6 6 0 0 1-6-6z" stroke="#000" stroke-width="2" fill="#fff"/><use xlink:href="#s" transform="matrix(1,0,0,1,-6000.873045265075,3325.054659804261) translate(41.47157118055556 33.083767361111114)"/><path d="M-7008.87 3323.05a6 6 0 0 1 6-6h148a6 6 0 0 1 6 6v54a6 6 0 0 1-6 6h-148a6 6 0 0 1-6-6z" stroke="#000" stroke-width="2" fill="#fff"/><use xlink:href="#t" transform="matrix(1,0,0,1,-7000.873045265075,3325.054659804261) translate(4.465277777777786 33.083767361111114)"/><path d="M-6808.87 3323.05a6 6 0 0 1 6-6h148a6 6 0 0 1 6 6v54a6 6 0 0 1-6 6h-148a6 6 0 0 1-6-6z" stroke="#000" stroke-width="2" fill="#fff"/><use xlink:href="#u" transform="matrix(1,0,0,1,-6800.873045265075,3325.054659804261) translate(46.20789930555556 33.083767361111114)"/><path d="M-6608.87 3323.05a6 6 0 0 1 6-6h148a6 6 0 0 1 6 6v54a6 6 0 0 1-6 6h-148a6 6 0 0 1-6-6z" stroke="#000" stroke-width="2" fill="#fff"/><use xlink:href="#v" transform="matrix(1,0,0,1,-6600.873045265075,3325.054659804261) translate(35.666449652777786 33.083767361111114)"/><path d="M-5786.26 3443.05h-9.1m-9.1 0h-18.23m-9.1 0h-18.2m-9.12 0h-18.2m-9.12 0h-18.22m-9.1 0h-9.1a6 6 0 0 1-6-6v-8.75m0-8.75v-17.5m0-8.75v-8.75" stroke="#3a414a" fill="none"/><path d="M-5771.5 3443.05l-14.26 4.64v-9.28z" stroke="#3a414a" fill="#fff"/><path d="M-5928.4 3384.57h-.95v-.52h.95z" stroke="#3a414a" stroke-width=".05" fill="#3a414a"/><path d="M-5786.26 3443.05h-10.2m-10.2 0h-20.4m-10.2 0h-20.4m-10.2 0h-20.4m-10.2 0h-20.4m-10.2 0h-20.4m-10.2 0h-20.4m-10.2 0h-20.4m-10.2 0h-20.4m-10.2 0h-20.4m-10.2 0h-20.4m-10.2 0h-10.2a6 6 0 0 1-6-6v-8.75m0-8.75v-17.5m0-8.75v-8.75" stroke="#3a414a" fill="none"/><path d="M-5771.5 3443.05l-14.26 4.64v-9.28z" stroke="#3a414a" fill="#fff"/><path d="M-6128.4 3384.57h-.95v-.52h.95z" stroke="#3a414a" stroke-width=".05" fill="#3a414a"/><path d="M-5786.26 3443.05h-9.93m-9.93 0H-5826m-9.94 0h-19.88m-9.94 0h-19.87m-9.94 0h-19.87m-9.94 0h-19.87m-9.94 0h-19.87m-9.93 0h-19.88m-9.94 0h-19.87m-9.93 0h-19.87m-9.94 0h-19.87m-9.95 0h-19.88m-9.93 0h-19.88m-9.94 0h-19.87m-9.94 0h-19.86m-9.94 0h-19.87m-9.94 0h-19.9m-9.92 0H-6303m-9.94 0h-9.93a6 6 0 0 1-6-6v-8.75m0-8.75v-17.5m0-8.75v-8.75" stroke="#3a414a" fill="none"/><path d="M-5771.5 3443.05l-14.26 4.64v-9.28z" stroke="#3a414a" fill="#fff"/><path d="M-6328.4 3384.57h-.95v-.52h.95z" stroke="#3a414a" stroke-width=".05" fill="#3a414a"/><path d="M-5786.26 3443.05h-9.82m-9.82 0h-19.64m-9.82 0H-5855m-9.83 0h-19.64m-9.82 0h-19.64m-9.82 0h-19.64m-9.82 0h-19.65m-9.82 0h-19.63m-9.82 0h-19.65m-9.82 0h-19.64m-9.82 0h-19.65m-9.82 0h-19.64m-9.8 0h-19.65m-9.83 0h-19.64m-9.82 0h-19.64m-9.82 0h-19.65m-9.82 0h-19.64m-9.83 0h-19.65m-9.82 0h-19.64m-9.82 0h-19.65m-9.83 0h-19.64m-9.82 0h-19.64m-9.82 0h-19.64m-9.82 0h-19.65m-9.82 0h-19.63m-9.82 0h-9.82a6 6 0 0 1-6-6v-8.75m0-8.75v-17.5m0-8.75v-8.75" stroke="#3a414a" fill="none"/><path d="M-5771.5 3443.05l-14.26 4.64v-9.28z" stroke="#3a414a" fill="#fff"/><path d="M-6528.4 3384.57h-.95v-.52h.95z" stroke="#3a414a" stroke-width=".05" fill="#3a414a"/><path d="M-5786.26 3443.05h-10.07m-10.07 0h-20.14m-10.07 0h-20.15m-10.08 0h-20.14m-10.07 0h-20.14m-10.07 0h-20.15m-10.07 0h-20.14m-10.08 0h-20.14m-10.07 0h-20.14m-10.07 0h-20.15m-10.07 0h-20.14m-10.07 0h-20.15m-10.07 0h-20.14m-10.06 0h-20.14m-10.07 0h-20.15m-10.07 0h-20.13m-10.07 0h-20.14m-10.07 0h-20.16m-10.07 0h-20.14m-10.07 0h-20.14m-10.07 0h-20.15m-10.07 0h-20.14m-10.08 0h-20.14m-10.07 0h-20.14m-10.07 0h-20.15m-10.07 0h-20.14m-10.07 0h-20.15m-10.07 0h-20.14m-10.06 0h-20.14m-10.07 0h-20.15m-10.07 0h-20.13m-10.07 0h-10.07a6 6 0 0 1-6-6v-8.75m0-8.75v-17.5m0-8.75v-8.75" stroke="#3a414a" fill="none"/><path d="M-5771.5 3443.05l-14.26 4.64v-9.28z" stroke="#3a414a" fill="#fff"/><path d="M-6728.4 3384.57h-.95v-.52h.95z" stroke="#3a414a" stroke-width=".05" fill="#3a414a"/><path d="M-5786.26 3443.05h-9.97m-9.97 0h-19.94m-9.97 0h-19.95m-9.97 0h-19.94m-9.97 0h-19.94m-9.97 0h-19.94m-9.97 0h-19.94m-9.96 0h-19.94m-9.97 0h-19.95m-9.96 0h-19.95m-9.97 0h-19.94m-9.97 0h-19.95m-9.97 0h-19.94m-9.97 0h-19.94m-9.97 0h-19.94m-9.97 0h-19.94m-9.96 0h-19.94m-9.97 0h-19.94m-9.98 0h-19.94m-9.98 0h-19.93m-9.98 0h-19.95m-9.97 0h-19.94m-9.97 0h-19.94m-9.97 0h-19.94m-9.97 0h-19.94m-9.96 0H-6544m-9.97 0h-19.94m-9.98 0h-19.94m-9.97 0h-19.93m-9.97 0h-19.95m-9.97 0h-19.94m-9.97 0h-19.94m-9.97 0h-19.94m-9.97 0h-19.94m-9.96 0h-19.94m-9.97 0h-19.94m-9.98 0h-19.94m-9.97 0h-19.93m-9.97 0h-9.97a6 6 0 0 1-6-6v-8.75m0-8.75v-17.5m0-8.75v-8.75" stroke="#3a414a" fill="none"/><path d="M-5771.5 3443.05l-14.26 4.64v-9.28z" stroke="#3a414a" fill="#fff"/><path d="M-6928.4 3384.57h-.95v-.52h.95z" stroke="#3a414a" stroke-width=".05" fill="#3a414a"/><path d="M-5928.87 3315.55v-10.4m0-10.43v-20.83m0-10.43v-10.4a6 6 0 0 0-6-6.02h-9.87m-9.87 0h-19.74m-9.87 0h-19.74m-9.87 0h-19.74m-9.87 0h-19.74m-9.87 0h-9.87a6 6 0 0 1-6-6v-7.77m0-7.76v-15.54m0-7.77v-7.76" stroke="#3a414a" fill="none"/><path d="M-5928.4 3316.05h-.95v-.5h.95z" stroke="#3a414a" stroke-width=".05" fill="#3a414a"/><path d="M-6088.87 3179.67l4.63 14.27h-9.27z" stroke="#3a414a" fill="#fff"/><path d="M-6128.87 3315.55v-10.4m0-10.43v-20.83m0-10.43v-10.4a6 6 0 0 1 6-6.02h9.33m9.33 0h9.33a6 6 0 0 0 6-6v-7.77m0-7.76v-15.54m0-7.77v-7.76" stroke="#3a414a" fill="none"/><path d="M-6128.4 3316.05h-.95v-.5h.95z" stroke="#3a414a" stroke-width=".05" fill="#3a414a"/><path d="M-6088.87 3179.67l4.63 14.27h-9.27z" stroke="#3a414a" fill="#fff"/><path d="M-6328.87 3315.55v-10.4m0-10.43v-20.83m0-10.43v-10.4a6 6 0 0 1 6-6.02h9.5m9.5 0h19m9.5 0h19m9.5 0h19m9.5 0h19m9.5 0h19m9.5 0h19m9.5 0h19m9.5 0h9.5a6 6 0 0 0 6-6v-7.77m0-7.76v-15.54m0-7.77v-7.76" stroke="#3a414a" fill="none"/><path d="M-6328.4 3316.05h-.95v-.5h.95z" stroke="#3a414a" stroke-width=".05" fill="#3a414a"/><path d="M-6088.87 3179.67l4.63 14.27h-9.27z" stroke="#3a414a" fill="#fff"/><path d="M-6528.87 3315.55v-10.4m0-10.43v-20.83m0-10.43v-10.4a6 6 0 0 1 6-6.02h10.2m10.18 0h20.4m10.18 0h20.38m10.2 0h20.37m10.2 0h20.37m10.2 0h20.38m10.18 0h20.4m10.18 0h20.38m10.2 0h20.37m10.18 0h20.38m10.2 0h20.37m10.2 0h20.37m10.2 0h20.38m10.18 0h20.4m10.18 0h10.2a6 6 0 0 0 6-6v-7.77m0-7.76v-15.54m0-7.77v-7.76" stroke="#3a414a" fill="none"/><path d="M-6528.4 3316.05h-.95v-.5h.95z" stroke="#3a414a" stroke-width=".05" fill="#3a414a"/><path d="M-6088.87 3179.67l4.63 14.27h-9.27z" stroke="#3a414a" fill="#fff"/><path d="M-6728.87 3315.55v-10.4m0-10.43v-20.83m0-10.43v-10.4a6 6 0 0 1 6-6.02h9.97m9.96 0h19.94m9.97 0h19.93m9.97 0h19.94m9.98 0h19.93m9.98 0h19.94m9.97 0h19.92m9.97 0h19.93m9.97 0h19.93m9.97 0h19.94m9.97 0h19.94m9.97 0h19.95m9.97 0h19.93m9.97 0h19.94m9.97 0h19.93m9.97 0h19.94m9.97 0h19.93m9.97 0h19.94m9.96 0h19.94m9.97 0h19.94m9.95 0h19.94m9.96 0h9.97a6 6 0 0 0 6-6v-7.77m0-7.76v-15.54m0-7.77v-7.76" stroke="#3a414a" fill="none"/><path d="M-6728.4 3316.05h-.95v-.5h.95z" stroke="#3a414a" stroke-width=".05" fill="#3a414a"/><path d="M-6088.87 3179.67l4.63 14.27h-9.27z" stroke="#3a414a" fill="#fff"/><path d="M-6928.87 3315.55v-10.4m0-10.43v-20.83m0-10.43v-10.4a6 6 0 0 1 6-6.02h9.85m9.86 0h19.72m9.85 0h19.73m9.85 0h19.72m9.86 0h19.7m9.87 0h19.7m9.87 0h19.7m9.87 0h19.7m9.87 0h19.72m9.85 0h19.73m9.85 0h19.72m9.86 0h19.7m9.87 0h19.7m9.87 0h19.7m9.87 0h19.7m9.87 0h19.72m9.85 0h19.73m9.85 0h19.72m9.86 0h19.7m9.87 0h19.7m9.87 0h19.7m9.87 0h19.7m9.87 0h19.72m9.85 0h19.73m9.85 0h19.72m9.86 0h19.7m9.87 0h19.7m9.87 0h19.7m9.87 0h9.86a6 6 0 0 0 6-6v-7.77m0-7.76v-15.54m0-7.77v-7.76" stroke="#3a414a" fill="none"/><path d="M-6928.4 3316.05h-.95v-.5h.95z" stroke="#3a414a" stroke-width=".05" fill="#3a414a"/><path d="M-6088.87 3179.67l4.63 14.27h-9.27z" stroke="#3a414a" fill="#fff"/><path d="M-5693.26 2916.05a6 6 0 0 1 6-6h219.23a6 6 0 0 1 6 6v64a6 6 0 0 1-6 6h-219.23a6 6 0 0 1-6-6zm23.12-6v76m185-76v76" stroke="#000" stroke-width="2" fill="#fff"/><use xlink:href="#w" transform="matrix(1,0,0,1,-5664.356036801534,2910.054659804261) translate(5.126085069444443 46.083767361111114)"/><path d="M-6088.87 3055.55v-28a6 6 0 0 1 6-6h501.1a4.13 4.13 0 0 0 4.12-4.12" stroke="#3a414a" fill="none"/><path d="M-6088.4 3056.05h-.95v-.5h.95z" stroke="#3a414a" stroke-width=".05" fill="#3a414a"/><path d="M-5577.65 2987.76l-14.85 14.85 14.85 14.86 14.85-14.85z" stroke="#3a414a" fill="#3a414a"/><path d="M-5078.87 3055.55v-28a6 6 0 0 0-6-6h-488.65a4.13 4.13 0 0 1-4.13-4.12" stroke="#3a414a" fill="none"/><path d="M-5078.4 3056.05h-.95v-.5h.95z" stroke="#3a414a" stroke-width=".05" fill="#3a414a"/><path d="M-5577.65 2987.76l-14.85 14.85 14.85 14.86 14.85-14.85z" stroke="#3a414a" fill="#3a414a"/><path d="M-5693.26 2772.05a6 6 0 0 1 6-6h219.23a6 6 0 0 1 6 6v64a6 6 0 0 1-6 6h-219.23a6 6 0 0 1-6-6zm23.12-6v76m185-76v76" stroke="#000" stroke-width="2" fill="#fff"/><use xlink:href="#x" transform="matrix(1,0,0,1,-5664.356036801534,2766.054659804261) translate(8.337890625 46.083767361111114)"/><path d="M-5577.65 2908.55v-35.12" stroke="#3a414a" fill="none"/><path d="M-5577.17 2909.05h-.95v-.5h.95z" stroke="#3a414a" stroke-width=".05" fill="#3a414a"/><path d="M-5577.65 2843.76l-14.85 14.85 14.85 14.86 14.85-14.85z" stroke="#3a414a" fill="#3a414a"/><path d="M-6551.42 3384.55v78.25a6 6 0 0 0 6 6h147.28a6 6 0 0 1 6 6v64.26" stroke="#3a414a" fill="none"/><path d="M-6550.94 3384.57h-.95v-.52h.96z" stroke="#3a414a" stroke-width=".05" fill="#3a414a"/><path d="M-6392.14 3552.55l-7.5-13h15z" stroke="#3a414a" fill="#3a414a"/><path d="M-6512.14 3560.55a6 6 0 0 1 6-6h228a6 6 0 0 1 6 6v64a6 6 0 0 1-6 6h-228a6 6 0 0 1-6-6z" stroke="#000" stroke-width="2" fill="#fff"/><use xlink:href="#y" transform="matrix(1,0,0,1,-6504.139060244785,3562.554659804261) translate(12.813802083333329 38.083767361111114)"/><path d="M-6355.14 3384.55v78.25a6 6 0 0 1-6 6h-25a6 6 0 0 0-6 6v64.26" stroke="#3a414a" fill="none"/><path d="M-6354.66 3384.57h-.95v-.52h.94z" stroke="#3a414a" stroke-width=".05" fill="#3a414a"/><path d="M-6392.14 3552.55l-7.5-13h15z" stroke="#3a414a" fill="#3a414a"/><path d="M-6158.87 3560.55a6 6 0 0 1 6-6h288a6 6 0 0 1 6 6v64a6 6 0 0 1-6 6h-288a6 6 0 0 1-6-6zm30-6v76m240-76v76" stroke="#000" stroke-width="2" fill="#fff"/><use xlink:href="#z" transform="matrix(1,0,0,1,-6121.373045265075,3554.554659804261) translate(16.796875000000014 46.083767361111114)"/><path d="M-6979.14 3560.55a6 6 0 0 1 6-6h341.74a6 6 0 0 1 6 6v64a6 6 0 0 1-6 6h-341.74a6 6 0 0 1-6-6zm35.37-6v76m283-76v76" stroke="#000" stroke-width="2" fill="#fff"/><g><use xlink:href="#A" transform="matrix(1,0,0,1,-6934.923071665859,3554.554659804261) translate(8.949435763888914 46.083767361111114)"/></g><path d="M-6623.9 3592.55h10.48m10.5 0h20.96m10.5 0h20.96m10.5 0h10.48" stroke="#3a414a" fill="none"/><path d="M-6623.9 3593.03h-.5v-.95h.5z" stroke="#3a414a" stroke-width=".05" fill="#3a414a"/><path d="M-6514.76 3592.55l-14.26 4.64v-9.28z" stroke="#3a414a" fill="#fff"/><path d="M-6160.37 3592.55h-10.5m-10.48 0h-20.97m-10.5 0h-20.96m-10.5 0h-10.48" stroke="#3a414a" fill="none"/><path d="M-6159.87 3593.03h-.52v-.95h.53z" stroke="#3a414a" stroke-width=".05" fill="#3a414a"/><path d="M-6269.52 3592.55l14.27-4.63v9.27z" stroke="#3a414a" fill="#fff"/><defs><path d="M135 0v-1490h997v253H440v360h640v249H440v375h694V0H135" id="B"/><path d="M42 0l360-574-338-544h324c72 124 151 261 209 394 58-134 140-271 215-394h318L785-570 1146 0H824c-79-136-169-280-234-425C528-278 439-134 360 0H42" id="C"/><path d="M128 418v-1536h295v188h14c41-89 129-202 319-202 248 0 453 193 453 575 0 372-197 576-455 576-183 0-275-108-317-198h-9v597H128zm534-640c156 0 240-139 240-336 0-196-83-334-240-334-154 0-241 131-241 334 0 202 88 336 241 336" id="D"/><path d="M128 0v-1118h300V0H128zm150-1264c-91 0-165-68-165-154 0-85 74-154 165-154 90 0 165 69 165 154 0 86-75 154-165 154" id="E"/><path d="M128 0v-1118h290v195h12c54-169 184-238 367-200v268c-27-8-86-15-130-15-138 0-239 95-239 234V0H128" id="F"/><path d="M440 22C227 22 68-92 68-313c0-250 202-322 422-343 195-21 271-24 271-105 0-95-63-149-175-149-116 0-187 57-211 129l-275-46c57-194 237-305 487-305 240 0 474 108 474 379V0H777v-155h-10C713-51 605 22 440 22zm85-211c140 0 238-93 238-211v-121c-37 26-156 42-222 51-111 16-185 59-185 149 0 87 70 132 169 132" id="G"/><path d="M754 19C571 19 479-89 437-179h-14V0H128v-1490h300v560h9c41-89 129-202 319-202 248 0 453 193 453 575 0 372-197 576-455 576zm-92-241c156 0 240-139 240-336 0-196-83-334-240-334-154 0-241 131-241 334 0 202 88 336 241 336" id="H"/><path d="M428-1490V0H128v-1490h300" id="I"/><path d="M633 22C291 22 81-200 81-553c0-345 210-579 537-579 292 0 525 185 525 567v84H378c7 183 109 277 260 277 105 0 184-46 216-132l272 51C1071-99 893 22 633 22zM380-669h474c-15-146-94-237-233-237-143 0-229 99-241 237" id="J"/><g id="a"><use transform="matrix(0.010850694444444444,0,0,0.010850694444444444,0,0)" xlink:href="#B"/><use transform="matrix(0.010850694444444444,0,0,0.010850694444444444,13.49826388888889,0)" xlink:href="#C"/><use transform="matrix(0.010850694444444444,0,0,0.010850694444444444,26.38888888888889,0)" xlink:href="#D"/><use transform="matrix(0.010850694444444444,0,0,0.010850694444444444,40.397135416666664,0)" xlink:href="#E"/><use transform="matrix(0.010850694444444444,0,0,0.010850694444444444,46.41927083333333,0)" xlink:href="#F"/><use transform="matrix(0.010850694444444444,0,0,0.010850694444444444,55.16493055555556,0)" xlink:href="#G"/><use transform="matrix(0.010850694444444444,0,0,0.010850694444444444,68.06640625,0)" xlink:href="#H"/><use transform="matrix(0.010850694444444444,0,0,0.010850694444444444,82.07465277777777,0)" xlink:href="#I"/><use transform="matrix(0.010850694444444444,0,0,0.010850694444444444,88.09678819444444,0)" xlink:href="#J"/></g><path d="M593-100v-404H195v-159h398v-403h169v403h398v159H762v404H593" id="K"/><use transform="matrix(0.010850694444444444,0,0,0.010850694444444444,0,0)" xlink:href="#K" id="b"/><path d="M158 0v-1118h180V0H158zm91-1301c-68 0-125-53-125-119s57-119 125-119c69 0 126 53 126 119s-57 119-126 119" id="L"/><path d="M538 24C308 24 148-78 108-271l171-41c32 123 123 178 257 178 156 0 256-77 256-169 0-77-54-128-164-154l-186-44c-203-48-300-148-300-305 0-192 176-326 414-326 230 0 351 112 402 269l-163 42c-31-80-94-158-238-158-133 0-233 69-233 162 0 83 57 129 188 160l169 40c203 48 298 149 298 302 0 196-179 339-441 339" id="M"/><path d="M180 0v-1490h908v168H370v486h669v168H370v500h727V0H180" id="N"/><path d="M65 0l393-574-370-544h210c88 136 192 297 267 435 67-142 176-302 264-435h206L661-564 1053 0H844c-94-144-206-310-287-458C484-308 366-142 273 0H65" id="O"/><path d="M158 418v-1536h174v179h20c37-59 106-193 324-193 279 0 474 222 474 576 0 356-194 580-473 580-213 0-288-135-325-197h-14v591H158zm492-555c209 0 317-186 317-421 0-232-105-413-317-413-206 0-314 166-314 413 0 249 111 421 314 421" id="P"/><path d="M158 0v-1118h174v172h12c41-113 157-188 290-188 26 0 70 2 91 3v181c-11-2-60-10-108-10-161 0-279 109-279 260V0H158" id="Q"/><path d="M628 24c-324 0-524-230-524-574 0-343 198-582 503-582 237 0 487 146 487 559v75H286c9 234 145 362 343 362 132 0 231-58 273-172l174 48C1024-91 857 24 628 24zM287-650h624c-17-190-120-322-304-322-192 0-309 151-320 322" id="R"/><path d="M577 24c-279 0-473-224-473-580 0-354 195-576 474-576 218 0 287 134 324 193h14v-551h180V0H922v-173h-20C865-111 790 24 577 24zm27-161c203 0 314-172 314-421 0-247-108-413-314-413-212 0-317 181-317 413 0 235 108 421 317 421" id="S"/><path d="M218-607c0-325 108-727 258-974h175c-155 315-250 682-250 974 0 265 78 531 250 886H476C306-10 218-315 218-607" id="T"/><path d="M613 24c-304 0-509-231-509-576 0-350 205-580 509-580 216 0 392 114 453 309l-173 49c-33-115-133-197-280-197-223 0-326 196-326 419 0 220 103 415 326 415 150 0 252-85 285-206l172 49C1010-95 832 24 613 24" id="U"/><path d="M537 14c-226 0-379-139-379-422v-710h180v695c0 172 97 275 253 275 160 0 281-109 281-300v-670h181V0H879v-209C806-46 684 14 537 14" id="V"/><path d="M338-670V0H158v-1118h173l1 207c72-158 192-221 342-221 226 0 378 139 378 422V0H872v-695c0-172-96-275-252-275-161 0-282 109-282 300" id="W"/><path d="M598-1118v154H368v674c0 100 37 144 132 144 23 0 62-6 92-12L629-6c-37 13-88 20-134 20-193 0-307-107-307-290v-688H20v-154h168v-266h180v266h230" id="X"/><path d="M98-1322v-168h1126v168H757V0H567v-1322H98" id="Y"/><path d="M295 13c-75 0-135-60-135-135s60-135 135-135 135 60 135 135S370 13 295 13zm0-809c-75 0-135-60-135-135s60-135 135-135 135 60 135 135-60 135-135 135" id="Z"/><g id="c"><use transform="matrix(0.010850694444444444,0,0,0.010850694444444444,0,0)" xlink:href="#L"/><use transform="matrix(0.010850694444444444,0,0,0.010850694444444444,5.381944444444445,0)" xlink:href="#M"/><use transform="matrix(0.010850694444444444,0,0,0.010850694444444444,17.11154513888889,0)" xlink:href="#N"/><use transform="matrix(0.010850694444444444,0,0,0.010850694444444444,30.46875,0)" xlink:href="#O"/><use transform="matrix(0.010850694444444444,0,0,0.010850694444444444,42.599826388888886,0)" xlink:href="#P"/><use transform="matrix(0.010850694444444444,0,0,0.010850694444444444,56.20659722222221,0)" xlink:href="#L"/><use transform="matrix(0.010850694444444444,0,0,0.010850694444444444,61.58854166666666,0)" xlink:href="#Q"/><use transform="matrix(0.010850694444444444,0,0,0.010850694444444444,69.58550347222221,0)" xlink:href="#R"/><use transform="matrix(0.010850694444444444,0,0,0.010850694444444444,82.54123263888889,0)" xlink:href="#S"/><use transform="matrix(0.010850694444444444,0,0,0.010850694444444444,96.14800347222221,0)" xlink:href="#T"/><use transform="matrix(0.010850694444444444,0,0,0.010850694444444444,104.00390624999997,0)" xlink:href="#U"/><use transform="matrix(0.010850694444444444,0,0,0.010850694444444444,116.69921874999997,0)" xlink:href="#V"/><use transform="matrix(0.010850694444444444,0,0,0.010850694444444444,129.8394097222222,0)" xlink:href="#Q"/><use transform="matrix(0.010850694444444444,0,0,0.010850694444444444,138.5525173611111,0)" xlink:href="#Q"/><use transform="matrix(0.010850694444444444,0,0,0.010850694444444444,146.54947916666663,0)" xlink:href="#R"/><use transform="matrix(0.010850694444444444,0,0,0.010850694444444444,159.5052083333333,0)" xlink:href="#W"/><use transform="matrix(0.010850694444444444,0,0,0.010850694444444444,172.63454861111106,0)" xlink:href="#X"/><use transform="matrix(0.010850694444444444,0,0,0.010850694444444444,179.15581597222217,0)" xlink:href="#Y"/><use transform="matrix(0.010850694444444444,0,0,0.010850694444444444,191.86197916666657,0)" xlink:href="#V"/><use transform="matrix(0.010850694444444444,0,0,0.010850694444444444,205.00217013888883,0)" xlink:href="#Q"/><use transform="matrix(0.010850694444444444,0,0,0.010850694444444444,213.71527777777774,0)" xlink:href="#W"/><use transform="matrix(0.010850694444444444,0,0,0.010850694444444444,226.84461805555546,0)" xlink:href="#Z"/></g><path d="M370-1490V0H180v-1490h190" id="aa"/><path d="M96 279C273-86 346-350 346-607c0-292-95-659-250-974h175c150 246 258 650 258 974 0 297-91 602-258 886H96" id="ab"/><g id="d"><use transform="matrix(0.010850694444444444,0,0,0.010850694444444444,0,0)" xlink:href="#aa"/><use transform="matrix(0.010850694444444444,0,0,0.010850694444444444,5.967881944444445,0)" xlink:href="#W"/><use transform="matrix(0.010850694444444444,0,0,0.010850694444444444,19.09722222222222,0)" xlink:href="#X"/><use transform="matrix(0.010850694444444444,0,0,0.010850694444444444,26.3671875,0)" xlink:href="#ab"/><use transform="matrix(0.010850694444444444,0,0,0.010850694444444444,34.47265625,0)" xlink:href="#Z"/></g><path d="M677 24c-213 0-288-135-325-197h-20V0H158v-1490h180v551h14c37-59 106-193 324-193 279 0 474 222 474 576 0 356-194 580-473 580zm-27-161c209 0 317-186 317-421 0-232-105-413-317-413-206 0-314 166-314 413 0 249 111 421 314 421" id="ac"/><path d="M613 24c-304 0-509-231-509-576 0-350 205-580 509-580 305 0 511 230 511 580 0 345-206 576-511 576zm0-161c226 0 329-195 329-415 0-222-103-419-329-419-223 0-326 196-326 419 0 220 103 415 326 415" id="ad"/><path d="M338-1490V0H158v-1490h180" id="ae"/><g id="e"><use transform="matrix(0.010850694444444444,0,0,0.010850694444444444,0,0)" xlink:href="#ac"/><use transform="matrix(0.010850694444444444,0,0,0.010850694444444444,13.606770833333332,0)" xlink:href="#ad"/><use transform="matrix(0.010850694444444444,0,0,0.010850694444444444,26.931423611111104,0)" xlink:href="#ad"/><use transform="matrix(0.010850694444444444,0,0,0.010850694444444444,40.256076388888886,0)" xlink:href="#ae"/></g><path d="M180 0v-1490h190v1322h690V0H180" id="af"/><path d="M678-1118v154H420V0H240v-964H20v-154h220v-149c0-194 155-293 318-293 85 0 141 18 168 30l-50 154c-19-6-47-17-97-17-111 0-159 58-159 166v109h258" id="ag"/><g id="f"><use transform="matrix(0.010850694444444444,0,0,0.010850694444444444,0,0)" xlink:href="#X"/><use transform="matrix(0.010850694444444444,0,0,0.010850694444444444,7.269965277777778,0)" xlink:href="#V"/><use transform="matrix(0.010850694444444444,0,0,0.010850694444444444,20.41015625,0)" xlink:href="#Q"/><use transform="matrix(0.010850694444444444,0,0,0.010850694444444444,29.12326388888889,0)" xlink:href="#W"/><use transform="matrix(0.010850694444444444,0,0,0.010850694444444444,42.252604166666664,0)" xlink:href="#M"/><use transform="matrix(0.010850694444444444,0,0,0.010850694444444444,53.98220486111111,0)" xlink:href="#af"/><use transform="matrix(0.010850694444444444,0,0,0.010850694444444444,66.54730902777777,0)" xlink:href="#R"/><use transform="matrix(0.010850694444444444,0,0,0.010850694444444444,79.50303819444444,0)" xlink:href="#ag"/><use transform="matrix(0.010850694444444444,0,0,0.010850694444444444,86.96831597222221,0)" xlink:href="#X"/><use transform="matrix(0.010850694444444444,0,0,0.010850694444444444,94.23828124999997,0)" xlink:href="#T"/><use transform="matrix(0.010850694444444444,0,0,0.010850694444444444,102.09418402777776,0)" xlink:href="#U"/><use transform="matrix(0.010850694444444444,0,0,0.010850694444444444,114.78949652777776,0)" xlink:href="#V"/><use transform="matrix(0.010850694444444444,0,0,0.010850694444444444,127.92968749999997,0)" xlink:href="#Q"/><use transform="matrix(0.010850694444444444,0,0,0.010850694444444444,136.64279513888886,0)" xlink:href="#Q"/><use transform="matrix(0.010850694444444444,0,0,0.010850694444444444,144.6397569444444,0)" xlink:href="#R"/><use transform="matrix(0.010850694444444444,0,0,0.010850694444444444,157.59548611111106,0)" xlink:href="#W"/><use transform="matrix(0.010850694444444444,0,0,0.010850694444444444,170.72482638888883,0)" xlink:href="#X"/><use transform="matrix(0.010850694444444444,0,0,0.010850694444444444,177.24609374999994,0)" xlink:href="#Y"/><use transform="matrix(0.010850694444444444,0,0,0.010850694444444444,189.95225694444437,0)" xlink:href="#V"/><use transform="matrix(0.010850694444444444,0,0,0.010850694444444444,203.09244791666663,0)" xlink:href="#Q"/><use transform="matrix(0.010850694444444444,0,0,0.010850694444444444,211.80555555555546,0)" xlink:href="#W"/><use transform="matrix(0.010850694444444444,0,0,0.010850694444444444,224.93489583333326,0)" xlink:href="#Z"/></g><g id="g"><use transform="matrix(0.010850694444444444,0,0,0.010850694444444444,0,0)" xlink:href="#aa"/><use transform="matrix(0.010850694444444444,0,0,0.010850694444444444,5.967881944444445,0)" xlink:href="#W"/><use transform="matrix(0.010850694444444444,0,0,0.010850694444444444,19.09722222222222,0)" xlink:href="#X"/></g><path d="M601 0v-560L49-1490h357l252 464c38 68 67 130 97 208 96-243 225-446 337-672h356L905-560V0H601" id="ah"/><path d="M361 0L31-1118h315c68 295 127 523 188 845 63-317 128-551 199-845h276c71 296 131 525 196 846 57-321 119-552 186-846h319L1378 0h-305c-73-261-148-486-204-771C813-484 740-261 666 0H361" id="ai"/><path d="M428-647V0H128v-1118h283l4 231c63-156 176-245 348-245 232 0 384 159 384 421V0H847v-659c0-139-76-222-202-222-128 0-217 86-217 234" id="aj"/><g id="h"><use transform="matrix(0.010850694444444444,0,0,0.010850694444444444,0,0)" xlink:href="#ah"/><use transform="matrix(0.010850694444444444,0,0,0.010850694444444444,13.986545138888888,0)" xlink:href="#G"/><use transform="matrix(0.010850694444444444,0,0,0.010850694444444444,26.888020833333332,0)" xlink:href="#ai"/><use transform="matrix(0.010850694444444444,0,0,0.010850694444444444,45.77907986111111,0)" xlink:href="#aj"/></g><path d="M135 0v-1490h581c339 0 533 210 533 503 0 295-197 500-540 500H440V0H135zm305-733h220c186 0 274-104 274-254s-88-251-275-251H440v505" id="ak"/><path d="M628 22C291 22 81-210 81-554c0-346 210-578 547-578 336 0 547 232 547 578 0 344-211 576-547 576zm0-236c160 0 242-146 242-341 0-197-82-341-242-341S387-753 387-555c0 195 81 341 241 341" id="al"/><path d="M683-1118v229H474v562c0 71 29 104 102 104 23 0 73-7 95-13l43 225C647 9 580 16 520 16 296 16 174-96 174-301v-588H20v-229h154v-266h300v266h209" id="am"/><path d="M628 22C291 22 81-210 81-554c0-346 210-578 547-578 265 0 455 142 497 372l-279 52c-25-116-99-188-215-188-160 0-244 139-244 341 0 200 84 341 244 341 116 0 193-74 217-195l279 51C1085-123 896 22 628 22" id="an"/><path d="M537 19C279 19 81-185 81-557c0-382 206-575 454-575 190 0 278 113 318 202h10v-560h300V0H868v-179h-15C812-89 719 19 537 19zm92-241c153 0 240-134 240-336 0-203-86-334-240-334-158 0-240 138-240 334 0 197 84 336 240 336" id="ao"/><path d="M513 14c-232 0-385-159-385-421v-711h300v659c0 139 76 222 202 222 127 0 217-86 217-234v-647h301V0H864l-4-232C797-74 683 14 513 14" id="ap"/><g id="i"><use transform="matrix(0.010850694444444444,0,0,0.010850694444444444,0,0)" xlink:href="#ak"/><use transform="matrix(0.010850694444444444,0,0,0.010850694444444444,14.398871527777777,0)" xlink:href="#F"/><use transform="matrix(0.010850694444444444,0,0,0.010850694444444444,22.90581597222222,0)" xlink:href="#al"/><use transform="matrix(0.010850694444444444,0,0,0.010850694444444444,36.53428819444444,0)" xlink:href="#am"/><use transform="matrix(0.010850694444444444,0,0,0.010850694444444444,44.4552951388889,0)" xlink:href="#J"/><use transform="matrix(0.010850694444444444,0,0,0.010850694444444444,57.69314236111112,0)" xlink:href="#an"/><use transform="matrix(0.010850694444444444,0,0,0.010850694444444444,70.76822916666667,0)" xlink:href="#am"/><use transform="matrix(0.010850694444444444,0,0,0.010850694444444444,78.96050347222223,0)" xlink:href="#B"/><use transform="matrix(0.010850694444444444,0,0,0.010850694444444444,92.45876736111111,0)" xlink:href="#aj"/><use transform="matrix(0.010850694444444444,0,0,0.010850694444444444,106.2934027777778,0)" xlink:href="#ao"/><use transform="matrix(0.010850694444444444,0,0,0.010850694444444444,120.30164930555556,0)" xlink:href="#ap"/><use transform="matrix(0.010850694444444444,0,0,0.010850694444444444,134.13628472222223,0)" xlink:href="#F"/><use transform="matrix(0.010850694444444444,0,0,0.010850694444444444,142.64322916666666,0)" xlink:href="#J"/></g><path d="M135 0v-1490h980v253H440v416h609v249H440V0H135" id="aq"/><path d="M428-647V0H128v-1490h294v586c65-146 175-228 341-228 232 0 385 159 385 421V0H847v-659c0-139-76-222-202-222-128 0-217 86-217 234" id="ar"/><g id="j"><use transform="matrix(0.010850694444444444,0,0,0.010850694444444444,0,0)" xlink:href="#aq"/><use transform="matrix(0.010850694444444444,0,0,0.010850694444444444,13.042534722222221,0)" xlink:href="#I"/><use transform="matrix(0.010850694444444444,0,0,0.010850694444444444,19.064670138888886,0)" xlink:href="#E"/><use transform="matrix(0.010850694444444444,0,0,0.010850694444444444,25.08680555555555,0)" xlink:href="#aj"/><use transform="matrix(0.010850694444444444,0,0,0.010850694444444444,38.921440972222214,0)" xlink:href="#an"/><use transform="matrix(0.010850694444444444,0,0,0.010850694444444444,51.99652777777778,0)" xlink:href="#ar"/></g><path d="M571 0L49-1490h339c138 427 271 775 384 1244 111-471 237-815 371-1244h337L970 0H571" id="as"/><path d="M681 22C323 22 94-145 85-462h297c10 151 131 226 296 226 163 0 271-77 271-190 0-102-95-149-257-189l-164-41c-252-61-403-188-403-405 0-269 236-449 560-449 330 0 546 183 551 445H941c-11-119-106-188-259-188-156 0-244 72-244 172-3 156 226 185 373 221 250 61 445 186 445 436 0 271-213 446-575 446" id="at"/><path d="M572 22C302 22 117-98 78-306l279-48c29 105 101 156 224 156 114 0 185-48 185-115 0-118-228-130-337-155-215-49-322-150-322-317 0-215 187-347 470-347 265 0 424 116 466 298l-266 47c-24-76-87-130-196-130-98 0-174 46-174 113 0 56 38 95 144 117l201 40c216 44 320 143 320 302 0 220-207 367-500 367" id="au"/><g id="k"><use transform="matrix(0.010416666666666668,0,0,0.010416666666666668,0,0)" xlink:href="#as"/><use transform="matrix(0.010416666666666668,0,0,0.010416666666666668,14.625000000000002,0)" xlink:href="#al"/><use transform="matrix(0.010416666666666668,0,0,0.010416666666666668,27.708333333333336,0)" xlink:href="#I"/><use transform="matrix(0.010416666666666668,0,0,0.010416666666666668,33.489583333333336,0)" xlink:href="#G"/><use transform="matrix(0.010416666666666668,0,0,0.010416666666666668,45.87499999999999,0)" xlink:href="#am"/><use transform="matrix(0.010416666666666668,0,0,0.010416666666666668,53.6875,0)" xlink:href="#E"/><use transform="matrix(0.010416666666666668,0,0,0.010416666666666668,59.46875,0)" xlink:href="#I"/><use transform="matrix(0.010416666666666668,0,0,0.010416666666666668,65.25,0)" xlink:href="#J"/><use transform="matrix(0.010416666666666668,0,0,0.010416666666666668,77.95833333333333,0)" xlink:href="#at"/><use transform="matrix(0.010416666666666668,0,0,0.010416666666666668,91.92708333333333,0)" xlink:href="#am"/><use transform="matrix(0.010416666666666668,0,0,0.010416666666666668,99.84374999999999,0)" xlink:href="#G"/><use transform="matrix(0.010416666666666668,0,0,0.010416666666666668,112.22916666666669,0)" xlink:href="#am"/><use transform="matrix(0.010416666666666668,0,0,0.010416666666666668,120.04166666666669,0)" xlink:href="#ap"/><use transform="matrix(0.010416666666666668,0,0,0.010416666666666668,133.32291666666669,0)" xlink:href="#au"/></g><use transform="matrix(0.010850694444444444,0,0,0.010850694444444444,0,0)" xlink:href="#K" id="l"/><g id="m"><use transform="matrix(0.010850694444444444,0,0,0.010850694444444444,0,0)" xlink:href="#R"/><use transform="matrix(0.010850694444444444,0,0,0.010850694444444444,12.456597222222221,0)" xlink:href="#O"/><use transform="matrix(0.010850694444444444,0,0,0.010850694444444444,24.088541666666664,0)" xlink:href="#R"/><use transform="matrix(0.010850694444444444,0,0,0.010850694444444444,37.04427083333333,0)" xlink:href="#U"/><use transform="matrix(0.010850694444444444,0,0,0.010850694444444444,49.73958333333333,0)" xlink:href="#V"/><use transform="matrix(0.010850694444444444,0,0,0.010850694444444444,62.87977430555555,0)" xlink:href="#X"/><use transform="matrix(0.010850694444444444,0,0,0.010850694444444444,69.93272569444444,0)" xlink:href="#R"/><use transform="matrix(0.010850694444444444,0,0,0.010850694444444444,82.88845486111111,0)" xlink:href="#N"/><use transform="matrix(0.010850694444444444,0,0,0.010850694444444444,96.24565972222221,0)" xlink:href="#ag"/><use transform="matrix(0.010850694444444444,0,0,0.010850694444444444,103.60243055555556,0)" xlink:href="#ag"/><use transform="matrix(0.010850694444444444,0,0,0.010850694444444444,111.17621527777777,0)" xlink:href="#R"/><use transform="matrix(0.010850694444444444,0,0,0.010850694444444444,124.13194444444444,0)" xlink:href="#U"/><use transform="matrix(0.010850694444444444,0,0,0.010850694444444444,136.82725694444446,0)" xlink:href="#X"/></g><path d="M180 0v-1490h528c311 0 458 177 458 395 0 191-114 278-244 313v14c139 9 302 137 302 371 0 225-148 397-499 397H180zm190-168h350c232 0 321-102 321-231 0-149-120-277-311-277H370v508zm0-668h328c160 0 286-101 286-255 0-129-87-231-280-231H370v486" id="av"/><path d="M471 26C259 26 90-98 90-318c0-256 228-303 435-329 202-27 287-16 287-108 0-139-79-219-234-219-161 0-248 86-283 164l-173-57c86-203 278-265 451-265 150 0 419 46 419 395V0H815v-152h-12C765-73 660 26 471 26zm31-159c199 0 310-134 310-271v-155c-30 35-226 55-295 64-131 17-246 59-246 186 0 116 97 176 231 176" id="aw"/><path d="M180 0v-1490h190v644h782v-644h190V0h-190v-678H370V0H180" id="ax"/><path d="M158 0v-1490h180v865h22l478-493h223L593-638 1096 0H865L456-523 338-412V0H158" id="ay"/><path d="M783 20c-382 0-661-292-661-764 0-473 279-766 661-766 302 0 548 182 601 489h-190c-42-204-217-313-411-313-268 0-476 208-476 590 0 381 209 588 476 588 195 0 369-110 411-313h190c-52 303-296 489-601 489" id="az"/><path d="M611 442c-248 0-391-105-460-228l146-94c47 65 117 165 314 165 178 0 307-82 307-266v-224h-17C863-141 792-18 576-18c-268 0-472-195-472-546 0-346 197-568 476-568 216 0 288 133 326 193h17v-179h175V29c0 289-215 413-487 413zm-5-620c203 0 314-146 314-390 0-237-108-403-314-403-213 0-319 180-319 403 0 230 109 390 319 390" id="aA"/><g id="n"><use transform="matrix(0.010850694444444444,0,0,0.010850694444444444,0,0)" xlink:href="#av"/><use transform="matrix(0.010850694444444444,0,0,0.010850694444444444,14.539930555555555,0)" xlink:href="#aw"/><use transform="matrix(0.010850694444444444,0,0,0.010850694444444444,27.018229166666664,0)" xlink:href="#X"/><use transform="matrix(0.010850694444444444,0,0,0.010850694444444444,33.74565972222222,0)" xlink:href="#X"/><use transform="matrix(0.010850694444444444,0,0,0.010850694444444444,41.015625,0)" xlink:href="#ae"/><use transform="matrix(0.010850694444444444,0,0,0.010850694444444444,46.39756944444444,0)" xlink:href="#R"/><use transform="matrix(0.010850694444444444,0,0,0.010850694444444444,59.35329861111111,0)" xlink:href="#ax"/><use transform="matrix(0.010850694444444444,0,0,0.010850694444444444,75.86805555555554,0)" xlink:href="#ad"/><use transform="matrix(0.010850694444444444,0,0,0.010850694444444444,89.19270833333331,0)" xlink:href="#ad"/><use transform="matrix(0.010850694444444444,0,0,0.010850694444444444,102.51736111111109,0)" xlink:href="#ay"/><use transform="matrix(0.010850694444444444,0,0,0.010850694444444444,114.71354166666664,0)" xlink:href="#M"/><use transform="matrix(0.010850694444444444,0,0,0.010850694444444444,126.44314236111109,0)" xlink:href="#az"/><use transform="matrix(0.010850694444444444,0,0,0.010850694444444444,142.67578124999997,0)" xlink:href="#ad"/><use transform="matrix(0.010850694444444444,0,0,0.010850694444444444,156.00043402777774,0)" xlink:href="#W"/><use transform="matrix(0.010850694444444444,0,0,0.010850694444444444,169.12977430555551,0)" xlink:href="#ag"/><use transform="matrix(0.010850694444444444,0,0,0.010850694444444444,177.3546006944444,0)" xlink:href="#L"/><use transform="matrix(0.010850694444444444,0,0,0.010850694444444444,182.73654513888883,0)" xlink:href="#aA"/><use transform="matrix(0.010850694444444444,0,0,0.010850694444444444,196.36501736111111,0)" xlink:href="#V"/><use transform="matrix(0.010850694444444444,0,0,0.010850694444444444,209.50520833333331,0)" xlink:href="#Q"/><use transform="matrix(0.010850694444444444,0,0,0.010850694444444444,217.87109374999994,0)" xlink:href="#aw"/><use transform="matrix(0.010850694444444444,0,0,0.010850694444444444,230.34939236111111,0)" xlink:href="#X"/><use transform="matrix(0.010850694444444444,0,0,0.010850694444444444,237.40234374999994,0)" xlink:href="#ad"/><use transform="matrix(0.010850694444444444,0,0,0.010850694444444444,250.72699652777774,0)" xlink:href="#Q"/></g><path d="M135 0v-1490h340l471 754c59 97 122 210 187 365-32-387-14-721-19-1119h312V0h-341C855-382 627-689 427-1113c32 420 16 695 20 1113H135" id="aB"/><g id="o"><use transform="matrix(0.010416666666666668,0,0,0.010416666666666668,0,0)" xlink:href="#aB"/><use transform="matrix(0.010416666666666668,0,0,0.010416666666666668,16.260416666666668,0)" xlink:href="#al"/><use transform="matrix(0.010416666666666668,0,0,0.010416666666666668,29.34375,0)" xlink:href="#aj"/><use transform="matrix(0.010416666666666668,0,0,0.010416666666666668,41.54166666666667,0)" xlink:href="#as"/><use transform="matrix(0.010416666666666668,0,0,0.010416666666666668,56.16666666666667,0)" xlink:href="#al"/><use transform="matrix(0.010416666666666668,0,0,0.010416666666666668,69.25,0)" xlink:href="#I"/><use transform="matrix(0.010416666666666668,0,0,0.010416666666666668,75.03125,0)" xlink:href="#G"/><use transform="matrix(0.010416666666666668,0,0,0.010416666666666668,87.41666666666667,0)" xlink:href="#am"/><use transform="matrix(0.010416666666666668,0,0,0.010416666666666668,95.22916666666667,0)" xlink:href="#E"/><use transform="matrix(0.010416666666666668,0,0,0.010416666666666668,101.01041666666667,0)" xlink:href="#I"/><use transform="matrix(0.010416666666666668,0,0,0.010416666666666668,106.79166666666669,0)" xlink:href="#J"/><use transform="matrix(0.010416666666666668,0,0,0.010416666666666668,119.5,0)" xlink:href="#at"/><use transform="matrix(0.010416666666666668,0,0,0.010416666666666668,133.46875,0)" xlink:href="#am"/><use transform="matrix(0.010416666666666668,0,0,0.010416666666666668,141.38541666666666,0)" xlink:href="#G"/><use transform="matrix(0.010416666666666668,0,0,0.010416666666666668,153.77083333333331,0)" xlink:href="#am"/><use transform="matrix(0.010416666666666668,0,0,0.010416666666666668,161.58333333333331,0)" xlink:href="#ap"/><use transform="matrix(0.010416666666666668,0,0,0.010416666666666668,174.86458333333331,0)" xlink:href="#au"/></g><g id="p"><use transform="matrix(0.010850694444444444,0,0,0.010850694444444444,0,0)" xlink:href="#at"/><use transform="matrix(0.010850694444444444,0,0,0.010850694444444444,14.55078125,0)" xlink:href="#am"/><use transform="matrix(0.010850694444444444,0,0,0.010850694444444444,22.79730902777778,0)" xlink:href="#G"/><use transform="matrix(0.010850694444444444,0,0,0.010850694444444444,35.69878472222222,0)" xlink:href="#am"/><use transform="matrix(0.010850694444444444,0,0,0.010850694444444444,43.83680555555556,0)" xlink:href="#ap"/><use transform="matrix(0.010850694444444444,0,0,0.010850694444444444,57.67144097222222,0)" xlink:href="#au"/></g><path d="M120 396l69-226c123 42 245 23 254-107l8-60L31-1118h319c87 288 199 559 259 872 72-308 185-583 277-872h315L726 132c-68 181-186 294-410 294-79 0-153-13-196-30" id="aC"/><path d="M120 0v-182l551-686v-8H137v-242h897v199L514-250v8h539V0H120" id="aD"/><g id="q"><use transform="matrix(0.010850694444444444,0,0,0.010850694444444444,0,0)" xlink:href="#ak"/><use transform="matrix(0.010850694444444444,0,0,0.010850694444444444,14.116753472222221,0)" xlink:href="#G"/><use transform="matrix(0.010850694444444444,0,0,0.010850694444444444,27.018229166666664,0)" xlink:href="#F"/><use transform="matrix(0.010850694444444444,0,0,0.010850694444444444,35.763888888888886,0)" xlink:href="#G"/><use transform="matrix(0.010850694444444444,0,0,0.010850694444444444,48.66536458333333,0)" xlink:href="#I"/><use transform="matrix(0.010850694444444444,0,0,0.010850694444444444,54.91536458333333,0)" xlink:href="#aC"/><use transform="matrix(0.010850694444444444,0,0,0.010850694444444444,68.29427083333333,0)" xlink:href="#aD"/><use transform="matrix(0.010850694444444444,0,0,0.010850694444444444,80.57725694444443,0)" xlink:href="#J"/></g><g id="r"><use transform="matrix(0.010850694444444444,0,0,0.010850694444444444,0,0)" xlink:href="#ak"/><use transform="matrix(0.010850694444444444,0,0,0.010850694444444444,14.214409722222221,0)" xlink:href="#al"/><use transform="matrix(0.010850694444444444,0,0,0.010850694444444444,27.842881944444443,0)" xlink:href="#E"/><use transform="matrix(0.010850694444444444,0,0,0.010850694444444444,33.86501736111111,0)" xlink:href="#au"/><use transform="matrix(0.010850694444444444,0,0,0.010850694444444444,46.310763888888886,0)" xlink:href="#al"/><use transform="matrix(0.010850694444444444,0,0,0.010850694444444444,59.93923611111111,0)" xlink:href="#aj"/></g><g id="s"><use transform="matrix(0.010850694444444444,0,0,0.010850694444444444,0,0)" xlink:href="#at"/><use transform="matrix(0.010850694444444444,0,0,0.010850694444444444,14.55078125,0)" xlink:href="#I"/><use transform="matrix(0.010850694444444444,0,0,0.010850694444444444,20.572916666666664,0)" xlink:href="#J"/><use transform="matrix(0.010850694444444444,0,0,0.010850694444444444,33.810763888888886,0)" xlink:href="#J"/><use transform="matrix(0.010850694444444444,0,0,0.010850694444444444,47.04861111111111,0)" xlink:href="#D"/></g><path d="M135 0v-1490h591c327 0 492 160 492 383 0 177-115 286-268 320v15c168 8 326 140 326 361 0 236-176 411-512 411H135zm305-251h264c179 0 258-76 258-189 0-125-97-215-250-215H440v404zm0-613h241c131 0 228-74 228-194 0-109-79-183-222-183H440v377" id="aE"/><g id="t"><use transform="matrix(0.010850694444444444,0,0,0.010850694444444444,0,0)" xlink:href="#aE"/><use transform="matrix(0.010850694444444444,0,0,0.010850694444444444,14.702690972222221,0)" xlink:href="#G"/><use transform="matrix(0.010850694444444444,0,0,0.010850694444444444,27.604166666666664,0)" xlink:href="#ao"/><use transform="matrix(0.010850694444444444,0,0,0.010850694444444444,41.61241319444444,0)" xlink:href="#I"/><use transform="matrix(0.010850694444444444,0,0,0.010850694444444444,47.86241319444444,0)" xlink:href="#aC"/><use transform="matrix(0.010850694444444444,0,0,0.010850694444444444,61.295572916666664,0)" xlink:href="#ak"/><use transform="matrix(0.010850694444444444,0,0,0.010850694444444444,75.50998263888889,0)" xlink:href="#al"/><use transform="matrix(0.010850694444444444,0,0,0.010850694444444444,89.13845486111111,0)" xlink:href="#E"/><use transform="matrix(0.010850694444444444,0,0,0.010850694444444444,95.1605902777778,0)" xlink:href="#au"/><use transform="matrix(0.010850694444444444,0,0,0.010850694444444444,107.60633680555556,0)" xlink:href="#al"/><use transform="matrix(0.010850694444444444,0,0,0.010850694444444444,121.23480902777777,0)" xlink:href="#aj"/></g><g id="u"><use transform="matrix(0.010850694444444444,0,0,0.010850694444444444,0,0)" xlink:href="#aE"/><use transform="matrix(0.010850694444444444,0,0,0.010850694444444444,14.702690972222221,0)" xlink:href="#ap"/><use transform="matrix(0.010850694444444444,0,0,0.010850694444444444,28.53732638888889,0)" xlink:href="#F"/><use transform="matrix(0.010850694444444444,0,0,0.010850694444444444,37.74956597222222,0)" xlink:href="#aj"/></g><g id="v"><use transform="matrix(0.010850694444444444,0,0,0.010850694444444444,0,0)" xlink:href="#aq"/><use transform="matrix(0.010850694444444444,0,0,0.010850694444444444,12.608506944444445,0)" xlink:href="#F"/><use transform="matrix(0.010850694444444444,0,0,0.010850694444444444,21.115451388888886,0)" xlink:href="#J"/><use transform="matrix(0.010850694444444444,0,0,0.010850694444444444,34.35329861111111,0)" xlink:href="#J"/><use transform="matrix(0.010850694444444444,0,0,0.010850694444444444,47.14626736111111,0)" xlink:href="#aD"/><use transform="matrix(0.010850694444444444,0,0,0.010850694444444444,59.42925347222221,0)" xlink:href="#J"/></g><path d="M52 0l541-1490h220L1361 0h-200l-149-416H398L254 0H52zm404-582h497c-103-290-145-390-251-756-108 377-145 460-246 756" id="aF"/><path d="M657 26c-323 0-524-166-541-416h195c15 169 171 246 346 246 202 0 356-106 356-265 5-203-294-238-475-293-239-73-380-191-380-389 0-252 224-419 512-419 294 0 499 171 508 396H992c-17-145-151-228-328-228-193 0-321 102-321 242 0 156 175 211 284 241l149 41c160 44 422 134 422 412 0 244-197 432-541 432" id="aG"/><g id="w"><use transform="matrix(0.010850694444444444,0,0,0.010850694444444444,0,0)" xlink:href="#aF"/><use transform="matrix(0.010850694444444444,0,0,0.010850694444444444,15.33203125,0)" xlink:href="#M"/><use transform="matrix(0.010850694444444444,0,0,0.010850694444444444,27.061631944444443,0)" xlink:href="#M"/><use transform="matrix(0.010850694444444444,0,0,0.010850694444444444,38.791232638888886,0)" xlink:href="#L"/><use transform="matrix(0.010850694444444444,0,0,0.010850694444444444,44.17317708333333,0)" xlink:href="#aA"/><use transform="matrix(0.010850694444444444,0,0,0.010850694444444444,57.80164930555555,0)" xlink:href="#W"/><use transform="matrix(0.010850694444444444,0,0,0.010850694444444444,70.93098958333333,0)" xlink:href="#R"/><use transform="matrix(0.010850694444444444,0,0,0.010850694444444444,83.88671875,0)" xlink:href="#S"/><use transform="matrix(0.010850694444444444,0,0,0.010850694444444444,97.49348958333333,0)" xlink:href="#aG"/><use transform="matrix(0.010850694444444444,0,0,0.010850694444444444,111.75130208333333,0)" xlink:href="#X"/><use transform="matrix(0.010850694444444444,0,0,0.010850694444444444,119.12977430555556,0)" xlink:href="#aw"/><use transform="matrix(0.010850694444444444,0,0,0.010850694444444444,131.60807291666666,0)" xlink:href="#X"/><use transform="matrix(0.010850694444444444,0,0,0.010850694444444444,138.87803819444443,0)" xlink:href="#V"/><use transform="matrix(0.010850694444444444,0,0,0.010850694444444444,152.01822916666666,0)" xlink:href="#M"/></g><path d="M180 0v-1490h510c348 0 508 209 508 474 0 266-160 477-507 477H370V0H180zm190-706h312c236 0 327-133 327-310 0-176-91-307-329-307H370v617" id="aH"/><path d="M158 0v-1118h175l1 205c55-151 181-225 313-225 147 0 245 90 285 228 53-141 190-228 352-228 194 0 352 125 352 384V0h-181v-749c0-161-105-225-225-225-151 0-243 103-243 244V0H807v-767c0-124-93-207-219-207-131 0-250 92-250 270V0H158" id="aI"/><g id="x"><use transform="matrix(0.010850694444444444,0,0,0.010850694444444444,0,0)" xlink:href="#av"/><use transform="matrix(0.010850694444444444,0,0,0.010850694444444444,14.539930555555555,0)" xlink:href="#aw"/><use transform="matrix(0.010850694444444444,0,0,0.010850694444444444,27.018229166666664,0)" xlink:href="#X"/><use transform="matrix(0.010850694444444444,0,0,0.010850694444444444,33.74565972222222,0)" xlink:href="#X"/><use transform="matrix(0.010850694444444444,0,0,0.010850694444444444,41.015625,0)" xlink:href="#ae"/><use transform="matrix(0.010850694444444444,0,0,0.010850694444444444,46.39756944444444,0)" xlink:href="#R"/><use transform="matrix(0.010850694444444444,0,0,0.010850694444444444,59.35329861111111,0)" xlink:href="#aH"/><use transform="matrix(0.010850694444444444,0,0,0.010850694444444444,73.42664930555556,0)" xlink:href="#ad"/><use transform="matrix(0.010850694444444444,0,0,0.010850694444444444,86.75130208333333,0)" xlink:href="#ay"/><use transform="matrix(0.010850694444444444,0,0,0.010850694444444444,98.44835069444444,0)" xlink:href="#R"/><use transform="matrix(0.010850694444444444,0,0,0.010850694444444444,111.4040798611111,0)" xlink:href="#aI"/><use transform="matrix(0.010850694444444444,0,0,0.010850694444444444,130.87022569444446,0)" xlink:href="#ad"/><use transform="matrix(0.010850694444444444,0,0,0.010850694444444444,144.19487847222223,0)" xlink:href="#W"/></g><path d="M135 0v-1490h581c339 0 533 192 533 485 0 204-94 351-264 424L1302 0H964L680-532H440V0H135zm305-779h220c186 0 274-77 274-226 0-150-88-233-275-233H440v459" id="aJ"/><path d="M128 0v-1118h278l12 217c60-163 185-234 319-234 143 0 236 81 288 251 63-172 205-251 359-251 205 0 357 138 357 381V0h-301v-697c0-126-76-187-177-187-114 0-184 79-184 196V0H789v-705c0-109-72-179-174-179-106 0-187 74-187 208V0H128" id="aK"/><path d="M795 20C377 20 94-272 94-743c0-483 302-767 694-767 335 0 593 206 635 500h-310c-42-142-154-229-320-229-230 0-389 177-389 493s154 495 393 495c212 0 340-120 345-311H818v-232h620v186c0 391-269 628-643 628" id="aL"/><g id="y"><use transform="matrix(0.010850694444444444,0,0,0.010850694444444444,0,0)" xlink:href="#aJ"/><use transform="matrix(0.010850694444444444,0,0,0.010850694444444444,14.485677083333332,0)" xlink:href="#G"/><use transform="matrix(0.010850694444444444,0,0,0.010850694444444444,27.38715277777778,0)" xlink:href="#aj"/><use transform="matrix(0.010850694444444444,0,0,0.010850694444444444,41.22178819444444,0)" xlink:href="#ao"/><use transform="matrix(0.010850694444444444,0,0,0.010850694444444444,55.23003472222222,0)" xlink:href="#al"/><use transform="matrix(0.010850694444444444,0,0,0.010850694444444444,68.85850694444444,0)" xlink:href="#aK"/><use transform="matrix(0.010850694444444444,0,0,0.010850694444444444,89.13845486111111,0)" xlink:href="#aL"/><use transform="matrix(0.010850694444444444,0,0,0.010850694444444444,105.81597222222224,0)" xlink:href="#J"/><use transform="matrix(0.010850694444444444,0,0,0.010850694444444444,119.05381944444446,0)" xlink:href="#aj"/><use transform="matrix(0.010850694444444444,0,0,0.010850694444444444,132.88845486111111,0)" xlink:href="#J"/><use transform="matrix(0.010850694444444444,0,0,0.010850694444444444,146.12630208333334,0)" xlink:href="#F"/><use transform="matrix(0.010850694444444444,0,0,0.010850694444444444,154.87196180555554,0)" xlink:href="#G"/><use transform="matrix(0.010850694444444444,0,0,0.010850694444444444,167.7734375,0)" xlink:href="#am"/><use transform="matrix(0.010850694444444444,0,0,0.010850694444444444,175.69444444444446,0)" xlink:href="#al"/><use transform="matrix(0.010850694444444444,0,0,0.010850694444444444,189.32291666666669,0)" xlink:href="#F"/></g><path d="M180 0v-1490h510c348 0 508 194 508 460 0 198-88 351-276 417L1256 0h-220L726-579c-117 2-238 0-356 1V0H180zm190-747h312c235 0 327-108 327-283 0-177-92-293-329-293H370v576" id="aM"/><path d="M789 20c-398 0-667-293-667-764 0-473 273-766 655-766 315 0 558 198 612 487h-196c-61-191-204-311-415-311-262 0-471 207-471 590 0 380 208 588 482 588 249 0 420-165 425-427H828v-166h572v163c0 370-256 606-611 606" id="aN"/><g id="z"><use transform="matrix(0.010850694444444444,0,0,0.010850694444444444,0,0)" xlink:href="#aM"/><use transform="matrix(0.010850694444444444,0,0,0.010850694444444444,14.192708333333332,0)" xlink:href="#aw"/><use transform="matrix(0.010850694444444444,0,0,0.010850694444444444,26.671006944444443,0)" xlink:href="#W"/><use transform="matrix(0.010850694444444444,0,0,0.010850694444444444,39.80034722222222,0)" xlink:href="#S"/><use transform="matrix(0.010850694444444444,0,0,0.010850694444444444,53.40711805555556,0)" xlink:href="#ad"/><use transform="matrix(0.010850694444444444,0,0,0.010850694444444444,66.73177083333333,0)" xlink:href="#aI"/><use transform="matrix(0.010850694444444444,0,0,0.010850694444444444,86.19791666666666,0)" xlink:href="#aN"/><use transform="matrix(0.010850694444444444,0,0,0.010850694444444444,102.77777777777777,0)" xlink:href="#R"/><use transform="matrix(0.010850694444444444,0,0,0.010850694444444444,115.73350694444444,0)" xlink:href="#W"/><use transform="matrix(0.010850694444444444,0,0,0.010850694444444444,128.86284722222223,0)" xlink:href="#R"/><use transform="matrix(0.010850694444444444,0,0,0.010850694444444444,141.81857638888889,0)" xlink:href="#Q"/><use transform="matrix(0.010850694444444444,0,0,0.010850694444444444,150.18446180555554,0)" xlink:href="#aw"/><use transform="matrix(0.010850694444444444,0,0,0.010850694444444444,162.66276041666666,0)" xlink:href="#X"/><use transform="matrix(0.010850694444444444,0,0,0.010850694444444444,169.71571180555554,0)" xlink:href="#ad"/><use transform="matrix(0.010850694444444444,0,0,0.010850694444444444,183.04036458333331,0)" xlink:href="#Q"/></g><path d="M180 0v-1490h901v168H370v510h643v168H370V0H180" id="aO"/><g id="A"><use transform="matrix(0.010850694444444444,0,0,0.010850694444444444,0,0)" xlink:href="#aO"/><use transform="matrix(0.010850694444444444,0,0,0.010850694444444444,13.118489583333332,0)" xlink:href="#L"/><use transform="matrix(0.010850694444444444,0,0,0.010850694444444444,18.50043402777778,0)" xlink:href="#O"/><use transform="matrix(0.010850694444444444,0,0,0.010850694444444444,30.132378472222225,0)" xlink:href="#R"/><use transform="matrix(0.010850694444444444,0,0,0.010850694444444444,43.08810763888889,0)" xlink:href="#S"/><use transform="matrix(0.010850694444444444,0,0,0.010850694444444444,56.69487847222223,0)" xlink:href="#aM"/><use transform="matrix(0.010850694444444444,0,0,0.010850694444444444,70.88758680555556,0)" xlink:href="#aw"/><use transform="matrix(0.010850694444444444,0,0,0.010850694444444444,83.36588541666667,0)" xlink:href="#W"/><use transform="matrix(0.010850694444444444,0,0,0.010850694444444444,96.49522569444444,0)" xlink:href="#S"/><use transform="matrix(0.010850694444444444,0,0,0.010850694444444444,110.10199652777777,0)" xlink:href="#ad"/><use transform="matrix(0.010850694444444444,0,0,0.010850694444444444,123.42664930555556,0)" xlink:href="#aI"/><use transform="matrix(0.010850694444444444,0,0,0.010850694444444444,142.89279513888889,0)" xlink:href="#aN"/><use transform="matrix(0.010850694444444444,0,0,0.010850694444444444,159.47265625,0)" xlink:href="#R"/><use transform="matrix(0.010850694444444444,0,0,0.010850694444444444,172.42838541666666,0)" xlink:href="#W"/><use transform="matrix(0.010850694444444444,0,0,0.010850694444444444,185.55772569444443,0)" xlink:href="#R"/><use transform="matrix(0.010850694444444444,0,0,0.010850694444444444,198.51345486111111,0)" xlink:href="#Q"/><use transform="matrix(0.010850694444444444,0,0,0.010850694444444444,206.87934027777774,0)" xlink:href="#aw"/><use transform="matrix(0.010850694444444444,0,0,0.010850694444444444,219.35763888888883,0)" xlink:href="#X"/><use transform="matrix(0.010850694444444444,0,0,0.010850694444444444,226.41059027777774,0)" xlink:href="#ad"/><use transform="matrix(0.010850694444444444,0,0,0.010850694444444444,239.73524305555551,0)" xlink:href="#Q"/></g></defs></g></svg>