<svg xmlns="http://www.w3.org/2000/svg" xmlns:xlink="http://www.w3.org/1999/xlink" xmlns:lucid="lucid" width="1362" height="955.5"><g transform="translate(2561.00000003638 -5998.999999989146)" lucid:page-tab-id="0_0"><path d="M-14500-2500h25000v16000h-25000z" fill="#fff"/><path d="M-1550 6839.5a6 6 0 0 1 6-6h228a6 6 0 0 1 6 6v108a6 6 0 0 1-6 6h-228a6 6 0 0 1-6-6z" stroke="#000" stroke-width="2" fill="#fff"/><path d="M-1550 6875.3h240" stroke="#000" stroke-width="2" fill="none"/><use xlink:href="#a" transform="matrix(1,0,0,1,-1542,6841.5) translate(39.36458333333333 20.760416666666668)"/><use xlink:href="#b" transform="matrix(1,0,0,1,-1538,6883.3125) translate(0 39.083767361111114)"/><use xlink:href="#c" transform="matrix(1,0,0,1,-1538,6883.3125) translate(20.95269097222222 39.083767361111114)"/><path d="M-2560 6839.5a6 6 0 0 1 6-6h228a6 6 0 0 1 6 6v108a6 6 0 0 1-6 6h-228a6 6 0 0 1-6-6z" stroke="#000" stroke-width="2" fill="#fff"/><path d="M-2560 6875.3h240" stroke="#000" stroke-width="2" fill="none"/><use xlink:href="#d" transform="matrix(1,0,0,1,-2552,6841.5) translate(18.593750000000014 20.760416666666668)"/><use xlink:href="#b" transform="matrix(1,0,0,1,-2548,6883.3125) translate(0 39.083767361111114)"/><use xlink:href="#c" transform="matrix(1,0,0,1,-2548,6883.3125) translate(20.95269097222222 39.083767361111114)"/><path d="M-2020 6861.5a6 6 0 0 1 6-6h170.45a6 6 0 0 1 6 6v64a6 6 0 0 1-6 6H-2014a6 6 0 0 1-6-6z" stroke="#000" stroke-width="2" fill="#fff"/><use xlink:href="#e" transform="matrix(1,0,0,1,-2012.0000000000002,6863.5) translate(48.44140625 38.083767361111114)"/><path d="M-1820.16 6893.5h9.95m9.94 0h19.9m9.95 0h19.9m9.94 0h19.9m9.95 0h19.9m9.94 0h19.9m9.96 0h19.9m9.95 0h19.9m9.95 0h19.9m9.95 0h9.95" stroke="#3a414a" fill="none"/><path d="M-1834.93 6893.5l14.27-4.64v9.28z" stroke="#3a414a" fill="#fff"/><path d="M-1551 6893.98h-.5v-.95h.5z" stroke="#3a414a" stroke-width=".05" fill="#3a414a"/><path d="M-2037.38 6893.5h-10.42m-10.4 0h-20.83m-10.4 0h-20.84m-10.4 0h-20.83m-10.4 0h-20.84m-10.4 0h-20.83m-10.4 0h-20.84m-10.42 0h-20.82m-10.4 0h-20.84m-10.4 0h-10.42" stroke="#3a414a" fill="none"/><path d="M-2022.62 6893.5l-14.26 4.64v-9.28z" stroke="#3a414a" fill="#fff"/><path d="M-2318.5 6893.98h-.5v-.95h.5z" stroke="#3a414a" stroke-width=".05" fill="#3a414a"/><path d="M-2440 6832v-62.5a6 6 0 0 1 6-6h499.23a6 6 0 0 0 6-6v-32.63" stroke="#3a414a" fill="none"/><path d="M-2439.53 6832.5h-.94v-.5h.94z" stroke="#3a414a" stroke-width=".05" fill="#3a414a"/><path d="M-1928.77 6695.2l-14.85 14.86 14.85 14.85 14.85-14.84z" stroke="#3a414a" fill="#3a414a"/><path d="M-1430 6832v-62.5a6 6 0 0 0-6-6h-486.77a6 6 0 0 1-6-6v-32.63" stroke="#3a414a" fill="none"/><path d="M-1429.53 6832.5h-.94v-.5h.94z" stroke="#3a414a" stroke-width=".05" fill="#3a414a"/><path d="M-1928.77 6695.2l-14.85 14.86 14.85 14.85 14.85-14.84z" stroke="#3a414a" fill="#3a414a"/><path d="M-1928.77 6334.5v87.62" stroke="#3a414a" fill="none"/><path d="M-1928.3 6334.5h-.95v-.5h.95z" stroke="#3a414a" stroke-width=".05" fill="#3a414a"/><path d="M-1928.77 6451.8l14.85-14.86-14.85-14.85-14.85 14.84z" stroke="#3a414a" fill="#3a414a"/><path d="M-2146.66 6459.5a6 6 0 0 1 6-6h423.77a6 6 0 0 1 6 6v228a6 6 0 0 1-6 6h-423.76a6 6 0 0 1-6-6z" stroke="#000" stroke-width="2" fill="#fff"/><path d="M-2146.66 6496.4h435.77m-435.76 50.38h435.77" stroke="#000" stroke-width="2" fill="none"/><use xlink:href="#f" transform="matrix(1,0,0,1,-2138.659613715278,6461.5) translate(131.337890625 21.58376736111111)"/><use xlink:href="#b" transform="matrix(1,0,0,1,-2134.659613715278,6554.776041666666) translate(0 25.685329861111114)"/><use xlink:href="#g" transform="matrix(1,0,0,1,-2134.659613715278,6554.776041666666) translate(20.95269097222222 25.685329861111114)"/><use xlink:href="#h" transform="matrix(1,0,0,1,-2134.659613715278,6554.776041666666) translate(101.82291666666666 25.685329861111114)"/><use xlink:href="#b" transform="matrix(1,0,0,1,-2134.659613715278,6554.776041666666) translate(0 57.950954861111114)"/><use xlink:href="#i" transform="matrix(1,0,0,1,-2134.659613715278,6554.776041666666) translate(20.95269097222222 57.950954861111114)"/><use xlink:href="#j" transform="matrix(1,0,0,1,-2134.659613715278,6554.776041666666) translate(149.94574652777777 57.950954861111114)"/><use xlink:href="#b" transform="matrix(1,0,0,1,-2134.659613715278,6554.776041666666) translate(0 90.21657986111111)"/><use xlink:href="#k" transform="matrix(1,0,0,1,-2134.659613715278,6554.776041666666) translate(20.95269097222222 90.21657986111111)"/><use xlink:href="#l" transform="matrix(1,0,0,1,-2134.659613715278,6554.776041666666) translate(0 122.48220486111111)"/><use xlink:href="#m" transform="matrix(1,0,0,1,-2134.659613715278,6554.776041666666) translate(143.45703125 122.48220486111111)"/><path d="M-1640 6132.5a6 6 0 0 1 6-6h148a6 6 0 0 1 6 6v68a6 6 0 0 1-6 6h-148a6 6 0 0 1-6-6zm16-6v80m128-80v80" stroke="#000" stroke-width="2" fill="#fff"/><use xlink:href="#n" transform="matrix(1,0,0,1,-1620,6126.5) translate(33.55143229166667 48.083767361111114)"/><path d="M-1340 6130.5a6 6 0 0 1 6-6h128a6 6 0 0 1 6 6v72a6 6 0 0 1-6 6h-128a6 6 0 0 1-6-6z" stroke="#000" stroke-width="2" fill="#fff"/><use xlink:href="#o" transform="matrix(1,0,0,1,-1332,6132.5) translate(40.08159722222222 42.083767361111114)"/><path d="M-1341.5 6166.5h-107.13" stroke="#3a414a" fill="none"/><path d="M-1341 6166.98h-.5v-.95h.5z" stroke="#3a414a" stroke-width=".05" fill="#3a414a"/><path d="M-1478.3 6166.5l14.86 14.85 14.85-14.85-14.84-14.85z" stroke="#3a414a" fill="#3a414a"/><path d="M-1641.5 6166.5h-68.9" stroke="#3a414a" fill="none"/><path d="M-1641 6166.98h-.5v-.95h.5z" stroke="#3a414a" stroke-width=".05" fill="#3a414a"/><path d="M-1740.07 6166.5l14.85 14.85 14.85-14.85-14.85-14.85z" stroke="#3a414a" fill="#3a414a"/><path d="M-2531.23 6022.5a6 6 0 0 1 6-6h170.46a6 6 0 0 1 6 6v61a6 6 0 0 1-6 6h-170.46a6 6 0 0 1-6-6z" stroke="#000" stroke-width="2" fill="#fff"/><use xlink:href="#p" transform="matrix(1,0,0,1,-2523.227213541667,6024.5) translate(56.46549479166667 36.583767361111114)"/><path d="M-2347.27 6053h109a6 6 0 0 1 6 6v101.5a6 6 0 0 0 6 6h79.12" stroke="#3a414a" fill="none"/><path d="M-2347.26 6053.48h-.5v-.95h.5z" stroke="#3a414a" stroke-width=".05" fill="#3a414a"/><path d="M-2117.48 6166.5l-14.85-14.85-14.85 14.85 14.85 14.85z" stroke="#3a414a" fill="#3a414a"/><path d="M-2115.77 6006a6 6 0 0 1 6-6h362a6 6 0 0 1 6 6v321a6 6 0 0 1-6 6h-362a6 6 0 0 1-6-6z" stroke="#000" stroke-width="2" fill="#fff"/><path d="M-2115.77 6042.9h374m-374 225.7h374" stroke="#000" stroke-width="2" fill="none"/><use xlink:href="#q" transform="matrix(1,0,0,1,-2107.7736545138887,6008) translate(128.89236111111111 21.58376736111111)"/><use xlink:href="#r" transform="matrix(1,0,0,1,-2103.7736545138887,6050.888020833333) translate(0 32.41970486111112)"/><use xlink:href="#s" transform="matrix(1,0,0,1,-2103.7736545138887,6050.888020833333) translate(85.38411458333334 32.41970486111112)"/><use xlink:href="#t" transform="matrix(1,0,0,1,-2103.7736545138887,6050.888020833333) translate(0 64.68532986111111)"/><use xlink:href="#u" transform="matrix(1,0,0,1,-2103.7736545138887,6050.888020833333) translate(20.95269097222222 64.68532986111111)"/><use xlink:href="#v" transform="matrix(1,0,0,1,-2103.7736545138887,6050.888020833333) translate(92.08984375 64.68532986111111)"/><use xlink:href="#t" transform="matrix(1,0,0,1,-2103.7736545138887,6050.888020833333) translate(0 96.95095486111111)"/><use xlink:href="#w" transform="matrix(1,0,0,1,-2103.7736545138887,6050.888020833333) translate(20.95269097222222 96.95095486111111)"/><use xlink:href="#x" transform="matrix(1,0,0,1,-2103.7736545138887,6050.888020833333) translate(60.3515625 96.95095486111111)"/><use xlink:href="#t" transform="matrix(1,0,0,1,-2103.7736545138887,6050.888020833333) translate(0 129.21657986111111)"/><use xlink:href="#y" transform="matrix(1,0,0,1,-2103.7736545138887,6050.888020833333) translate(20.95269097222222 129.21657986111111)"/><use xlink:href="#z" transform="matrix(1,0,0,1,-2103.7736545138887,6050.888020833333) translate(83.97352430555554 129.21657986111111)"/><use xlink:href="#t" transform="matrix(1,0,0,1,-2103.7736545138887,6050.888020833333) translate(0 161.48220486111111)"/><use xlink:href="#A" transform="matrix(1,0,0,1,-2103.7736545138887,6050.888020833333) translate(20.95269097222222 161.48220486111111)"/><use xlink:href="#B" transform="matrix(1,0,0,1,-2103.7736545138887,6050.888020833333) translate(96.02864583333334 161.48220486111111)"/><use xlink:href="#C" transform="matrix(1,0,0,1,-2103.7736545138887,6050.888020833333) translate(0 193.74782986111111)"/><use xlink:href="#D" transform="matrix(1,0,0,1,-2103.7736545138887,6050.888020833333) translate(96.45182291666667 193.74782986111111)"/><path d="M-2531.23 6136a6 6 0 0 1 6-6h170.46a6 6 0 0 1 6 6v61a6 6 0 0 1-6 6h-170.46a6 6 0 0 1-6-6z" stroke="#000" stroke-width="2" fill="#fff"/><g><use xlink:href="#E" transform="matrix(1,0,0,1,-2523.227213541667,6138) translate(48.16471354166667 36.583767361111114)"/></g><path d="M-2531.23 6249.5a6 6 0 0 1 6-6h170.46a6 6 0 0 1 6 6v61a6 6 0 0 1-6 6h-170.46a6 6 0 0 1-6-6z" stroke="#000" stroke-width="2" fill="#fff"/><g><use xlink:href="#F" transform="matrix(1,0,0,1,-2523.227213541667,6251.5) translate(53.45442708333333 36.583767361111114)"/></g><path d="M-2347.27 6166.5h200.12" stroke="#3a414a" fill="none"/><path d="M-2347.26 6166.98h-.5v-.95h.5z" stroke="#3a414a" stroke-width=".05" fill="#3a414a"/><path d="M-2117.48 6166.5l-14.85-14.85-14.85 14.85 14.85 14.85z" stroke="#3a414a" fill="#3a414a"/><path d="M-2347.27 6280h109a6 6 0 0 0 6-6v-101.5a6 6 0 0 1 6-6h79.12" stroke="#3a414a" fill="none"/><path d="M-2347.26 6280.48h-.5v-.95h.5z" stroke="#3a414a" stroke-width=".05" fill="#3a414a"/><path d="M-2117.48 6166.5l-14.85-14.85-14.85 14.85 14.85 14.85z" stroke="#3a414a" fill="#3a414a"/><path d="M-2500 6549.5a6 6 0 0 1 6-6h188a6 6 0 0 1 6 6v48a6 6 0 0 1-6 6h-188a6 6 0 0 1-6-6zm20-6v60m160-60v60" stroke="#000" stroke-width="2" fill="#fff"/><g><use xlink:href="#G" transform="matrix(1,0,0,1,-2475,6543.5) translate(13.525390624999993 38.083767361111114)"/></g><path d="M-2289.56 6573.5h9.43m9.43 0h18.85m9.43 0h18.85m9.43 0h18.85m9.44 0h18.85m9.4 0h9.44M-2280.68 6583.5l-17.32-10 17.32-10m-17.32 10h8.5" stroke="#3a414a" fill="none"/><path d="M-2147.66 6573.98h-.5v-.95h.5z" stroke="#3a414a" stroke-width=".05" fill="#3a414a"/><defs><path d="M571 0L49-1490h339c138 427 271 775 384 1244 111-471 237-815 371-1244h337L970 0H571" id="H"/><path d="M628 22C291 22 81-210 81-554c0-346 210-578 547-578 336 0 547 232 547 578 0 344-211 576-547 576zm0-236c160 0 242-146 242-341 0-197-82-341-242-341S387-753 387-555c0 195 81 341 241 341" id="I"/><path d="M428-1490V0H128v-1490h300" id="J"/><path d="M440 22C227 22 68-92 68-313c0-250 202-322 422-343 195-21 271-24 271-105 0-95-63-149-175-149-116 0-187 57-211 129l-275-46c57-194 237-305 487-305 240 0 474 108 474 379V0H777v-155h-10C713-51 605 22 440 22zm85-211c140 0 238-93 238-211v-121c-37 26-156 42-222 51-111 16-185 59-185 149 0 87 70 132 169 132" id="K"/><path d="M683-1118v229H474v562c0 71 29 104 102 104 23 0 73-7 95-13l43 225C647 9 580 16 520 16 296 16 174-96 174-301v-588H20v-229h154v-266h300v266h209" id="L"/><path d="M128 0v-1118h300V0H128zm150-1264c-91 0-165-68-165-154 0-85 74-154 165-154 90 0 165 69 165 154 0 86-75 154-165 154" id="M"/><path d="M633 22C291 22 81-200 81-553c0-345 210-579 537-579 292 0 525 185 525 567v84H378c7 183 109 277 260 277 105 0 184-46 216-132l272 51C1071-99 893 22 633 22zM380-669h474c-15-146-94-237-233-237-143 0-229 99-241 237" id="N"/><path d="M681 22C323 22 94-145 85-462h297c10 151 131 226 296 226 163 0 271-77 271-190 0-102-95-149-257-189l-164-41c-252-61-403-188-403-405 0-269 236-449 560-449 330 0 546 183 551 445H941c-11-119-106-188-259-188-156 0-244 72-244 172-3 156 226 185 373 221 250 61 445 186 445 436 0 271-213 446-575 446" id="O"/><path d="M513 14c-232 0-385-159-385-421v-711h300v659c0 139 76 222 202 222 127 0 217-86 217-234v-647h301V0H864l-4-232C797-74 683 14 513 14" id="P"/><path d="M572 22C302 22 117-98 78-306l279-48c29 105 101 156 224 156 114 0 185-48 185-115 0-118-228-130-337-155-215-49-322-150-322-317 0-215 187-347 470-347 265 0 424 116 466 298l-266 47c-24-76-87-130-196-130-98 0-174 46-174 113 0 56 38 95 144 117l201 40c216 44 320 143 320 302 0 220-207 367-500 367" id="Q"/><g id="a"><use transform="matrix(0.010416666666666668,0,0,0.010416666666666668,0,0)" xlink:href="#H"/><use transform="matrix(0.010416666666666668,0,0,0.010416666666666668,14.625000000000002,0)" xlink:href="#I"/><use transform="matrix(0.010416666666666668,0,0,0.010416666666666668,27.708333333333336,0)" xlink:href="#J"/><use transform="matrix(0.010416666666666668,0,0,0.010416666666666668,33.489583333333336,0)" xlink:href="#K"/><use transform="matrix(0.010416666666666668,0,0,0.010416666666666668,45.87499999999999,0)" xlink:href="#L"/><use transform="matrix(0.010416666666666668,0,0,0.010416666666666668,53.6875,0)" xlink:href="#M"/><use transform="matrix(0.010416666666666668,0,0,0.010416666666666668,59.46875,0)" xlink:href="#J"/><use transform="matrix(0.010416666666666668,0,0,0.010416666666666668,65.25,0)" xlink:href="#N"/><use transform="matrix(0.010416666666666668,0,0,0.010416666666666668,77.95833333333333,0)" xlink:href="#O"/><use transform="matrix(0.010416666666666668,0,0,0.010416666666666668,91.92708333333333,0)" xlink:href="#L"/><use transform="matrix(0.010416666666666668,0,0,0.010416666666666668,99.84374999999999,0)" xlink:href="#K"/><use transform="matrix(0.010416666666666668,0,0,0.010416666666666668,112.22916666666669,0)" xlink:href="#L"/><use transform="matrix(0.010416666666666668,0,0,0.010416666666666668,120.04166666666669,0)" xlink:href="#P"/><use transform="matrix(0.010416666666666668,0,0,0.010416666666666668,133.32291666666669,0)" xlink:href="#Q"/></g><path d="M593-100v-404H195v-159h398v-403h169v403h398v159H762v404H593" id="R"/><use transform="matrix(0.010850694444444444,0,0,0.010850694444444444,0,0)" xlink:href="#R" id="b"/><path d="M628 24c-324 0-524-230-524-574 0-343 198-582 503-582 237 0 487 146 487 559v75H286c9 234 145 362 343 362 132 0 231-58 273-172l174 48C1024-91 857 24 628 24zM287-650h624c-17-190-120-322-304-322-192 0-309 151-320 322" id="S"/><path d="M65 0l393-574-370-544h210c88 136 192 297 267 435 67-142 176-302 264-435h206L661-564 1053 0H844c-94-144-206-310-287-458C484-308 366-142 273 0H65" id="T"/><path d="M613 24c-304 0-509-231-509-576 0-350 205-580 509-580 216 0 392 114 453 309l-173 49c-33-115-133-197-280-197-223 0-326 196-326 419 0 220 103 415 326 415 150 0 252-85 285-206l172 49C1010-95 832 24 613 24" id="U"/><path d="M537 14c-226 0-379-139-379-422v-710h180v695c0 172 97 275 253 275 160 0 281-109 281-300v-670h181V0H879v-209C806-46 684 14 537 14" id="V"/><path d="M598-1118v154H368v674c0 100 37 144 132 144 23 0 62-6 92-12L629-6c-37 13-88 20-134 20-193 0-307-107-307-290v-688H20v-154h168v-266h180v266h230" id="W"/><path d="M180 0v-1490h908v168H370v486h669v168H370v500h727V0H180" id="X"/><path d="M678-1118v154H420V0H240v-964H20v-154h220v-149c0-194 155-293 318-293 85 0 141 18 168 30l-50 154c-19-6-47-17-97-17-111 0-159 58-159 166v109h258" id="Y"/><g id="c"><use transform="matrix(0.010850694444444444,0,0,0.010850694444444444,0,0)" xlink:href="#S"/><use transform="matrix(0.010850694444444444,0,0,0.010850694444444444,12.456597222222221,0)" xlink:href="#T"/><use transform="matrix(0.010850694444444444,0,0,0.010850694444444444,24.088541666666664,0)" xlink:href="#S"/><use transform="matrix(0.010850694444444444,0,0,0.010850694444444444,37.04427083333333,0)" xlink:href="#U"/><use transform="matrix(0.010850694444444444,0,0,0.010850694444444444,49.73958333333333,0)" xlink:href="#V"/><use transform="matrix(0.010850694444444444,0,0,0.010850694444444444,62.87977430555555,0)" xlink:href="#W"/><use transform="matrix(0.010850694444444444,0,0,0.010850694444444444,69.93272569444444,0)" xlink:href="#S"/><use transform="matrix(0.010850694444444444,0,0,0.010850694444444444,82.88845486111111,0)" xlink:href="#X"/><use transform="matrix(0.010850694444444444,0,0,0.010850694444444444,96.24565972222221,0)" xlink:href="#Y"/><use transform="matrix(0.010850694444444444,0,0,0.010850694444444444,103.60243055555556,0)" xlink:href="#Y"/><use transform="matrix(0.010850694444444444,0,0,0.010850694444444444,111.17621527777777,0)" xlink:href="#S"/><use transform="matrix(0.010850694444444444,0,0,0.010850694444444444,124.13194444444444,0)" xlink:href="#U"/><use transform="matrix(0.010850694444444444,0,0,0.010850694444444444,136.82725694444446,0)" xlink:href="#W"/></g><path d="M135 0v-1490h340l471 754c59 97 122 210 187 365-32-387-14-721-19-1119h312V0h-341C855-382 627-689 427-1113c32 420 16 695 20 1113H135" id="Z"/><path d="M428-647V0H128v-1118h283l4 231c63-156 176-245 348-245 232 0 384 159 384 421V0H847v-659c0-139-76-222-202-222-128 0-217 86-217 234" id="aa"/><g id="d"><use transform="matrix(0.010416666666666668,0,0,0.010416666666666668,0,0)" xlink:href="#Z"/><use transform="matrix(0.010416666666666668,0,0,0.010416666666666668,16.260416666666668,0)" xlink:href="#I"/><use transform="matrix(0.010416666666666668,0,0,0.010416666666666668,29.34375,0)" xlink:href="#aa"/><use transform="matrix(0.010416666666666668,0,0,0.010416666666666668,41.54166666666667,0)" xlink:href="#H"/><use transform="matrix(0.010416666666666668,0,0,0.010416666666666668,56.16666666666667,0)" xlink:href="#I"/><use transform="matrix(0.010416666666666668,0,0,0.010416666666666668,69.25,0)" xlink:href="#J"/><use transform="matrix(0.010416666666666668,0,0,0.010416666666666668,75.03125,0)" xlink:href="#K"/><use transform="matrix(0.010416666666666668,0,0,0.010416666666666668,87.41666666666667,0)" xlink:href="#L"/><use transform="matrix(0.010416666666666668,0,0,0.010416666666666668,95.22916666666667,0)" xlink:href="#M"/><use transform="matrix(0.010416666666666668,0,0,0.010416666666666668,101.01041666666667,0)" xlink:href="#J"/><use transform="matrix(0.010416666666666668,0,0,0.010416666666666668,106.79166666666669,0)" xlink:href="#N"/><use transform="matrix(0.010416666666666668,0,0,0.010416666666666668,119.5,0)" xlink:href="#O"/><use transform="matrix(0.010416666666666668,0,0,0.010416666666666668,133.46875,0)" xlink:href="#L"/><use transform="matrix(0.010416666666666668,0,0,0.010416666666666668,141.38541666666666,0)" xlink:href="#K"/><use transform="matrix(0.010416666666666668,0,0,0.010416666666666668,153.77083333333331,0)" xlink:href="#L"/><use transform="matrix(0.010416666666666668,0,0,0.010416666666666668,161.58333333333331,0)" xlink:href="#P"/><use transform="matrix(0.010416666666666668,0,0,0.010416666666666668,174.86458333333331,0)" xlink:href="#Q"/></g><g id="e"><use transform="matrix(0.010850694444444444,0,0,0.010850694444444444,0,0)" xlink:href="#O"/><use transform="matrix(0.010850694444444444,0,0,0.010850694444444444,14.55078125,0)" xlink:href="#L"/><use transform="matrix(0.010850694444444444,0,0,0.010850694444444444,22.79730902777778,0)" xlink:href="#K"/><use transform="matrix(0.010850694444444444,0,0,0.010850694444444444,35.69878472222222,0)" xlink:href="#L"/><use transform="matrix(0.010850694444444444,0,0,0.010850694444444444,43.83680555555556,0)" xlink:href="#P"/><use transform="matrix(0.010850694444444444,0,0,0.010850694444444444,57.67144097222222,0)" xlink:href="#Q"/></g><path d="M180 0v-1490h528c311 0 458 177 458 395 0 191-114 278-244 313v14c139 9 302 137 302 371 0 225-148 397-499 397H180zm190-168h350c232 0 321-102 321-231 0-149-120-277-311-277H370v508zm0-668h328c160 0 286-101 286-255 0-129-87-231-280-231H370v486" id="ab"/><path d="M471 26C259 26 90-98 90-318c0-256 228-303 435-329 202-27 287-16 287-108 0-139-79-219-234-219-161 0-248 86-283 164l-173-57c86-203 278-265 451-265 150 0 419 46 419 395V0H815v-152h-12C765-73 660 26 471 26zm31-159c199 0 310-134 310-271v-155c-30 35-226 55-295 64-131 17-246 59-246 186 0 116 97 176 231 176" id="ac"/><path d="M338-1490V0H158v-1490h180" id="ad"/><path d="M180 0v-1490h510c348 0 508 209 508 474 0 266-160 477-507 477H370V0H180zm190-706h312c236 0 327-133 327-310 0-176-91-307-329-307H370v617" id="ae"/><path d="M613 24c-304 0-509-231-509-576 0-350 205-580 509-580 305 0 511 230 511 580 0 345-206 576-511 576zm0-161c226 0 329-195 329-415 0-222-103-419-329-419-223 0-326 196-326 419 0 220 103 415 326 415" id="af"/><path d="M158 0v-1490h180v865h22l478-493h223L593-638 1096 0H865L456-523 338-412V0H158" id="ag"/><path d="M158 0v-1118h175l1 205c55-151 181-225 313-225 147 0 245 90 285 228 53-141 190-228 352-228 194 0 352 125 352 384V0h-181v-749c0-161-105-225-225-225-151 0-243 103-243 244V0H807v-767c0-124-93-207-219-207-131 0-250 92-250 270V0H158" id="ah"/><path d="M338-670V0H158v-1118h173l1 207c72-158 192-221 342-221 226 0 378 139 378 422V0H872v-695c0-172-96-275-252-275-161 0-282 109-282 300" id="ai"/><g id="f"><use transform="matrix(0.010850694444444444,0,0,0.010850694444444444,0,0)" xlink:href="#ab"/><use transform="matrix(0.010850694444444444,0,0,0.010850694444444444,14.539930555555555,0)" xlink:href="#ac"/><use transform="matrix(0.010850694444444444,0,0,0.010850694444444444,27.018229166666664,0)" xlink:href="#W"/><use transform="matrix(0.010850694444444444,0,0,0.010850694444444444,33.74565972222222,0)" xlink:href="#W"/><use transform="matrix(0.010850694444444444,0,0,0.010850694444444444,41.015625,0)" xlink:href="#ad"/><use transform="matrix(0.010850694444444444,0,0,0.010850694444444444,46.39756944444444,0)" xlink:href="#S"/><use transform="matrix(0.010850694444444444,0,0,0.010850694444444444,59.35329861111111,0)" xlink:href="#ae"/><use transform="matrix(0.010850694444444444,0,0,0.010850694444444444,73.42664930555556,0)" xlink:href="#af"/><use transform="matrix(0.010850694444444444,0,0,0.010850694444444444,86.75130208333333,0)" xlink:href="#ag"/><use transform="matrix(0.010850694444444444,0,0,0.010850694444444444,98.44835069444444,0)" xlink:href="#S"/><use transform="matrix(0.010850694444444444,0,0,0.010850694444444444,111.4040798611111,0)" xlink:href="#ah"/><use transform="matrix(0.010850694444444444,0,0,0.010850694444444444,130.87022569444446,0)" xlink:href="#af"/><use transform="matrix(0.010850694444444444,0,0,0.010850694444444444,144.19487847222223,0)" xlink:href="#ai"/></g><path d="M158 0v-1118h180V0H158zm91-1301c-68 0-125-53-125-119s57-119 125-119c69 0 126 53 126 119s-57 119-126 119" id="aj"/><path d="M538 24C308 24 148-78 108-271l171-41c32 123 123 178 257 178 156 0 256-77 256-169 0-77-54-128-164-154l-186-44c-203-48-300-148-300-305 0-192 176-326 414-326 230 0 351 112 402 269l-163 42c-31-80-94-158-238-158-133 0-233 69-233 162 0 83 57 129 188 160l169 40c203 48 298 149 298 302 0 196-179 339-441 339" id="ak"/><path d="M52 0l541-1490h220L1361 0h-200l-149-416H398L254 0H52zm404-582h497c-103-290-145-390-251-756-108 377-145 460-246 756" id="al"/><path d="M481 0L54-1118h197c107 314 236 620 325 951 87-331 217-637 324-951h197L670 0H481" id="am"/><path d="M295 13c-75 0-135-60-135-135s60-135 135-135 135 60 135 135S370 13 295 13zm0-809c-75 0-135-60-135-135s60-135 135-135 135 60 135 135-60 135-135 135" id="an"/><g id="g"><use transform="matrix(0.010850694444444444,0,0,0.010850694444444444,0,0)" xlink:href="#aj"/><use transform="matrix(0.010850694444444444,0,0,0.010850694444444444,5.381944444444445,0)" xlink:href="#ak"/><use transform="matrix(0.010850694444444444,0,0,0.010850694444444444,17.11154513888889,0)" xlink:href="#al"/><use transform="matrix(0.010850694444444444,0,0,0.010850694444444444,32.443576388888886,0)" xlink:href="#ad"/><use transform="matrix(0.010850694444444444,0,0,0.010850694444444444,37.82552083333333,0)" xlink:href="#aj"/><use transform="matrix(0.010850694444444444,0,0,0.010850694444444444,43.20746527777777,0)" xlink:href="#am"/><use transform="matrix(0.010850694444444444,0,0,0.010850694444444444,55.26258680555556,0)" xlink:href="#S"/><use transform="matrix(0.010850694444444444,0,0,0.010850694444444444,68.21831597222221,0)" xlink:href="#an"/></g><path d="M677 24c-213 0-288-135-325-197h-20V0H158v-1490h180v551h14c37-59 106-193 324-193 279 0 474 222 474 576 0 356-194 580-473 580zm-27-161c209 0 317-186 317-421 0-232-105-413-317-413-206 0-314 166-314 413 0 249 111 421 314 421" id="ao"/><g id="h"><use transform="matrix(0.010850694444444444,0,0,0.010850694444444444,0,0)" xlink:href="#ao"/><use transform="matrix(0.010850694444444444,0,0,0.010850694444444444,13.606770833333332,0)" xlink:href="#af"/><use transform="matrix(0.010850694444444444,0,0,0.010850694444444444,26.931423611111104,0)" xlink:href="#af"/><use transform="matrix(0.010850694444444444,0,0,0.010850694444444444,40.256076388888886,0)" xlink:href="#ad"/></g><path d="M657 26c-323 0-524-166-541-416h195c15 169 171 246 346 246 202 0 356-106 356-265 5-203-294-238-475-293-239-73-380-191-380-389 0-252 224-419 512-419 294 0 499 171 508 396H992c-17-145-151-228-328-228-193 0-321 102-321 242 0 156 175 211 284 241l149 41c160 44 422 134 422 412 0 244-197 432-541 432" id="ap"/><g id="i"><use transform="matrix(0.010850694444444444,0,0,0.010850694444444444,0,0)" xlink:href="#ac"/><use transform="matrix(0.010850694444444444,0,0,0.010850694444444444,12.47829861111111,0)" xlink:href="#U"/><use transform="matrix(0.010850694444444444,0,0,0.010850694444444444,25.17361111111111,0)" xlink:href="#W"/><use transform="matrix(0.010850694444444444,0,0,0.010850694444444444,32.443576388888886,0)" xlink:href="#V"/><use transform="matrix(0.010850694444444444,0,0,0.010850694444444444,45.58376736111111,0)" xlink:href="#ac"/><use transform="matrix(0.010850694444444444,0,0,0.010850694444444444,58.06206597222221,0)" xlink:href="#ad"/><use transform="matrix(0.010850694444444444,0,0,0.010850694444444444,63.44401041666666,0)" xlink:href="#ap"/><use transform="matrix(0.010850694444444444,0,0,0.010850694444444444,77.70182291666666,0)" xlink:href="#W"/><use transform="matrix(0.010850694444444444,0,0,0.010850694444444444,85.08029513888887,0)" xlink:href="#ac"/><use transform="matrix(0.010850694444444444,0,0,0.010850694444444444,97.55859374999997,0)" xlink:href="#W"/><use transform="matrix(0.010850694444444444,0,0,0.010850694444444444,104.61154513888887,0)" xlink:href="#ak"/><use transform="matrix(0.010850694444444444,0,0,0.010850694444444444,116.34114583333331,0)" xlink:href="#an"/></g><g id="j"><use transform="matrix(0.010850694444444444,0,0,0.010850694444444444,0,0)" xlink:href="#ap"/><use transform="matrix(0.010850694444444444,0,0,0.010850694444444444,14.2578125,0)" xlink:href="#W"/><use transform="matrix(0.010850694444444444,0,0,0.010850694444444444,21.63628472222222,0)" xlink:href="#ac"/><use transform="matrix(0.010850694444444444,0,0,0.010850694444444444,34.11458333333333,0)" xlink:href="#W"/><use transform="matrix(0.010850694444444444,0,0,0.010850694444444444,41.16753472222222,0)" xlink:href="#ak"/></g><path d="M158 418v-1536h174v179h20c37-59 106-193 324-193 279 0 474 222 474 576 0 356-194 580-473 580-213 0-288-135-325-197h-14v591H158zm492-555c209 0 317-186 317-421 0-232-105-413-317-413-206 0-314 166-314 413 0 249 111 421 314 421" id="aq"/><path d="M140 405l46-156c120 36 205 19 263-150l32-93L54-1118h197c107 313 237 620 324 950 87-331 219-637 326-950h196L606 167c-68 178-176 259-334 259-64 0-113-12-132-21" id="ar"/><path d="M783 20c-382 0-661-292-661-764 0-473 279-766 661-766 302 0 548 182 601 489h-190c-42-204-217-313-411-313-268 0-476 208-476 590 0 381 209 588 476 588 195 0 369-110 411-313h190c-52 303-296 489-601 489" id="as"/><path d="M338-670V0H158v-1490h180v566c73-149 190-208 336-208 226 0 379 139 379 422V0H872v-695c0-172-96-275-252-275-161 0-282 109-282 300" id="at"/><path d="M611 442c-248 0-391-105-460-228l146-94c47 65 117 165 314 165 178 0 307-82 307-266v-224h-17C863-141 792-18 576-18c-268 0-472-195-472-546 0-346 197-568 476-568 216 0 288 133 326 193h17v-179h175V29c0 289-215 413-487 413zm-5-620c203 0 314-146 314-390 0-237-108-403-314-403-213 0-319 180-319 403 0 230 109 390 319 390" id="au"/><path d="M218-607c0-325 108-727 258-974h175c-155 315-250 682-250 974 0 265 78 531 250 886H476C306-10 218-315 218-607" id="av"/><g id="k"><use transform="matrix(0.010850694444444444,0,0,0.010850694444444444,0,0)" xlink:href="#ac"/><use transform="matrix(0.010850694444444444,0,0,0.010850694444444444,12.47829861111111,0)" xlink:href="#aq"/><use transform="matrix(0.010850694444444444,0,0,0.010850694444444444,26.085069444444443,0)" xlink:href="#aq"/><use transform="matrix(0.010850694444444444,0,0,0.010850694444444444,39.69184027777777,0)" xlink:href="#ad"/><use transform="matrix(0.010850694444444444,0,0,0.010850694444444444,45.18229166666666,0)" xlink:href="#ar"/><use transform="matrix(0.010850694444444444,0,0,0.010850694444444444,57.67144097222221,0)" xlink:href="#ap"/><use transform="matrix(0.010850694444444444,0,0,0.010850694444444444,71.92925347222221,0)" xlink:href="#W"/><use transform="matrix(0.010850694444444444,0,0,0.010850694444444444,79.30772569444443,0)" xlink:href="#ac"/><use transform="matrix(0.010850694444444444,0,0,0.010850694444444444,91.78602430555556,0)" xlink:href="#W"/><use transform="matrix(0.010850694444444444,0,0,0.010850694444444444,99.05598958333331,0)" xlink:href="#as"/><use transform="matrix(0.010850694444444444,0,0,0.010850694444444444,115.2886284722222,0)" xlink:href="#at"/><use transform="matrix(0.010850694444444444,0,0,0.010850694444444444,128.42881944444443,0)" xlink:href="#ac"/><use transform="matrix(0.010850694444444444,0,0,0.010850694444444444,140.90711805555554,0)" xlink:href="#ai"/><use transform="matrix(0.010850694444444444,0,0,0.010850694444444444,154.03645833333331,0)" xlink:href="#au"/><use transform="matrix(0.010850694444444444,0,0,0.010850694444444444,167.66493055555554,0)" xlink:href="#S"/><use transform="matrix(0.010850694444444444,0,0,0.010850694444444444,180.62065972222223,0)" xlink:href="#av"/><use transform="matrix(0.010850694444444444,0,0,0.010850694444444444,188.47656249999994,0)" xlink:href="#U"/><use transform="matrix(0.010850694444444444,0,0,0.010850694444444444,201.17187499999994,0)" xlink:href="#at"/><use transform="matrix(0.010850694444444444,0,0,0.010850694444444444,214.31206597222223,0)" xlink:href="#ac"/><use transform="matrix(0.010850694444444444,0,0,0.010850694444444444,226.79036458333331,0)" xlink:href="#ai"/><use transform="matrix(0.010850694444444444,0,0,0.010850694444444444,239.91970486111111,0)" xlink:href="#au"/><use transform="matrix(0.010850694444444444,0,0,0.010850694444444444,253.54817708333331,0)" xlink:href="#S"/><use transform="matrix(0.010850694444444444,0,0,0.010850694444444444,266.50390625,0)" xlink:href="#an"/></g><path d="M96 279C273-86 346-350 346-607c0-292-95-659-250-974h175c150 246 258 650 258 974 0 297-91 602-258 886H96" id="aw"/><g id="l"><use transform="matrix(0.010850694444444444,0,0,0.010850694444444444,0,0)" xlink:href="#ap"/><use transform="matrix(0.010850694444444444,0,0,0.010850694444444444,14.2578125,0)" xlink:href="#W"/><use transform="matrix(0.010850694444444444,0,0,0.010850694444444444,21.63628472222222,0)" xlink:href="#ac"/><use transform="matrix(0.010850694444444444,0,0,0.010850694444444444,34.11458333333333,0)" xlink:href="#W"/><use transform="matrix(0.010850694444444444,0,0,0.010850694444444444,41.38454861111111,0)" xlink:href="#as"/><use transform="matrix(0.010850694444444444,0,0,0.010850694444444444,57.6171875,0)" xlink:href="#at"/><use transform="matrix(0.010850694444444444,0,0,0.010850694444444444,70.75737847222223,0)" xlink:href="#ac"/><use transform="matrix(0.010850694444444444,0,0,0.010850694444444444,83.23567708333334,0)" xlink:href="#ai"/><use transform="matrix(0.010850694444444444,0,0,0.010850694444444444,96.36501736111111,0)" xlink:href="#au"/><use transform="matrix(0.010850694444444444,0,0,0.010850694444444444,109.99348958333334,0)" xlink:href="#S"/><use transform="matrix(0.010850694444444444,0,0,0.010850694444444444,122.6996527777778,0)" xlink:href="#aw"/><use transform="matrix(0.010850694444444444,0,0,0.010850694444444444,130.80512152777777,0)" xlink:href="#an"/></g><g id="m"><use transform="matrix(0.010850694444444444,0,0,0.010850694444444444,0,0)" xlink:href="#ab"/><use transform="matrix(0.010850694444444444,0,0,0.010850694444444444,14.539930555555555,0)" xlink:href="#ac"/><use transform="matrix(0.010850694444444444,0,0,0.010850694444444444,27.018229166666664,0)" xlink:href="#W"/><use transform="matrix(0.010850694444444444,0,0,0.010850694444444444,33.74565972222222,0)" xlink:href="#W"/><use transform="matrix(0.010850694444444444,0,0,0.010850694444444444,41.015625,0)" xlink:href="#ad"/><use transform="matrix(0.010850694444444444,0,0,0.010850694444444444,46.39756944444444,0)" xlink:href="#S"/><use transform="matrix(0.010850694444444444,0,0,0.010850694444444444,59.35329861111111,0)" xlink:href="#ae"/><use transform="matrix(0.010850694444444444,0,0,0.010850694444444444,73.42664930555556,0)" xlink:href="#af"/><use transform="matrix(0.010850694444444444,0,0,0.010850694444444444,86.75130208333333,0)" xlink:href="#ag"/><use transform="matrix(0.010850694444444444,0,0,0.010850694444444444,98.44835069444444,0)" xlink:href="#S"/><use transform="matrix(0.010850694444444444,0,0,0.010850694444444444,111.4040798611111,0)" xlink:href="#ah"/><use transform="matrix(0.010850694444444444,0,0,0.010850694444444444,130.87022569444446,0)" xlink:href="#af"/><use transform="matrix(0.010850694444444444,0,0,0.010850694444444444,144.19487847222223,0)" xlink:href="#ai"/></g><g id="n"><use transform="matrix(0.010850694444444444,0,0,0.010850694444444444,0,0)" xlink:href="#ap"/><use transform="matrix(0.010850694444444444,0,0,0.010850694444444444,14.2578125,0)" xlink:href="#W"/><use transform="matrix(0.010850694444444444,0,0,0.010850694444444444,21.63628472222222,0)" xlink:href="#ac"/><use transform="matrix(0.010850694444444444,0,0,0.010850694444444444,34.11458333333333,0)" xlink:href="#W"/><use transform="matrix(0.010850694444444444,0,0,0.010850694444444444,41.16753472222222,0)" xlink:href="#ak"/></g><g id="o"><use transform="matrix(0.010850694444444444,0,0,0.010850694444444444,0,0)" xlink:href="#O"/><use transform="matrix(0.010850694444444444,0,0,0.010850694444444444,14.55078125,0)" xlink:href="#L"/><use transform="matrix(0.010850694444444444,0,0,0.010850694444444444,22.79730902777778,0)" xlink:href="#K"/><use transform="matrix(0.010850694444444444,0,0,0.010850694444444444,35.69878472222222,0)" xlink:href="#L"/></g><path d="M75-1237v-253h1217v253H837V0H531v-1237H75" id="ax"/><path d="M120 396l69-226c123 42 245 23 254-107l8-60L31-1118h319c87 288 199 559 259 872 72-308 185-583 277-872h315L726 132c-68 181-186 294-410 294-79 0-153-13-196-30" id="ay"/><path d="M128 418v-1536h295v188h14c41-89 129-202 319-202 248 0 453 193 453 575 0 372-197 576-455 576-183 0-275-108-317-198h-9v597H128zm534-640c156 0 240-139 240-336 0-196-83-334-240-334-154 0-241 131-241 334 0 202 88 336 241 336" id="az"/><g id="p"><use transform="matrix(0.010850694444444444,0,0,0.010850694444444444,0,0)" xlink:href="#ax"/><use transform="matrix(0.010850694444444444,0,0,0.010850694444444444,13.444010416666666,0)" xlink:href="#ay"/><use transform="matrix(0.010850694444444444,0,0,0.010850694444444444,26.822916666666664,0)" xlink:href="#az"/><use transform="matrix(0.010850694444444444,0,0,0.010850694444444444,40.83116319444444,0)" xlink:href="#N"/></g><path d="M135 0v-1490h581c339 0 533 210 533 503 0 295-197 500-540 500H440V0H135zm305-733h220c186 0 274-104 274-254s-88-251-275-251H440v505" id="aA"/><path d="M128 0v-1490h300v802h17l366-430h347L740-633 1179 0H826L514-456l-86 97V0H128" id="aB"/><path d="M128 0v-1118h278l12 217c60-163 185-234 319-234 143 0 236 81 288 251 63-172 205-251 359-251 205 0 357 138 357 381V0h-301v-697c0-126-76-187-177-187-114 0-184 79-184 196V0H789v-705c0-109-72-179-174-179-106 0-187 74-187 208V0H128" id="aC"/><g id="q"><use transform="matrix(0.010850694444444444,0,0,0.010850694444444444,0,0)" xlink:href="#aA"/><use transform="matrix(0.010850694444444444,0,0,0.010850694444444444,14.214409722222221,0)" xlink:href="#I"/><use transform="matrix(0.010850694444444444,0,0,0.010850694444444444,27.842881944444443,0)" xlink:href="#aB"/><use transform="matrix(0.010850694444444444,0,0,0.010850694444444444,40.234375,0)" xlink:href="#N"/><use transform="matrix(0.010850694444444444,0,0,0.010850694444444444,53.47222222222222,0)" xlink:href="#aC"/><use transform="matrix(0.010850694444444444,0,0,0.010850694444444444,73.75217013888889,0)" xlink:href="#I"/><use transform="matrix(0.010850694444444444,0,0,0.010850694444444444,87.38064236111111,0)" xlink:href="#aa"/></g><g id="r"><use transform="matrix(0.010850694444444444,0,0,0.010850694444444444,0,0)" xlink:href="#R"/><use transform="matrix(0.010850694444444444,0,0,0.010850694444444444,14.702690972222221,0)" xlink:href="#ai"/><use transform="matrix(0.010850694444444444,0,0,0.010850694444444444,27.83203125,0)" xlink:href="#ac"/><use transform="matrix(0.010850694444444444,0,0,0.010850694444444444,40.310329861111114,0)" xlink:href="#ah"/><use transform="matrix(0.010850694444444444,0,0,0.010850694444444444,59.77647569444444,0)" xlink:href="#S"/><use transform="matrix(0.010850694444444444,0,0,0.010850694444444444,72.73220486111111,0)" xlink:href="#an"/></g><path d="M158 0v-1118h174v172h12c41-113 157-188 290-188 26 0 70 2 91 3v181c-11-2-60-10-108-10-161 0-279 109-279 260V0H158" id="aD"/><g id="s"><use transform="matrix(0.010850694444444444,0,0,0.010850694444444444,0,0)" xlink:href="#ap"/><use transform="matrix(0.010850694444444444,0,0,0.010850694444444444,14.2578125,0)" xlink:href="#W"/><use transform="matrix(0.010850694444444444,0,0,0.010850694444444444,21.52777777777778,0)" xlink:href="#aD"/><use transform="matrix(0.010850694444444444,0,0,0.010850694444444444,30.240885416666664,0)" xlink:href="#aj"/><use transform="matrix(0.010850694444444444,0,0,0.010850694444444444,35.62282986111111,0)" xlink:href="#ai"/><use transform="matrix(0.010850694444444444,0,0,0.010850694444444444,48.752170138888886,0)" xlink:href="#au"/></g><use transform="matrix(0.010850694444444444,0,0,0.010850694444444444,0,0)" xlink:href="#R" id="t"/><g id="u"><use transform="matrix(0.010850694444444444,0,0,0.010850694444444444,0,0)" xlink:href="#W"/><use transform="matrix(0.010850694444444444,0,0,0.010850694444444444,7.703993055555555,0)" xlink:href="#ar"/><use transform="matrix(0.010850694444444444,0,0,0.010850694444444444,20.19314236111111,0)" xlink:href="#aq"/><use transform="matrix(0.010850694444444444,0,0,0.010850694444444444,33.79991319444444,0)" xlink:href="#S"/><use transform="matrix(0.010850694444444444,0,0,0.010850694444444444,46.75564236111111,0)" xlink:href="#ak"/><use transform="matrix(0.010850694444444444,0,0,0.010850694444444444,58.48524305555555,0)" xlink:href="#an"/></g><path d="M180 0v-1490h190v1322h690V0H180" id="aE"/><path d="M226 279v-1860h398v153H398V126h226v153H226" id="aF"/><path d="M98-1322v-168h1126v168H757V0H567v-1322H98" id="aG"/><path d="M123 279V126h226v-1554H123v-153h398V279H123" id="aH"/><g id="v"><use transform="matrix(0.010850694444444444,0,0,0.010850694444444444,0,0)" xlink:href="#aE"/><use transform="matrix(0.010850694444444444,0,0,0.010850694444444444,12.565104166666666,0)" xlink:href="#aj"/><use transform="matrix(0.010850694444444444,0,0,0.010850694444444444,17.94704861111111,0)" xlink:href="#ak"/><use transform="matrix(0.010850694444444444,0,0,0.010850694444444444,29.67664930555556,0)" xlink:href="#W"/><use transform="matrix(0.010850694444444444,0,0,0.010850694444444444,36.946614583333336,0)" xlink:href="#aF"/><use transform="matrix(0.010850694444444444,0,0,0.010850694444444444,45.05208333333333,0)" xlink:href="#aG"/><use transform="matrix(0.010850694444444444,0,0,0.010850694444444444,58.00781250000001,0)" xlink:href="#ar"/><use transform="matrix(0.010850694444444444,0,0,0.010850694444444444,70.49696180555556,0)" xlink:href="#aq"/><use transform="matrix(0.010850694444444444,0,0,0.010850694444444444,84.10373263888889,0)" xlink:href="#S"/><use transform="matrix(0.010850694444444444,0,0,0.010850694444444444,96.80989583333333,0)" xlink:href="#aH"/></g><g id="w"><use transform="matrix(0.010850694444444444,0,0,0.010850694444444444,0,0)" xlink:href="#at"/><use transform="matrix(0.010850694444444444,0,0,0.010850694444444444,13.140190972222221,0)" xlink:href="#aq"/><use transform="matrix(0.010850694444444444,0,0,0.010850694444444444,26.746961805555554,0)" xlink:href="#an"/></g><path d="M370-1490V0H180v-1490h190" id="aI"/><g id="x"><use transform="matrix(0.010850694444444444,0,0,0.010850694444444444,0,0)" xlink:href="#aI"/><use transform="matrix(0.010850694444444444,0,0,0.010850694444444444,5.967881944444445,0)" xlink:href="#ai"/><use transform="matrix(0.010850694444444444,0,0,0.010850694444444444,19.09722222222222,0)" xlink:href="#W"/></g><g id="y"><use transform="matrix(0.010850694444444444,0,0,0.010850694444444444,0,0)" xlink:href="#ak"/><use transform="matrix(0.010850694444444444,0,0,0.010850694444444444,11.729600694444445,0)" xlink:href="#W"/><use transform="matrix(0.010850694444444444,0,0,0.010850694444444444,19.108072916666668,0)" xlink:href="#ac"/><use transform="matrix(0.010850694444444444,0,0,0.010850694444444444,31.586371527777775,0)" xlink:href="#W"/><use transform="matrix(0.010850694444444444,0,0,0.010850694444444444,38.639322916666664,0)" xlink:href="#ak"/><use transform="matrix(0.010850694444444444,0,0,0.010850694444444444,50.36892361111111,0)" xlink:href="#an"/></g><g id="z"><use transform="matrix(0.010850694444444444,0,0,0.010850694444444444,0,0)" xlink:href="#ap"/><use transform="matrix(0.010850694444444444,0,0,0.010850694444444444,14.2578125,0)" xlink:href="#W"/><use transform="matrix(0.010850694444444444,0,0,0.010850694444444444,21.63628472222222,0)" xlink:href="#ac"/><use transform="matrix(0.010850694444444444,0,0,0.010850694444444444,34.11458333333333,0)" xlink:href="#W"/><use transform="matrix(0.010850694444444444,0,0,0.010850694444444444,41.16753472222222,0)" xlink:href="#ak"/></g><g id="A"><use transform="matrix(0.010850694444444444,0,0,0.010850694444444444,0,0)" xlink:href="#ac"/><use transform="matrix(0.010850694444444444,0,0,0.010850694444444444,12.47829861111111,0)" xlink:href="#ao"/><use transform="matrix(0.010850694444444444,0,0,0.010850694444444444,26.085069444444443,0)" xlink:href="#aj"/><use transform="matrix(0.010850694444444444,0,0,0.010850694444444444,31.46701388888889,0)" xlink:href="#ad"/><use transform="matrix(0.010850694444444444,0,0,0.010850694444444444,36.84895833333333,0)" xlink:href="#aj"/><use transform="matrix(0.010850694444444444,0,0,0.010850694444444444,42.23090277777777,0)" xlink:href="#W"/><use transform="matrix(0.010850694444444444,0,0,0.010850694444444444,49.93489583333333,0)" xlink:href="#ar"/><use transform="matrix(0.010850694444444444,0,0,0.010850694444444444,62.424045138888886,0)" xlink:href="#an"/></g><g id="B"><use transform="matrix(0.010850694444444444,0,0,0.010850694444444444,0,0)" xlink:href="#al"/><use transform="matrix(0.010850694444444444,0,0,0.010850694444444444,15.33203125,0)" xlink:href="#ao"/><use transform="matrix(0.010850694444444444,0,0,0.010850694444444444,28.938802083333332,0)" xlink:href="#aj"/><use transform="matrix(0.010850694444444444,0,0,0.010850694444444444,34.32074652777778,0)" xlink:href="#ad"/><use transform="matrix(0.010850694444444444,0,0,0.010850694444444444,39.70269097222222,0)" xlink:href="#aj"/><use transform="matrix(0.010850694444444444,0,0,0.010850694444444444,45.084635416666664,0)" xlink:href="#W"/><use transform="matrix(0.010850694444444444,0,0,0.010850694444444444,52.78862847222222,0)" xlink:href="#ar"/></g><g id="C"><use transform="matrix(0.010850694444444444,0,0,0.010850694444444444,0,0)" xlink:href="#R"/><use transform="matrix(0.010850694444444444,0,0,0.010850694444444444,14.702690972222221,0)" xlink:href="#ah"/><use transform="matrix(0.010850694444444444,0,0,0.010850694444444444,34.16883680555556,0)" xlink:href="#af"/><use transform="matrix(0.010850694444444444,0,0,0.010850694444444444,47.05946180555556,0)" xlink:href="#am"/><use transform="matrix(0.010850694444444444,0,0,0.010850694444444444,59.11458333333333,0)" xlink:href="#S"/><use transform="matrix(0.010850694444444444,0,0,0.010850694444444444,72.0703125,0)" xlink:href="#ak"/><use transform="matrix(0.010850694444444444,0,0,0.010850694444444444,83.79991319444444,0)" xlink:href="#an"/></g><path d="M180 0v-1490h270l367 940c28 72 75 218 110 339 35-117 81-264 110-339l362-940h271V0h-187c2-448-5-837 7-1287-157 497-311 829-483 1287H842C666-458 514-784 354-1284c12 438 5 843 7 1284H180" id="aJ"/><g id="D"><use transform="matrix(0.010850694444444444,0,0,0.010850694444444444,0,0)" xlink:href="#aE"/><use transform="matrix(0.010850694444444444,0,0,0.010850694444444444,12.565104166666666,0)" xlink:href="#aj"/><use transform="matrix(0.010850694444444444,0,0,0.010850694444444444,17.94704861111111,0)" xlink:href="#ak"/><use transform="matrix(0.010850694444444444,0,0,0.010850694444444444,29.67664930555556,0)" xlink:href="#W"/><use transform="matrix(0.010850694444444444,0,0,0.010850694444444444,36.946614583333336,0)" xlink:href="#aF"/><use transform="matrix(0.010850694444444444,0,0,0.010850694444444444,45.05208333333333,0)" xlink:href="#aJ"/><use transform="matrix(0.010850694444444444,0,0,0.010850694444444444,65.12586805555556,0)" xlink:href="#af"/><use transform="matrix(0.010850694444444444,0,0,0.010850694444444444,78.01649305555556,0)" xlink:href="#am"/><use transform="matrix(0.010850694444444444,0,0,0.010850694444444444,90.07161458333334,0)" xlink:href="#S"/><use transform="matrix(0.010850694444444444,0,0,0.010850694444444444,102.7777777777778,0)" xlink:href="#aH"/></g><path d="M49 0l509-1490h400L1480 0h-339l-115-346H497L386 0H49zm524-585h374c-75-213-124-402-192-666-66 268-110 453-182 666" id="aK"/><path d="M754 19C571 19 479-89 437-179h-14V0H128v-1490h300v560h9c41-89 129-202 319-202 248 0 453 193 453 575 0 372-197 576-455 576zm-92-241c156 0 240-139 240-336 0-196-83-334-240-334-154 0-241 131-241 334 0 202 88 336 241 336" id="aL"/><g id="E"><use transform="matrix(0.010850694444444444,0,0,0.010850694444444444,0,0)" xlink:href="#aK"/><use transform="matrix(0.010850694444444444,0,0,0.010850694444444444,16.590711805555554,0)" xlink:href="#aL"/><use transform="matrix(0.010850694444444444,0,0,0.010850694444444444,30.59895833333333,0)" xlink:href="#M"/><use transform="matrix(0.010850694444444444,0,0,0.010850694444444444,36.62109374999999,0)" xlink:href="#J"/><use transform="matrix(0.010850694444444444,0,0,0.010850694444444444,42.64322916666666,0)" xlink:href="#M"/><use transform="matrix(0.010850694444444444,0,0,0.010850694444444444,48.66536458333332,0)" xlink:href="#L"/><use transform="matrix(0.010850694444444444,0,0,0.010850694444444444,57.29166666666666,0)" xlink:href="#ay"/></g><path d="M135 0v-1490h468l242 684c30 94 76 293 111 455 34-161 80-360 110-455l238-684h470V0h-307c0-447-3-765 11-1227-122 503-246 788-395 1227H826C676-435 552-717 427-1215c15 453 11 775 11 1215H135" id="aM"/><path d="M443 0L31-1118h319c90 293 199 572 268 885 66-313 175-593 264-885h315L784 0H443" id="aN"/><g id="F"><use transform="matrix(0.010850694444444444,0,0,0.010850694444444444,0,0)" xlink:href="#aM"/><use transform="matrix(0.010850694444444444,0,0,0.010850694444444444,20.703125,0)" xlink:href="#I"/><use transform="matrix(0.010850694444444444,0,0,0.010850694444444444,33.93012152777778,0)" xlink:href="#aN"/><use transform="matrix(0.010850694444444444,0,0,0.010850694444444444,46.85329861111111,0)" xlink:href="#N"/></g><g id="G"><use transform="matrix(0.010850694444444444,0,0,0.010850694444444444,0,0)" xlink:href="#ap"/><use transform="matrix(0.010850694444444444,0,0,0.010850694444444444,14.2578125,0)" xlink:href="#W"/><use transform="matrix(0.010850694444444444,0,0,0.010850694444444444,21.63628472222222,0)" xlink:href="#ac"/><use transform="matrix(0.010850694444444444,0,0,0.010850694444444444,34.11458333333333,0)" xlink:href="#W"/><use transform="matrix(0.010850694444444444,0,0,0.010850694444444444,41.38454861111111,0)" xlink:href="#as"/><use transform="matrix(0.010850694444444444,0,0,0.010850694444444444,57.6171875,0)" xlink:href="#at"/><use transform="matrix(0.010850694444444444,0,0,0.010850694444444444,70.75737847222223,0)" xlink:href="#ac"/><use transform="matrix(0.010850694444444444,0,0,0.010850694444444444,83.23567708333334,0)" xlink:href="#ai"/><use transform="matrix(0.010850694444444444,0,0,0.010850694444444444,96.36501736111111,0)" xlink:href="#au"/><use transform="matrix(0.010850694444444444,0,0,0.010850694444444444,109.99348958333334,0)" xlink:href="#S"/></g></defs></g></svg>